<svg width="363" height="758" viewBox="0 0 363 758" fill="none" xmlns="http://www.w3.org/2000/svg">
<path d="M14.0571 689.251C12.8804 689.251 11.9502 689.645 11.2666 690.431C10.5879 691.212 10.2485 692.284 10.2485 693.646C10.2485 695.047 10.5757 696.131 11.23 696.898C11.8892 697.66 12.8267 698.041 14.0425 698.041C14.7896 698.041 15.6416 697.906 16.5986 697.638V698.729C15.8564 699.007 14.9409 699.146 13.8521 699.146C12.2749 699.146 11.0566 698.668 10.1973 697.711C9.34277 696.754 8.91553 695.394 8.91553 693.631C8.91553 692.528 9.12061 691.561 9.53076 690.731C9.9458 689.901 10.5415 689.261 11.3179 688.812C12.0991 688.363 13.0171 688.138 14.0718 688.138C15.1948 688.138 16.1763 688.343 17.0161 688.753L16.4888 689.823C15.6782 689.442 14.8677 689.251 14.0571 689.251ZM26.1807 694.979C26.1807 696.288 25.8511 697.311 25.1919 698.048C24.5327 698.78 23.6221 699.146 22.46 699.146C21.7422 699.146 21.105 698.978 20.5483 698.641C19.9917 698.304 19.562 697.821 19.2593 697.191C18.9565 696.561 18.8052 695.824 18.8052 694.979C18.8052 693.67 19.1323 692.652 19.7866 691.925C20.4409 691.192 21.3491 690.826 22.5112 690.826C23.6343 690.826 24.5254 691.2 25.1846 691.947C25.8486 692.694 26.1807 693.705 26.1807 694.979ZM20.0649 694.979C20.0649 696.004 20.27 696.786 20.6802 697.323C21.0903 697.86 21.6934 698.128 22.4893 698.128C23.2852 698.128 23.8882 697.862 24.2983 697.33C24.7134 696.793 24.9209 696.009 24.9209 694.979C24.9209 693.958 24.7134 693.185 24.2983 692.657C23.8882 692.125 23.2803 691.859 22.4746 691.859C21.6787 691.859 21.0781 692.12 20.6729 692.643C20.2676 693.165 20.0649 693.944 20.0649 694.979ZM34.3125 699V693.807C34.3125 693.153 34.1636 692.665 33.8657 692.342C33.5679 692.02 33.1016 691.859 32.4668 691.859C31.627 691.859 31.0117 692.086 30.6211 692.54C30.2305 692.994 30.0352 693.744 30.0352 694.789V699H28.8193V690.973H29.8081L30.0059 692.071H30.0645C30.3135 691.676 30.6626 691.371 31.1118 691.156C31.561 690.936 32.0615 690.826 32.6133 690.826C33.5801 690.826 34.3076 691.061 34.7959 691.529C35.2842 691.993 35.5283 692.738 35.5283 693.763V699H34.3125ZM43.7114 696.81C43.7114 697.557 43.4331 698.133 42.8765 698.539C42.3198 698.944 41.5386 699.146 40.5327 699.146C39.4683 699.146 38.6382 698.978 38.0425 698.641V697.513C38.4282 697.708 38.8408 697.862 39.2803 697.975C39.7246 698.087 40.1519 698.143 40.562 698.143C41.1968 698.143 41.6851 698.043 42.0269 697.843C42.3687 697.638 42.5396 697.328 42.5396 696.913C42.5396 696.6 42.4028 696.334 42.1294 696.114C41.8608 695.89 41.3335 695.626 40.5474 695.323C39.8003 695.045 39.2681 694.803 38.9507 694.598C38.6382 694.388 38.4038 694.151 38.2476 693.888C38.0962 693.624 38.0205 693.309 38.0205 692.943C38.0205 692.289 38.2866 691.773 38.8188 691.397C39.3511 691.017 40.0811 690.826 41.0088 690.826C41.873 690.826 42.7178 691.002 43.543 691.354L43.1108 692.342C42.3052 692.01 41.5752 691.844 40.9209 691.844C40.3447 691.844 39.9102 691.935 39.6172 692.115C39.3242 692.296 39.1777 692.545 39.1777 692.862C39.1777 693.077 39.2314 693.26 39.3389 693.412C39.4512 693.563 39.6294 693.707 39.8735 693.844C40.1177 693.98 40.5864 694.178 41.2798 694.437C42.2319 694.784 42.874 695.133 43.2061 695.484C43.543 695.836 43.7114 696.278 43.7114 696.81ZM49.5874 699.146C48.4009 699.146 47.4634 698.785 46.7749 698.062C46.0913 697.34 45.7495 696.336 45.7495 695.052C45.7495 693.758 46.0669 692.73 46.7017 691.969C47.3413 691.207 48.1982 690.826 49.2725 690.826C50.2783 690.826 51.0742 691.158 51.6602 691.822C52.2461 692.481 52.5391 693.353 52.5391 694.437V695.206H47.0093C47.0337 696.148 47.2705 696.864 47.7197 697.352C48.1738 697.84 48.811 698.084 49.6313 698.084C50.4956 698.084 51.3501 697.904 52.1948 697.542V698.626C51.7651 698.812 51.3574 698.944 50.9717 699.022C50.5908 699.105 50.1294 699.146 49.5874 699.146ZM49.2578 691.844C48.6133 691.844 48.0981 692.054 47.7124 692.474C47.3315 692.894 47.1069 693.475 47.0386 694.217H51.2354C51.2354 693.451 51.0645 692.865 50.7227 692.459C50.3809 692.049 49.8926 691.844 49.2578 691.844ZM58.3271 699.146C57.165 699.146 56.2642 698.79 55.6245 698.077C54.9897 697.359 54.6724 696.346 54.6724 695.038C54.6724 693.695 54.9946 692.657 55.6392 691.925C56.2886 691.192 57.2114 690.826 58.4077 690.826C58.7935 690.826 59.1792 690.868 59.5649 690.951C59.9507 691.034 60.2534 691.131 60.4731 691.244L60.0996 692.276C59.8311 692.169 59.5381 692.081 59.2207 692.013C58.9033 691.939 58.6226 691.903 58.3784 691.903C56.7476 691.903 55.9321 692.943 55.9321 695.023C55.9321 696.009 56.1299 696.766 56.5254 697.293C56.9258 697.821 57.5166 698.084 58.2979 698.084C58.9668 698.084 59.6528 697.94 60.356 697.652V698.729C59.8188 699.007 59.1426 699.146 58.3271 699.146ZM65.3604 698.143C65.5752 698.143 65.7827 698.128 65.9829 698.099C66.1831 698.065 66.3418 698.031 66.459 697.997V698.927C66.3271 698.99 66.1318 699.042 65.873 699.081C65.6191 699.125 65.3896 699.146 65.1846 699.146C63.6318 699.146 62.8555 698.329 62.8555 696.693V691.917H61.7056V691.332L62.8555 690.826L63.3682 689.112H64.0713V690.973H66.4004V691.917H64.0713V696.642C64.0713 697.125 64.186 697.496 64.4155 697.755C64.645 698.014 64.96 698.143 65.3604 698.143ZM71.9614 699.146C70.7749 699.146 69.8374 698.785 69.1489 698.062C68.4653 697.34 68.1235 696.336 68.1235 695.052C68.1235 693.758 68.4409 692.73 69.0757 691.969C69.7153 691.207 70.5723 690.826 71.6465 690.826C72.6523 690.826 73.4482 691.158 74.0342 691.822C74.6201 692.481 74.9131 693.353 74.9131 694.437V695.206H69.3833C69.4077 696.148 69.6445 696.864 70.0938 697.352C70.5479 697.84 71.1851 698.084 72.0054 698.084C72.8696 698.084 73.7241 697.904 74.5688 697.542V698.626C74.1392 698.812 73.7314 698.944 73.3457 699.022C72.9648 699.105 72.5034 699.146 71.9614 699.146ZM71.6318 691.844C70.9873 691.844 70.4722 692.054 70.0864 692.474C69.7056 692.894 69.481 693.475 69.4126 694.217H73.6094C73.6094 693.451 73.4385 692.865 73.0967 692.459C72.7549 692.049 72.2666 691.844 71.6318 691.844ZM80.0859 698.143C80.3008 698.143 80.5083 698.128 80.7085 698.099C80.9087 698.065 81.0674 698.031 81.1846 697.997V698.927C81.0527 698.99 80.8574 699.042 80.5986 699.081C80.3447 699.125 80.1152 699.146 79.9102 699.146C78.3574 699.146 77.5811 698.329 77.5811 696.693V691.917H76.4312V691.332L77.5811 690.826L78.0938 689.112H78.7969V690.973H81.126V691.917H78.7969V696.642C78.7969 697.125 78.9116 697.496 79.1411 697.755C79.3706 698.014 79.6855 698.143 80.0859 698.143ZM84.4385 690.973V696.18C84.4385 696.834 84.5874 697.323 84.8853 697.645C85.1831 697.967 85.6494 698.128 86.2842 698.128C87.124 698.128 87.7368 697.899 88.1226 697.44C88.5132 696.981 88.7085 696.231 88.7085 695.191V690.973H89.9243V699H88.9209L88.7451 697.923H88.6792C88.4302 698.319 88.0835 698.622 87.6392 698.832C87.1997 699.042 86.6968 699.146 86.1304 699.146C85.1538 699.146 84.4214 698.915 83.9331 698.451C83.4497 697.987 83.208 697.245 83.208 696.224V690.973H84.4385ZM96.6719 690.826C97.0283 690.826 97.3481 690.855 97.6313 690.914L97.4629 692.042C97.1309 691.969 96.8379 691.932 96.584 691.932C95.9346 691.932 95.3779 692.196 94.9141 692.723C94.4551 693.25 94.2256 693.907 94.2256 694.693V699H93.0098V690.973H94.0132L94.1523 692.459H94.2109C94.5088 691.937 94.8677 691.534 95.2876 691.251C95.7075 690.968 96.1689 690.826 96.6719 690.826ZM105.787 699L102.74 690.973H104.044L105.772 695.733C106.163 696.847 106.393 697.569 106.461 697.901H106.52C106.573 697.643 106.742 697.108 107.025 696.297C107.313 695.482 107.955 693.707 108.951 690.973H110.255L107.208 699H105.787ZM115.435 699.146C114.249 699.146 113.311 698.785 112.623 698.062C111.939 697.34 111.597 696.336 111.597 695.052C111.597 693.758 111.915 692.73 112.549 691.969C113.189 691.207 114.046 690.826 115.12 690.826C116.126 690.826 116.922 691.158 117.508 691.822C118.094 692.481 118.387 693.353 118.387 694.437V695.206H112.857C112.881 696.148 113.118 696.864 113.567 697.352C114.021 697.84 114.659 698.084 115.479 698.084C116.343 698.084 117.198 697.904 118.042 697.542V698.626C117.613 698.812 117.205 698.944 116.819 699.022C116.438 699.105 115.977 699.146 115.435 699.146ZM115.105 691.844C114.461 691.844 113.946 692.054 113.56 692.474C113.179 692.894 112.955 693.475 112.886 694.217H117.083C117.083 693.451 116.912 692.865 116.57 692.459C116.229 692.049 115.74 691.844 115.105 691.844ZM126.145 696.81C126.145 697.557 125.867 698.133 125.31 698.539C124.753 698.944 123.972 699.146 122.966 699.146C121.902 699.146 121.072 698.978 120.476 698.641V697.513C120.862 697.708 121.274 697.862 121.714 697.975C122.158 698.087 122.585 698.143 122.996 698.143C123.63 698.143 124.119 698.043 124.46 697.843C124.802 697.638 124.973 697.328 124.973 696.913C124.973 696.6 124.836 696.334 124.563 696.114C124.294 695.89 123.767 695.626 122.981 695.323C122.234 695.045 121.702 694.803 121.384 694.598C121.072 694.388 120.837 694.151 120.681 693.888C120.53 693.624 120.454 693.309 120.454 692.943C120.454 692.289 120.72 691.773 121.252 691.397C121.785 691.017 122.515 690.826 123.442 690.826C124.307 690.826 125.151 691.002 125.977 691.354L125.544 692.342C124.739 692.01 124.009 691.844 123.354 691.844C122.778 691.844 122.344 691.935 122.051 692.115C121.758 692.296 121.611 692.545 121.611 692.862C121.611 693.077 121.665 693.26 121.772 693.412C121.885 693.563 122.063 693.707 122.307 693.844C122.551 693.98 123.02 694.178 123.713 694.437C124.666 694.784 125.308 695.133 125.64 695.484C125.977 695.836 126.145 696.278 126.145 696.81ZM131.223 698.143C131.438 698.143 131.645 698.128 131.845 698.099C132.045 698.065 132.204 698.031 132.321 697.997V698.927C132.189 698.99 131.994 699.042 131.735 699.081C131.481 699.125 131.252 699.146 131.047 699.146C129.494 699.146 128.718 698.329 128.718 696.693V691.917H127.568V691.332L128.718 690.826L129.23 689.112H129.934V690.973H132.263V691.917H129.934V696.642C129.934 697.125 130.048 697.496 130.278 697.755C130.507 698.014 130.822 698.143 131.223 698.143ZM135.648 699H134.433V690.973H135.648V699ZM134.33 688.797C134.33 688.519 134.398 688.316 134.535 688.189C134.672 688.058 134.843 687.992 135.048 687.992C135.243 687.992 135.412 688.058 135.553 688.189C135.695 688.321 135.766 688.524 135.766 688.797C135.766 689.071 135.695 689.276 135.553 689.413C135.412 689.544 135.243 689.61 135.048 689.61C134.843 689.61 134.672 689.544 134.535 689.413C134.398 689.276 134.33 689.071 134.33 688.797ZM142.462 690.841C143.517 690.841 144.334 691.202 144.916 691.925C145.501 692.643 145.794 693.661 145.794 694.979C145.794 696.297 145.499 697.323 144.908 698.055C144.322 698.783 143.507 699.146 142.462 699.146C141.939 699.146 141.461 699.051 141.026 698.861C140.597 698.666 140.235 698.368 139.942 697.967H139.854L139.598 699H138.727V687.604H139.942V690.372C139.942 690.992 139.923 691.549 139.884 692.042H139.942C140.509 691.241 141.349 690.841 142.462 690.841ZM142.286 691.859C141.456 691.859 140.858 692.098 140.492 692.577C140.125 693.05 139.942 693.851 139.942 694.979C139.942 696.107 140.13 696.915 140.506 697.403C140.882 697.887 141.485 698.128 142.315 698.128C143.062 698.128 143.619 697.857 143.985 697.315C144.352 696.769 144.535 695.985 144.535 694.964C144.535 693.919 144.352 693.141 143.985 692.628C143.619 692.115 143.053 691.859 142.286 691.859ZM149.568 690.973V696.18C149.568 696.834 149.717 697.323 150.015 697.645C150.313 697.967 150.779 698.128 151.414 698.128C152.254 698.128 152.867 697.899 153.252 697.44C153.643 696.981 153.838 696.231 153.838 695.191V690.973H155.054V699H154.051L153.875 697.923H153.809C153.56 698.319 153.213 698.622 152.769 698.832C152.33 699.042 151.827 699.146 151.26 699.146C150.284 699.146 149.551 698.915 149.063 698.451C148.58 697.987 148.338 697.245 148.338 696.224V690.973H149.568ZM159.355 699H158.14V687.604H159.355V699ZM163.576 690.973V696.18C163.576 696.834 163.725 697.323 164.023 697.645C164.321 697.967 164.787 698.128 165.422 698.128C166.262 698.128 166.875 697.899 167.26 697.44C167.651 696.981 167.846 696.231 167.846 695.191V690.973H169.062V699H168.059L167.883 697.923H167.817C167.568 698.319 167.221 698.622 166.777 698.832C166.337 699.042 165.834 699.146 165.268 699.146C164.292 699.146 163.559 698.915 163.071 698.451C162.587 697.987 162.346 697.245 162.346 696.224V690.973H163.576ZM182.379 699V693.778C182.379 693.138 182.243 692.66 181.969 692.342C181.696 692.02 181.271 691.859 180.695 691.859C179.938 691.859 179.379 692.076 179.018 692.511C178.656 692.945 178.476 693.614 178.476 694.518V699H177.26V693.778C177.26 693.138 177.123 692.66 176.85 692.342C176.576 692.02 176.149 691.859 175.568 691.859C174.806 691.859 174.247 692.088 173.891 692.547C173.539 693.001 173.363 693.749 173.363 694.789V699H172.147V690.973H173.136L173.334 692.071H173.393C173.622 691.681 173.944 691.375 174.359 691.156C174.779 690.936 175.248 690.826 175.766 690.826C177.021 690.826 177.841 691.28 178.227 692.188H178.285C178.524 691.769 178.871 691.437 179.325 691.192C179.779 690.948 180.297 690.826 180.878 690.826C181.786 690.826 182.465 691.061 182.914 691.529C183.368 691.993 183.595 692.738 183.595 693.763V699H182.379ZM201.236 699V693.778C201.236 693.138 201.099 692.66 200.826 692.342C200.552 692.02 200.127 691.859 199.551 691.859C198.794 691.859 198.235 692.076 197.874 692.511C197.513 692.945 197.332 693.614 197.332 694.518V699H196.116V693.778C196.116 693.138 195.979 692.66 195.706 692.342C195.433 692.02 195.005 691.859 194.424 691.859C193.663 691.859 193.104 692.088 192.747 692.547C192.396 693.001 192.22 693.749 192.22 694.789V699H191.004V690.973H191.993L192.19 692.071H192.249C192.479 691.681 192.801 691.375 193.216 691.156C193.636 690.936 194.104 690.826 194.622 690.826C195.877 690.826 196.697 691.28 197.083 692.188H197.142C197.381 691.769 197.728 691.437 198.182 691.192C198.636 690.948 199.153 690.826 199.734 690.826C200.643 690.826 201.321 691.061 201.771 691.529C202.225 691.993 202.452 692.738 202.452 693.763V699H201.236ZM210.4 699L210.159 697.857H210.1C209.7 698.36 209.299 698.702 208.899 698.883C208.503 699.059 208.008 699.146 207.412 699.146C206.616 699.146 205.991 698.941 205.537 698.531C205.088 698.121 204.863 697.538 204.863 696.781C204.863 695.16 206.16 694.31 208.752 694.232L210.115 694.188V693.69C210.115 693.06 209.978 692.596 209.705 692.298C209.436 691.996 209.004 691.844 208.408 691.844C207.739 691.844 206.982 692.049 206.138 692.459L205.764 691.529C206.16 691.314 206.592 691.146 207.061 691.024C207.534 690.902 208.008 690.841 208.481 690.841C209.438 690.841 210.146 691.053 210.605 691.478C211.069 691.903 211.301 692.584 211.301 693.521V699H210.4ZM207.654 698.143C208.411 698.143 209.004 697.936 209.434 697.521C209.868 697.105 210.085 696.524 210.085 695.777V695.052L208.87 695.104C207.903 695.138 207.205 695.289 206.775 695.558C206.35 695.821 206.138 696.234 206.138 696.795C206.138 697.235 206.27 697.569 206.533 697.799C206.802 698.028 207.175 698.143 207.654 698.143ZM217.705 699.146C216.518 699.146 215.581 698.785 214.892 698.062C214.208 697.34 213.867 696.336 213.867 695.052C213.867 693.758 214.184 692.73 214.819 691.969C215.458 691.207 216.315 690.826 217.39 690.826C218.396 690.826 219.191 691.158 219.777 691.822C220.363 692.481 220.656 693.353 220.656 694.437V695.206H215.126C215.151 696.148 215.388 696.864 215.837 697.352C216.291 697.84 216.928 698.084 217.749 698.084C218.613 698.084 219.467 697.904 220.312 697.542V698.626C219.882 698.812 219.475 698.944 219.089 699.022C218.708 699.105 218.247 699.146 217.705 699.146ZM217.375 691.844C216.73 691.844 216.215 692.054 215.83 692.474C215.449 692.894 215.224 693.475 215.156 694.217H219.353C219.353 693.451 219.182 692.865 218.84 692.459C218.498 692.049 218.01 691.844 217.375 691.844ZM226.444 699.146C225.282 699.146 224.381 698.79 223.742 698.077C223.107 697.359 222.79 696.346 222.79 695.038C222.79 693.695 223.112 692.657 223.756 691.925C224.406 691.192 225.329 690.826 226.525 690.826C226.911 690.826 227.296 690.868 227.682 690.951C228.068 691.034 228.371 691.131 228.59 691.244L228.217 692.276C227.948 692.169 227.655 692.081 227.338 692.013C227.021 691.939 226.74 691.903 226.496 691.903C224.865 691.903 224.049 692.943 224.049 695.023C224.049 696.009 224.247 696.766 224.643 697.293C225.043 697.821 225.634 698.084 226.415 698.084C227.084 698.084 227.77 697.94 228.473 697.652V698.729C227.936 699.007 227.26 699.146 226.444 699.146ZM234.276 699.146C233.089 699.146 232.152 698.785 231.463 698.062C230.78 697.34 230.438 696.336 230.438 695.052C230.438 693.758 230.755 692.73 231.39 691.969C232.03 691.207 232.887 690.826 233.961 690.826C234.967 690.826 235.763 691.158 236.349 691.822C236.935 692.481 237.228 693.353 237.228 694.437V695.206H231.698C231.722 696.148 231.959 696.864 232.408 697.352C232.862 697.84 233.5 698.084 234.32 698.084C235.184 698.084 236.039 697.904 236.883 697.542V698.626C236.454 698.812 236.046 698.944 235.66 699.022C235.279 699.105 234.818 699.146 234.276 699.146ZM233.946 691.844C233.302 691.844 232.787 692.054 232.401 692.474C232.02 692.894 231.795 693.475 231.727 694.217H235.924C235.924 693.451 235.753 692.865 235.411 692.459C235.069 692.049 234.581 691.844 233.946 691.844ZM245.301 699V693.807C245.301 693.153 245.152 692.665 244.854 692.342C244.556 692.02 244.09 691.859 243.455 691.859C242.615 691.859 242 692.086 241.609 692.54C241.219 692.994 241.023 693.744 241.023 694.789V699H239.808V690.973H240.796L240.994 692.071H241.053C241.302 691.676 241.651 691.371 242.1 691.156C242.549 690.936 243.05 690.826 243.602 690.826C244.568 690.826 245.296 691.061 245.784 691.529C246.272 691.993 246.517 692.738 246.517 693.763V699H245.301ZM254.458 699L254.216 697.857H254.158C253.757 698.36 253.357 698.702 252.957 698.883C252.561 699.059 252.065 699.146 251.47 699.146C250.674 699.146 250.049 698.941 249.595 698.531C249.146 698.121 248.921 697.538 248.921 696.781C248.921 695.16 250.217 694.31 252.81 694.232L254.172 694.188V693.69C254.172 693.06 254.036 692.596 253.762 692.298C253.494 691.996 253.062 691.844 252.466 691.844C251.797 691.844 251.04 692.049 250.195 692.459L249.822 691.529C250.217 691.314 250.649 691.146 251.118 691.024C251.592 690.902 252.065 690.841 252.539 690.841C253.496 690.841 254.204 691.053 254.663 691.478C255.127 691.903 255.359 692.584 255.359 693.521V699H254.458ZM251.711 698.143C252.468 698.143 253.062 697.936 253.491 697.521C253.926 697.105 254.143 696.524 254.143 695.777V695.052L252.927 695.104C251.96 695.138 251.262 695.289 250.833 695.558C250.408 695.821 250.195 696.234 250.195 696.795C250.195 697.235 250.327 697.569 250.591 697.799C250.859 698.028 251.233 698.143 251.711 698.143ZM263.549 696.81C263.549 697.557 263.271 698.133 262.714 698.539C262.158 698.944 261.376 699.146 260.371 699.146C259.306 699.146 258.476 698.978 257.88 698.641V697.513C258.266 697.708 258.679 697.862 259.118 697.975C259.562 698.087 259.99 698.143 260.4 698.143C261.035 698.143 261.523 698.043 261.865 697.843C262.207 697.638 262.377 697.328 262.377 696.913C262.377 696.6 262.241 696.334 261.967 696.114C261.699 695.89 261.171 695.626 260.385 695.323C259.638 695.045 259.106 694.803 258.789 694.598C258.476 694.388 258.242 694.151 258.085 693.888C257.934 693.624 257.858 693.309 257.858 692.943C257.858 692.289 258.125 691.773 258.657 691.397C259.189 691.017 259.919 690.826 260.847 690.826C261.711 690.826 262.556 691.002 263.381 691.354L262.949 692.342C262.143 692.01 261.413 691.844 260.759 691.844C260.183 691.844 259.748 691.935 259.455 692.115C259.162 692.296 259.016 692.545 259.016 692.862C259.016 693.077 259.069 693.26 259.177 693.412C259.289 693.563 259.467 693.707 259.711 693.844C259.956 693.98 260.424 694.178 261.118 694.437C262.07 694.784 262.712 695.133 263.044 695.484C263.381 695.836 263.549 696.278 263.549 696.81ZM273.639 699.146C272.477 699.146 271.576 698.79 270.936 698.077C270.301 697.359 269.984 696.346 269.984 695.038C269.984 693.695 270.306 692.657 270.951 691.925C271.6 691.192 272.523 690.826 273.719 690.826C274.105 690.826 274.491 690.868 274.876 690.951C275.262 691.034 275.565 691.131 275.785 691.244L275.411 692.276C275.143 692.169 274.85 692.081 274.532 692.013C274.215 691.939 273.934 691.903 273.69 691.903C272.059 691.903 271.244 692.943 271.244 695.023C271.244 696.009 271.441 696.766 271.837 697.293C272.237 697.821 272.828 698.084 273.609 698.084C274.278 698.084 274.964 697.94 275.667 697.652V698.729C275.13 699.007 274.454 699.146 273.639 699.146ZM279.222 690.973V696.18C279.222 696.834 279.371 697.323 279.668 697.645C279.966 697.967 280.433 698.128 281.067 698.128C281.907 698.128 282.52 697.899 282.906 697.44C283.296 696.981 283.492 696.231 283.492 695.191V690.973H284.708V699H283.704L283.528 697.923H283.462C283.213 698.319 282.867 698.622 282.422 698.832C281.983 699.042 281.48 699.146 280.914 699.146C279.937 699.146 279.205 698.915 278.716 698.451C278.233 697.987 277.991 697.245 277.991 696.224V690.973H279.222ZM291.455 690.826C291.812 690.826 292.131 690.855 292.415 690.914L292.246 692.042C291.914 691.969 291.621 691.932 291.367 691.932C290.718 691.932 290.161 692.196 289.697 692.723C289.238 693.25 289.009 693.907 289.009 694.693V699H287.793V690.973H288.796L288.936 692.459H288.994C289.292 691.937 289.651 691.534 290.071 691.251C290.491 690.968 290.952 690.826 291.455 690.826ZM299.353 699L299.111 697.857H299.052C298.652 698.36 298.251 698.702 297.851 698.883C297.456 699.059 296.96 699.146 296.364 699.146C295.568 699.146 294.943 698.941 294.489 698.531C294.04 698.121 293.815 697.538 293.815 696.781C293.815 695.16 295.112 694.31 297.705 694.232L299.067 694.188V693.69C299.067 693.06 298.93 692.596 298.657 692.298C298.388 691.996 297.956 691.844 297.36 691.844C296.691 691.844 295.935 692.049 295.09 692.459L294.716 691.529C295.112 691.314 295.544 691.146 296.013 691.024C296.486 690.902 296.96 690.841 297.434 690.841C298.391 690.841 299.099 691.053 299.558 691.478C300.021 691.903 300.253 692.584 300.253 693.521V699H299.353ZM296.606 698.143C297.363 698.143 297.956 697.936 298.386 697.521C298.82 697.105 299.038 696.524 299.038 695.777V695.052L297.822 695.104C296.855 695.138 296.157 695.289 295.727 695.558C295.302 695.821 295.09 696.234 295.09 696.795C295.09 697.235 295.222 697.569 295.485 697.799C295.754 698.028 296.127 698.143 296.606 698.143ZM307.001 690.841C308.056 690.841 308.874 691.202 309.455 691.925C310.041 692.643 310.333 693.661 310.333 694.979C310.333 696.297 310.038 697.323 309.447 698.055C308.861 698.783 308.046 699.146 307.001 699.146C306.479 699.146 306 699.051 305.565 698.861C305.136 698.666 304.774 698.368 304.481 697.967H304.394L304.137 699H303.266V687.604H304.481V690.372C304.481 690.992 304.462 691.549 304.423 692.042H304.481C305.048 691.241 305.888 690.841 307.001 690.841ZM306.825 691.859C305.995 691.859 305.397 692.098 305.031 692.577C304.665 693.05 304.481 693.851 304.481 694.979C304.481 696.107 304.669 696.915 305.045 697.403C305.421 697.887 306.024 698.128 306.854 698.128C307.602 698.128 308.158 697.857 308.524 697.315C308.891 696.769 309.074 695.985 309.074 694.964C309.074 693.919 308.891 693.141 308.524 692.628C308.158 692.115 307.592 691.859 306.825 691.859ZM314.181 699H312.965V690.973H314.181V699ZM312.862 688.797C312.862 688.519 312.931 688.316 313.067 688.189C313.204 688.058 313.375 687.992 313.58 687.992C313.775 687.992 313.944 688.058 314.085 688.189C314.227 688.321 314.298 688.524 314.298 688.797C314.298 689.071 314.227 689.276 314.085 689.413C313.944 689.544 313.775 689.61 313.58 689.61C313.375 689.61 313.204 689.544 313.067 689.413C312.931 689.276 312.862 689.071 312.862 688.797ZM319.852 698.143C320.066 698.143 320.274 698.128 320.474 698.099C320.674 698.065 320.833 698.031 320.95 697.997V698.927C320.818 698.99 320.623 699.042 320.364 699.081C320.11 699.125 319.881 699.146 319.676 699.146C318.123 699.146 317.347 698.329 317.347 696.693V691.917H316.197V691.332L317.347 690.826L317.859 689.112H318.562V690.973H320.892V691.917H318.562V696.642C318.562 697.125 318.677 697.496 318.907 697.755C319.136 698.014 319.451 698.143 319.852 698.143ZM324.204 690.973V696.18C324.204 696.834 324.353 697.323 324.651 697.645C324.949 697.967 325.415 698.128 326.05 698.128C326.89 698.128 327.502 697.899 327.888 697.44C328.279 696.981 328.474 696.231 328.474 695.191V690.973H329.69V699H328.687L328.511 697.923H328.445C328.196 698.319 327.849 698.622 327.405 698.832C326.965 699.042 326.462 699.146 325.896 699.146C324.919 699.146 324.187 698.915 323.699 698.451C323.215 697.987 322.974 697.245 322.974 696.224V690.973H324.204ZM336.438 690.826C336.794 690.826 337.114 690.855 337.397 690.914L337.229 692.042C336.896 691.969 336.604 691.932 336.35 691.932C335.7 691.932 335.144 692.196 334.68 692.723C334.221 693.25 333.991 693.907 333.991 694.693V699H332.775V690.973H333.779L333.918 692.459H333.977C334.274 691.937 334.633 691.534 335.053 691.251C335.473 690.968 335.935 690.826 336.438 690.826ZM14.7822 725V719.807C14.7822 719.153 14.6333 718.665 14.3354 718.342C14.0376 718.02 13.5713 717.859 12.9365 717.859C12.0918 717.859 11.4741 718.088 11.0835 718.547C10.6978 719.006 10.5049 719.758 10.5049 720.803V725H9.28906V713.604H10.5049V717.053C10.5049 717.468 10.4854 717.812 10.4463 718.086H10.5195C10.7588 717.7 11.0981 717.397 11.5376 717.178C11.9819 716.953 12.4873 716.841 13.0537 716.841C14.0352 716.841 14.77 717.075 15.2583 717.544C15.7515 718.008 15.998 718.748 15.998 719.763V725H14.7822ZM23.9395 725L23.6978 723.857H23.6392C23.2388 724.36 22.8384 724.702 22.438 724.883C22.0425 725.059 21.5469 725.146 20.9512 725.146C20.1553 725.146 19.5303 724.941 19.0762 724.531C18.627 724.121 18.4023 723.538 18.4023 722.781C18.4023 721.16 19.6987 720.31 22.2915 720.232L23.6538 720.188V719.69C23.6538 719.06 23.5171 718.596 23.2437 718.298C22.9751 717.996 22.543 717.844 21.9473 717.844C21.2783 717.844 20.5215 718.049 19.6768 718.459L19.3032 717.529C19.6987 717.314 20.1309 717.146 20.5996 717.024C21.0732 716.902 21.5469 716.841 22.0205 716.841C22.9775 716.841 23.6855 717.053 24.1445 717.478C24.6084 717.903 24.8403 718.584 24.8403 719.521V725H23.9395ZM21.1929 724.143C21.9497 724.143 22.543 723.936 22.9727 723.521C23.4072 723.105 23.6245 722.524 23.6245 721.777V721.052L22.4087 721.104C21.4419 721.138 20.7437 721.289 20.314 721.558C19.8892 721.821 19.6768 722.234 19.6768 722.795C19.6768 723.235 19.8086 723.569 20.0723 723.799C20.3408 724.028 20.7144 724.143 21.1929 724.143ZM31.0605 725.146C29.8984 725.146 28.9976 724.79 28.3579 724.077C27.7231 723.359 27.4058 722.346 27.4058 721.038C27.4058 719.695 27.728 718.657 28.3726 717.925C29.022 717.192 29.9448 716.826 31.1411 716.826C31.5269 716.826 31.9126 716.868 32.2983 716.951C32.6841 717.034 32.9868 717.131 33.2065 717.244L32.833 718.276C32.5645 718.169 32.2715 718.081 31.9541 718.013C31.6367 717.939 31.356 717.903 31.1118 717.903C29.481 717.903 28.6655 718.943 28.6655 721.023C28.6655 722.009 28.8633 722.766 29.2588 723.293C29.6592 723.821 30.25 724.084 31.0312 724.084C31.7002 724.084 32.3862 723.94 33.0894 723.652V724.729C32.5522 725.007 31.876 725.146 31.0605 725.146ZM43.5156 717.917H41.4722V725H40.2563V717.917H38.8208V717.368L40.2563 716.929V716.482C40.2563 714.509 41.1182 713.523 42.8418 713.523C43.2666 713.523 43.7646 713.608 44.3359 713.779L44.021 714.753C43.5522 714.602 43.1519 714.526 42.8198 714.526C42.3608 714.526 42.0215 714.68 41.8018 714.988C41.582 715.291 41.4722 715.779 41.4722 716.453V716.973H43.5156V717.917ZM48.8716 725.146C47.6851 725.146 46.7476 724.785 46.0591 724.062C45.3755 723.34 45.0337 722.336 45.0337 721.052C45.0337 719.758 45.3511 718.73 45.9858 717.969C46.6255 717.207 47.4824 716.826 48.5566 716.826C49.5625 716.826 50.3584 717.158 50.9443 717.822C51.5303 718.481 51.8232 719.353 51.8232 720.437V721.206H46.2935C46.3179 722.148 46.5547 722.864 47.0039 723.352C47.458 723.84 48.0952 724.084 48.9155 724.084C49.7798 724.084 50.6343 723.904 51.479 723.542V724.626C51.0493 724.812 50.6416 724.944 50.2559 725.022C49.875 725.105 49.4136 725.146 48.8716 725.146ZM48.542 717.844C47.8975 717.844 47.3823 718.054 46.9966 718.474C46.6157 718.894 46.3911 719.475 46.3228 720.217H50.5195C50.5195 719.451 50.3486 718.865 50.0068 718.459C49.665 718.049 49.1768 717.844 48.542 717.844ZM55.6191 725H54.4033V713.604H55.6191V725ZM59.9131 725H58.6973V716.973H59.9131V725ZM58.5947 714.797C58.5947 714.519 58.6631 714.316 58.7998 714.189C58.9365 714.058 59.1074 713.992 59.3125 713.992C59.5078 713.992 59.6763 714.058 59.8179 714.189C59.9595 714.321 60.0303 714.524 60.0303 714.797C60.0303 715.071 59.9595 715.276 59.8179 715.413C59.6763 715.544 59.5078 715.61 59.3125 715.61C59.1074 715.61 58.9365 715.544 58.7998 715.413C58.6631 715.276 58.5947 715.071 58.5947 714.797ZM68.1694 722.81C68.1694 723.557 67.8911 724.133 67.3345 724.539C66.7778 724.944 65.9966 725.146 64.9907 725.146C63.9263 725.146 63.0962 724.978 62.5005 724.641V723.513C62.8862 723.708 63.2988 723.862 63.7383 723.975C64.1826 724.087 64.6099 724.143 65.02 724.143C65.6548 724.143 66.1431 724.043 66.4849 723.843C66.8267 723.638 66.9976 723.328 66.9976 722.913C66.9976 722.6 66.8608 722.334 66.5874 722.114C66.3188 721.89 65.7915 721.626 65.0054 721.323C64.2583 721.045 63.7261 720.803 63.4087 720.598C63.0962 720.388 62.8618 720.151 62.7056 719.888C62.5542 719.624 62.4785 719.309 62.4785 718.943C62.4785 718.289 62.7446 717.773 63.2769 717.397C63.8091 717.017 64.5391 716.826 65.4668 716.826C66.3311 716.826 67.1758 717.002 68.001 717.354L67.5688 718.342C66.7632 718.01 66.0332 717.844 65.3789 717.844C64.8027 717.844 64.3682 717.935 64.0752 718.115C63.7822 718.296 63.6357 718.545 63.6357 718.862C63.6357 719.077 63.6895 719.26 63.7969 719.412C63.9092 719.563 64.0874 719.707 64.3315 719.844C64.5757 719.98 65.0444 720.178 65.7378 720.437C66.6899 720.784 67.332 721.133 67.6641 721.484C68.001 721.836 68.1694 722.278 68.1694 722.81ZM76.8086 725L73.7617 716.973H75.0654L76.7939 721.733C77.1846 722.847 77.4141 723.569 77.4824 723.901H77.541C77.5947 723.643 77.7632 723.108 78.0464 722.297C78.3345 721.482 78.9766 719.707 79.9727 716.973H81.2764L78.2295 725H76.8086ZM86.4565 725.146C85.27 725.146 84.3325 724.785 83.644 724.062C82.9604 723.34 82.6187 722.336 82.6187 721.052C82.6187 719.758 82.936 718.73 83.5708 717.969C84.2104 717.207 85.0674 716.826 86.1416 716.826C87.1475 716.826 87.9434 717.158 88.5293 717.822C89.1152 718.481 89.4082 719.353 89.4082 720.437V721.206H83.8784C83.9028 722.148 84.1396 722.864 84.5889 723.352C85.043 723.84 85.6802 724.084 86.5005 724.084C87.3647 724.084 88.2192 723.904 89.064 723.542V724.626C88.6343 724.812 88.2266 724.944 87.8408 725.022C87.46 725.105 86.9985 725.146 86.4565 725.146ZM86.127 717.844C85.4824 717.844 84.9673 718.054 84.5815 718.474C84.2007 718.894 83.9761 719.475 83.9077 720.217H88.1045C88.1045 719.451 87.9336 718.865 87.5918 718.459C87.25 718.049 86.7617 717.844 86.127 717.844ZM97.1665 722.81C97.1665 723.557 96.8882 724.133 96.3315 724.539C95.7749 724.944 94.9937 725.146 93.9878 725.146C92.9233 725.146 92.0933 724.978 91.4976 724.641V723.513C91.8833 723.708 92.2959 723.862 92.7354 723.975C93.1797 724.087 93.6069 724.143 94.0171 724.143C94.6519 724.143 95.1401 724.043 95.4819 723.843C95.8237 723.638 95.9946 723.328 95.9946 722.913C95.9946 722.6 95.8579 722.334 95.5845 722.114C95.3159 721.89 94.7886 721.626 94.0024 721.323C93.2554 721.045 92.7231 720.803 92.4058 720.598C92.0933 720.388 91.8589 720.151 91.7026 719.888C91.5513 719.624 91.4756 719.309 91.4756 718.943C91.4756 718.289 91.7417 717.773 92.2739 717.397C92.8062 717.017 93.5361 716.826 94.4639 716.826C95.3281 716.826 96.1729 717.002 96.998 717.354L96.5659 718.342C95.7603 718.01 95.0303 717.844 94.376 717.844C93.7998 717.844 93.3652 717.935 93.0723 718.115C92.7793 718.296 92.6328 718.545 92.6328 718.862C92.6328 719.077 92.6865 719.26 92.7939 719.412C92.9062 719.563 93.0845 719.707 93.3286 719.844C93.5728 719.98 94.0415 720.178 94.7349 720.437C95.687 720.784 96.3291 721.133 96.6611 721.484C96.998 721.836 97.1665 722.278 97.1665 722.81ZM102.244 724.143C102.459 724.143 102.667 724.128 102.867 724.099C103.067 724.065 103.226 724.031 103.343 723.997V724.927C103.211 724.99 103.016 725.042 102.757 725.081C102.503 725.125 102.273 725.146 102.068 725.146C100.516 725.146 99.7393 724.329 99.7393 722.693V717.917H98.5894V717.332L99.7393 716.826L100.252 715.112H100.955V716.973H103.284V717.917H100.955V722.642C100.955 723.125 101.07 723.496 101.299 723.755C101.529 724.014 101.844 724.143 102.244 724.143ZM106.67 725H105.454V716.973H106.67V725ZM105.352 714.797C105.352 714.519 105.42 714.316 105.557 714.189C105.693 714.058 105.864 713.992 106.069 713.992C106.265 713.992 106.433 714.058 106.575 714.189C106.716 714.321 106.787 714.524 106.787 714.797C106.787 715.071 106.716 715.276 106.575 715.413C106.433 715.544 106.265 715.61 106.069 715.61C105.864 715.61 105.693 715.544 105.557 715.413C105.42 715.276 105.352 715.071 105.352 714.797ZM113.483 716.841C114.538 716.841 115.356 717.202 115.937 717.925C116.523 718.643 116.816 719.661 116.816 720.979C116.816 722.297 116.521 723.323 115.93 724.055C115.344 724.783 114.528 725.146 113.483 725.146C112.961 725.146 112.482 725.051 112.048 724.861C111.618 724.666 111.257 724.368 110.964 723.967H110.876L110.62 725H109.748V713.604H110.964V716.372C110.964 716.992 110.944 717.549 110.905 718.042H110.964C111.53 717.241 112.37 716.841 113.483 716.841ZM113.308 717.859C112.478 717.859 111.879 718.098 111.513 718.577C111.147 719.05 110.964 719.851 110.964 720.979C110.964 722.107 111.152 722.915 111.528 723.403C111.904 723.887 112.507 724.128 113.337 724.128C114.084 724.128 114.641 723.857 115.007 723.315C115.373 722.769 115.556 721.985 115.556 720.964C115.556 719.919 115.373 719.141 115.007 718.628C114.641 718.115 114.074 717.859 113.308 717.859ZM120.59 716.973V722.18C120.59 722.834 120.739 723.323 121.037 723.645C121.334 723.967 121.801 724.128 122.436 724.128C123.275 724.128 123.888 723.899 124.274 723.44C124.665 722.981 124.86 722.231 124.86 721.191V716.973H126.076V725H125.072L124.896 723.923H124.831C124.582 724.319 124.235 724.622 123.791 724.832C123.351 725.042 122.848 725.146 122.282 725.146C121.305 725.146 120.573 724.915 120.084 724.451C119.601 723.987 119.359 723.245 119.359 722.224V716.973H120.59ZM130.377 725H129.161V713.604H130.377V725ZM134.598 716.973V722.18C134.598 722.834 134.747 723.323 135.044 723.645C135.342 723.967 135.809 724.128 136.443 724.128C137.283 724.128 137.896 723.899 138.282 723.44C138.672 722.981 138.868 722.231 138.868 721.191V716.973H140.083V725H139.08L138.904 723.923H138.838C138.589 724.319 138.243 724.622 137.798 724.832C137.359 725.042 136.856 725.146 136.29 725.146C135.313 725.146 134.581 724.915 134.092 724.451C133.609 723.987 133.367 723.245 133.367 722.224V716.973H134.598ZM153.401 725V719.778C153.401 719.138 153.264 718.66 152.991 718.342C152.717 718.02 152.292 717.859 151.716 717.859C150.959 717.859 150.4 718.076 150.039 718.511C149.678 718.945 149.497 719.614 149.497 720.518V725H148.281V719.778C148.281 719.138 148.145 718.66 147.871 718.342C147.598 718.02 147.17 717.859 146.589 717.859C145.828 717.859 145.269 718.088 144.912 718.547C144.561 719.001 144.385 719.749 144.385 720.789V725H143.169V716.973H144.158L144.355 718.071H144.414C144.644 717.681 144.966 717.375 145.381 717.156C145.801 716.936 146.27 716.826 146.787 716.826C148.042 716.826 148.862 717.28 149.248 718.188H149.307C149.546 717.769 149.893 717.437 150.347 717.192C150.801 716.948 151.318 716.826 151.899 716.826C152.808 716.826 153.486 717.061 153.936 717.529C154.39 717.993 154.617 718.738 154.617 719.763V725H153.401ZM163.168 716.973V722.18C163.168 722.834 163.317 723.323 163.615 723.645C163.913 723.967 164.379 724.128 165.014 724.128C165.854 724.128 166.466 723.899 166.852 723.44C167.243 722.981 167.438 722.231 167.438 721.191V716.973H168.654V725H167.65L167.475 723.923H167.409C167.16 724.319 166.813 724.622 166.369 724.832C165.929 725.042 165.426 725.146 164.86 725.146C163.883 725.146 163.151 724.915 162.663 724.451C162.179 723.987 161.938 723.245 161.938 722.224V716.973H163.168ZM175.401 716.826C175.758 716.826 176.078 716.855 176.361 716.914L176.192 718.042C175.86 717.969 175.567 717.932 175.313 717.932C174.664 717.932 174.107 718.196 173.644 718.723C173.185 719.25 172.955 719.907 172.955 720.693V725H171.739V716.973H172.743L172.882 718.459H172.94C173.238 717.937 173.597 717.534 174.017 717.251C174.437 716.968 174.898 716.826 175.401 716.826ZM183.855 725V719.807C183.855 719.153 183.707 718.665 183.409 718.342C183.111 718.02 182.645 717.859 182.01 717.859C181.17 717.859 180.555 718.086 180.164 718.54C179.773 718.994 179.578 719.744 179.578 720.789V725H178.362V716.973H179.351L179.549 718.071H179.607C179.856 717.676 180.206 717.371 180.655 717.156C181.104 716.936 181.604 716.826 182.156 716.826C183.123 716.826 183.851 717.061 184.339 717.529C184.827 717.993 185.071 718.738 185.071 719.763V725H183.855ZM193.013 725L192.771 723.857H192.712C192.312 724.36 191.912 724.702 191.511 724.883C191.116 725.059 190.62 725.146 190.024 725.146C189.229 725.146 188.604 724.941 188.149 724.531C187.7 724.121 187.476 723.538 187.476 722.781C187.476 721.16 188.772 720.31 191.365 720.232L192.727 720.188V719.69C192.727 719.06 192.59 718.596 192.317 718.298C192.048 717.996 191.616 717.844 191.021 717.844C190.352 717.844 189.595 718.049 188.75 718.459L188.376 717.529C188.772 717.314 189.204 717.146 189.673 717.024C190.146 716.902 190.62 716.841 191.094 716.841C192.051 716.841 192.759 717.053 193.218 717.478C193.682 717.903 193.914 718.584 193.914 719.521V725H193.013ZM190.266 724.143C191.023 724.143 191.616 723.936 192.046 723.521C192.48 723.105 192.698 722.524 192.698 721.777V721.052L191.482 721.104C190.515 721.138 189.817 721.289 189.387 721.558C188.962 721.821 188.75 722.234 188.75 722.795C188.75 723.235 188.882 723.569 189.146 723.799C189.414 724.028 189.788 724.143 190.266 724.143ZM203.08 725L200.033 716.973H201.337L203.065 721.733C203.456 722.847 203.686 723.569 203.754 723.901H203.812C203.866 723.643 204.035 723.108 204.318 722.297C204.606 721.482 205.248 719.707 206.244 716.973H207.548L204.501 725H203.08ZM212.728 725.146C211.542 725.146 210.604 724.785 209.916 724.062C209.232 723.34 208.89 722.336 208.89 721.052C208.89 719.758 209.208 718.73 209.842 717.969C210.482 717.207 211.339 716.826 212.413 716.826C213.419 716.826 214.215 717.158 214.801 717.822C215.387 718.481 215.68 719.353 215.68 720.437V721.206H210.15C210.174 722.148 210.411 722.864 210.86 723.352C211.314 723.84 211.952 724.084 212.772 724.084C213.636 724.084 214.491 723.904 215.335 723.542V724.626C214.906 724.812 214.498 724.944 214.112 725.022C213.731 725.105 213.27 725.146 212.728 725.146ZM212.398 717.844C211.754 717.844 211.239 718.054 210.853 718.474C210.472 718.894 210.248 719.475 210.179 720.217H214.376C214.376 719.451 214.205 718.865 213.863 718.459C213.521 718.049 213.033 717.844 212.398 717.844ZM219.476 725H218.26V713.604H219.476V725ZM223.77 725H222.554V716.973H223.77V725ZM222.451 714.797C222.451 714.519 222.52 714.316 222.656 714.189C222.793 714.058 222.964 713.992 223.169 713.992C223.364 713.992 223.533 714.058 223.674 714.189C223.816 714.321 223.887 714.524 223.887 714.797C223.887 715.071 223.816 715.276 223.674 715.413C223.533 715.544 223.364 715.61 223.169 715.61C222.964 715.61 222.793 715.544 222.656 715.413C222.52 715.276 222.451 715.071 222.451 714.797ZM229.44 724.143C229.655 724.143 229.863 724.128 230.063 724.099C230.263 724.065 230.422 724.031 230.539 723.997V724.927C230.407 724.99 230.212 725.042 229.953 725.081C229.699 725.125 229.47 725.146 229.265 725.146C227.712 725.146 226.936 724.329 226.936 722.693V717.917H225.786V717.332L226.936 716.826L227.448 715.112H228.151V716.973H230.48V717.917H228.151V722.642C228.151 723.125 228.266 723.496 228.496 723.755C228.725 724.014 229.04 724.143 229.44 724.143ZM240.782 725.146C240.26 725.146 239.781 725.051 239.347 724.861C238.917 724.666 238.556 724.368 238.263 723.967H238.175C238.233 724.436 238.263 724.88 238.263 725.3V728.604H237.047V716.973H238.036L238.204 718.071H238.263C238.575 717.632 238.939 717.314 239.354 717.119C239.769 716.924 240.245 716.826 240.782 716.826C241.847 716.826 242.667 717.19 243.243 717.917C243.824 718.645 244.115 719.666 244.115 720.979C244.115 722.297 243.819 723.323 243.229 724.055C242.643 724.783 241.827 725.146 240.782 725.146ZM240.606 717.859C239.786 717.859 239.193 718.086 238.827 718.54C238.46 718.994 238.272 719.717 238.263 720.708V720.979C238.263 722.107 238.451 722.915 238.827 723.403C239.203 723.887 239.806 724.128 240.636 724.128C241.329 724.128 241.871 723.848 242.262 723.286C242.657 722.725 242.855 721.951 242.855 720.964C242.855 719.963 242.657 719.197 242.262 718.665C241.871 718.127 241.319 717.859 240.606 717.859ZM251.683 725L251.441 723.857H251.382C250.982 724.36 250.582 724.702 250.181 724.883C249.786 725.059 249.29 725.146 248.694 725.146C247.898 725.146 247.273 724.941 246.819 724.531C246.37 724.121 246.146 723.538 246.146 722.781C246.146 721.16 247.442 720.31 250.035 720.232L251.397 720.188V719.69C251.397 719.06 251.26 718.596 250.987 718.298C250.718 717.996 250.286 717.844 249.69 717.844C249.021 717.844 248.265 718.049 247.42 718.459L247.046 717.529C247.442 717.314 247.874 717.146 248.343 717.024C248.816 716.902 249.29 716.841 249.764 716.841C250.721 716.841 251.429 717.053 251.888 717.478C252.352 717.903 252.583 718.584 252.583 719.521V725H251.683ZM248.936 724.143C249.693 724.143 250.286 723.936 250.716 723.521C251.15 723.105 251.368 722.524 251.368 721.777V721.052L250.152 721.104C249.185 721.138 248.487 721.289 248.057 721.558C247.632 721.821 247.42 722.234 247.42 722.795C247.42 723.235 247.552 723.569 247.815 723.799C248.084 724.028 248.458 724.143 248.936 724.143ZM259.258 716.826C259.614 716.826 259.934 716.855 260.217 716.914L260.049 718.042C259.717 717.969 259.424 717.932 259.17 717.932C258.521 717.932 257.964 718.196 257.5 718.723C257.041 719.25 256.812 719.907 256.812 720.693V725H255.596V716.973H256.599L256.738 718.459H256.797C257.095 717.937 257.454 717.534 257.874 717.251C258.293 716.968 258.755 716.826 259.258 716.826ZM264.812 724.143C265.026 724.143 265.234 724.128 265.434 724.099C265.634 724.065 265.793 724.031 265.91 723.997V724.927C265.778 724.99 265.583 725.042 265.324 725.081C265.07 725.125 264.841 725.146 264.636 725.146C263.083 725.146 262.307 724.329 262.307 722.693V717.917H261.157V717.332L262.307 716.826L262.819 715.112H263.522V716.973H265.852V717.917H263.522V722.642C263.522 723.125 263.637 723.496 263.867 723.755C264.096 724.014 264.411 724.143 264.812 724.143ZM269.164 716.973V722.18C269.164 722.834 269.313 723.323 269.611 723.645C269.909 723.967 270.375 724.128 271.01 724.128C271.85 724.128 272.462 723.899 272.848 723.44C273.239 722.981 273.434 722.231 273.434 721.191V716.973H274.65V725H273.646L273.471 723.923H273.405C273.156 724.319 272.809 724.622 272.365 724.832C271.925 725.042 271.422 725.146 270.856 725.146C269.879 725.146 269.147 724.915 268.659 724.451C268.175 723.987 267.934 723.245 267.934 722.224V716.973H269.164ZM281.397 716.826C281.754 716.826 282.074 716.855 282.357 716.914L282.188 718.042C281.856 717.969 281.563 717.932 281.31 717.932C280.66 717.932 280.104 718.196 279.64 718.723C279.181 719.25 278.951 719.907 278.951 720.693V725H277.735V716.973H278.739L278.878 718.459H278.937C279.234 717.937 279.593 717.534 280.013 717.251C280.433 716.968 280.895 716.826 281.397 716.826ZM285.574 725H284.358V716.973H285.574V725ZM284.256 714.797C284.256 714.519 284.324 714.316 284.461 714.189C284.598 714.058 284.769 713.992 284.974 713.992C285.169 713.992 285.337 714.058 285.479 714.189C285.621 714.321 285.691 714.524 285.691 714.797C285.691 715.071 285.621 715.276 285.479 715.413C285.337 715.544 285.169 715.61 284.974 715.61C284.769 715.61 284.598 715.544 284.461 715.413C284.324 715.276 284.256 715.071 284.256 714.797ZM292.043 725.146C290.857 725.146 289.919 724.785 289.231 724.062C288.547 723.34 288.206 722.336 288.206 721.052C288.206 719.758 288.523 718.73 289.158 717.969C289.797 717.207 290.654 716.826 291.729 716.826C292.734 716.826 293.53 717.158 294.116 717.822C294.702 718.481 294.995 719.353 294.995 720.437V721.206H289.465C289.49 722.148 289.727 722.864 290.176 723.352C290.63 723.84 291.267 724.084 292.087 724.084C292.952 724.084 293.806 723.904 294.651 723.542V724.626C294.221 724.812 293.813 724.944 293.428 725.022C293.047 725.105 292.585 725.146 292.043 725.146ZM291.714 717.844C291.069 717.844 290.554 718.054 290.168 718.474C289.788 718.894 289.563 719.475 289.495 720.217H293.691C293.691 719.451 293.521 718.865 293.179 718.459C292.837 718.049 292.349 717.844 291.714 717.844ZM303.068 725V719.807C303.068 719.153 302.919 718.665 302.622 718.342C302.324 718.02 301.857 717.859 301.223 717.859C300.383 717.859 299.768 718.086 299.377 718.54C298.986 718.994 298.791 719.744 298.791 720.789V725H297.575V716.973H298.564L298.762 718.071H298.82C299.069 717.676 299.418 717.371 299.868 717.156C300.317 716.936 300.817 716.826 301.369 716.826C302.336 716.826 303.063 717.061 303.552 717.529C304.04 717.993 304.284 718.738 304.284 719.763V725H303.068ZM309.882 724.143C310.097 724.143 310.304 724.128 310.504 724.099C310.705 724.065 310.863 724.031 310.98 723.997V724.927C310.849 724.99 310.653 725.042 310.395 725.081C310.141 725.125 309.911 725.146 309.706 725.146C308.153 725.146 307.377 724.329 307.377 722.693V717.917H306.227V717.332L307.377 716.826L307.89 715.112H308.593V716.973H310.922V717.917H308.593V722.642C308.593 723.125 308.708 723.496 308.937 723.755C309.167 724.014 309.481 724.143 309.882 724.143ZM14.4673 748.81C14.4673 749.557 14.189 750.133 13.6323 750.539C13.0757 750.944 12.2944 751.146 11.2886 751.146C10.2241 751.146 9.39404 750.978 8.79834 750.641V749.513C9.18408 749.708 9.59668 749.862 10.0361 749.975C10.4805 750.087 10.9077 750.143 11.3179 750.143C11.9526 750.143 12.4409 750.043 12.7827 749.843C13.1245 749.638 13.2954 749.328 13.2954 748.913C13.2954 748.6 13.1587 748.334 12.8853 748.114C12.6167 747.89 12.0894 747.626 11.3032 747.323C10.5562 747.045 10.0239 746.803 9.70654 746.598C9.39404 746.388 9.15967 746.151 9.00342 745.888C8.85205 745.624 8.77637 745.309 8.77637 744.943C8.77637 744.289 9.04248 743.773 9.57471 743.397C10.1069 743.017 10.8369 742.826 11.7646 742.826C12.6289 742.826 13.4736 743.002 14.2988 743.354L13.8667 744.342C13.061 744.01 12.3311 743.844 11.6768 743.844C11.1006 743.844 10.666 743.935 10.373 744.115C10.0801 744.296 9.93359 744.545 9.93359 744.862C9.93359 745.077 9.9873 745.26 10.0947 745.412C10.207 745.563 10.3853 745.707 10.6294 745.844C10.8735 745.98 11.3423 746.178 12.0356 746.437C12.9878 746.784 13.6299 747.133 13.9619 747.484C14.2988 747.836 14.4673 748.278 14.4673 748.81ZM18.0947 742.973V748.18C18.0947 748.834 18.2437 749.323 18.5415 749.645C18.8394 749.967 19.3057 750.128 19.9404 750.128C20.7803 750.128 21.3931 749.899 21.7788 749.44C22.1694 748.981 22.3647 748.231 22.3647 747.191V742.973H23.5806V751H22.5771L22.4014 749.923H22.3354C22.0864 750.319 21.7397 750.622 21.2954 750.832C20.856 751.042 20.353 751.146 19.7866 751.146C18.8101 751.146 18.0776 750.915 17.5894 750.451C17.106 749.987 16.8643 749.245 16.8643 748.224V742.973H18.0947ZM31.8442 748.81C31.8442 749.557 31.5659 750.133 31.0093 750.539C30.4526 750.944 29.6714 751.146 28.6655 751.146C27.6011 751.146 26.771 750.978 26.1753 750.641V749.513C26.561 749.708 26.9736 749.862 27.4131 749.975C27.8574 750.087 28.2847 750.143 28.6948 750.143C29.3296 750.143 29.8179 750.043 30.1597 749.843C30.5015 749.638 30.6724 749.328 30.6724 748.913C30.6724 748.6 30.5356 748.334 30.2622 748.114C29.9937 747.89 29.4663 747.626 28.6802 747.323C27.9331 747.045 27.4009 746.803 27.0835 746.598C26.771 746.388 26.5366 746.151 26.3804 745.888C26.229 745.624 26.1533 745.309 26.1533 744.943C26.1533 744.289 26.4194 743.773 26.9517 743.397C27.4839 743.017 28.2139 742.826 29.1416 742.826C30.0059 742.826 30.8506 743.002 31.6758 743.354L31.2437 744.342C30.438 744.01 29.708 743.844 29.0537 743.844C28.4775 743.844 28.043 743.935 27.75 744.115C27.457 744.296 27.3105 744.545 27.3105 744.862C27.3105 745.077 27.3643 745.26 27.4717 745.412C27.584 745.563 27.7622 745.707 28.0063 745.844C28.2505 745.98 28.7192 746.178 29.4126 746.437C30.3647 746.784 31.0068 747.133 31.3389 747.484C31.6758 747.836 31.8442 748.278 31.8442 748.81ZM38.0645 751.146C37.542 751.146 37.0635 751.051 36.6289 750.861C36.1992 750.666 35.8379 750.368 35.5449 749.967H35.457C35.5156 750.436 35.5449 750.88 35.5449 751.3V754.604H34.3291V742.973H35.3179L35.4863 744.071H35.5449C35.8574 743.632 36.2212 743.314 36.6362 743.119C37.0513 742.924 37.5273 742.826 38.0645 742.826C39.1289 742.826 39.9492 743.19 40.5254 743.917C41.1064 744.645 41.397 745.666 41.397 746.979C41.397 748.297 41.1016 749.323 40.5107 750.055C39.9248 750.783 39.1094 751.146 38.0645 751.146ZM37.8887 743.859C37.0684 743.859 36.4751 744.086 36.1089 744.54C35.7427 744.994 35.5547 745.717 35.5449 746.708V746.979C35.5449 748.107 35.7329 748.915 36.1089 749.403C36.4849 749.887 37.0879 750.128 37.918 750.128C38.6113 750.128 39.1533 749.848 39.5439 749.286C39.9395 748.725 40.1372 747.951 40.1372 746.964C40.1372 745.963 39.9395 745.197 39.5439 744.665C39.1533 744.127 38.6016 743.859 37.8887 743.859ZM47.4194 751.146C46.2329 751.146 45.2954 750.785 44.6069 750.062C43.9233 749.34 43.5815 748.336 43.5815 747.052C43.5815 745.758 43.8989 744.73 44.5337 743.969C45.1733 743.207 46.0303 742.826 47.1045 742.826C48.1104 742.826 48.9062 743.158 49.4922 743.822C50.0781 744.481 50.3711 745.353 50.3711 746.437V747.206H44.8413C44.8657 748.148 45.1025 748.864 45.5518 749.352C46.0059 749.84 46.6431 750.084 47.4634 750.084C48.3276 750.084 49.1821 749.904 50.0269 749.542V750.626C49.5972 750.812 49.1895 750.944 48.8037 751.022C48.4229 751.105 47.9614 751.146 47.4194 751.146ZM47.0898 743.844C46.4453 743.844 45.9302 744.054 45.5444 744.474C45.1636 744.894 44.939 745.475 44.8706 746.217H49.0674C49.0674 745.451 48.8965 744.865 48.5547 744.459C48.2129 744.049 47.7246 743.844 47.0898 743.844ZM58.4443 751V745.807C58.4443 745.153 58.2954 744.665 57.9976 744.342C57.6997 744.02 57.2334 743.859 56.5986 743.859C55.7588 743.859 55.1436 744.086 54.7529 744.54C54.3623 744.994 54.167 745.744 54.167 746.789V751H52.9512V742.973H53.9399L54.1377 744.071H54.1963C54.4453 743.676 54.7944 743.371 55.2437 743.156C55.6929 742.936 56.1934 742.826 56.7451 742.826C57.7119 742.826 58.4395 743.061 58.9277 743.529C59.416 743.993 59.6602 744.738 59.6602 745.763V751H58.4443ZM68.1289 749.923H68.063C67.5015 750.739 66.6616 751.146 65.5435 751.146C64.4937 751.146 63.6758 750.788 63.0898 750.07C62.5088 749.352 62.2183 748.332 62.2183 747.008C62.2183 745.685 62.5112 744.657 63.0972 743.925C63.6831 743.192 64.4985 742.826 65.5435 742.826C66.6323 742.826 67.4673 743.222 68.0483 744.013H68.1436L68.0923 743.434L68.063 742.87V739.604H69.2788V751H68.29L68.1289 749.923ZM65.6973 750.128C66.5273 750.128 67.1279 749.904 67.499 749.455C67.875 749 68.063 748.271 68.063 747.265V747.008C68.063 745.871 67.8726 745.06 67.4917 744.577C67.1157 744.088 66.5127 743.844 65.6826 743.844C64.9697 743.844 64.4229 744.123 64.042 744.679C63.666 745.231 63.478 746.012 63.478 747.023C63.478 748.048 63.666 748.822 64.042 749.345C64.418 749.867 64.9697 750.128 65.6973 750.128ZM73.5801 751H72.3643V742.973H73.5801V751ZM72.2617 740.797C72.2617 740.519 72.3301 740.316 72.4668 740.189C72.6035 740.058 72.7744 739.992 72.9795 739.992C73.1748 739.992 73.3433 740.058 73.4849 740.189C73.6265 740.321 73.6973 740.524 73.6973 740.797C73.6973 741.071 73.6265 741.276 73.4849 741.413C73.3433 741.544 73.1748 741.61 72.9795 741.61C72.7744 741.61 72.6035 741.544 72.4668 741.413C72.3301 741.276 72.2617 741.071 72.2617 740.797ZM81.8364 748.81C81.8364 749.557 81.5581 750.133 81.0015 750.539C80.4448 750.944 79.6636 751.146 78.6577 751.146C77.5933 751.146 76.7632 750.978 76.1675 750.641V749.513C76.5532 749.708 76.9658 749.862 77.4053 749.975C77.8496 750.087 78.2769 750.143 78.687 750.143C79.3218 750.143 79.8101 750.043 80.1519 749.843C80.4937 749.638 80.6646 749.328 80.6646 748.913C80.6646 748.6 80.5278 748.334 80.2544 748.114C79.9858 747.89 79.4585 747.626 78.6724 747.323C77.9253 747.045 77.3931 746.803 77.0757 746.598C76.7632 746.388 76.5288 746.151 76.3726 745.888C76.2212 745.624 76.1455 745.309 76.1455 744.943C76.1455 744.289 76.4116 743.773 76.9438 743.397C77.4761 743.017 78.2061 742.826 79.1338 742.826C79.998 742.826 80.8428 743.002 81.668 743.354L81.2358 744.342C80.4302 744.01 79.7002 743.844 79.0459 743.844C78.4697 743.844 78.0352 743.935 77.7422 744.115C77.4492 744.296 77.3027 744.545 77.3027 744.862C77.3027 745.077 77.3564 745.26 77.4639 745.412C77.5762 745.563 77.7544 745.707 77.9985 745.844C78.2427 745.98 78.7114 746.178 79.4048 746.437C80.3569 746.784 80.999 747.133 81.3311 747.484C81.668 747.836 81.8364 748.278 81.8364 748.81ZM89.4995 748.81C89.4995 749.557 89.2212 750.133 88.6646 750.539C88.1079 750.944 87.3267 751.146 86.3208 751.146C85.2563 751.146 84.4263 750.978 83.8306 750.641V749.513C84.2163 749.708 84.6289 749.862 85.0684 749.975C85.5127 750.087 85.9399 750.143 86.3501 750.143C86.9849 750.143 87.4731 750.043 87.8149 749.843C88.1567 749.638 88.3276 749.328 88.3276 748.913C88.3276 748.6 88.1909 748.334 87.9175 748.114C87.6489 747.89 87.1216 747.626 86.3354 747.323C85.5884 747.045 85.0562 746.803 84.7388 746.598C84.4263 746.388 84.1919 746.151 84.0356 745.888C83.8843 745.624 83.8086 745.309 83.8086 744.943C83.8086 744.289 84.0747 743.773 84.6069 743.397C85.1392 743.017 85.8691 742.826 86.7969 742.826C87.6611 742.826 88.5059 743.002 89.3311 743.354L88.8989 744.342C88.0933 744.01 87.3633 743.844 86.709 743.844C86.1328 743.844 85.6982 743.935 85.4053 744.115C85.1123 744.296 84.9658 744.545 84.9658 744.862C84.9658 745.077 85.0195 745.26 85.127 745.412C85.2393 745.563 85.4175 745.707 85.6616 745.844C85.9058 745.98 86.3745 746.178 87.0679 746.437C88.02 746.784 88.6621 747.133 88.9941 747.484C89.3311 747.836 89.4995 748.278 89.4995 748.81ZM95.3755 751.146C94.189 751.146 93.2515 750.785 92.563 750.062C91.8794 749.34 91.5376 748.336 91.5376 747.052C91.5376 745.758 91.855 744.73 92.4897 743.969C93.1294 743.207 93.9863 742.826 95.0605 742.826C96.0664 742.826 96.8623 743.158 97.4482 743.822C98.0342 744.481 98.3271 745.353 98.3271 746.437V747.206H92.7974C92.8218 748.148 93.0586 748.864 93.5078 749.352C93.9619 749.84 94.5991 750.084 95.4194 750.084C96.2837 750.084 97.1382 749.904 97.9829 749.542V750.626C97.5532 750.812 97.1455 750.944 96.7598 751.022C96.3789 751.105 95.9175 751.146 95.3755 751.146ZM95.0459 743.844C94.4014 743.844 93.8862 744.054 93.5005 744.474C93.1196 744.894 92.895 745.475 92.8267 746.217H97.0234C97.0234 745.451 96.8525 744.865 96.5107 744.459C96.1689 744.049 95.6807 743.844 95.0459 743.844ZM110.24 751L109.999 749.857H109.94C109.54 750.36 109.139 750.702 108.739 750.883C108.343 751.059 107.848 751.146 107.252 751.146C106.456 751.146 105.831 750.941 105.377 750.531C104.928 750.121 104.703 749.538 104.703 748.781C104.703 747.16 106 746.31 108.592 746.232L109.955 746.188V745.69C109.955 745.06 109.818 744.596 109.544 744.298C109.276 743.996 108.844 743.844 108.248 743.844C107.579 743.844 106.822 744.049 105.978 744.459L105.604 743.529C106 743.314 106.432 743.146 106.9 743.024C107.374 742.902 107.848 742.841 108.321 742.841C109.278 742.841 109.986 743.053 110.445 743.478C110.909 743.903 111.141 744.584 111.141 745.521V751H110.24ZM107.494 750.143C108.25 750.143 108.844 749.936 109.273 749.521C109.708 749.105 109.925 748.524 109.925 747.777V747.052L108.709 747.104C107.743 747.138 107.044 747.289 106.615 747.558C106.19 747.821 105.978 748.234 105.978 748.795C105.978 749.235 106.109 749.569 106.373 749.799C106.642 750.028 107.015 750.143 107.494 750.143ZM123.486 751L123.245 749.857H123.186C122.786 750.36 122.385 750.702 121.985 750.883C121.589 751.059 121.094 751.146 120.498 751.146C119.702 751.146 119.077 750.941 118.623 750.531C118.174 750.121 117.949 749.538 117.949 748.781C117.949 747.16 119.246 746.31 121.838 746.232L123.201 746.188V745.69C123.201 745.06 123.064 744.596 122.791 744.298C122.522 743.996 122.09 743.844 121.494 743.844C120.825 743.844 120.068 744.049 119.224 744.459L118.85 743.529C119.246 743.314 119.678 743.146 120.146 743.024C120.62 742.902 121.094 742.841 121.567 742.841C122.524 742.841 123.232 743.053 123.691 743.478C124.155 743.903 124.387 744.584 124.387 745.521V751H123.486ZM120.74 750.143C121.497 750.143 122.09 749.936 122.52 749.521C122.954 749.105 123.171 748.524 123.171 747.777V747.052L121.956 747.104C120.989 747.138 120.291 747.289 119.861 747.558C119.436 747.821 119.224 748.234 119.224 748.795C119.224 749.235 119.355 749.569 119.619 749.799C119.888 750.028 120.261 750.143 120.74 750.143ZM132.863 749.923H132.797C132.236 750.739 131.396 751.146 130.278 751.146C129.228 751.146 128.41 750.788 127.824 750.07C127.243 749.352 126.953 748.332 126.953 747.008C126.953 745.685 127.246 744.657 127.832 743.925C128.417 743.192 129.233 742.826 130.278 742.826C131.367 742.826 132.202 743.222 132.783 744.013H132.878L132.827 743.434L132.797 742.87V739.604H134.013V751H133.024L132.863 749.923ZM130.432 750.128C131.262 750.128 131.862 749.904 132.233 749.455C132.609 749 132.797 748.271 132.797 747.265V747.008C132.797 745.871 132.607 745.06 132.226 744.577C131.85 744.088 131.247 743.844 130.417 743.844C129.704 743.844 129.157 744.123 128.776 744.679C128.4 745.231 128.212 746.012 128.212 747.023C128.212 748.048 128.4 748.822 128.776 749.345C129.152 749.867 129.704 750.128 130.432 750.128ZM142.711 751H141.495V739.604H142.711V751ZM150.726 751L150.484 749.857H150.425C150.025 750.36 149.625 750.702 149.224 750.883C148.829 751.059 148.333 751.146 147.737 751.146C146.941 751.146 146.316 750.941 145.862 750.531C145.413 750.121 145.188 749.538 145.188 748.781C145.188 747.16 146.485 746.31 149.078 746.232L150.44 746.188V745.69C150.44 745.06 150.303 744.596 150.03 744.298C149.761 743.996 149.329 743.844 148.733 743.844C148.064 743.844 147.308 744.049 146.463 744.459L146.089 743.529C146.485 743.314 146.917 743.146 147.386 743.024C147.859 742.902 148.333 742.841 148.807 742.841C149.764 742.841 150.472 743.053 150.931 743.478C151.395 743.903 151.626 744.584 151.626 745.521V751H150.726ZM147.979 750.143C148.736 750.143 149.329 749.936 149.759 749.521C150.193 749.105 150.411 748.524 150.411 747.777V747.052L149.195 747.104C148.228 747.138 147.53 747.289 147.1 747.558C146.675 747.821 146.463 748.234 146.463 748.795C146.463 749.235 146.595 749.569 146.858 749.799C147.127 750.028 147.5 750.143 147.979 750.143ZM157.847 751.146C156.685 751.146 155.784 750.79 155.144 750.077C154.509 749.359 154.192 748.346 154.192 747.038C154.192 745.695 154.514 744.657 155.159 743.925C155.808 743.192 156.731 742.826 157.927 742.826C158.313 742.826 158.699 742.868 159.084 742.951C159.47 743.034 159.773 743.131 159.993 743.244L159.619 744.276C159.351 744.169 159.058 744.081 158.74 744.013C158.423 743.939 158.142 743.903 157.898 743.903C156.267 743.903 155.452 744.943 155.452 747.023C155.452 748.009 155.649 748.766 156.045 749.293C156.445 749.821 157.036 750.084 157.817 750.084C158.486 750.084 159.172 749.94 159.875 749.652V750.729C159.338 751.007 158.662 751.146 157.847 751.146ZM163.43 742.973V748.18C163.43 748.834 163.579 749.323 163.876 749.645C164.174 749.967 164.641 750.128 165.275 750.128C166.115 750.128 166.728 749.899 167.114 749.44C167.504 748.981 167.7 748.231 167.7 747.191V742.973H168.916V751H167.912L167.736 749.923H167.67C167.421 750.319 167.075 750.622 166.63 750.832C166.191 751.042 165.688 751.146 165.122 751.146C164.145 751.146 163.413 750.915 162.924 750.451C162.441 749.987 162.199 749.245 162.199 748.224V742.973H163.43ZM177.179 748.81C177.179 749.557 176.901 750.133 176.344 750.539C175.788 750.944 175.006 751.146 174 751.146C172.936 751.146 172.106 750.978 171.51 750.641V749.513C171.896 749.708 172.309 749.862 172.748 749.975C173.192 750.087 173.62 750.143 174.03 750.143C174.665 750.143 175.153 750.043 175.495 749.843C175.836 749.638 176.007 749.328 176.007 748.913C176.007 748.6 175.871 748.334 175.597 748.114C175.329 747.89 174.801 747.626 174.015 747.323C173.268 747.045 172.736 746.803 172.418 746.598C172.106 746.388 171.872 746.151 171.715 745.888C171.564 745.624 171.488 745.309 171.488 744.943C171.488 744.289 171.754 743.773 172.287 743.397C172.819 743.017 173.549 742.826 174.477 742.826C175.341 742.826 176.186 743.002 177.011 743.354L176.579 744.342C175.773 744.01 175.043 743.844 174.389 743.844C173.812 743.844 173.378 743.935 173.085 744.115C172.792 744.296 172.646 744.545 172.646 744.862C172.646 745.077 172.699 745.26 172.807 745.412C172.919 745.563 173.097 745.707 173.341 745.844C173.585 745.98 174.054 746.178 174.748 746.437C175.7 746.784 176.342 747.133 176.674 747.484C177.011 747.836 177.179 748.278 177.179 748.81ZM194.292 751V745.778C194.292 745.138 194.156 744.66 193.882 744.342C193.609 744.02 193.184 743.859 192.608 743.859C191.851 743.859 191.292 744.076 190.931 744.511C190.569 744.945 190.389 745.614 190.389 746.518V751H189.173V745.778C189.173 745.138 189.036 744.66 188.763 744.342C188.489 744.02 188.062 743.859 187.481 743.859C186.719 743.859 186.16 744.088 185.804 744.547C185.452 745.001 185.276 745.749 185.276 746.789V751H184.061V742.973H185.049L185.247 744.071H185.306C185.535 743.681 185.857 743.375 186.272 743.156C186.692 742.936 187.161 742.826 187.679 742.826C188.934 742.826 189.754 743.28 190.14 744.188H190.198C190.438 743.769 190.784 743.437 191.238 743.192C191.692 742.948 192.21 742.826 192.791 742.826C193.699 742.826 194.378 743.061 194.827 743.529C195.281 743.993 195.508 744.738 195.508 745.763V751H194.292ZM203.457 751L203.215 749.857H203.157C202.756 750.36 202.356 750.702 201.956 750.883C201.56 751.059 201.064 751.146 200.469 751.146C199.673 751.146 199.048 750.941 198.594 750.531C198.145 750.121 197.92 749.538 197.92 748.781C197.92 747.16 199.216 746.31 201.809 746.232L203.171 746.188V745.69C203.171 745.06 203.035 744.596 202.761 744.298C202.493 743.996 202.061 743.844 201.465 743.844C200.796 743.844 200.039 744.049 199.194 744.459L198.821 743.529C199.216 743.314 199.648 743.146 200.117 743.024C200.591 742.902 201.064 742.841 201.538 742.841C202.495 742.841 203.203 743.053 203.662 743.478C204.126 743.903 204.358 744.584 204.358 745.521V751H203.457ZM200.71 750.143C201.467 750.143 202.061 749.936 202.49 749.521C202.925 749.105 203.142 748.524 203.142 747.777V747.052L201.926 747.104C200.959 747.138 200.261 747.289 199.832 747.558C199.407 747.821 199.194 748.234 199.194 748.795C199.194 749.235 199.326 749.569 199.59 749.799C199.858 750.028 200.232 750.143 200.71 750.143ZM208.513 742.973V748.18C208.513 748.834 208.662 749.323 208.959 749.645C209.257 749.967 209.724 750.128 210.358 750.128C211.198 750.128 211.811 749.899 212.197 749.44C212.587 748.981 212.783 748.231 212.783 747.191V742.973H213.999V751H212.995L212.819 749.923H212.753C212.504 750.319 212.158 750.622 211.713 750.832C211.274 751.042 210.771 751.146 210.205 751.146C209.228 751.146 208.496 750.915 208.007 750.451C207.524 749.987 207.282 749.245 207.282 748.224V742.973H208.513ZM220.746 742.826C221.103 742.826 221.422 742.855 221.706 742.914L221.537 744.042C221.205 743.969 220.912 743.932 220.658 743.932C220.009 743.932 219.452 744.196 218.988 744.723C218.529 745.25 218.3 745.907 218.3 746.693V751H217.084V742.973H218.087L218.227 744.459H218.285C218.583 743.937 218.942 743.534 219.362 743.251C219.782 742.968 220.243 742.826 220.746 742.826ZM224.923 751H223.707V742.973H224.923V751ZM223.604 740.797C223.604 740.519 223.673 740.316 223.81 740.189C223.946 740.058 224.117 739.992 224.322 739.992C224.518 739.992 224.686 740.058 224.828 740.189C224.969 740.321 225.04 740.524 225.04 740.797C225.04 741.071 224.969 741.276 224.828 741.413C224.686 741.544 224.518 741.61 224.322 741.61C224.117 741.61 223.946 741.544 223.81 741.413C223.673 741.276 223.604 741.071 223.604 740.797ZM233.179 748.81C233.179 749.557 232.901 750.133 232.344 750.539C231.788 750.944 231.006 751.146 230 751.146C228.936 751.146 228.106 750.978 227.51 750.641V749.513C227.896 749.708 228.309 749.862 228.748 749.975C229.192 750.087 229.62 750.143 230.03 750.143C230.665 750.143 231.153 750.043 231.495 749.843C231.836 749.638 232.007 749.328 232.007 748.913C232.007 748.6 231.871 748.334 231.597 748.114C231.329 747.89 230.801 747.626 230.015 747.323C229.268 747.045 228.736 746.803 228.418 746.598C228.106 746.388 227.872 746.151 227.715 745.888C227.564 745.624 227.488 745.309 227.488 744.943C227.488 744.289 227.754 743.773 228.287 743.397C228.819 743.017 229.549 742.826 230.477 742.826C231.341 742.826 232.186 743.002 233.011 743.354L232.579 744.342C231.773 744.01 231.043 743.844 230.389 743.844C229.812 743.844 229.378 743.935 229.085 744.115C228.792 744.296 228.646 744.545 228.646 744.862C228.646 745.077 228.699 745.26 228.807 745.412C228.919 745.563 229.097 745.707 229.341 745.844C229.585 745.98 230.054 746.178 230.748 746.437C231.7 746.784 232.342 747.133 232.674 747.484C233.011 747.836 233.179 748.278 233.179 748.81Z" fill="#5D5F65"/>
<path d="M16.36 659.12C14.9733 659.12 13.72 658.813 12.6 658.2C11.4933 657.587 10.62 656.74 9.98 655.66C9.35333 654.567 9.04 653.347 9.04 652C9.04 650.653 9.35333 649.44 9.98 648.36C10.62 647.267 11.5 646.413 12.62 645.8C13.74 645.187 14.9933 644.88 16.38 644.88C17.42 644.88 18.38 645.053 19.26 645.4C20.14 645.747 20.8867 646.253 21.5 646.92L20.56 647.86C19.4667 646.753 18.0867 646.2 16.42 646.2C15.3133 646.2 14.3067 646.453 13.4 646.96C12.4933 647.467 11.78 648.16 11.26 649.04C10.7533 649.92 10.5 650.907 10.5 652C10.5 653.093 10.7533 654.08 11.26 654.96C11.78 655.84 12.4933 656.533 13.4 657.04C14.3067 657.547 15.3133 657.8 16.42 657.8C18.1 657.8 19.48 657.24 20.56 656.12L21.5 657.06C20.8867 657.727 20.1333 658.24 19.24 658.6C18.36 658.947 17.4 659.12 16.36 659.12ZM28.1863 659.1C27.1729 659.1 26.2596 658.873 25.4463 658.42C24.6329 657.953 23.9929 657.313 23.5263 656.5C23.0596 655.687 22.8263 654.767 22.8263 653.74C22.8263 652.713 23.0596 651.793 23.5263 650.98C23.9929 650.167 24.6329 649.533 25.4463 649.08C26.2596 648.627 27.1729 648.4 28.1863 648.4C29.1996 648.4 30.1129 648.627 30.9263 649.08C31.7396 649.533 32.3729 650.167 32.8263 650.98C33.2929 651.793 33.5263 652.713 33.5263 653.74C33.5263 654.767 33.2929 655.687 32.8263 656.5C32.3729 657.313 31.7396 657.953 30.9263 658.42C30.1129 658.873 29.1996 659.1 28.1863 659.1ZM28.1863 657.84C28.9329 657.84 29.5996 657.673 30.1863 657.34C30.7863 656.993 31.2529 656.507 31.5863 655.88C31.9196 655.253 32.0863 654.54 32.0863 653.74C32.0863 652.94 31.9196 652.227 31.5863 651.6C31.2529 650.973 30.7863 650.493 30.1863 650.16C29.5996 649.813 28.9329 649.64 28.1863 649.64C27.4396 649.64 26.7663 649.813 26.1663 650.16C25.5796 650.493 25.1129 650.973 24.7663 651.6C24.4329 652.227 24.2663 652.94 24.2663 653.74C24.2663 654.54 24.4329 655.253 24.7663 655.88C25.1129 656.507 25.5796 656.993 26.1663 657.34C26.7663 657.673 27.4396 657.84 28.1863 657.84ZM41.7853 648.4C43.1053 648.4 44.152 648.787 44.9253 649.56C45.712 650.32 46.1053 651.433 46.1053 652.9V659H44.6853V653.04C44.6853 651.947 44.412 651.113 43.8653 650.54C43.3186 649.967 42.5386 649.68 41.5253 649.68C40.392 649.68 39.492 650.02 38.8253 650.7C38.172 651.367 37.8453 652.293 37.8453 653.48V659H36.4253V648.48H37.7853V650.42C38.172 649.78 38.7053 649.287 39.3853 648.94C40.0786 648.58 40.8786 648.4 41.7853 648.4ZM52.7805 659.1C51.9271 659.1 51.1071 658.98 50.3205 658.74C49.5471 658.487 48.9405 658.173 48.5005 657.8L49.1405 656.68C49.5805 657.027 50.1338 657.313 50.8005 657.54C51.4671 657.753 52.1605 657.86 52.8805 657.86C53.8405 657.86 54.5471 657.713 55.0005 657.42C55.4671 657.113 55.7005 656.687 55.7005 656.14C55.7005 655.753 55.5738 655.453 55.3205 655.24C55.0671 655.013 54.7471 654.847 54.3605 654.74C53.9738 654.62 53.4605 654.507 52.8205 654.4C51.9671 654.24 51.2805 654.08 50.7605 653.92C50.2405 653.747 49.7938 653.46 49.4205 653.06C49.0605 652.66 48.8805 652.107 48.8805 651.4C48.8805 650.52 49.2471 649.8 49.9805 649.24C50.7138 648.68 51.7338 648.4 53.0405 648.4C53.7205 648.4 54.4005 648.493 55.0805 648.68C55.7605 648.853 56.3205 649.087 56.7605 649.38L56.1405 650.52C55.2738 649.92 54.2405 649.62 53.0405 649.62C52.1338 649.62 51.4471 649.78 50.9805 650.1C50.5271 650.42 50.3005 650.84 50.3005 651.36C50.3005 651.76 50.4271 652.08 50.6805 652.32C50.9471 652.56 51.2738 652.74 51.6605 652.86C52.0471 652.967 52.5805 653.08 53.2605 653.2C54.1005 653.36 54.7738 653.52 55.2805 653.68C55.7871 653.84 56.2205 654.113 56.5805 654.5C56.9405 654.887 57.1205 655.42 57.1205 656.1C57.1205 657.02 56.7338 657.753 55.9605 658.3C55.2005 658.833 54.1405 659.1 52.7805 659.1ZM68.9056 654.18H60.1056C60.1856 655.273 60.6056 656.16 61.3656 656.84C62.1256 657.507 63.0856 657.84 64.2456 657.84C64.899 657.84 65.499 657.727 66.0456 657.5C66.5923 657.26 67.0656 656.913 67.4656 656.46L68.2656 657.38C67.799 657.94 67.2123 658.367 66.5056 658.66C65.8123 658.953 65.0456 659.1 64.2056 659.1C63.1256 659.1 62.1656 658.873 61.3256 658.42C60.499 657.953 59.8523 657.313 59.3856 656.5C58.919 655.687 58.6856 654.767 58.6856 653.74C58.6856 652.713 58.9056 651.793 59.3456 650.98C59.799 650.167 60.4123 649.533 61.1856 649.08C61.9723 648.627 62.8523 648.4 63.8256 648.4C64.799 648.4 65.6723 648.627 66.4456 649.08C67.219 649.533 67.8256 650.167 68.2656 650.98C68.7056 651.78 68.9256 652.7 68.9256 653.74L68.9056 654.18ZM63.8256 649.62C62.8123 649.62 61.959 649.947 61.2656 650.6C60.5856 651.24 60.199 652.08 60.1056 653.12H67.5656C67.4723 652.08 67.079 651.24 66.3856 650.6C65.7056 649.947 64.8523 649.62 63.8256 649.62ZM76.1759 659.1C75.1359 659.1 74.2026 658.873 73.3759 658.42C72.5626 657.967 71.9226 657.333 71.4559 656.52C70.9893 655.693 70.7559 654.767 70.7559 653.74C70.7559 652.713 70.9893 651.793 71.4559 650.98C71.9226 650.167 72.5626 649.533 73.3759 649.08C74.2026 648.627 75.1359 648.4 76.1759 648.4C77.0826 648.4 77.8893 648.58 78.5959 648.94C79.3159 649.287 79.8826 649.8 80.2959 650.48L79.2359 651.2C78.8893 650.68 78.4493 650.293 77.9159 650.04C77.3826 649.773 76.8026 649.64 76.1759 649.64C75.4159 649.64 74.7293 649.813 74.1159 650.16C73.5159 650.493 73.0426 650.973 72.6959 651.6C72.3626 652.227 72.1959 652.94 72.1959 653.74C72.1959 654.553 72.3626 655.273 72.6959 655.9C73.0426 656.513 73.5159 656.993 74.1159 657.34C74.7293 657.673 75.4159 657.84 76.1759 657.84C76.8026 657.84 77.3826 657.713 77.9159 657.46C78.4493 657.207 78.8893 656.82 79.2359 656.3L80.2959 657.02C79.8826 657.7 79.3159 658.22 78.5959 658.58C77.8759 658.927 77.0693 659.1 76.1759 659.1ZM88.7427 658.36C88.476 658.6 88.1427 658.787 87.7427 658.92C87.356 659.04 86.9493 659.1 86.5227 659.1C85.536 659.1 84.776 658.833 84.2427 658.3C83.7093 657.767 83.4427 657.013 83.4427 656.04V649.68H81.5627V648.48H83.4427V646.18H84.8627V648.48H88.0627V649.68H84.8627V655.96C84.8627 656.587 85.016 657.067 85.3227 657.4C85.6427 657.72 86.096 657.88 86.6827 657.88C86.976 657.88 87.256 657.833 87.5227 657.74C87.8027 657.647 88.0427 657.513 88.2427 657.34L88.7427 658.36ZM100.117 654.18H91.3166C91.3966 655.273 91.8166 656.16 92.5766 656.84C93.3366 657.507 94.2966 657.84 95.4566 657.84C96.1099 657.84 96.7099 657.727 97.2566 657.5C97.8032 657.26 98.2766 656.913 98.6766 656.46L99.4766 657.38C99.0099 657.94 98.4232 658.367 97.7166 658.66C97.0232 658.953 96.2566 659.1 95.4166 659.1C94.3366 659.1 93.3766 658.873 92.5366 658.42C91.7099 657.953 91.0632 657.313 90.5966 656.5C90.1299 655.687 89.8966 654.767 89.8966 653.74C89.8966 652.713 90.1166 651.793 90.5566 650.98C91.0099 650.167 91.6232 649.533 92.3966 649.08C93.1832 648.627 94.0632 648.4 95.0366 648.4C96.0099 648.4 96.8832 648.627 97.6566 649.08C98.4299 649.533 99.0366 650.167 99.4766 650.98C99.9166 651.78 100.137 652.7 100.137 653.74L100.117 654.18ZM95.0366 649.62C94.0232 649.62 93.1699 649.947 92.4766 650.6C91.7966 651.24 91.4099 652.08 91.3166 653.12H98.7766C98.6832 652.08 98.2899 651.24 97.5966 650.6C96.9166 649.947 96.0632 649.62 95.0366 649.62ZM108.567 658.36C108.3 658.6 107.967 658.787 107.567 658.92C107.18 659.04 106.774 659.1 106.347 659.1C105.36 659.1 104.6 658.833 104.067 658.3C103.534 657.767 103.267 657.013 103.267 656.04V649.68H101.387V648.48H103.267V646.18H104.687V648.48H107.887V649.68H104.687V655.96C104.687 656.587 104.84 657.067 105.147 657.4C105.467 657.72 105.92 657.88 106.507 657.88C106.8 657.88 107.08 657.833 107.347 657.74C107.627 657.647 107.867 657.513 108.067 657.34L108.567 658.36ZM120.632 648.48V659H119.272V657.08C118.899 657.72 118.385 658.22 117.732 658.58C117.079 658.927 116.332 659.1 115.492 659.1C114.119 659.1 113.032 658.72 112.232 657.96C111.445 657.187 111.052 656.06 111.052 654.58V648.48H112.472V654.44C112.472 655.547 112.745 656.387 113.292 656.96C113.839 657.533 114.619 657.82 115.632 657.82C116.739 657.82 117.612 657.487 118.252 656.82C118.892 656.14 119.212 655.2 119.212 654V648.48H120.632ZM125.969 650.54C126.302 649.833 126.796 649.3 127.449 648.94C128.116 648.58 128.936 648.4 129.909 648.4V649.78L129.569 649.76C128.462 649.76 127.596 650.1 126.969 650.78C126.342 651.46 126.029 652.413 126.029 653.64V659H124.609V648.48H125.969V650.54ZM146.711 648.48L142.031 659H140.571L135.911 648.48H137.391L141.331 657.44L145.311 648.48H146.711ZM157.578 654.18H148.778C148.858 655.273 149.278 656.16 150.038 656.84C150.798 657.507 151.758 657.84 152.918 657.84C153.571 657.84 154.171 657.727 154.718 657.5C155.264 657.26 155.738 656.913 156.138 656.46L156.938 657.38C156.471 657.94 155.884 658.367 155.178 658.66C154.484 658.953 153.718 659.1 152.878 659.1C151.798 659.1 150.838 658.873 149.998 658.42C149.171 657.953 148.524 657.313 148.058 656.5C147.591 655.687 147.358 654.767 147.358 653.74C147.358 652.713 147.578 651.793 148.018 650.98C148.471 650.167 149.084 649.533 149.858 649.08C150.644 648.627 151.524 648.4 152.498 648.4C153.471 648.4 154.344 648.627 155.118 649.08C155.891 649.533 156.498 650.167 156.938 650.98C157.378 651.78 157.598 652.7 157.598 653.74L157.578 654.18ZM152.498 649.62C151.484 649.62 150.631 649.947 149.938 650.6C149.258 651.24 148.871 652.08 148.778 653.12H156.238C156.144 652.08 155.751 651.24 155.058 650.6C154.378 649.947 153.524 649.62 152.498 649.62ZM163.308 659.1C162.454 659.1 161.634 658.98 160.848 658.74C160.074 658.487 159.468 658.173 159.028 657.8L159.668 656.68C160.108 657.027 160.661 657.313 161.328 657.54C161.994 657.753 162.688 657.86 163.408 657.86C164.368 657.86 165.074 657.713 165.528 657.42C165.994 657.113 166.228 656.687 166.228 656.14C166.228 655.753 166.101 655.453 165.848 655.24C165.594 655.013 165.274 654.847 164.888 654.74C164.501 654.62 163.988 654.507 163.348 654.4C162.494 654.24 161.808 654.08 161.288 653.92C160.768 653.747 160.321 653.46 159.948 653.06C159.588 652.66 159.408 652.107 159.408 651.4C159.408 650.52 159.774 649.8 160.508 649.24C161.241 648.68 162.261 648.4 163.568 648.4C164.248 648.4 164.928 648.493 165.608 648.68C166.288 648.853 166.848 649.087 167.288 649.38L166.668 650.52C165.801 649.92 164.768 649.62 163.568 649.62C162.661 649.62 161.974 649.78 161.508 650.1C161.054 650.42 160.828 650.84 160.828 651.36C160.828 651.76 160.954 652.08 161.208 652.32C161.474 652.56 161.801 652.74 162.188 652.86C162.574 652.967 163.108 653.08 163.788 653.2C164.628 653.36 165.301 653.52 165.808 653.68C166.314 653.84 166.748 654.113 167.108 654.5C167.468 654.887 167.648 655.42 167.648 656.1C167.648 657.02 167.261 657.753 166.488 658.3C165.728 658.833 164.668 659.1 163.308 659.1ZM175.813 658.36C175.546 658.6 175.213 658.787 174.813 658.92C174.426 659.04 174.02 659.1 173.593 659.1C172.606 659.1 171.846 658.833 171.313 658.3C170.78 657.767 170.513 657.013 170.513 656.04V649.68H168.633V648.48H170.513V646.18H171.933V648.48H175.133V649.68H171.933V655.96C171.933 656.587 172.086 657.067 172.393 657.4C172.713 657.72 173.166 657.88 173.753 657.88C174.046 657.88 174.326 657.833 174.593 657.74C174.873 657.647 175.113 657.513 175.313 657.34L175.813 658.36ZM178.398 648.48H179.818V659H178.398V648.48ZM179.118 646.18C178.825 646.18 178.578 646.08 178.378 645.88C178.178 645.68 178.078 645.44 178.078 645.16C178.078 644.893 178.178 644.66 178.378 644.46C178.578 644.26 178.825 644.16 179.118 644.16C179.411 644.16 179.658 644.26 179.858 644.46C180.058 644.647 180.158 644.873 180.158 645.14C180.158 645.433 180.058 645.68 179.858 645.88C179.658 646.08 179.411 646.18 179.118 646.18ZM189.189 648.4C190.176 648.4 191.069 648.627 191.869 649.08C192.669 649.52 193.296 650.147 193.749 650.96C194.202 651.773 194.429 652.7 194.429 653.74C194.429 654.78 194.202 655.707 193.749 656.52C193.296 657.333 192.669 657.967 191.869 658.42C191.069 658.873 190.176 659.1 189.189 659.1C188.309 659.1 187.516 658.913 186.809 658.54C186.116 658.167 185.556 657.627 185.129 656.92V659H183.769V644.16H185.189V650.48C185.629 649.8 186.189 649.287 186.869 648.94C187.562 648.58 188.336 648.4 189.189 648.4ZM189.089 657.84C189.822 657.84 190.489 657.673 191.089 657.34C191.689 656.993 192.156 656.507 192.489 655.88C192.836 655.253 193.009 654.54 193.009 653.74C193.009 652.94 192.836 652.227 192.489 651.6C192.156 650.973 191.689 650.493 191.089 650.16C190.489 649.813 189.822 649.64 189.089 649.64C188.342 649.64 187.669 649.813 187.069 650.16C186.482 650.493 186.016 650.973 185.669 651.6C185.336 652.227 185.169 652.94 185.169 653.74C185.169 654.54 185.336 655.253 185.669 655.88C186.016 656.507 186.482 656.993 187.069 657.34C187.669 657.673 188.342 657.84 189.089 657.84ZM206.804 648.48V659H205.444V657.08C205.07 657.72 204.557 658.22 203.904 658.58C203.25 658.927 202.504 659.1 201.664 659.1C200.29 659.1 199.204 658.72 198.404 657.96C197.617 657.187 197.224 656.06 197.224 654.58V648.48H198.644V654.44C198.644 655.547 198.917 656.387 199.464 656.96C200.01 657.533 200.79 657.82 201.804 657.82C202.91 657.82 203.784 657.487 204.424 656.82C205.064 656.14 205.384 655.2 205.384 654V648.48H206.804ZM210.781 644.16H212.201V659H210.781V644.16ZM225.632 648.48V659H224.272V657.08C223.899 657.72 223.385 658.22 222.732 658.58C222.079 658.927 221.332 659.1 220.492 659.1C219.119 659.1 218.032 658.72 217.232 657.96C216.445 657.187 216.052 656.06 216.052 654.58V648.48H217.472V654.44C217.472 655.547 217.745 656.387 218.292 656.96C218.839 657.533 219.619 657.82 220.632 657.82C221.739 657.82 222.612 657.487 223.252 656.82C223.892 656.14 224.212 655.2 224.212 654V648.48H225.632ZM242.729 648.4C244.049 648.4 245.082 648.78 245.829 649.54C246.589 650.3 246.969 651.42 246.969 652.9V659H245.549V653.04C245.549 651.947 245.282 651.113 244.749 650.54C244.229 649.967 243.489 649.68 242.529 649.68C241.436 649.68 240.576 650.02 239.949 650.7C239.322 651.367 239.009 652.293 239.009 653.48V659H237.589V653.04C237.589 651.947 237.322 651.113 236.789 650.54C236.269 649.967 235.522 649.68 234.549 649.68C233.469 649.68 232.609 650.02 231.969 650.7C231.342 651.367 231.029 652.293 231.029 653.48V659H229.609V648.48H230.969V650.4C231.342 649.76 231.862 649.267 232.529 648.92C233.196 648.573 233.962 648.4 234.829 648.4C235.709 648.4 236.469 648.587 237.109 648.96C237.762 649.333 238.249 649.887 238.569 650.62C238.956 649.927 239.509 649.387 240.229 649C240.962 648.6 241.796 648.4 242.729 648.4Z" fill="#141720"/>
<path fill-rule="evenodd" clip-rule="evenodd" d="M28.8574 582.008H11.1412C10.1449 582.008 9.33618 582.816 9.33618 583.813V616.189C9.33618 617.186 10.1449 617.994 11.1412 617.994H28.8574C29.8537 617.994 30.6624 617.186 30.6624 616.189V583.813C30.6624 582.816 29.8537 582.008 28.8574 582.008ZM29.3299 616.189C29.3299 616.449 29.1187 616.66 28.8587 616.66H11.1424C10.8824 616.66 10.6712 616.449 10.6712 616.189V610.001H29.3312V616.189H29.3299ZM29.3299 608.668H10.6699V587.365H29.3299V608.668ZM29.3299 586.033H10.6699V583.813C10.6699 583.553 10.8812 583.34 11.1412 583.34H28.8574C29.1174 583.34 29.3287 583.553 29.3287 583.813V586.033H29.3299Z" fill="#C71222"/>
<path fill-rule="evenodd" clip-rule="evenodd" d="M18.0012 612.661H22V613.994H18.0012V612.661H18.0012Z" fill="#EE1A21"/>
</svg>
