<svg width="355" height="176" viewBox="0 0 355 176" fill="none" xmlns="http://www.w3.org/2000/svg">
<path d="M6.05713 107.251C4.88037 107.251 3.9502 107.645 3.2666 108.431C2.58789 109.212 2.24854 110.284 2.24854 111.646C2.24854 113.047 2.57568 114.131 3.22998 114.898C3.88916 115.66 4.82666 116.041 6.04248 116.041C6.78955 116.041 7.6416 115.906 8.59863 115.638V116.729C7.85645 117.007 6.94092 117.146 5.85205 117.146C4.2749 117.146 3.05664 116.668 2.19727 115.711C1.34277 114.754 0.915527 113.394 0.915527 111.631C0.915527 110.528 1.12061 109.561 1.53076 108.731C1.9458 107.901 2.5415 107.261 3.31787 106.812C4.09912 106.363 5.01709 106.138 6.07178 106.138C7.19482 106.138 8.17627 106.343 9.01611 106.753L8.48877 107.823C7.67822 107.442 6.86768 107.251 6.05713 107.251ZM18.1807 112.979C18.1807 114.288 17.8511 115.311 17.1919 116.048C16.5327 116.78 15.6221 117.146 14.46 117.146C13.7422 117.146 13.105 116.978 12.5483 116.641C11.9917 116.304 11.562 115.821 11.2593 115.191C10.9565 114.561 10.8052 113.824 10.8052 112.979C10.8052 111.67 11.1323 110.652 11.7866 109.925C12.4409 109.192 13.3491 108.826 14.5112 108.826C15.6343 108.826 16.5254 109.2 17.1846 109.947C17.8486 110.694 18.1807 111.705 18.1807 112.979ZM12.0649 112.979C12.0649 114.004 12.27 114.786 12.6802 115.323C13.0903 115.86 13.6934 116.128 14.4893 116.128C15.2852 116.128 15.8882 115.862 16.2983 115.33C16.7134 114.793 16.9209 114.009 16.9209 112.979C16.9209 111.958 16.7134 111.185 16.2983 110.657C15.8882 110.125 15.2803 109.859 14.4746 109.859C13.6787 109.859 13.0781 110.12 12.6729 110.643C12.2676 111.165 12.0649 111.944 12.0649 112.979ZM26.3125 117V111.807C26.3125 111.153 26.1636 110.665 25.8657 110.342C25.5679 110.02 25.1016 109.859 24.4668 109.859C23.627 109.859 23.0117 110.086 22.6211 110.54C22.2305 110.994 22.0352 111.744 22.0352 112.789V117H20.8193V108.973H21.8081L22.0059 110.071H22.0645C22.3135 109.676 22.6626 109.371 23.1118 109.156C23.561 108.936 24.0615 108.826 24.6133 108.826C25.5801 108.826 26.3076 109.061 26.7959 109.529C27.2842 109.993 27.5283 110.738 27.5283 111.763V117H26.3125ZM35.7114 114.81C35.7114 115.557 35.4331 116.133 34.8765 116.539C34.3198 116.944 33.5386 117.146 32.5327 117.146C31.4683 117.146 30.6382 116.978 30.0425 116.641V115.513C30.4282 115.708 30.8408 115.862 31.2803 115.975C31.7246 116.087 32.1519 116.143 32.562 116.143C33.1968 116.143 33.6851 116.043 34.0269 115.843C34.3687 115.638 34.5396 115.328 34.5396 114.913C34.5396 114.6 34.4028 114.334 34.1294 114.114C33.8608 113.89 33.3335 113.626 32.5474 113.323C31.8003 113.045 31.2681 112.803 30.9507 112.598C30.6382 112.388 30.4038 112.151 30.2476 111.888C30.0962 111.624 30.0205 111.309 30.0205 110.943C30.0205 110.289 30.2866 109.773 30.8188 109.397C31.3511 109.017 32.0811 108.826 33.0088 108.826C33.873 108.826 34.7178 109.002 35.543 109.354L35.1108 110.342C34.3052 110.01 33.5752 109.844 32.9209 109.844C32.3447 109.844 31.9102 109.935 31.6172 110.115C31.3242 110.296 31.1777 110.545 31.1777 110.862C31.1777 111.077 31.2314 111.26 31.3389 111.412C31.4512 111.563 31.6294 111.707 31.8735 111.844C32.1177 111.98 32.5864 112.178 33.2798 112.437C34.2319 112.784 34.874 113.133 35.2061 113.484C35.543 113.836 35.7114 114.278 35.7114 114.81ZM41.5874 117.146C40.4009 117.146 39.4634 116.785 38.7749 116.062C38.0913 115.34 37.7495 114.336 37.7495 113.052C37.7495 111.758 38.0669 110.73 38.7017 109.969C39.3413 109.207 40.1982 108.826 41.2725 108.826C42.2783 108.826 43.0742 109.158 43.6602 109.822C44.2461 110.481 44.5391 111.353 44.5391 112.437V113.206H39.0093C39.0337 114.148 39.2705 114.864 39.7197 115.352C40.1738 115.84 40.811 116.084 41.6313 116.084C42.4956 116.084 43.3501 115.904 44.1948 115.542V116.626C43.7651 116.812 43.3574 116.944 42.9717 117.022C42.5908 117.105 42.1294 117.146 41.5874 117.146ZM41.2578 109.844C40.6133 109.844 40.0981 110.054 39.7124 110.474C39.3315 110.894 39.1069 111.475 39.0386 112.217H43.2354C43.2354 111.451 43.0645 110.865 42.7227 110.459C42.3809 110.049 41.8926 109.844 41.2578 109.844ZM50.3271 117.146C49.165 117.146 48.2642 116.79 47.6245 116.077C46.9897 115.359 46.6724 114.346 46.6724 113.038C46.6724 111.695 46.9946 110.657 47.6392 109.925C48.2886 109.192 49.2114 108.826 50.4077 108.826C50.7935 108.826 51.1792 108.868 51.5649 108.951C51.9507 109.034 52.2534 109.131 52.4731 109.244L52.0996 110.276C51.8311 110.169 51.5381 110.081 51.2207 110.013C50.9033 109.939 50.6226 109.903 50.3784 109.903C48.7476 109.903 47.9321 110.943 47.9321 113.023C47.9321 114.009 48.1299 114.766 48.5254 115.293C48.9258 115.821 49.5166 116.084 50.2979 116.084C50.9668 116.084 51.6528 115.94 52.356 115.652V116.729C51.8188 117.007 51.1426 117.146 50.3271 117.146ZM57.3604 116.143C57.5752 116.143 57.7827 116.128 57.9829 116.099C58.1831 116.065 58.3418 116.031 58.459 115.997V116.927C58.3271 116.99 58.1318 117.042 57.873 117.081C57.6191 117.125 57.3896 117.146 57.1846 117.146C55.6318 117.146 54.8555 116.329 54.8555 114.693V109.917H53.7056V109.332L54.8555 108.826L55.3682 107.112H56.0713V108.973H58.4004V109.917H56.0713V114.642C56.0713 115.125 56.186 115.496 56.4155 115.755C56.645 116.014 56.96 116.143 57.3604 116.143ZM63.9614 117.146C62.7749 117.146 61.8374 116.785 61.1489 116.062C60.4653 115.34 60.1235 114.336 60.1235 113.052C60.1235 111.758 60.4409 110.73 61.0757 109.969C61.7153 109.207 62.5723 108.826 63.6465 108.826C64.6523 108.826 65.4482 109.158 66.0342 109.822C66.6201 110.481 66.9131 111.353 66.9131 112.437V113.206H61.3833C61.4077 114.148 61.6445 114.864 62.0938 115.352C62.5479 115.84 63.1851 116.084 64.0054 116.084C64.8696 116.084 65.7241 115.904 66.5688 115.542V116.626C66.1392 116.812 65.7314 116.944 65.3457 117.022C64.9648 117.105 64.5034 117.146 63.9614 117.146ZM63.6318 109.844C62.9873 109.844 62.4722 110.054 62.0864 110.474C61.7056 110.894 61.481 111.475 61.4126 112.217H65.6094C65.6094 111.451 65.4385 110.865 65.0967 110.459C64.7549 110.049 64.2666 109.844 63.6318 109.844ZM72.0859 116.143C72.3008 116.143 72.5083 116.128 72.7085 116.099C72.9087 116.065 73.0674 116.031 73.1846 115.997V116.927C73.0527 116.99 72.8574 117.042 72.5986 117.081C72.3447 117.125 72.1152 117.146 71.9102 117.146C70.3574 117.146 69.5811 116.329 69.5811 114.693V109.917H68.4312V109.332L69.5811 108.826L70.0938 107.112H70.7969V108.973H73.126V109.917H70.7969V114.642C70.7969 115.125 70.9116 115.496 71.1411 115.755C71.3706 116.014 71.6855 116.143 72.0859 116.143ZM76.4385 108.973V114.18C76.4385 114.834 76.5874 115.323 76.8853 115.645C77.1831 115.967 77.6494 116.128 78.2842 116.128C79.124 116.128 79.7368 115.899 80.1226 115.44C80.5132 114.981 80.7085 114.231 80.7085 113.191V108.973H81.9243V117H80.9209L80.7451 115.923H80.6792C80.4302 116.319 80.0835 116.622 79.6392 116.832C79.1997 117.042 78.6968 117.146 78.1304 117.146C77.1538 117.146 76.4214 116.915 75.9331 116.451C75.4497 115.987 75.208 115.245 75.208 114.224V108.973H76.4385ZM88.6719 108.826C89.0283 108.826 89.3481 108.855 89.6313 108.914L89.4629 110.042C89.1309 109.969 88.8379 109.932 88.584 109.932C87.9346 109.932 87.3779 110.196 86.9141 110.723C86.4551 111.25 86.2256 111.907 86.2256 112.693V117H85.0098V108.973H86.0132L86.1523 110.459H86.2109C86.5088 109.937 86.8677 109.534 87.2876 109.251C87.7075 108.968 88.1689 108.826 88.6719 108.826ZM97.7871 117L94.7402 108.973H96.0439L97.7725 113.733C98.1631 114.847 98.3926 115.569 98.4609 115.901H98.5195C98.5732 115.643 98.7417 115.108 99.0249 114.297C99.313 113.482 99.9551 111.707 100.951 108.973H102.255L99.208 117H97.7871ZM107.435 117.146C106.249 117.146 105.311 116.785 104.623 116.062C103.939 115.34 103.597 114.336 103.597 113.052C103.597 111.758 103.915 110.73 104.549 109.969C105.189 109.207 106.046 108.826 107.12 108.826C108.126 108.826 108.922 109.158 109.508 109.822C110.094 110.481 110.387 111.353 110.387 112.437V113.206H104.857C104.881 114.148 105.118 114.864 105.567 115.352C106.021 115.84 106.659 116.084 107.479 116.084C108.343 116.084 109.198 115.904 110.042 115.542V116.626C109.613 116.812 109.205 116.944 108.819 117.022C108.438 117.105 107.977 117.146 107.435 117.146ZM107.105 109.844C106.461 109.844 105.946 110.054 105.56 110.474C105.179 110.894 104.955 111.475 104.886 112.217H109.083C109.083 111.451 108.912 110.865 108.57 110.459C108.229 110.049 107.74 109.844 107.105 109.844ZM118.145 114.81C118.145 115.557 117.867 116.133 117.31 116.539C116.753 116.944 115.972 117.146 114.966 117.146C113.902 117.146 113.072 116.978 112.476 116.641V115.513C112.862 115.708 113.274 115.862 113.714 115.975C114.158 116.087 114.585 116.143 114.996 116.143C115.63 116.143 116.119 116.043 116.46 115.843C116.802 115.638 116.973 115.328 116.973 114.913C116.973 114.6 116.836 114.334 116.563 114.114C116.294 113.89 115.767 113.626 114.981 113.323C114.234 113.045 113.702 112.803 113.384 112.598C113.072 112.388 112.837 112.151 112.681 111.888C112.53 111.624 112.454 111.309 112.454 110.943C112.454 110.289 112.72 109.773 113.252 109.397C113.785 109.017 114.515 108.826 115.442 108.826C116.307 108.826 117.151 109.002 117.977 109.354L117.544 110.342C116.739 110.01 116.009 109.844 115.354 109.844C114.778 109.844 114.344 109.935 114.051 110.115C113.758 110.296 113.611 110.545 113.611 110.862C113.611 111.077 113.665 111.26 113.772 111.412C113.885 111.563 114.063 111.707 114.307 111.844C114.551 111.98 115.02 112.178 115.713 112.437C116.666 112.784 117.308 113.133 117.64 113.484C117.977 113.836 118.145 114.278 118.145 114.81ZM123.223 116.143C123.438 116.143 123.645 116.128 123.845 116.099C124.045 116.065 124.204 116.031 124.321 115.997V116.927C124.189 116.99 123.994 117.042 123.735 117.081C123.481 117.125 123.252 117.146 123.047 117.146C121.494 117.146 120.718 116.329 120.718 114.693V109.917H119.568V109.332L120.718 108.826L121.23 107.112H121.934V108.973H124.263V109.917H121.934V114.642C121.934 115.125 122.048 115.496 122.278 115.755C122.507 116.014 122.822 116.143 123.223 116.143ZM127.648 117H126.433V108.973H127.648V117ZM126.33 106.797C126.33 106.519 126.398 106.316 126.535 106.189C126.672 106.058 126.843 105.992 127.048 105.992C127.243 105.992 127.412 106.058 127.553 106.189C127.695 106.321 127.766 106.524 127.766 106.797C127.766 107.071 127.695 107.276 127.553 107.413C127.412 107.544 127.243 107.61 127.048 107.61C126.843 107.61 126.672 107.544 126.535 107.413C126.398 107.276 126.33 107.071 126.33 106.797ZM134.462 108.841C135.517 108.841 136.334 109.202 136.916 109.925C137.501 110.643 137.794 111.661 137.794 112.979C137.794 114.297 137.499 115.323 136.908 116.055C136.322 116.783 135.507 117.146 134.462 117.146C133.939 117.146 133.461 117.051 133.026 116.861C132.597 116.666 132.235 116.368 131.942 115.967H131.854L131.598 117H130.727V105.604H131.942V108.372C131.942 108.992 131.923 109.549 131.884 110.042H131.942C132.509 109.241 133.349 108.841 134.462 108.841ZM134.286 109.859C133.456 109.859 132.858 110.098 132.492 110.577C132.125 111.05 131.942 111.851 131.942 112.979C131.942 114.107 132.13 114.915 132.506 115.403C132.882 115.887 133.485 116.128 134.315 116.128C135.062 116.128 135.619 115.857 135.985 115.315C136.352 114.769 136.535 113.985 136.535 112.964C136.535 111.919 136.352 111.141 135.985 110.628C135.619 110.115 135.053 109.859 134.286 109.859ZM141.568 108.973V114.18C141.568 114.834 141.717 115.323 142.015 115.645C142.313 115.967 142.779 116.128 143.414 116.128C144.254 116.128 144.867 115.899 145.252 115.44C145.643 114.981 145.838 114.231 145.838 113.191V108.973H147.054V117H146.051L145.875 115.923H145.809C145.56 116.319 145.213 116.622 144.769 116.832C144.33 117.042 143.827 117.146 143.26 117.146C142.284 117.146 141.551 116.915 141.063 116.451C140.58 115.987 140.338 115.245 140.338 114.224V108.973H141.568ZM151.355 117H150.14V105.604H151.355V117ZM155.576 108.973V114.18C155.576 114.834 155.725 115.323 156.023 115.645C156.321 115.967 156.787 116.128 157.422 116.128C158.262 116.128 158.875 115.899 159.26 115.44C159.651 114.981 159.846 114.231 159.846 113.191V108.973H161.062V117H160.059L159.883 115.923H159.817C159.568 116.319 159.221 116.622 158.777 116.832C158.337 117.042 157.834 117.146 157.268 117.146C156.292 117.146 155.559 116.915 155.071 116.451C154.587 115.987 154.346 115.245 154.346 114.224V108.973H155.576ZM174.379 117V111.778C174.379 111.138 174.243 110.66 173.969 110.342C173.696 110.02 173.271 109.859 172.695 109.859C171.938 109.859 171.379 110.076 171.018 110.511C170.656 110.945 170.476 111.614 170.476 112.518V117H169.26V111.778C169.26 111.138 169.123 110.66 168.85 110.342C168.576 110.02 168.149 109.859 167.568 109.859C166.806 109.859 166.247 110.088 165.891 110.547C165.539 111.001 165.363 111.749 165.363 112.789V117H164.147V108.973H165.136L165.334 110.071H165.393C165.622 109.681 165.944 109.375 166.359 109.156C166.779 108.936 167.248 108.826 167.766 108.826C169.021 108.826 169.841 109.28 170.227 110.188H170.285C170.524 109.769 170.871 109.437 171.325 109.192C171.779 108.948 172.297 108.826 172.878 108.826C173.786 108.826 174.465 109.061 174.914 109.529C175.368 109.993 175.595 110.738 175.595 111.763V117H174.379ZM193.236 117V111.778C193.236 111.138 193.099 110.66 192.826 110.342C192.552 110.02 192.127 109.859 191.551 109.859C190.794 109.859 190.235 110.076 189.874 110.511C189.513 110.945 189.332 111.614 189.332 112.518V117H188.116V111.778C188.116 111.138 187.979 110.66 187.706 110.342C187.433 110.02 187.005 109.859 186.424 109.859C185.663 109.859 185.104 110.088 184.747 110.547C184.396 111.001 184.22 111.749 184.22 112.789V117H183.004V108.973H183.993L184.19 110.071H184.249C184.479 109.681 184.801 109.375 185.216 109.156C185.636 108.936 186.104 108.826 186.622 108.826C187.877 108.826 188.697 109.28 189.083 110.188H189.142C189.381 109.769 189.728 109.437 190.182 109.192C190.636 108.948 191.153 108.826 191.734 108.826C192.643 108.826 193.321 109.061 193.771 109.529C194.225 109.993 194.452 110.738 194.452 111.763V117H193.236ZM202.4 117L202.159 115.857H202.1C201.7 116.36 201.299 116.702 200.899 116.883C200.503 117.059 200.008 117.146 199.412 117.146C198.616 117.146 197.991 116.941 197.537 116.531C197.088 116.121 196.863 115.538 196.863 114.781C196.863 113.16 198.16 112.31 200.752 112.232L202.115 112.188V111.69C202.115 111.06 201.978 110.596 201.705 110.298C201.436 109.996 201.004 109.844 200.408 109.844C199.739 109.844 198.982 110.049 198.138 110.459L197.764 109.529C198.16 109.314 198.592 109.146 199.061 109.024C199.534 108.902 200.008 108.841 200.481 108.841C201.438 108.841 202.146 109.053 202.605 109.478C203.069 109.903 203.301 110.584 203.301 111.521V117H202.4ZM199.654 116.143C200.411 116.143 201.004 115.936 201.434 115.521C201.868 115.105 202.085 114.524 202.085 113.777V113.052L200.87 113.104C199.903 113.138 199.205 113.289 198.775 113.558C198.35 113.821 198.138 114.234 198.138 114.795C198.138 115.235 198.27 115.569 198.533 115.799C198.802 116.028 199.175 116.143 199.654 116.143ZM209.705 117.146C208.518 117.146 207.581 116.785 206.892 116.062C206.208 115.34 205.867 114.336 205.867 113.052C205.867 111.758 206.184 110.73 206.819 109.969C207.458 109.207 208.315 108.826 209.39 108.826C210.396 108.826 211.191 109.158 211.777 109.822C212.363 110.481 212.656 111.353 212.656 112.437V113.206H207.126C207.151 114.148 207.388 114.864 207.837 115.352C208.291 115.84 208.928 116.084 209.749 116.084C210.613 116.084 211.467 115.904 212.312 115.542V116.626C211.882 116.812 211.475 116.944 211.089 117.022C210.708 117.105 210.247 117.146 209.705 117.146ZM209.375 109.844C208.73 109.844 208.215 110.054 207.83 110.474C207.449 110.894 207.224 111.475 207.156 112.217H211.353C211.353 111.451 211.182 110.865 210.84 110.459C210.498 110.049 210.01 109.844 209.375 109.844ZM218.444 117.146C217.282 117.146 216.381 116.79 215.742 116.077C215.107 115.359 214.79 114.346 214.79 113.038C214.79 111.695 215.112 110.657 215.756 109.925C216.406 109.192 217.329 108.826 218.525 108.826C218.911 108.826 219.296 108.868 219.682 108.951C220.068 109.034 220.371 109.131 220.59 109.244L220.217 110.276C219.948 110.169 219.655 110.081 219.338 110.013C219.021 109.939 218.74 109.903 218.496 109.903C216.865 109.903 216.049 110.943 216.049 113.023C216.049 114.009 216.247 114.766 216.643 115.293C217.043 115.821 217.634 116.084 218.415 116.084C219.084 116.084 219.77 115.94 220.473 115.652V116.729C219.936 117.007 219.26 117.146 218.444 117.146ZM226.276 117.146C225.089 117.146 224.152 116.785 223.463 116.062C222.78 115.34 222.438 114.336 222.438 113.052C222.438 111.758 222.755 110.73 223.39 109.969C224.03 109.207 224.887 108.826 225.961 108.826C226.967 108.826 227.763 109.158 228.349 109.822C228.935 110.481 229.228 111.353 229.228 112.437V113.206H223.698C223.722 114.148 223.959 114.864 224.408 115.352C224.862 115.84 225.5 116.084 226.32 116.084C227.184 116.084 228.039 115.904 228.883 115.542V116.626C228.454 116.812 228.046 116.944 227.66 117.022C227.279 117.105 226.818 117.146 226.276 117.146ZM225.946 109.844C225.302 109.844 224.787 110.054 224.401 110.474C224.02 110.894 223.795 111.475 223.727 112.217H227.924C227.924 111.451 227.753 110.865 227.411 110.459C227.069 110.049 226.581 109.844 225.946 109.844ZM237.301 117V111.807C237.301 111.153 237.152 110.665 236.854 110.342C236.556 110.02 236.09 109.859 235.455 109.859C234.615 109.859 234 110.086 233.609 110.54C233.219 110.994 233.023 111.744 233.023 112.789V117H231.808V108.973H232.796L232.994 110.071H233.053C233.302 109.676 233.651 109.371 234.1 109.156C234.549 108.936 235.05 108.826 235.602 108.826C236.568 108.826 237.296 109.061 237.784 109.529C238.272 109.993 238.517 110.738 238.517 111.763V117H237.301ZM246.458 117L246.216 115.857H246.158C245.757 116.36 245.357 116.702 244.957 116.883C244.561 117.059 244.065 117.146 243.47 117.146C242.674 117.146 242.049 116.941 241.595 116.531C241.146 116.121 240.921 115.538 240.921 114.781C240.921 113.16 242.217 112.31 244.81 112.232L246.172 112.188V111.69C246.172 111.06 246.036 110.596 245.762 110.298C245.494 109.996 245.062 109.844 244.466 109.844C243.797 109.844 243.04 110.049 242.195 110.459L241.822 109.529C242.217 109.314 242.649 109.146 243.118 109.024C243.592 108.902 244.065 108.841 244.539 108.841C245.496 108.841 246.204 109.053 246.663 109.478C247.127 109.903 247.359 110.584 247.359 111.521V117H246.458ZM243.711 116.143C244.468 116.143 245.062 115.936 245.491 115.521C245.926 115.105 246.143 114.524 246.143 113.777V113.052L244.927 113.104C243.96 113.138 243.262 113.289 242.833 113.558C242.408 113.821 242.195 114.234 242.195 114.795C242.195 115.235 242.327 115.569 242.591 115.799C242.859 116.028 243.233 116.143 243.711 116.143ZM255.549 114.81C255.549 115.557 255.271 116.133 254.714 116.539C254.158 116.944 253.376 117.146 252.371 117.146C251.306 117.146 250.476 116.978 249.88 116.641V115.513C250.266 115.708 250.679 115.862 251.118 115.975C251.562 116.087 251.99 116.143 252.4 116.143C253.035 116.143 253.523 116.043 253.865 115.843C254.207 115.638 254.377 115.328 254.377 114.913C254.377 114.6 254.241 114.334 253.967 114.114C253.699 113.89 253.171 113.626 252.385 113.323C251.638 113.045 251.106 112.803 250.789 112.598C250.476 112.388 250.242 112.151 250.085 111.888C249.934 111.624 249.858 111.309 249.858 110.943C249.858 110.289 250.125 109.773 250.657 109.397C251.189 109.017 251.919 108.826 252.847 108.826C253.711 108.826 254.556 109.002 255.381 109.354L254.949 110.342C254.143 110.01 253.413 109.844 252.759 109.844C252.183 109.844 251.748 109.935 251.455 110.115C251.162 110.296 251.016 110.545 251.016 110.862C251.016 111.077 251.069 111.26 251.177 111.412C251.289 111.563 251.467 111.707 251.711 111.844C251.956 111.98 252.424 112.178 253.118 112.437C254.07 112.784 254.712 113.133 255.044 113.484C255.381 113.836 255.549 114.278 255.549 114.81ZM265.639 117.146C264.477 117.146 263.576 116.79 262.936 116.077C262.301 115.359 261.984 114.346 261.984 113.038C261.984 111.695 262.306 110.657 262.951 109.925C263.6 109.192 264.523 108.826 265.719 108.826C266.105 108.826 266.491 108.868 266.876 108.951C267.262 109.034 267.565 109.131 267.785 109.244L267.411 110.276C267.143 110.169 266.85 110.081 266.532 110.013C266.215 109.939 265.934 109.903 265.69 109.903C264.059 109.903 263.244 110.943 263.244 113.023C263.244 114.009 263.441 114.766 263.837 115.293C264.237 115.821 264.828 116.084 265.609 116.084C266.278 116.084 266.964 115.94 267.667 115.652V116.729C267.13 117.007 266.454 117.146 265.639 117.146ZM271.222 108.973V114.18C271.222 114.834 271.371 115.323 271.668 115.645C271.966 115.967 272.433 116.128 273.067 116.128C273.907 116.128 274.52 115.899 274.906 115.44C275.296 114.981 275.492 114.231 275.492 113.191V108.973H276.708V117H275.704L275.528 115.923H275.462C275.213 116.319 274.867 116.622 274.422 116.832C273.983 117.042 273.48 117.146 272.914 117.146C271.937 117.146 271.205 116.915 270.716 116.451C270.233 115.987 269.991 115.245 269.991 114.224V108.973H271.222ZM283.455 108.826C283.812 108.826 284.131 108.855 284.415 108.914L284.246 110.042C283.914 109.969 283.621 109.932 283.367 109.932C282.718 109.932 282.161 110.196 281.697 110.723C281.238 111.25 281.009 111.907 281.009 112.693V117H279.793V108.973H280.796L280.936 110.459H280.994C281.292 109.937 281.651 109.534 282.071 109.251C282.491 108.968 282.952 108.826 283.455 108.826ZM291.353 117L291.111 115.857H291.052C290.652 116.36 290.251 116.702 289.851 116.883C289.456 117.059 288.96 117.146 288.364 117.146C287.568 117.146 286.943 116.941 286.489 116.531C286.04 116.121 285.815 115.538 285.815 114.781C285.815 113.16 287.112 112.31 289.705 112.232L291.067 112.188V111.69C291.067 111.06 290.93 110.596 290.657 110.298C290.388 109.996 289.956 109.844 289.36 109.844C288.691 109.844 287.935 110.049 287.09 110.459L286.716 109.529C287.112 109.314 287.544 109.146 288.013 109.024C288.486 108.902 288.96 108.841 289.434 108.841C290.391 108.841 291.099 109.053 291.558 109.478C292.021 109.903 292.253 110.584 292.253 111.521V117H291.353ZM288.606 116.143C289.363 116.143 289.956 115.936 290.386 115.521C290.82 115.105 291.038 114.524 291.038 113.777V113.052L289.822 113.104C288.855 113.138 288.157 113.289 287.727 113.558C287.302 113.821 287.09 114.234 287.09 114.795C287.09 115.235 287.222 115.569 287.485 115.799C287.754 116.028 288.127 116.143 288.606 116.143ZM299.001 108.841C300.056 108.841 300.874 109.202 301.455 109.925C302.041 110.643 302.333 111.661 302.333 112.979C302.333 114.297 302.038 115.323 301.447 116.055C300.861 116.783 300.046 117.146 299.001 117.146C298.479 117.146 298 117.051 297.565 116.861C297.136 116.666 296.774 116.368 296.481 115.967H296.394L296.137 117H295.266V105.604H296.481V108.372C296.481 108.992 296.462 109.549 296.423 110.042H296.481C297.048 109.241 297.888 108.841 299.001 108.841ZM298.825 109.859C297.995 109.859 297.397 110.098 297.031 110.577C296.665 111.05 296.481 111.851 296.481 112.979C296.481 114.107 296.669 114.915 297.045 115.403C297.421 115.887 298.024 116.128 298.854 116.128C299.602 116.128 300.158 115.857 300.524 115.315C300.891 114.769 301.074 113.985 301.074 112.964C301.074 111.919 300.891 111.141 300.524 110.628C300.158 110.115 299.592 109.859 298.825 109.859ZM306.181 117H304.965V108.973H306.181V117ZM304.862 106.797C304.862 106.519 304.931 106.316 305.067 106.189C305.204 106.058 305.375 105.992 305.58 105.992C305.775 105.992 305.944 106.058 306.085 106.189C306.227 106.321 306.298 106.524 306.298 106.797C306.298 107.071 306.227 107.276 306.085 107.413C305.944 107.544 305.775 107.61 305.58 107.61C305.375 107.61 305.204 107.544 305.067 107.413C304.931 107.276 304.862 107.071 304.862 106.797ZM311.852 116.143C312.066 116.143 312.274 116.128 312.474 116.099C312.674 116.065 312.833 116.031 312.95 115.997V116.927C312.818 116.99 312.623 117.042 312.364 117.081C312.11 117.125 311.881 117.146 311.676 117.146C310.123 117.146 309.347 116.329 309.347 114.693V109.917H308.197V109.332L309.347 108.826L309.859 107.112H310.562V108.973H312.892V109.917H310.562V114.642C310.562 115.125 310.677 115.496 310.907 115.755C311.136 116.014 311.451 116.143 311.852 116.143ZM316.204 108.973V114.18C316.204 114.834 316.353 115.323 316.651 115.645C316.949 115.967 317.415 116.128 318.05 116.128C318.89 116.128 319.502 115.899 319.888 115.44C320.279 114.981 320.474 114.231 320.474 113.191V108.973H321.69V117H320.687L320.511 115.923H320.445C320.196 116.319 319.849 116.622 319.405 116.832C318.965 117.042 318.462 117.146 317.896 117.146C316.919 117.146 316.187 116.915 315.699 116.451C315.215 115.987 314.974 115.245 314.974 114.224V108.973H316.204ZM328.438 108.826C328.794 108.826 329.114 108.855 329.397 108.914L329.229 110.042C328.896 109.969 328.604 109.932 328.35 109.932C327.7 109.932 327.144 110.196 326.68 110.723C326.221 111.25 325.991 111.907 325.991 112.693V117H324.775V108.973H325.779L325.918 110.459H325.977C326.274 109.937 326.633 109.534 327.053 109.251C327.473 108.968 327.935 108.826 328.438 108.826ZM6.78223 143V137.807C6.78223 137.153 6.6333 136.665 6.33545 136.342C6.0376 136.02 5.57129 135.859 4.93652 135.859C4.0918 135.859 3.47412 136.088 3.0835 136.547C2.69775 137.006 2.50488 137.758 2.50488 138.803V143H1.28906V131.604H2.50488V135.053C2.50488 135.468 2.48535 135.812 2.44629 136.086H2.51953C2.75879 135.7 3.09814 135.397 3.5376 135.178C3.98193 134.953 4.4873 134.841 5.05371 134.841C6.03516 134.841 6.77002 135.075 7.2583 135.544C7.75146 136.008 7.99805 136.748 7.99805 137.763V143H6.78223ZM15.9395 143L15.6978 141.857H15.6392C15.2388 142.36 14.8384 142.702 14.438 142.883C14.0425 143.059 13.5469 143.146 12.9512 143.146C12.1553 143.146 11.5303 142.941 11.0762 142.531C10.627 142.121 10.4023 141.538 10.4023 140.781C10.4023 139.16 11.6987 138.31 14.2915 138.232L15.6538 138.188V137.69C15.6538 137.06 15.5171 136.596 15.2437 136.298C14.9751 135.996 14.543 135.844 13.9473 135.844C13.2783 135.844 12.5215 136.049 11.6768 136.459L11.3032 135.529C11.6987 135.314 12.1309 135.146 12.5996 135.024C13.0732 134.902 13.5469 134.841 14.0205 134.841C14.9775 134.841 15.6855 135.053 16.1445 135.478C16.6084 135.903 16.8403 136.584 16.8403 137.521V143H15.9395ZM13.1929 142.143C13.9497 142.143 14.543 141.936 14.9727 141.521C15.4072 141.105 15.6245 140.524 15.6245 139.777V139.052L14.4087 139.104C13.4419 139.138 12.7437 139.289 12.314 139.558C11.8892 139.821 11.6768 140.234 11.6768 140.795C11.6768 141.235 11.8086 141.569 12.0723 141.799C12.3408 142.028 12.7144 142.143 13.1929 142.143ZM23.0605 143.146C21.8984 143.146 20.9976 142.79 20.3579 142.077C19.7231 141.359 19.4058 140.346 19.4058 139.038C19.4058 137.695 19.728 136.657 20.3726 135.925C21.022 135.192 21.9448 134.826 23.1411 134.826C23.5269 134.826 23.9126 134.868 24.2983 134.951C24.6841 135.034 24.9868 135.131 25.2065 135.244L24.833 136.276C24.5645 136.169 24.2715 136.081 23.9541 136.013C23.6367 135.939 23.356 135.903 23.1118 135.903C21.481 135.903 20.6655 136.943 20.6655 139.023C20.6655 140.009 20.8633 140.766 21.2588 141.293C21.6592 141.821 22.25 142.084 23.0312 142.084C23.7002 142.084 24.3862 141.94 25.0894 141.652V142.729C24.5522 143.007 23.876 143.146 23.0605 143.146ZM35.5156 135.917H33.4722V143H32.2563V135.917H30.8208V135.368L32.2563 134.929V134.482C32.2563 132.509 33.1182 131.523 34.8418 131.523C35.2666 131.523 35.7646 131.608 36.3359 131.779L36.021 132.753C35.5522 132.602 35.1519 132.526 34.8198 132.526C34.3608 132.526 34.0215 132.68 33.8018 132.988C33.582 133.291 33.4722 133.779 33.4722 134.453V134.973H35.5156V135.917ZM40.8716 143.146C39.6851 143.146 38.7476 142.785 38.0591 142.062C37.3755 141.34 37.0337 140.336 37.0337 139.052C37.0337 137.758 37.3511 136.73 37.9858 135.969C38.6255 135.207 39.4824 134.826 40.5566 134.826C41.5625 134.826 42.3584 135.158 42.9443 135.822C43.5303 136.481 43.8232 137.353 43.8232 138.437V139.206H38.2935C38.3179 140.148 38.5547 140.864 39.0039 141.352C39.458 141.84 40.0952 142.084 40.9155 142.084C41.7798 142.084 42.6343 141.904 43.479 141.542V142.626C43.0493 142.812 42.6416 142.944 42.2559 143.022C41.875 143.105 41.4136 143.146 40.8716 143.146ZM40.542 135.844C39.8975 135.844 39.3823 136.054 38.9966 136.474C38.6157 136.894 38.3911 137.475 38.3228 138.217H42.5195C42.5195 137.451 42.3486 136.865 42.0068 136.459C41.665 136.049 41.1768 135.844 40.542 135.844ZM47.6191 143H46.4033V131.604H47.6191V143ZM51.9131 143H50.6973V134.973H51.9131V143ZM50.5947 132.797C50.5947 132.519 50.6631 132.316 50.7998 132.189C50.9365 132.058 51.1074 131.992 51.3125 131.992C51.5078 131.992 51.6763 132.058 51.8179 132.189C51.9595 132.321 52.0303 132.524 52.0303 132.797C52.0303 133.071 51.9595 133.276 51.8179 133.413C51.6763 133.544 51.5078 133.61 51.3125 133.61C51.1074 133.61 50.9365 133.544 50.7998 133.413C50.6631 133.276 50.5947 133.071 50.5947 132.797ZM60.1694 140.81C60.1694 141.557 59.8911 142.133 59.3345 142.539C58.7778 142.944 57.9966 143.146 56.9907 143.146C55.9263 143.146 55.0962 142.978 54.5005 142.641V141.513C54.8862 141.708 55.2988 141.862 55.7383 141.975C56.1826 142.087 56.6099 142.143 57.02 142.143C57.6548 142.143 58.1431 142.043 58.4849 141.843C58.8267 141.638 58.9976 141.328 58.9976 140.913C58.9976 140.6 58.8608 140.334 58.5874 140.114C58.3188 139.89 57.7915 139.626 57.0054 139.323C56.2583 139.045 55.7261 138.803 55.4087 138.598C55.0962 138.388 54.8618 138.151 54.7056 137.888C54.5542 137.624 54.4785 137.309 54.4785 136.943C54.4785 136.289 54.7446 135.773 55.2769 135.397C55.8091 135.017 56.5391 134.826 57.4668 134.826C58.3311 134.826 59.1758 135.002 60.001 135.354L59.5688 136.342C58.7632 136.01 58.0332 135.844 57.3789 135.844C56.8027 135.844 56.3682 135.935 56.0752 136.115C55.7822 136.296 55.6357 136.545 55.6357 136.862C55.6357 137.077 55.6895 137.26 55.7969 137.412C55.9092 137.563 56.0874 137.707 56.3315 137.844C56.5757 137.98 57.0444 138.178 57.7378 138.437C58.6899 138.784 59.332 139.133 59.6641 139.484C60.001 139.836 60.1694 140.278 60.1694 140.81ZM68.8086 143L65.7617 134.973H67.0654L68.7939 139.733C69.1846 140.847 69.4141 141.569 69.4824 141.901H69.541C69.5947 141.643 69.7632 141.108 70.0464 140.297C70.3345 139.482 70.9766 137.707 71.9727 134.973H73.2764L70.2295 143H68.8086ZM78.4565 143.146C77.27 143.146 76.3325 142.785 75.644 142.062C74.9604 141.34 74.6187 140.336 74.6187 139.052C74.6187 137.758 74.936 136.73 75.5708 135.969C76.2104 135.207 77.0674 134.826 78.1416 134.826C79.1475 134.826 79.9434 135.158 80.5293 135.822C81.1152 136.481 81.4082 137.353 81.4082 138.437V139.206H75.8784C75.9028 140.148 76.1396 140.864 76.5889 141.352C77.043 141.84 77.6802 142.084 78.5005 142.084C79.3647 142.084 80.2192 141.904 81.064 141.542V142.626C80.6343 142.812 80.2266 142.944 79.8408 143.022C79.46 143.105 78.9985 143.146 78.4565 143.146ZM78.127 135.844C77.4824 135.844 76.9673 136.054 76.5815 136.474C76.2007 136.894 75.9761 137.475 75.9077 138.217H80.1045C80.1045 137.451 79.9336 136.865 79.5918 136.459C79.25 136.049 78.7617 135.844 78.127 135.844ZM89.1665 140.81C89.1665 141.557 88.8882 142.133 88.3315 142.539C87.7749 142.944 86.9937 143.146 85.9878 143.146C84.9233 143.146 84.0933 142.978 83.4976 142.641V141.513C83.8833 141.708 84.2959 141.862 84.7354 141.975C85.1797 142.087 85.6069 142.143 86.0171 142.143C86.6519 142.143 87.1401 142.043 87.4819 141.843C87.8237 141.638 87.9946 141.328 87.9946 140.913C87.9946 140.6 87.8579 140.334 87.5845 140.114C87.3159 139.89 86.7886 139.626 86.0024 139.323C85.2554 139.045 84.7231 138.803 84.4058 138.598C84.0933 138.388 83.8589 138.151 83.7026 137.888C83.5513 137.624 83.4756 137.309 83.4756 136.943C83.4756 136.289 83.7417 135.773 84.2739 135.397C84.8062 135.017 85.5361 134.826 86.4639 134.826C87.3281 134.826 88.1729 135.002 88.998 135.354L88.5659 136.342C87.7603 136.01 87.0303 135.844 86.376 135.844C85.7998 135.844 85.3652 135.935 85.0723 136.115C84.7793 136.296 84.6328 136.545 84.6328 136.862C84.6328 137.077 84.6865 137.26 84.7939 137.412C84.9062 137.563 85.0845 137.707 85.3286 137.844C85.5728 137.98 86.0415 138.178 86.7349 138.437C87.687 138.784 88.3291 139.133 88.6611 139.484C88.998 139.836 89.1665 140.278 89.1665 140.81ZM94.2441 142.143C94.459 142.143 94.6665 142.128 94.8667 142.099C95.0669 142.065 95.2256 142.031 95.3428 141.997V142.927C95.2109 142.99 95.0156 143.042 94.7568 143.081C94.5029 143.125 94.2734 143.146 94.0684 143.146C92.5156 143.146 91.7393 142.329 91.7393 140.693V135.917H90.5894V135.332L91.7393 134.826L92.252 133.112H92.9551V134.973H95.2842V135.917H92.9551V140.642C92.9551 141.125 93.0698 141.496 93.2993 141.755C93.5288 142.014 93.8438 142.143 94.2441 142.143ZM98.6699 143H97.4541V134.973H98.6699V143ZM97.3516 132.797C97.3516 132.519 97.4199 132.316 97.5566 132.189C97.6934 132.058 97.8643 131.992 98.0693 131.992C98.2646 131.992 98.4331 132.058 98.5747 132.189C98.7163 132.321 98.7871 132.524 98.7871 132.797C98.7871 133.071 98.7163 133.276 98.5747 133.413C98.4331 133.544 98.2646 133.61 98.0693 133.61C97.8643 133.61 97.6934 133.544 97.5566 133.413C97.4199 133.276 97.3516 133.071 97.3516 132.797ZM105.483 134.841C106.538 134.841 107.356 135.202 107.937 135.925C108.523 136.643 108.816 137.661 108.816 138.979C108.816 140.297 108.521 141.323 107.93 142.055C107.344 142.783 106.528 143.146 105.483 143.146C104.961 143.146 104.482 143.051 104.048 142.861C103.618 142.666 103.257 142.368 102.964 141.967H102.876L102.62 143H101.748V131.604H102.964V134.372C102.964 134.992 102.944 135.549 102.905 136.042H102.964C103.53 135.241 104.37 134.841 105.483 134.841ZM105.308 135.859C104.478 135.859 103.879 136.098 103.513 136.577C103.147 137.05 102.964 137.851 102.964 138.979C102.964 140.107 103.152 140.915 103.528 141.403C103.904 141.887 104.507 142.128 105.337 142.128C106.084 142.128 106.641 141.857 107.007 141.315C107.373 140.769 107.556 139.985 107.556 138.964C107.556 137.919 107.373 137.141 107.007 136.628C106.641 136.115 106.074 135.859 105.308 135.859ZM112.59 134.973V140.18C112.59 140.834 112.739 141.323 113.037 141.645C113.334 141.967 113.801 142.128 114.436 142.128C115.275 142.128 115.888 141.899 116.274 141.44C116.665 140.981 116.86 140.231 116.86 139.191V134.973H118.076V143H117.072L116.896 141.923H116.831C116.582 142.319 116.235 142.622 115.791 142.832C115.351 143.042 114.848 143.146 114.282 143.146C113.305 143.146 112.573 142.915 112.084 142.451C111.601 141.987 111.359 141.245 111.359 140.224V134.973H112.59ZM122.377 143H121.161V131.604H122.377V143ZM126.598 134.973V140.18C126.598 140.834 126.747 141.323 127.044 141.645C127.342 141.967 127.809 142.128 128.443 142.128C129.283 142.128 129.896 141.899 130.282 141.44C130.672 140.981 130.868 140.231 130.868 139.191V134.973H132.083V143H131.08L130.904 141.923H130.838C130.589 142.319 130.243 142.622 129.798 142.832C129.359 143.042 128.856 143.146 128.29 143.146C127.313 143.146 126.581 142.915 126.092 142.451C125.609 141.987 125.367 141.245 125.367 140.224V134.973H126.598ZM145.401 143V137.778C145.401 137.138 145.264 136.66 144.991 136.342C144.717 136.02 144.292 135.859 143.716 135.859C142.959 135.859 142.4 136.076 142.039 136.511C141.678 136.945 141.497 137.614 141.497 138.518V143H140.281V137.778C140.281 137.138 140.145 136.66 139.871 136.342C139.598 136.02 139.17 135.859 138.589 135.859C137.828 135.859 137.269 136.088 136.912 136.547C136.561 137.001 136.385 137.749 136.385 138.789V143H135.169V134.973H136.158L136.355 136.071H136.414C136.644 135.681 136.966 135.375 137.381 135.156C137.801 134.936 138.27 134.826 138.787 134.826C140.042 134.826 140.862 135.28 141.248 136.188H141.307C141.546 135.769 141.893 135.437 142.347 135.192C142.801 134.948 143.318 134.826 143.899 134.826C144.808 134.826 145.486 135.061 145.936 135.529C146.39 135.993 146.617 136.738 146.617 137.763V143H145.401ZM155.168 134.973V140.18C155.168 140.834 155.317 141.323 155.615 141.645C155.913 141.967 156.379 142.128 157.014 142.128C157.854 142.128 158.466 141.899 158.852 141.44C159.243 140.981 159.438 140.231 159.438 139.191V134.973H160.654V143H159.65L159.475 141.923H159.409C159.16 142.319 158.813 142.622 158.369 142.832C157.929 143.042 157.426 143.146 156.86 143.146C155.883 143.146 155.151 142.915 154.663 142.451C154.179 141.987 153.938 141.245 153.938 140.224V134.973H155.168ZM167.401 134.826C167.758 134.826 168.078 134.855 168.361 134.914L168.192 136.042C167.86 135.969 167.567 135.932 167.313 135.932C166.664 135.932 166.107 136.196 165.644 136.723C165.185 137.25 164.955 137.907 164.955 138.693V143H163.739V134.973H164.743L164.882 136.459H164.94C165.238 135.937 165.597 135.534 166.017 135.251C166.437 134.968 166.898 134.826 167.401 134.826ZM175.855 143V137.807C175.855 137.153 175.707 136.665 175.409 136.342C175.111 136.02 174.645 135.859 174.01 135.859C173.17 135.859 172.555 136.086 172.164 136.54C171.773 136.994 171.578 137.744 171.578 138.789V143H170.362V134.973H171.351L171.549 136.071H171.607C171.856 135.676 172.206 135.371 172.655 135.156C173.104 134.936 173.604 134.826 174.156 134.826C175.123 134.826 175.851 135.061 176.339 135.529C176.827 135.993 177.071 136.738 177.071 137.763V143H175.855ZM185.013 143L184.771 141.857H184.712C184.312 142.36 183.912 142.702 183.511 142.883C183.116 143.059 182.62 143.146 182.024 143.146C181.229 143.146 180.604 142.941 180.149 142.531C179.7 142.121 179.476 141.538 179.476 140.781C179.476 139.16 180.772 138.31 183.365 138.232L184.727 138.188V137.69C184.727 137.06 184.59 136.596 184.317 136.298C184.048 135.996 183.616 135.844 183.021 135.844C182.352 135.844 181.595 136.049 180.75 136.459L180.376 135.529C180.772 135.314 181.204 135.146 181.673 135.024C182.146 134.902 182.62 134.841 183.094 134.841C184.051 134.841 184.759 135.053 185.218 135.478C185.682 135.903 185.914 136.584 185.914 137.521V143H185.013ZM182.266 142.143C183.023 142.143 183.616 141.936 184.046 141.521C184.48 141.105 184.698 140.524 184.698 139.777V139.052L183.482 139.104C182.515 139.138 181.817 139.289 181.387 139.558C180.962 139.821 180.75 140.234 180.75 140.795C180.75 141.235 180.882 141.569 181.146 141.799C181.414 142.028 181.788 142.143 182.266 142.143ZM195.08 143L192.033 134.973H193.337L195.065 139.733C195.456 140.847 195.686 141.569 195.754 141.901H195.812C195.866 141.643 196.035 141.108 196.318 140.297C196.606 139.482 197.248 137.707 198.244 134.973H199.548L196.501 143H195.08ZM204.728 143.146C203.542 143.146 202.604 142.785 201.916 142.062C201.232 141.34 200.89 140.336 200.89 139.052C200.89 137.758 201.208 136.73 201.842 135.969C202.482 135.207 203.339 134.826 204.413 134.826C205.419 134.826 206.215 135.158 206.801 135.822C207.387 136.481 207.68 137.353 207.68 138.437V139.206H202.15C202.174 140.148 202.411 140.864 202.86 141.352C203.314 141.84 203.952 142.084 204.772 142.084C205.636 142.084 206.491 141.904 207.335 141.542V142.626C206.906 142.812 206.498 142.944 206.112 143.022C205.731 143.105 205.27 143.146 204.728 143.146ZM204.398 135.844C203.754 135.844 203.239 136.054 202.853 136.474C202.472 136.894 202.248 137.475 202.179 138.217H206.376C206.376 137.451 206.205 136.865 205.863 136.459C205.521 136.049 205.033 135.844 204.398 135.844ZM211.476 143H210.26V131.604H211.476V143ZM215.77 143H214.554V134.973H215.77V143ZM214.451 132.797C214.451 132.519 214.52 132.316 214.656 132.189C214.793 132.058 214.964 131.992 215.169 131.992C215.364 131.992 215.533 132.058 215.674 132.189C215.816 132.321 215.887 132.524 215.887 132.797C215.887 133.071 215.816 133.276 215.674 133.413C215.533 133.544 215.364 133.61 215.169 133.61C214.964 133.61 214.793 133.544 214.656 133.413C214.52 133.276 214.451 133.071 214.451 132.797ZM221.44 142.143C221.655 142.143 221.863 142.128 222.063 142.099C222.263 142.065 222.422 142.031 222.539 141.997V142.927C222.407 142.99 222.212 143.042 221.953 143.081C221.699 143.125 221.47 143.146 221.265 143.146C219.712 143.146 218.936 142.329 218.936 140.693V135.917H217.786V135.332L218.936 134.826L219.448 133.112H220.151V134.973H222.48V135.917H220.151V140.642C220.151 141.125 220.266 141.496 220.496 141.755C220.725 142.014 221.04 142.143 221.44 142.143ZM232.782 143.146C232.26 143.146 231.781 143.051 231.347 142.861C230.917 142.666 230.556 142.368 230.263 141.967H230.175C230.233 142.436 230.263 142.88 230.263 143.3V146.604H229.047V134.973H230.036L230.204 136.071H230.263C230.575 135.632 230.939 135.314 231.354 135.119C231.769 134.924 232.245 134.826 232.782 134.826C233.847 134.826 234.667 135.19 235.243 135.917C235.824 136.645 236.115 137.666 236.115 138.979C236.115 140.297 235.819 141.323 235.229 142.055C234.643 142.783 233.827 143.146 232.782 143.146ZM232.606 135.859C231.786 135.859 231.193 136.086 230.827 136.54C230.46 136.994 230.272 137.717 230.263 138.708V138.979C230.263 140.107 230.451 140.915 230.827 141.403C231.203 141.887 231.806 142.128 232.636 142.128C233.329 142.128 233.871 141.848 234.262 141.286C234.657 140.725 234.855 139.951 234.855 138.964C234.855 137.963 234.657 137.197 234.262 136.665C233.871 136.127 233.319 135.859 232.606 135.859ZM243.683 143L243.441 141.857H243.382C242.982 142.36 242.582 142.702 242.181 142.883C241.786 143.059 241.29 143.146 240.694 143.146C239.898 143.146 239.273 142.941 238.819 142.531C238.37 142.121 238.146 141.538 238.146 140.781C238.146 139.16 239.442 138.31 242.035 138.232L243.397 138.188V137.69C243.397 137.06 243.26 136.596 242.987 136.298C242.718 135.996 242.286 135.844 241.69 135.844C241.021 135.844 240.265 136.049 239.42 136.459L239.046 135.529C239.442 135.314 239.874 135.146 240.343 135.024C240.816 134.902 241.29 134.841 241.764 134.841C242.721 134.841 243.429 135.053 243.888 135.478C244.352 135.903 244.583 136.584 244.583 137.521V143H243.683ZM240.936 142.143C241.693 142.143 242.286 141.936 242.716 141.521C243.15 141.105 243.368 140.524 243.368 139.777V139.052L242.152 139.104C241.185 139.138 240.487 139.289 240.057 139.558C239.632 139.821 239.42 140.234 239.42 140.795C239.42 141.235 239.552 141.569 239.815 141.799C240.084 142.028 240.458 142.143 240.936 142.143ZM251.258 134.826C251.614 134.826 251.934 134.855 252.217 134.914L252.049 136.042C251.717 135.969 251.424 135.932 251.17 135.932C250.521 135.932 249.964 136.196 249.5 136.723C249.041 137.25 248.812 137.907 248.812 138.693V143H247.596V134.973H248.599L248.738 136.459H248.797C249.095 135.937 249.454 135.534 249.874 135.251C250.293 134.968 250.755 134.826 251.258 134.826ZM256.812 142.143C257.026 142.143 257.234 142.128 257.434 142.099C257.634 142.065 257.793 142.031 257.91 141.997V142.927C257.778 142.99 257.583 143.042 257.324 143.081C257.07 143.125 256.841 143.146 256.636 143.146C255.083 143.146 254.307 142.329 254.307 140.693V135.917H253.157V135.332L254.307 134.826L254.819 133.112H255.522V134.973H257.852V135.917H255.522V140.642C255.522 141.125 255.637 141.496 255.867 141.755C256.096 142.014 256.411 142.143 256.812 142.143ZM261.164 134.973V140.18C261.164 140.834 261.313 141.323 261.611 141.645C261.909 141.967 262.375 142.128 263.01 142.128C263.85 142.128 264.462 141.899 264.848 141.44C265.239 140.981 265.434 140.231 265.434 139.191V134.973H266.65V143H265.646L265.471 141.923H265.405C265.156 142.319 264.809 142.622 264.365 142.832C263.925 143.042 263.422 143.146 262.856 143.146C261.879 143.146 261.147 142.915 260.659 142.451C260.175 141.987 259.934 141.245 259.934 140.224V134.973H261.164ZM273.397 134.826C273.754 134.826 274.074 134.855 274.357 134.914L274.188 136.042C273.856 135.969 273.563 135.932 273.31 135.932C272.66 135.932 272.104 136.196 271.64 136.723C271.181 137.25 270.951 137.907 270.951 138.693V143H269.735V134.973H270.739L270.878 136.459H270.937C271.234 135.937 271.593 135.534 272.013 135.251C272.433 134.968 272.895 134.826 273.397 134.826ZM277.574 143H276.358V134.973H277.574V143ZM276.256 132.797C276.256 132.519 276.324 132.316 276.461 132.189C276.598 132.058 276.769 131.992 276.974 131.992C277.169 131.992 277.337 132.058 277.479 132.189C277.621 132.321 277.691 132.524 277.691 132.797C277.691 133.071 277.621 133.276 277.479 133.413C277.337 133.544 277.169 133.61 276.974 133.61C276.769 133.61 276.598 133.544 276.461 133.413C276.324 133.276 276.256 133.071 276.256 132.797ZM284.043 143.146C282.857 143.146 281.919 142.785 281.231 142.062C280.547 141.34 280.206 140.336 280.206 139.052C280.206 137.758 280.523 136.73 281.158 135.969C281.797 135.207 282.654 134.826 283.729 134.826C284.734 134.826 285.53 135.158 286.116 135.822C286.702 136.481 286.995 137.353 286.995 138.437V139.206H281.465C281.49 140.148 281.727 140.864 282.176 141.352C282.63 141.84 283.267 142.084 284.087 142.084C284.952 142.084 285.806 141.904 286.651 141.542V142.626C286.221 142.812 285.813 142.944 285.428 143.022C285.047 143.105 284.585 143.146 284.043 143.146ZM283.714 135.844C283.069 135.844 282.554 136.054 282.168 136.474C281.788 136.894 281.563 137.475 281.495 138.217H285.691C285.691 137.451 285.521 136.865 285.179 136.459C284.837 136.049 284.349 135.844 283.714 135.844ZM295.068 143V137.807C295.068 137.153 294.919 136.665 294.622 136.342C294.324 136.02 293.857 135.859 293.223 135.859C292.383 135.859 291.768 136.086 291.377 136.54C290.986 136.994 290.791 137.744 290.791 138.789V143H289.575V134.973H290.564L290.762 136.071H290.82C291.069 135.676 291.418 135.371 291.868 135.156C292.317 134.936 292.817 134.826 293.369 134.826C294.336 134.826 295.063 135.061 295.552 135.529C296.04 135.993 296.284 136.738 296.284 137.763V143H295.068ZM301.882 142.143C302.097 142.143 302.304 142.128 302.504 142.099C302.705 142.065 302.863 142.031 302.98 141.997V142.927C302.849 142.99 302.653 143.042 302.395 143.081C302.141 143.125 301.911 143.146 301.706 143.146C300.153 143.146 299.377 142.329 299.377 140.693V135.917H298.227V135.332L299.377 134.826L299.89 133.112H300.593V134.973H302.922V135.917H300.593V140.642C300.593 141.125 300.708 141.496 300.937 141.755C301.167 142.014 301.481 142.143 301.882 142.143ZM6.46729 166.81C6.46729 167.557 6.18896 168.133 5.63232 168.539C5.07568 168.944 4.29443 169.146 3.28857 169.146C2.22412 169.146 1.39404 168.978 0.79834 168.641V167.513C1.18408 167.708 1.59668 167.862 2.03613 167.975C2.48047 168.087 2.90771 168.143 3.31787 168.143C3.95264 168.143 4.44092 168.043 4.78271 167.843C5.12451 167.638 5.29541 167.328 5.29541 166.913C5.29541 166.6 5.15869 166.334 4.88525 166.114C4.6167 165.89 4.08936 165.626 3.30322 165.323C2.55615 165.045 2.02393 164.803 1.70654 164.598C1.39404 164.388 1.15967 164.151 1.00342 163.888C0.852051 163.624 0.776367 163.309 0.776367 162.943C0.776367 162.289 1.04248 161.773 1.57471 161.397C2.10693 161.017 2.83691 160.826 3.76465 160.826C4.62891 160.826 5.47363 161.002 6.29883 161.354L5.8667 162.342C5.06104 162.01 4.33105 161.844 3.67676 161.844C3.10059 161.844 2.66602 161.935 2.37305 162.115C2.08008 162.296 1.93359 162.545 1.93359 162.862C1.93359 163.077 1.9873 163.26 2.09473 163.412C2.20703 163.563 2.38525 163.707 2.62939 163.844C2.87354 163.98 3.34229 164.178 4.03564 164.437C4.98779 164.784 5.62988 165.133 5.96191 165.484C6.29883 165.836 6.46729 166.278 6.46729 166.81ZM10.0947 160.973V166.18C10.0947 166.834 10.2437 167.323 10.5415 167.645C10.8394 167.967 11.3057 168.128 11.9404 168.128C12.7803 168.128 13.3931 167.899 13.7788 167.44C14.1694 166.981 14.3647 166.231 14.3647 165.191V160.973H15.5806V169H14.5771L14.4014 167.923H14.3354C14.0864 168.319 13.7397 168.622 13.2954 168.832C12.856 169.042 12.353 169.146 11.7866 169.146C10.8101 169.146 10.0776 168.915 9.58936 168.451C9.10596 167.987 8.86426 167.245 8.86426 166.224V160.973H10.0947ZM23.8442 166.81C23.8442 167.557 23.5659 168.133 23.0093 168.539C22.4526 168.944 21.6714 169.146 20.6655 169.146C19.6011 169.146 18.771 168.978 18.1753 168.641V167.513C18.561 167.708 18.9736 167.862 19.4131 167.975C19.8574 168.087 20.2847 168.143 20.6948 168.143C21.3296 168.143 21.8179 168.043 22.1597 167.843C22.5015 167.638 22.6724 167.328 22.6724 166.913C22.6724 166.6 22.5356 166.334 22.2622 166.114C21.9937 165.89 21.4663 165.626 20.6802 165.323C19.9331 165.045 19.4009 164.803 19.0835 164.598C18.771 164.388 18.5366 164.151 18.3804 163.888C18.229 163.624 18.1533 163.309 18.1533 162.943C18.1533 162.289 18.4194 161.773 18.9517 161.397C19.4839 161.017 20.2139 160.826 21.1416 160.826C22.0059 160.826 22.8506 161.002 23.6758 161.354L23.2437 162.342C22.438 162.01 21.708 161.844 21.0537 161.844C20.4775 161.844 20.043 161.935 19.75 162.115C19.457 162.296 19.3105 162.545 19.3105 162.862C19.3105 163.077 19.3643 163.26 19.4717 163.412C19.584 163.563 19.7622 163.707 20.0063 163.844C20.2505 163.98 20.7192 164.178 21.4126 164.437C22.3647 164.784 23.0068 165.133 23.3389 165.484C23.6758 165.836 23.8442 166.278 23.8442 166.81ZM30.0645 169.146C29.542 169.146 29.0635 169.051 28.6289 168.861C28.1992 168.666 27.8379 168.368 27.5449 167.967H27.457C27.5156 168.436 27.5449 168.88 27.5449 169.3V172.604H26.3291V160.973H27.3179L27.4863 162.071H27.5449C27.8574 161.632 28.2212 161.314 28.6362 161.119C29.0513 160.924 29.5273 160.826 30.0645 160.826C31.1289 160.826 31.9492 161.19 32.5254 161.917C33.1064 162.645 33.397 163.666 33.397 164.979C33.397 166.297 33.1016 167.323 32.5107 168.055C31.9248 168.783 31.1094 169.146 30.0645 169.146ZM29.8887 161.859C29.0684 161.859 28.4751 162.086 28.1089 162.54C27.7427 162.994 27.5547 163.717 27.5449 164.708V164.979C27.5449 166.107 27.7329 166.915 28.1089 167.403C28.4849 167.887 29.0879 168.128 29.918 168.128C30.6113 168.128 31.1533 167.848 31.5439 167.286C31.9395 166.725 32.1372 165.951 32.1372 164.964C32.1372 163.963 31.9395 163.197 31.5439 162.665C31.1533 162.127 30.6016 161.859 29.8887 161.859ZM39.4194 169.146C38.2329 169.146 37.2954 168.785 36.6069 168.062C35.9233 167.34 35.5815 166.336 35.5815 165.052C35.5815 163.758 35.8989 162.73 36.5337 161.969C37.1733 161.207 38.0303 160.826 39.1045 160.826C40.1104 160.826 40.9062 161.158 41.4922 161.822C42.0781 162.481 42.3711 163.353 42.3711 164.437V165.206H36.8413C36.8657 166.148 37.1025 166.864 37.5518 167.352C38.0059 167.84 38.6431 168.084 39.4634 168.084C40.3276 168.084 41.1821 167.904 42.0269 167.542V168.626C41.5972 168.812 41.1895 168.944 40.8037 169.022C40.4229 169.105 39.9614 169.146 39.4194 169.146ZM39.0898 161.844C38.4453 161.844 37.9302 162.054 37.5444 162.474C37.1636 162.894 36.939 163.475 36.8706 164.217H41.0674C41.0674 163.451 40.8965 162.865 40.5547 162.459C40.2129 162.049 39.7246 161.844 39.0898 161.844ZM50.4443 169V163.807C50.4443 163.153 50.2954 162.665 49.9976 162.342C49.6997 162.02 49.2334 161.859 48.5986 161.859C47.7588 161.859 47.1436 162.086 46.7529 162.54C46.3623 162.994 46.167 163.744 46.167 164.789V169H44.9512V160.973H45.9399L46.1377 162.071H46.1963C46.4453 161.676 46.7944 161.371 47.2437 161.156C47.6929 160.936 48.1934 160.826 48.7451 160.826C49.7119 160.826 50.4395 161.061 50.9277 161.529C51.416 161.993 51.6602 162.738 51.6602 163.763V169H50.4443ZM60.1289 167.923H60.063C59.5015 168.739 58.6616 169.146 57.5435 169.146C56.4937 169.146 55.6758 168.788 55.0898 168.07C54.5088 167.352 54.2183 166.332 54.2183 165.008C54.2183 163.685 54.5112 162.657 55.0972 161.925C55.6831 161.192 56.4985 160.826 57.5435 160.826C58.6323 160.826 59.4673 161.222 60.0483 162.013H60.1436L60.0923 161.434L60.063 160.87V157.604H61.2788V169H60.29L60.1289 167.923ZM57.6973 168.128C58.5273 168.128 59.1279 167.904 59.499 167.455C59.875 167 60.063 166.271 60.063 165.265V165.008C60.063 163.871 59.8726 163.06 59.4917 162.577C59.1157 162.088 58.5127 161.844 57.6826 161.844C56.9697 161.844 56.4229 162.123 56.042 162.679C55.666 163.231 55.478 164.012 55.478 165.023C55.478 166.048 55.666 166.822 56.042 167.345C56.418 167.867 56.9697 168.128 57.6973 168.128ZM65.5801 169H64.3643V160.973H65.5801V169ZM64.2617 158.797C64.2617 158.519 64.3301 158.316 64.4668 158.189C64.6035 158.058 64.7744 157.992 64.9795 157.992C65.1748 157.992 65.3433 158.058 65.4849 158.189C65.6265 158.321 65.6973 158.524 65.6973 158.797C65.6973 159.071 65.6265 159.276 65.4849 159.413C65.3433 159.544 65.1748 159.61 64.9795 159.61C64.7744 159.61 64.6035 159.544 64.4668 159.413C64.3301 159.276 64.2617 159.071 64.2617 158.797ZM73.8364 166.81C73.8364 167.557 73.5581 168.133 73.0015 168.539C72.4448 168.944 71.6636 169.146 70.6577 169.146C69.5933 169.146 68.7632 168.978 68.1675 168.641V167.513C68.5532 167.708 68.9658 167.862 69.4053 167.975C69.8496 168.087 70.2769 168.143 70.687 168.143C71.3218 168.143 71.8101 168.043 72.1519 167.843C72.4937 167.638 72.6646 167.328 72.6646 166.913C72.6646 166.6 72.5278 166.334 72.2544 166.114C71.9858 165.89 71.4585 165.626 70.6724 165.323C69.9253 165.045 69.3931 164.803 69.0757 164.598C68.7632 164.388 68.5288 164.151 68.3726 163.888C68.2212 163.624 68.1455 163.309 68.1455 162.943C68.1455 162.289 68.4116 161.773 68.9438 161.397C69.4761 161.017 70.2061 160.826 71.1338 160.826C71.998 160.826 72.8428 161.002 73.668 161.354L73.2358 162.342C72.4302 162.01 71.7002 161.844 71.0459 161.844C70.4697 161.844 70.0352 161.935 69.7422 162.115C69.4492 162.296 69.3027 162.545 69.3027 162.862C69.3027 163.077 69.3564 163.26 69.4639 163.412C69.5762 163.563 69.7544 163.707 69.9985 163.844C70.2427 163.98 70.7114 164.178 71.4048 164.437C72.3569 164.784 72.999 165.133 73.3311 165.484C73.668 165.836 73.8364 166.278 73.8364 166.81ZM81.4995 166.81C81.4995 167.557 81.2212 168.133 80.6646 168.539C80.1079 168.944 79.3267 169.146 78.3208 169.146C77.2563 169.146 76.4263 168.978 75.8306 168.641V167.513C76.2163 167.708 76.6289 167.862 77.0684 167.975C77.5127 168.087 77.9399 168.143 78.3501 168.143C78.9849 168.143 79.4731 168.043 79.8149 167.843C80.1567 167.638 80.3276 167.328 80.3276 166.913C80.3276 166.6 80.1909 166.334 79.9175 166.114C79.6489 165.89 79.1216 165.626 78.3354 165.323C77.5884 165.045 77.0562 164.803 76.7388 164.598C76.4263 164.388 76.1919 164.151 76.0356 163.888C75.8843 163.624 75.8086 163.309 75.8086 162.943C75.8086 162.289 76.0747 161.773 76.6069 161.397C77.1392 161.017 77.8691 160.826 78.7969 160.826C79.6611 160.826 80.5059 161.002 81.3311 161.354L80.8989 162.342C80.0933 162.01 79.3633 161.844 78.709 161.844C78.1328 161.844 77.6982 161.935 77.4053 162.115C77.1123 162.296 76.9658 162.545 76.9658 162.862C76.9658 163.077 77.0195 163.26 77.127 163.412C77.2393 163.563 77.4175 163.707 77.6616 163.844C77.9058 163.98 78.3745 164.178 79.0679 164.437C80.02 164.784 80.6621 165.133 80.9941 165.484C81.3311 165.836 81.4995 166.278 81.4995 166.81ZM87.3755 169.146C86.189 169.146 85.2515 168.785 84.563 168.062C83.8794 167.34 83.5376 166.336 83.5376 165.052C83.5376 163.758 83.855 162.73 84.4897 161.969C85.1294 161.207 85.9863 160.826 87.0605 160.826C88.0664 160.826 88.8623 161.158 89.4482 161.822C90.0342 162.481 90.3271 163.353 90.3271 164.437V165.206H84.7974C84.8218 166.148 85.0586 166.864 85.5078 167.352C85.9619 167.84 86.5991 168.084 87.4194 168.084C88.2837 168.084 89.1382 167.904 89.9829 167.542V168.626C89.5532 168.812 89.1455 168.944 88.7598 169.022C88.3789 169.105 87.9175 169.146 87.3755 169.146ZM87.0459 161.844C86.4014 161.844 85.8862 162.054 85.5005 162.474C85.1196 162.894 84.895 163.475 84.8267 164.217H89.0234C89.0234 163.451 88.8525 162.865 88.5107 162.459C88.1689 162.049 87.6807 161.844 87.0459 161.844ZM102.24 169L101.999 167.857H101.94C101.54 168.36 101.139 168.702 100.739 168.883C100.343 169.059 99.8477 169.146 99.252 169.146C98.4561 169.146 97.8311 168.941 97.377 168.531C96.9277 168.121 96.7031 167.538 96.7031 166.781C96.7031 165.16 97.9995 164.31 100.592 164.232L101.955 164.188V163.69C101.955 163.06 101.818 162.596 101.544 162.298C101.276 161.996 100.844 161.844 100.248 161.844C99.5791 161.844 98.8223 162.049 97.9775 162.459L97.604 161.529C97.9995 161.314 98.4316 161.146 98.9004 161.024C99.374 160.902 99.8477 160.841 100.321 160.841C101.278 160.841 101.986 161.053 102.445 161.478C102.909 161.903 103.141 162.584 103.141 163.521V169H102.24ZM99.4937 168.143C100.25 168.143 100.844 167.936 101.273 167.521C101.708 167.105 101.925 166.524 101.925 165.777V165.052L100.709 165.104C99.7427 165.138 99.0444 165.289 98.6147 165.558C98.1899 165.821 97.9775 166.234 97.9775 166.795C97.9775 167.235 98.1094 167.569 98.373 167.799C98.6416 168.028 99.0151 168.143 99.4937 168.143ZM115.486 169L115.245 167.857H115.186C114.786 168.36 114.385 168.702 113.985 168.883C113.589 169.059 113.094 169.146 112.498 169.146C111.702 169.146 111.077 168.941 110.623 168.531C110.174 168.121 109.949 167.538 109.949 166.781C109.949 165.16 111.246 164.31 113.838 164.232L115.201 164.188V163.69C115.201 163.06 115.064 162.596 114.791 162.298C114.522 161.996 114.09 161.844 113.494 161.844C112.825 161.844 112.068 162.049 111.224 162.459L110.85 161.529C111.246 161.314 111.678 161.146 112.146 161.024C112.62 160.902 113.094 160.841 113.567 160.841C114.524 160.841 115.232 161.053 115.691 161.478C116.155 161.903 116.387 162.584 116.387 163.521V169H115.486ZM112.74 168.143C113.497 168.143 114.09 167.936 114.52 167.521C114.954 167.105 115.171 166.524 115.171 165.777V165.052L113.956 165.104C112.989 165.138 112.291 165.289 111.861 165.558C111.436 165.821 111.224 166.234 111.224 166.795C111.224 167.235 111.355 167.569 111.619 167.799C111.888 168.028 112.261 168.143 112.74 168.143ZM124.863 167.923H124.797C124.236 168.739 123.396 169.146 122.278 169.146C121.228 169.146 120.41 168.788 119.824 168.07C119.243 167.352 118.953 166.332 118.953 165.008C118.953 163.685 119.246 162.657 119.832 161.925C120.417 161.192 121.233 160.826 122.278 160.826C123.367 160.826 124.202 161.222 124.783 162.013H124.878L124.827 161.434L124.797 160.87V157.604H126.013V169H125.024L124.863 167.923ZM122.432 168.128C123.262 168.128 123.862 167.904 124.233 167.455C124.609 167 124.797 166.271 124.797 165.265V165.008C124.797 163.871 124.607 163.06 124.226 162.577C123.85 162.088 123.247 161.844 122.417 161.844C121.704 161.844 121.157 162.123 120.776 162.679C120.4 163.231 120.212 164.012 120.212 165.023C120.212 166.048 120.4 166.822 120.776 167.345C121.152 167.867 121.704 168.128 122.432 168.128ZM134.711 169H133.495V157.604H134.711V169ZM142.726 169L142.484 167.857H142.425C142.025 168.36 141.625 168.702 141.224 168.883C140.829 169.059 140.333 169.146 139.737 169.146C138.941 169.146 138.316 168.941 137.862 168.531C137.413 168.121 137.188 167.538 137.188 166.781C137.188 165.16 138.485 164.31 141.078 164.232L142.44 164.188V163.69C142.44 163.06 142.303 162.596 142.03 162.298C141.761 161.996 141.329 161.844 140.733 161.844C140.064 161.844 139.308 162.049 138.463 162.459L138.089 161.529C138.485 161.314 138.917 161.146 139.386 161.024C139.859 160.902 140.333 160.841 140.807 160.841C141.764 160.841 142.472 161.053 142.931 161.478C143.395 161.903 143.626 162.584 143.626 163.521V169H142.726ZM139.979 168.143C140.736 168.143 141.329 167.936 141.759 167.521C142.193 167.105 142.411 166.524 142.411 165.777V165.052L141.195 165.104C140.228 165.138 139.53 165.289 139.1 165.558C138.675 165.821 138.463 166.234 138.463 166.795C138.463 167.235 138.595 167.569 138.858 167.799C139.127 168.028 139.5 168.143 139.979 168.143ZM149.847 169.146C148.685 169.146 147.784 168.79 147.144 168.077C146.509 167.359 146.192 166.346 146.192 165.038C146.192 163.695 146.514 162.657 147.159 161.925C147.808 161.192 148.731 160.826 149.927 160.826C150.313 160.826 150.699 160.868 151.084 160.951C151.47 161.034 151.773 161.131 151.993 161.244L151.619 162.276C151.351 162.169 151.058 162.081 150.74 162.013C150.423 161.939 150.142 161.903 149.898 161.903C148.267 161.903 147.452 162.943 147.452 165.023C147.452 166.009 147.649 166.766 148.045 167.293C148.445 167.821 149.036 168.084 149.817 168.084C150.486 168.084 151.172 167.94 151.875 167.652V168.729C151.338 169.007 150.662 169.146 149.847 169.146ZM155.43 160.973V166.18C155.43 166.834 155.579 167.323 155.876 167.645C156.174 167.967 156.641 168.128 157.275 168.128C158.115 168.128 158.728 167.899 159.114 167.44C159.504 166.981 159.7 166.231 159.7 165.191V160.973H160.916V169H159.912L159.736 167.923H159.67C159.421 168.319 159.075 168.622 158.63 168.832C158.191 169.042 157.688 169.146 157.122 169.146C156.145 169.146 155.413 168.915 154.924 168.451C154.441 167.987 154.199 167.245 154.199 166.224V160.973H155.43ZM169.179 166.81C169.179 167.557 168.901 168.133 168.344 168.539C167.788 168.944 167.006 169.146 166 169.146C164.936 169.146 164.106 168.978 163.51 168.641V167.513C163.896 167.708 164.309 167.862 164.748 167.975C165.192 168.087 165.62 168.143 166.03 168.143C166.665 168.143 167.153 168.043 167.495 167.843C167.836 167.638 168.007 167.328 168.007 166.913C168.007 166.6 167.871 166.334 167.597 166.114C167.329 165.89 166.801 165.626 166.015 165.323C165.268 165.045 164.736 164.803 164.418 164.598C164.106 164.388 163.872 164.151 163.715 163.888C163.564 163.624 163.488 163.309 163.488 162.943C163.488 162.289 163.754 161.773 164.287 161.397C164.819 161.017 165.549 160.826 166.477 160.826C167.341 160.826 168.186 161.002 169.011 161.354L168.579 162.342C167.773 162.01 167.043 161.844 166.389 161.844C165.812 161.844 165.378 161.935 165.085 162.115C164.792 162.296 164.646 162.545 164.646 162.862C164.646 163.077 164.699 163.26 164.807 163.412C164.919 163.563 165.097 163.707 165.341 163.844C165.585 163.98 166.054 164.178 166.748 164.437C167.7 164.784 168.342 165.133 168.674 165.484C169.011 165.836 169.179 166.278 169.179 166.81ZM186.292 169V163.778C186.292 163.138 186.156 162.66 185.882 162.342C185.609 162.02 185.184 161.859 184.608 161.859C183.851 161.859 183.292 162.076 182.931 162.511C182.569 162.945 182.389 163.614 182.389 164.518V169H181.173V163.778C181.173 163.138 181.036 162.66 180.763 162.342C180.489 162.02 180.062 161.859 179.481 161.859C178.719 161.859 178.16 162.088 177.804 162.547C177.452 163.001 177.276 163.749 177.276 164.789V169H176.061V160.973H177.049L177.247 162.071H177.306C177.535 161.681 177.857 161.375 178.272 161.156C178.692 160.936 179.161 160.826 179.679 160.826C180.934 160.826 181.754 161.28 182.14 162.188H182.198C182.438 161.769 182.784 161.437 183.238 161.192C183.692 160.948 184.21 160.826 184.791 160.826C185.699 160.826 186.378 161.061 186.827 161.529C187.281 161.993 187.508 162.738 187.508 163.763V169H186.292ZM195.457 169L195.215 167.857H195.157C194.756 168.36 194.356 168.702 193.956 168.883C193.56 169.059 193.064 169.146 192.469 169.146C191.673 169.146 191.048 168.941 190.594 168.531C190.145 168.121 189.92 167.538 189.92 166.781C189.92 165.16 191.216 164.31 193.809 164.232L195.171 164.188V163.69C195.171 163.06 195.035 162.596 194.761 162.298C194.493 161.996 194.061 161.844 193.465 161.844C192.796 161.844 192.039 162.049 191.194 162.459L190.821 161.529C191.216 161.314 191.648 161.146 192.117 161.024C192.591 160.902 193.064 160.841 193.538 160.841C194.495 160.841 195.203 161.053 195.662 161.478C196.126 161.903 196.358 162.584 196.358 163.521V169H195.457ZM192.71 168.143C193.467 168.143 194.061 167.936 194.49 167.521C194.925 167.105 195.142 166.524 195.142 165.777V165.052L193.926 165.104C192.959 165.138 192.261 165.289 191.832 165.558C191.407 165.821 191.194 166.234 191.194 166.795C191.194 167.235 191.326 167.569 191.59 167.799C191.858 168.028 192.232 168.143 192.71 168.143ZM200.513 160.973V166.18C200.513 166.834 200.662 167.323 200.959 167.645C201.257 167.967 201.724 168.128 202.358 168.128C203.198 168.128 203.811 167.899 204.197 167.44C204.587 166.981 204.783 166.231 204.783 165.191V160.973H205.999V169H204.995L204.819 167.923H204.753C204.504 168.319 204.158 168.622 203.713 168.832C203.274 169.042 202.771 169.146 202.205 169.146C201.228 169.146 200.496 168.915 200.007 168.451C199.524 167.987 199.282 167.245 199.282 166.224V160.973H200.513ZM212.746 160.826C213.103 160.826 213.422 160.855 213.706 160.914L213.537 162.042C213.205 161.969 212.912 161.932 212.658 161.932C212.009 161.932 211.452 162.196 210.988 162.723C210.529 163.25 210.3 163.907 210.3 164.693V169H209.084V160.973H210.087L210.227 162.459H210.285C210.583 161.937 210.942 161.534 211.362 161.251C211.782 160.968 212.243 160.826 212.746 160.826ZM216.923 169H215.707V160.973H216.923V169ZM215.604 158.797C215.604 158.519 215.673 158.316 215.81 158.189C215.946 158.058 216.117 157.992 216.322 157.992C216.518 157.992 216.686 158.058 216.828 158.189C216.969 158.321 217.04 158.524 217.04 158.797C217.04 159.071 216.969 159.276 216.828 159.413C216.686 159.544 216.518 159.61 216.322 159.61C216.117 159.61 215.946 159.544 215.81 159.413C215.673 159.276 215.604 159.071 215.604 158.797ZM225.179 166.81C225.179 167.557 224.901 168.133 224.344 168.539C223.788 168.944 223.006 169.146 222 169.146C220.936 169.146 220.106 168.978 219.51 168.641V167.513C219.896 167.708 220.309 167.862 220.748 167.975C221.192 168.087 221.62 168.143 222.03 168.143C222.665 168.143 223.153 168.043 223.495 167.843C223.836 167.638 224.007 167.328 224.007 166.913C224.007 166.6 223.871 166.334 223.597 166.114C223.329 165.89 222.801 165.626 222.015 165.323C221.268 165.045 220.736 164.803 220.418 164.598C220.106 164.388 219.872 164.151 219.715 163.888C219.564 163.624 219.488 163.309 219.488 162.943C219.488 162.289 219.754 161.773 220.287 161.397C220.819 161.017 221.549 160.826 222.477 160.826C223.341 160.826 224.186 161.002 225.011 161.354L224.579 162.342C223.773 162.01 223.043 161.844 222.389 161.844C221.812 161.844 221.378 161.935 221.085 162.115C220.792 162.296 220.646 162.545 220.646 162.862C220.646 163.077 220.699 163.26 220.807 163.412C220.919 163.563 221.097 163.707 221.341 163.844C221.585 163.98 222.054 164.178 222.748 164.437C223.7 164.784 224.342 165.133 224.674 165.484C225.011 165.836 225.179 166.278 225.179 166.81Z" fill="#5D5F65"/>
<path d="M8.36 77.12C6.97333 77.12 5.72 76.8133 4.6 76.2C3.49333 75.5867 2.62 74.74 1.98 73.66C1.35333 72.5667 1.04 71.3467 1.04 70C1.04 68.6533 1.35333 67.44 1.98 66.36C2.62 65.2667 3.5 64.4133 4.62 63.8C5.74 63.1867 6.99333 62.88 8.38 62.88C9.42 62.88 10.38 63.0533 11.26 63.4C12.14 63.7467 12.8867 64.2533 13.5 64.92L12.56 65.86C11.4667 64.7533 10.0867 64.2 8.42 64.2C7.31333 64.2 6.30667 64.4533 5.4 64.96C4.49333 65.4667 3.78 66.16 3.26 67.04C2.75333 67.92 2.5 68.9067 2.5 70C2.5 71.0933 2.75333 72.08 3.26 72.96C3.78 73.84 4.49333 74.5333 5.4 75.04C6.30667 75.5467 7.31333 75.8 8.42 75.8C10.1 75.8 11.48 75.24 12.56 74.12L13.5 75.06C12.8867 75.7267 12.1333 76.24 11.24 76.6C10.36 76.9467 9.4 77.12 8.36 77.12ZM20.1863 77.1C19.1729 77.1 18.2596 76.8733 17.4463 76.42C16.6329 75.9533 15.9929 75.3133 15.5263 74.5C15.0596 73.6867 14.8263 72.7667 14.8263 71.74C14.8263 70.7133 15.0596 69.7933 15.5263 68.98C15.9929 68.1667 16.6329 67.5333 17.4463 67.08C18.2596 66.6267 19.1729 66.4 20.1863 66.4C21.1996 66.4 22.1129 66.6267 22.9263 67.08C23.7396 67.5333 24.3729 68.1667 24.8263 68.98C25.2929 69.7933 25.5263 70.7133 25.5263 71.74C25.5263 72.7667 25.2929 73.6867 24.8263 74.5C24.3729 75.3133 23.7396 75.9533 22.9263 76.42C22.1129 76.8733 21.1996 77.1 20.1863 77.1ZM20.1863 75.84C20.9329 75.84 21.5996 75.6733 22.1863 75.34C22.7863 74.9933 23.2529 74.5067 23.5863 73.88C23.9196 73.2533 24.0863 72.54 24.0863 71.74C24.0863 70.94 23.9196 70.2267 23.5863 69.6C23.2529 68.9733 22.7863 68.4933 22.1863 68.16C21.5996 67.8133 20.9329 67.64 20.1863 67.64C19.4396 67.64 18.7663 67.8133 18.1663 68.16C17.5796 68.4933 17.1129 68.9733 16.7663 69.6C16.4329 70.2267 16.2663 70.94 16.2663 71.74C16.2663 72.54 16.4329 73.2533 16.7663 73.88C17.1129 74.5067 17.5796 74.9933 18.1663 75.34C18.7663 75.6733 19.4396 75.84 20.1863 75.84ZM33.7853 66.4C35.1053 66.4 36.152 66.7867 36.9253 67.56C37.712 68.32 38.1053 69.4333 38.1053 70.9V77H36.6853V71.04C36.6853 69.9467 36.412 69.1133 35.8653 68.54C35.3186 67.9667 34.5386 67.68 33.5253 67.68C32.392 67.68 31.492 68.02 30.8253 68.7C30.172 69.3667 29.8453 70.2933 29.8453 71.48V77H28.4253V66.48H29.7853V68.42C30.172 67.78 30.7053 67.2867 31.3853 66.94C32.0786 66.58 32.8786 66.4 33.7853 66.4ZM44.7805 77.1C43.9271 77.1 43.1071 76.98 42.3205 76.74C41.5471 76.4867 40.9405 76.1733 40.5005 75.8L41.1405 74.68C41.5805 75.0267 42.1338 75.3133 42.8005 75.54C43.4671 75.7533 44.1605 75.86 44.8805 75.86C45.8405 75.86 46.5471 75.7133 47.0005 75.42C47.4671 75.1133 47.7005 74.6867 47.7005 74.14C47.7005 73.7533 47.5738 73.4533 47.3205 73.24C47.0671 73.0133 46.7471 72.8467 46.3605 72.74C45.9738 72.62 45.4605 72.5067 44.8205 72.4C43.9671 72.24 43.2805 72.08 42.7605 71.92C42.2405 71.7467 41.7938 71.46 41.4205 71.06C41.0605 70.66 40.8805 70.1067 40.8805 69.4C40.8805 68.52 41.2471 67.8 41.9805 67.24C42.7138 66.68 43.7338 66.4 45.0405 66.4C45.7205 66.4 46.4005 66.4933 47.0805 66.68C47.7605 66.8533 48.3205 67.0867 48.7605 67.38L48.1405 68.52C47.2738 67.92 46.2405 67.62 45.0405 67.62C44.1338 67.62 43.4471 67.78 42.9805 68.1C42.5271 68.42 42.3005 68.84 42.3005 69.36C42.3005 69.76 42.4271 70.08 42.6805 70.32C42.9471 70.56 43.2738 70.74 43.6605 70.86C44.0471 70.9667 44.5805 71.08 45.2605 71.2C46.1005 71.36 46.7738 71.52 47.2805 71.68C47.7871 71.84 48.2205 72.1133 48.5805 72.5C48.9405 72.8867 49.1205 73.42 49.1205 74.1C49.1205 75.02 48.7338 75.7533 47.9605 76.3C47.2005 76.8333 46.1405 77.1 44.7805 77.1ZM60.9056 72.18H52.1056C52.1856 73.2733 52.6056 74.16 53.3656 74.84C54.1256 75.5067 55.0856 75.84 56.2456 75.84C56.899 75.84 57.499 75.7267 58.0456 75.5C58.5923 75.26 59.0656 74.9133 59.4656 74.46L60.2656 75.38C59.799 75.94 59.2123 76.3667 58.5056 76.66C57.8123 76.9533 57.0456 77.1 56.2056 77.1C55.1256 77.1 54.1656 76.8733 53.3256 76.42C52.499 75.9533 51.8523 75.3133 51.3856 74.5C50.919 73.6867 50.6856 72.7667 50.6856 71.74C50.6856 70.7133 50.9056 69.7933 51.3456 68.98C51.799 68.1667 52.4123 67.5333 53.1856 67.08C53.9723 66.6267 54.8523 66.4 55.8256 66.4C56.799 66.4 57.6723 66.6267 58.4456 67.08C59.219 67.5333 59.8256 68.1667 60.2656 68.98C60.7056 69.78 60.9256 70.7 60.9256 71.74L60.9056 72.18ZM55.8256 67.62C54.8123 67.62 53.959 67.9467 53.2656 68.6C52.5856 69.24 52.199 70.08 52.1056 71.12H59.5656C59.4723 70.08 59.079 69.24 58.3856 68.6C57.7056 67.9467 56.8523 67.62 55.8256 67.62ZM68.1759 77.1C67.1359 77.1 66.2026 76.8733 65.3759 76.42C64.5626 75.9667 63.9226 75.3333 63.4559 74.52C62.9893 73.6933 62.7559 72.7667 62.7559 71.74C62.7559 70.7133 62.9893 69.7933 63.4559 68.98C63.9226 68.1667 64.5626 67.5333 65.3759 67.08C66.2026 66.6267 67.1359 66.4 68.1759 66.4C69.0826 66.4 69.8893 66.58 70.5959 66.94C71.3159 67.2867 71.8826 67.8 72.2959 68.48L71.2359 69.2C70.8893 68.68 70.4493 68.2933 69.9159 68.04C69.3826 67.7733 68.8026 67.64 68.1759 67.64C67.4159 67.64 66.7293 67.8133 66.1159 68.16C65.5159 68.4933 65.0426 68.9733 64.6959 69.6C64.3626 70.2267 64.1959 70.94 64.1959 71.74C64.1959 72.5533 64.3626 73.2733 64.6959 73.9C65.0426 74.5133 65.5159 74.9933 66.1159 75.34C66.7293 75.6733 67.4159 75.84 68.1759 75.84C68.8026 75.84 69.3826 75.7133 69.9159 75.46C70.4493 75.2067 70.8893 74.82 71.2359 74.3L72.2959 75.02C71.8826 75.7 71.3159 76.22 70.5959 76.58C69.8759 76.9267 69.0693 77.1 68.1759 77.1ZM80.7427 76.36C80.476 76.6 80.1427 76.7867 79.7427 76.92C79.356 77.04 78.9493 77.1 78.5227 77.1C77.536 77.1 76.776 76.8333 76.2427 76.3C75.7093 75.7667 75.4427 75.0133 75.4427 74.04V67.68H73.5627V66.48H75.4427V64.18H76.8627V66.48H80.0627V67.68H76.8627V73.96C76.8627 74.5867 77.016 75.0667 77.3227 75.4C77.6427 75.72 78.096 75.88 78.6827 75.88C78.976 75.88 79.256 75.8333 79.5227 75.74C79.8027 75.6467 80.0427 75.5133 80.2427 75.34L80.7427 76.36ZM92.1166 72.18H83.3166C83.3966 73.2733 83.8166 74.16 84.5766 74.84C85.3366 75.5067 86.2966 75.84 87.4566 75.84C88.1099 75.84 88.7099 75.7267 89.2566 75.5C89.8032 75.26 90.2766 74.9133 90.6766 74.46L91.4766 75.38C91.0099 75.94 90.4232 76.3667 89.7166 76.66C89.0232 76.9533 88.2566 77.1 87.4166 77.1C86.3366 77.1 85.3766 76.8733 84.5366 76.42C83.7099 75.9533 83.0632 75.3133 82.5966 74.5C82.1299 73.6867 81.8966 72.7667 81.8966 71.74C81.8966 70.7133 82.1166 69.7933 82.5566 68.98C83.0099 68.1667 83.6232 67.5333 84.3966 67.08C85.1832 66.6267 86.0632 66.4 87.0366 66.4C88.0099 66.4 88.8832 66.6267 89.6566 67.08C90.4299 67.5333 91.0366 68.1667 91.4766 68.98C91.9166 69.78 92.1366 70.7 92.1366 71.74L92.1166 72.18ZM87.0366 67.62C86.0232 67.62 85.1699 67.9467 84.4766 68.6C83.7966 69.24 83.4099 70.08 83.3166 71.12H90.7766C90.6832 70.08 90.2899 69.24 89.5966 68.6C88.9166 67.9467 88.0632 67.62 87.0366 67.62ZM100.567 76.36C100.3 76.6 99.9669 76.7867 99.5669 76.92C99.1802 77.04 98.7735 77.1 98.3469 77.1C97.3602 77.1 96.6002 76.8333 96.0669 76.3C95.5335 75.7667 95.2669 75.0133 95.2669 74.04V67.68H93.3869V66.48H95.2669V64.18H96.6869V66.48H99.8869V67.68H96.6869V73.96C96.6869 74.5867 96.8402 75.0667 97.1469 75.4C97.4669 75.72 97.9202 75.88 98.5069 75.88C98.8002 75.88 99.0802 75.8333 99.3469 75.74C99.6269 75.6467 99.8669 75.5133 100.067 75.34L100.567 76.36ZM112.632 66.48V77H111.272V75.08C110.899 75.72 110.385 76.22 109.732 76.58C109.079 76.9267 108.332 77.1 107.492 77.1C106.119 77.1 105.032 76.72 104.232 75.96C103.445 75.1867 103.052 74.06 103.052 72.58V66.48H104.472V72.44C104.472 73.5467 104.745 74.3867 105.292 74.96C105.839 75.5333 106.619 75.82 107.632 75.82C108.739 75.82 109.612 75.4867 110.252 74.82C110.892 74.14 111.212 73.2 111.212 72V66.48H112.632ZM117.969 68.54C118.302 67.8333 118.796 67.3 119.449 66.94C120.116 66.58 120.936 66.4 121.909 66.4V67.78L121.569 67.76C120.462 67.76 119.596 68.1 118.969 68.78C118.342 69.46 118.029 70.4133 118.029 71.64V77H116.609V66.48H117.969V68.54ZM138.711 66.48L134.031 77H132.571L127.911 66.48H129.391L133.331 75.44L137.311 66.48H138.711ZM149.578 72.18H140.778C140.858 73.2733 141.278 74.16 142.038 74.84C142.798 75.5067 143.758 75.84 144.918 75.84C145.571 75.84 146.171 75.7267 146.718 75.5C147.264 75.26 147.738 74.9133 148.138 74.46L148.938 75.38C148.471 75.94 147.884 76.3667 147.178 76.66C146.484 76.9533 145.718 77.1 144.878 77.1C143.798 77.1 142.838 76.8733 141.998 76.42C141.171 75.9533 140.524 75.3133 140.058 74.5C139.591 73.6867 139.358 72.7667 139.358 71.74C139.358 70.7133 139.578 69.7933 140.018 68.98C140.471 68.1667 141.084 67.5333 141.858 67.08C142.644 66.6267 143.524 66.4 144.498 66.4C145.471 66.4 146.344 66.6267 147.118 67.08C147.891 67.5333 148.498 68.1667 148.938 68.98C149.378 69.78 149.598 70.7 149.598 71.74L149.578 72.18ZM144.498 67.62C143.484 67.62 142.631 67.9467 141.938 68.6C141.258 69.24 140.871 70.08 140.778 71.12H148.238C148.144 70.08 147.751 69.24 147.058 68.6C146.378 67.9467 145.524 67.62 144.498 67.62ZM155.308 77.1C154.454 77.1 153.634 76.98 152.848 76.74C152.074 76.4867 151.468 76.1733 151.028 75.8L151.668 74.68C152.108 75.0267 152.661 75.3133 153.328 75.54C153.994 75.7533 154.688 75.86 155.408 75.86C156.368 75.86 157.074 75.7133 157.528 75.42C157.994 75.1133 158.228 74.6867 158.228 74.14C158.228 73.7533 158.101 73.4533 157.848 73.24C157.594 73.0133 157.274 72.8467 156.888 72.74C156.501 72.62 155.988 72.5067 155.348 72.4C154.494 72.24 153.808 72.08 153.288 71.92C152.768 71.7467 152.321 71.46 151.948 71.06C151.588 70.66 151.408 70.1067 151.408 69.4C151.408 68.52 151.774 67.8 152.508 67.24C153.241 66.68 154.261 66.4 155.568 66.4C156.248 66.4 156.928 66.4933 157.608 66.68C158.288 66.8533 158.848 67.0867 159.288 67.38L158.668 68.52C157.801 67.92 156.768 67.62 155.568 67.62C154.661 67.62 153.974 67.78 153.508 68.1C153.054 68.42 152.828 68.84 152.828 69.36C152.828 69.76 152.954 70.08 153.208 70.32C153.474 70.56 153.801 70.74 154.188 70.86C154.574 70.9667 155.108 71.08 155.788 71.2C156.628 71.36 157.301 71.52 157.808 71.68C158.314 71.84 158.748 72.1133 159.108 72.5C159.468 72.8867 159.648 73.42 159.648 74.1C159.648 75.02 159.261 75.7533 158.488 76.3C157.728 76.8333 156.668 77.1 155.308 77.1ZM167.813 76.36C167.546 76.6 167.213 76.7867 166.813 76.92C166.426 77.04 166.02 77.1 165.593 77.1C164.606 77.1 163.846 76.8333 163.313 76.3C162.78 75.7667 162.513 75.0133 162.513 74.04V67.68H160.633V66.48H162.513V64.18H163.933V66.48H167.133V67.68H163.933V73.96C163.933 74.5867 164.086 75.0667 164.393 75.4C164.713 75.72 165.166 75.88 165.753 75.88C166.046 75.88 166.326 75.8333 166.593 75.74C166.873 75.6467 167.113 75.5133 167.313 75.34L167.813 76.36ZM170.398 66.48H171.818V77H170.398V66.48ZM171.118 64.18C170.825 64.18 170.578 64.08 170.378 63.88C170.178 63.68 170.078 63.44 170.078 63.16C170.078 62.8933 170.178 62.66 170.378 62.46C170.578 62.26 170.825 62.16 171.118 62.16C171.411 62.16 171.658 62.26 171.858 62.46C172.058 62.6467 172.158 62.8733 172.158 63.14C172.158 63.4333 172.058 63.68 171.858 63.88C171.658 64.08 171.411 64.18 171.118 64.18ZM181.189 66.4C182.176 66.4 183.069 66.6267 183.869 67.08C184.669 67.52 185.296 68.1467 185.749 68.96C186.202 69.7733 186.429 70.7 186.429 71.74C186.429 72.78 186.202 73.7067 185.749 74.52C185.296 75.3333 184.669 75.9667 183.869 76.42C183.069 76.8733 182.176 77.1 181.189 77.1C180.309 77.1 179.516 76.9133 178.809 76.54C178.116 76.1667 177.556 75.6267 177.129 74.92V77H175.769V62.16H177.189V68.48C177.629 67.8 178.189 67.2867 178.869 66.94C179.562 66.58 180.336 66.4 181.189 66.4ZM181.089 75.84C181.822 75.84 182.489 75.6733 183.089 75.34C183.689 74.9933 184.156 74.5067 184.489 73.88C184.836 73.2533 185.009 72.54 185.009 71.74C185.009 70.94 184.836 70.2267 184.489 69.6C184.156 68.9733 183.689 68.4933 183.089 68.16C182.489 67.8133 181.822 67.64 181.089 67.64C180.342 67.64 179.669 67.8133 179.069 68.16C178.482 68.4933 178.016 68.9733 177.669 69.6C177.336 70.2267 177.169 70.94 177.169 71.74C177.169 72.54 177.336 73.2533 177.669 73.88C178.016 74.5067 178.482 74.9933 179.069 75.34C179.669 75.6733 180.342 75.84 181.089 75.84ZM198.804 66.48V77H197.444V75.08C197.07 75.72 196.557 76.22 195.904 76.58C195.25 76.9267 194.504 77.1 193.664 77.1C192.29 77.1 191.204 76.72 190.404 75.96C189.617 75.1867 189.224 74.06 189.224 72.58V66.48H190.644V72.44C190.644 73.5467 190.917 74.3867 191.464 74.96C192.01 75.5333 192.79 75.82 193.804 75.82C194.91 75.82 195.784 75.4867 196.424 74.82C197.064 74.14 197.384 73.2 197.384 72V66.48H198.804ZM202.781 62.16H204.201V77H202.781V62.16ZM217.632 66.48V77H216.272V75.08C215.899 75.72 215.385 76.22 214.732 76.58C214.079 76.9267 213.332 77.1 212.492 77.1C211.119 77.1 210.032 76.72 209.232 75.96C208.445 75.1867 208.052 74.06 208.052 72.58V66.48H209.472V72.44C209.472 73.5467 209.745 74.3867 210.292 74.96C210.839 75.5333 211.619 75.82 212.632 75.82C213.739 75.82 214.612 75.4867 215.252 74.82C215.892 74.14 216.212 73.2 216.212 72V66.48H217.632ZM234.729 66.4C236.049 66.4 237.082 66.78 237.829 67.54C238.589 68.3 238.969 69.42 238.969 70.9V77H237.549V71.04C237.549 69.9467 237.282 69.1133 236.749 68.54C236.229 67.9667 235.489 67.68 234.529 67.68C233.436 67.68 232.576 68.02 231.949 68.7C231.322 69.3667 231.009 70.2933 231.009 71.48V77H229.589V71.04C229.589 69.9467 229.322 69.1133 228.789 68.54C228.269 67.9667 227.522 67.68 226.549 67.68C225.469 67.68 224.609 68.02 223.969 68.7C223.342 69.3667 223.029 70.2933 223.029 71.48V77H221.609V66.48H222.969V68.4C223.342 67.76 223.862 67.2667 224.529 66.92C225.196 66.5733 225.962 66.4 226.829 66.4C227.709 66.4 228.469 66.5867 229.109 66.96C229.762 67.3333 230.249 67.8867 230.569 68.62C230.956 67.9267 231.509 67.3867 232.229 67C232.962 66.6 233.796 66.4 234.729 66.4Z" fill="#141720"/>
<path fill-rule="evenodd" clip-rule="evenodd" d="M30.0086 1.60549C35.2922 1.60549 39.5764 5.90537 39.5764 11.2083C39.5764 13.9328 38.4449 16.3877 36.6292 18.1363L21.1775 33.7228L5.44523 17.8547C3.79457 16.1287 2.77717 13.7897 2.77717 11.2083C2.77717 5.90386 7.06138 1.60549 12.345 1.60549C16.3246 1.60549 19.7354 4.04535 21.1775 7.51537C22.6196 4.04535 26.0305 1.60549 30.0101 1.60549H30.0086ZM30.0086 0C26.4897 0 23.2574 1.64013 21.176 4.34355C19.0962 1.64013 15.8639 0 12.3435 0C6.18503 0 1.17603 5.02883 1.17603 11.2083C1.17603 14.112 2.28197 16.8682 4.28977 18.9677L21.176 36L37.7622 19.2704C39.953 17.1588 41.176 14.2882 41.176 11.2098C41.176 5.02882 36.1655 0.00150609 30.0086 0.00150609V0Z" fill="#C71222"/>
</svg>
