<svg width="355" height="178" viewBox="0 0 355 178" fill="none" xmlns="http://www.w3.org/2000/svg">
<path d="M6.05713 109.251C4.88037 109.251 3.9502 109.645 3.2666 110.431C2.58789 111.212 2.24854 112.284 2.24854 113.646C2.24854 115.047 2.57568 116.131 3.22998 116.898C3.88916 117.66 4.82666 118.041 6.04248 118.041C6.78955 118.041 7.6416 117.906 8.59863 117.638V118.729C7.85645 119.007 6.94092 119.146 5.85205 119.146C4.2749 119.146 3.05664 118.668 2.19727 117.711C1.34277 116.754 0.915527 115.394 0.915527 113.631C0.915527 112.528 1.12061 111.561 1.53076 110.731C1.9458 109.901 2.5415 109.261 3.31787 108.812C4.09912 108.363 5.01709 108.138 6.07178 108.138C7.19482 108.138 8.17627 108.343 9.01611 108.753L8.48877 109.823C7.67822 109.442 6.86768 109.251 6.05713 109.251ZM18.1807 114.979C18.1807 116.288 17.8511 117.311 17.1919 118.048C16.5327 118.78 15.6221 119.146 14.46 119.146C13.7422 119.146 13.105 118.978 12.5483 118.641C11.9917 118.304 11.562 117.821 11.2593 117.191C10.9565 116.561 10.8052 115.824 10.8052 114.979C10.8052 113.67 11.1323 112.652 11.7866 111.925C12.4409 111.192 13.3491 110.826 14.5112 110.826C15.6343 110.826 16.5254 111.2 17.1846 111.947C17.8486 112.694 18.1807 113.705 18.1807 114.979ZM12.0649 114.979C12.0649 116.004 12.27 116.786 12.6802 117.323C13.0903 117.86 13.6934 118.128 14.4893 118.128C15.2852 118.128 15.8882 117.862 16.2983 117.33C16.7134 116.793 16.9209 116.009 16.9209 114.979C16.9209 113.958 16.7134 113.185 16.2983 112.657C15.8882 112.125 15.2803 111.859 14.4746 111.859C13.6787 111.859 13.0781 112.12 12.6729 112.643C12.2676 113.165 12.0649 113.944 12.0649 114.979ZM26.3125 119V113.807C26.3125 113.153 26.1636 112.665 25.8657 112.342C25.5679 112.02 25.1016 111.859 24.4668 111.859C23.627 111.859 23.0117 112.086 22.6211 112.54C22.2305 112.994 22.0352 113.744 22.0352 114.789V119H20.8193V110.973H21.8081L22.0059 112.071H22.0645C22.3135 111.676 22.6626 111.371 23.1118 111.156C23.561 110.936 24.0615 110.826 24.6133 110.826C25.5801 110.826 26.3076 111.061 26.7959 111.529C27.2842 111.993 27.5283 112.738 27.5283 113.763V119H26.3125ZM35.7114 116.81C35.7114 117.557 35.4331 118.133 34.8765 118.539C34.3198 118.944 33.5386 119.146 32.5327 119.146C31.4683 119.146 30.6382 118.978 30.0425 118.641V117.513C30.4282 117.708 30.8408 117.862 31.2803 117.975C31.7246 118.087 32.1519 118.143 32.562 118.143C33.1968 118.143 33.6851 118.043 34.0269 117.843C34.3687 117.638 34.5396 117.328 34.5396 116.913C34.5396 116.6 34.4028 116.334 34.1294 116.114C33.8608 115.89 33.3335 115.626 32.5474 115.323C31.8003 115.045 31.2681 114.803 30.9507 114.598C30.6382 114.388 30.4038 114.151 30.2476 113.888C30.0962 113.624 30.0205 113.309 30.0205 112.943C30.0205 112.289 30.2866 111.773 30.8188 111.397C31.3511 111.017 32.0811 110.826 33.0088 110.826C33.873 110.826 34.7178 111.002 35.543 111.354L35.1108 112.342C34.3052 112.01 33.5752 111.844 32.9209 111.844C32.3447 111.844 31.9102 111.935 31.6172 112.115C31.3242 112.296 31.1777 112.545 31.1777 112.862C31.1777 113.077 31.2314 113.26 31.3389 113.412C31.4512 113.563 31.6294 113.707 31.8735 113.844C32.1177 113.98 32.5864 114.178 33.2798 114.437C34.2319 114.784 34.874 115.133 35.2061 115.484C35.543 115.836 35.7114 116.278 35.7114 116.81ZM41.5874 119.146C40.4009 119.146 39.4634 118.785 38.7749 118.062C38.0913 117.34 37.7495 116.336 37.7495 115.052C37.7495 113.758 38.0669 112.73 38.7017 111.969C39.3413 111.207 40.1982 110.826 41.2725 110.826C42.2783 110.826 43.0742 111.158 43.6602 111.822C44.2461 112.481 44.5391 113.353 44.5391 114.437V115.206H39.0093C39.0337 116.148 39.2705 116.864 39.7197 117.352C40.1738 117.84 40.811 118.084 41.6313 118.084C42.4956 118.084 43.3501 117.904 44.1948 117.542V118.626C43.7651 118.812 43.3574 118.944 42.9717 119.022C42.5908 119.105 42.1294 119.146 41.5874 119.146ZM41.2578 111.844C40.6133 111.844 40.0981 112.054 39.7124 112.474C39.3315 112.894 39.1069 113.475 39.0386 114.217H43.2354C43.2354 113.451 43.0645 112.865 42.7227 112.459C42.3809 112.049 41.8926 111.844 41.2578 111.844ZM50.3271 119.146C49.165 119.146 48.2642 118.79 47.6245 118.077C46.9897 117.359 46.6724 116.346 46.6724 115.038C46.6724 113.695 46.9946 112.657 47.6392 111.925C48.2886 111.192 49.2114 110.826 50.4077 110.826C50.7935 110.826 51.1792 110.868 51.5649 110.951C51.9507 111.034 52.2534 111.131 52.4731 111.244L52.0996 112.276C51.8311 112.169 51.5381 112.081 51.2207 112.013C50.9033 111.939 50.6226 111.903 50.3784 111.903C48.7476 111.903 47.9321 112.943 47.9321 115.023C47.9321 116.009 48.1299 116.766 48.5254 117.293C48.9258 117.821 49.5166 118.084 50.2979 118.084C50.9668 118.084 51.6528 117.94 52.356 117.652V118.729C51.8188 119.007 51.1426 119.146 50.3271 119.146ZM57.3604 118.143C57.5752 118.143 57.7827 118.128 57.9829 118.099C58.1831 118.065 58.3418 118.031 58.459 117.997V118.927C58.3271 118.99 58.1318 119.042 57.873 119.081C57.6191 119.125 57.3896 119.146 57.1846 119.146C55.6318 119.146 54.8555 118.329 54.8555 116.693V111.917H53.7056V111.332L54.8555 110.826L55.3682 109.112H56.0713V110.973H58.4004V111.917H56.0713V116.642C56.0713 117.125 56.186 117.496 56.4155 117.755C56.645 118.014 56.96 118.143 57.3604 118.143ZM63.9614 119.146C62.7749 119.146 61.8374 118.785 61.1489 118.062C60.4653 117.34 60.1235 116.336 60.1235 115.052C60.1235 113.758 60.4409 112.73 61.0757 111.969C61.7153 111.207 62.5723 110.826 63.6465 110.826C64.6523 110.826 65.4482 111.158 66.0342 111.822C66.6201 112.481 66.9131 113.353 66.9131 114.437V115.206H61.3833C61.4077 116.148 61.6445 116.864 62.0938 117.352C62.5479 117.84 63.1851 118.084 64.0054 118.084C64.8696 118.084 65.7241 117.904 66.5688 117.542V118.626C66.1392 118.812 65.7314 118.944 65.3457 119.022C64.9648 119.105 64.5034 119.146 63.9614 119.146ZM63.6318 111.844C62.9873 111.844 62.4722 112.054 62.0864 112.474C61.7056 112.894 61.481 113.475 61.4126 114.217H65.6094C65.6094 113.451 65.4385 112.865 65.0967 112.459C64.7549 112.049 64.2666 111.844 63.6318 111.844ZM72.0859 118.143C72.3008 118.143 72.5083 118.128 72.7085 118.099C72.9087 118.065 73.0674 118.031 73.1846 117.997V118.927C73.0527 118.99 72.8574 119.042 72.5986 119.081C72.3447 119.125 72.1152 119.146 71.9102 119.146C70.3574 119.146 69.5811 118.329 69.5811 116.693V111.917H68.4312V111.332L69.5811 110.826L70.0938 109.112H70.7969V110.973H73.126V111.917H70.7969V116.642C70.7969 117.125 70.9116 117.496 71.1411 117.755C71.3706 118.014 71.6855 118.143 72.0859 118.143ZM76.4385 110.973V116.18C76.4385 116.834 76.5874 117.323 76.8853 117.645C77.1831 117.967 77.6494 118.128 78.2842 118.128C79.124 118.128 79.7368 117.899 80.1226 117.44C80.5132 116.981 80.7085 116.231 80.7085 115.191V110.973H81.9243V119H80.9209L80.7451 117.923H80.6792C80.4302 118.319 80.0835 118.622 79.6392 118.832C79.1997 119.042 78.6968 119.146 78.1304 119.146C77.1538 119.146 76.4214 118.915 75.9331 118.451C75.4497 117.987 75.208 117.245 75.208 116.224V110.973H76.4385ZM88.6719 110.826C89.0283 110.826 89.3481 110.855 89.6313 110.914L89.4629 112.042C89.1309 111.969 88.8379 111.932 88.584 111.932C87.9346 111.932 87.3779 112.196 86.9141 112.723C86.4551 113.25 86.2256 113.907 86.2256 114.693V119H85.0098V110.973H86.0132L86.1523 112.459H86.2109C86.5088 111.937 86.8677 111.534 87.2876 111.251C87.7075 110.968 88.1689 110.826 88.6719 110.826ZM97.7871 119L94.7402 110.973H96.0439L97.7725 115.733C98.1631 116.847 98.3926 117.569 98.4609 117.901H98.5195C98.5732 117.643 98.7417 117.108 99.0249 116.297C99.313 115.482 99.9551 113.707 100.951 110.973H102.255L99.208 119H97.7871ZM107.435 119.146C106.249 119.146 105.311 118.785 104.623 118.062C103.939 117.34 103.597 116.336 103.597 115.052C103.597 113.758 103.915 112.73 104.549 111.969C105.189 111.207 106.046 110.826 107.12 110.826C108.126 110.826 108.922 111.158 109.508 111.822C110.094 112.481 110.387 113.353 110.387 114.437V115.206H104.857C104.881 116.148 105.118 116.864 105.567 117.352C106.021 117.84 106.659 118.084 107.479 118.084C108.343 118.084 109.198 117.904 110.042 117.542V118.626C109.613 118.812 109.205 118.944 108.819 119.022C108.438 119.105 107.977 119.146 107.435 119.146ZM107.105 111.844C106.461 111.844 105.946 112.054 105.56 112.474C105.179 112.894 104.955 113.475 104.886 114.217H109.083C109.083 113.451 108.912 112.865 108.57 112.459C108.229 112.049 107.74 111.844 107.105 111.844ZM118.145 116.81C118.145 117.557 117.867 118.133 117.31 118.539C116.753 118.944 115.972 119.146 114.966 119.146C113.902 119.146 113.072 118.978 112.476 118.641V117.513C112.862 117.708 113.274 117.862 113.714 117.975C114.158 118.087 114.585 118.143 114.996 118.143C115.63 118.143 116.119 118.043 116.46 117.843C116.802 117.638 116.973 117.328 116.973 116.913C116.973 116.6 116.836 116.334 116.563 116.114C116.294 115.89 115.767 115.626 114.981 115.323C114.234 115.045 113.702 114.803 113.384 114.598C113.072 114.388 112.837 114.151 112.681 113.888C112.53 113.624 112.454 113.309 112.454 112.943C112.454 112.289 112.72 111.773 113.252 111.397C113.785 111.017 114.515 110.826 115.442 110.826C116.307 110.826 117.151 111.002 117.977 111.354L117.544 112.342C116.739 112.01 116.009 111.844 115.354 111.844C114.778 111.844 114.344 111.935 114.051 112.115C113.758 112.296 113.611 112.545 113.611 112.862C113.611 113.077 113.665 113.26 113.772 113.412C113.885 113.563 114.063 113.707 114.307 113.844C114.551 113.98 115.02 114.178 115.713 114.437C116.666 114.784 117.308 115.133 117.64 115.484C117.977 115.836 118.145 116.278 118.145 116.81ZM123.223 118.143C123.438 118.143 123.645 118.128 123.845 118.099C124.045 118.065 124.204 118.031 124.321 117.997V118.927C124.189 118.99 123.994 119.042 123.735 119.081C123.481 119.125 123.252 119.146 123.047 119.146C121.494 119.146 120.718 118.329 120.718 116.693V111.917H119.568V111.332L120.718 110.826L121.23 109.112H121.934V110.973H124.263V111.917H121.934V116.642C121.934 117.125 122.048 117.496 122.278 117.755C122.507 118.014 122.822 118.143 123.223 118.143ZM127.648 119H126.433V110.973H127.648V119ZM126.33 108.797C126.33 108.519 126.398 108.316 126.535 108.189C126.672 108.058 126.843 107.992 127.048 107.992C127.243 107.992 127.412 108.058 127.553 108.189C127.695 108.321 127.766 108.524 127.766 108.797C127.766 109.071 127.695 109.276 127.553 109.413C127.412 109.544 127.243 109.61 127.048 109.61C126.843 109.61 126.672 109.544 126.535 109.413C126.398 109.276 126.33 109.071 126.33 108.797ZM134.462 110.841C135.517 110.841 136.334 111.202 136.916 111.925C137.501 112.643 137.794 113.661 137.794 114.979C137.794 116.297 137.499 117.323 136.908 118.055C136.322 118.783 135.507 119.146 134.462 119.146C133.939 119.146 133.461 119.051 133.026 118.861C132.597 118.666 132.235 118.368 131.942 117.967H131.854L131.598 119H130.727V107.604H131.942V110.372C131.942 110.992 131.923 111.549 131.884 112.042H131.942C132.509 111.241 133.349 110.841 134.462 110.841ZM134.286 111.859C133.456 111.859 132.858 112.098 132.492 112.577C132.125 113.05 131.942 113.851 131.942 114.979C131.942 116.107 132.13 116.915 132.506 117.403C132.882 117.887 133.485 118.128 134.315 118.128C135.062 118.128 135.619 117.857 135.985 117.315C136.352 116.769 136.535 115.985 136.535 114.964C136.535 113.919 136.352 113.141 135.985 112.628C135.619 112.115 135.053 111.859 134.286 111.859ZM141.568 110.973V116.18C141.568 116.834 141.717 117.323 142.015 117.645C142.313 117.967 142.779 118.128 143.414 118.128C144.254 118.128 144.867 117.899 145.252 117.44C145.643 116.981 145.838 116.231 145.838 115.191V110.973H147.054V119H146.051L145.875 117.923H145.809C145.56 118.319 145.213 118.622 144.769 118.832C144.33 119.042 143.827 119.146 143.26 119.146C142.284 119.146 141.551 118.915 141.063 118.451C140.58 117.987 140.338 117.245 140.338 116.224V110.973H141.568ZM151.355 119H150.14V107.604H151.355V119ZM155.576 110.973V116.18C155.576 116.834 155.725 117.323 156.023 117.645C156.321 117.967 156.787 118.128 157.422 118.128C158.262 118.128 158.875 117.899 159.26 117.44C159.651 116.981 159.846 116.231 159.846 115.191V110.973H161.062V119H160.059L159.883 117.923H159.817C159.568 118.319 159.221 118.622 158.777 118.832C158.337 119.042 157.834 119.146 157.268 119.146C156.292 119.146 155.559 118.915 155.071 118.451C154.587 117.987 154.346 117.245 154.346 116.224V110.973H155.576ZM174.379 119V113.778C174.379 113.138 174.243 112.66 173.969 112.342C173.696 112.02 173.271 111.859 172.695 111.859C171.938 111.859 171.379 112.076 171.018 112.511C170.656 112.945 170.476 113.614 170.476 114.518V119H169.26V113.778C169.26 113.138 169.123 112.66 168.85 112.342C168.576 112.02 168.149 111.859 167.568 111.859C166.806 111.859 166.247 112.088 165.891 112.547C165.539 113.001 165.363 113.749 165.363 114.789V119H164.147V110.973H165.136L165.334 112.071H165.393C165.622 111.681 165.944 111.375 166.359 111.156C166.779 110.936 167.248 110.826 167.766 110.826C169.021 110.826 169.841 111.28 170.227 112.188H170.285C170.524 111.769 170.871 111.437 171.325 111.192C171.779 110.948 172.297 110.826 172.878 110.826C173.786 110.826 174.465 111.061 174.914 111.529C175.368 111.993 175.595 112.738 175.595 113.763V119H174.379ZM193.236 119V113.778C193.236 113.138 193.099 112.66 192.826 112.342C192.552 112.02 192.127 111.859 191.551 111.859C190.794 111.859 190.235 112.076 189.874 112.511C189.513 112.945 189.332 113.614 189.332 114.518V119H188.116V113.778C188.116 113.138 187.979 112.66 187.706 112.342C187.433 112.02 187.005 111.859 186.424 111.859C185.663 111.859 185.104 112.088 184.747 112.547C184.396 113.001 184.22 113.749 184.22 114.789V119H183.004V110.973H183.993L184.19 112.071H184.249C184.479 111.681 184.801 111.375 185.216 111.156C185.636 110.936 186.104 110.826 186.622 110.826C187.877 110.826 188.697 111.28 189.083 112.188H189.142C189.381 111.769 189.728 111.437 190.182 111.192C190.636 110.948 191.153 110.826 191.734 110.826C192.643 110.826 193.321 111.061 193.771 111.529C194.225 111.993 194.452 112.738 194.452 113.763V119H193.236ZM202.4 119L202.159 117.857H202.1C201.7 118.36 201.299 118.702 200.899 118.883C200.503 119.059 200.008 119.146 199.412 119.146C198.616 119.146 197.991 118.941 197.537 118.531C197.088 118.121 196.863 117.538 196.863 116.781C196.863 115.16 198.16 114.31 200.752 114.232L202.115 114.188V113.69C202.115 113.06 201.978 112.596 201.705 112.298C201.436 111.996 201.004 111.844 200.408 111.844C199.739 111.844 198.982 112.049 198.138 112.459L197.764 111.529C198.16 111.314 198.592 111.146 199.061 111.024C199.534 110.902 200.008 110.841 200.481 110.841C201.438 110.841 202.146 111.053 202.605 111.478C203.069 111.903 203.301 112.584 203.301 113.521V119H202.4ZM199.654 118.143C200.411 118.143 201.004 117.936 201.434 117.521C201.868 117.105 202.085 116.524 202.085 115.777V115.052L200.87 115.104C199.903 115.138 199.205 115.289 198.775 115.558C198.35 115.821 198.138 116.234 198.138 116.795C198.138 117.235 198.27 117.569 198.533 117.799C198.802 118.028 199.175 118.143 199.654 118.143ZM209.705 119.146C208.518 119.146 207.581 118.785 206.892 118.062C206.208 117.34 205.867 116.336 205.867 115.052C205.867 113.758 206.184 112.73 206.819 111.969C207.458 111.207 208.315 110.826 209.39 110.826C210.396 110.826 211.191 111.158 211.777 111.822C212.363 112.481 212.656 113.353 212.656 114.437V115.206H207.126C207.151 116.148 207.388 116.864 207.837 117.352C208.291 117.84 208.928 118.084 209.749 118.084C210.613 118.084 211.467 117.904 212.312 117.542V118.626C211.882 118.812 211.475 118.944 211.089 119.022C210.708 119.105 210.247 119.146 209.705 119.146ZM209.375 111.844C208.73 111.844 208.215 112.054 207.83 112.474C207.449 112.894 207.224 113.475 207.156 114.217H211.353C211.353 113.451 211.182 112.865 210.84 112.459C210.498 112.049 210.01 111.844 209.375 111.844ZM218.444 119.146C217.282 119.146 216.381 118.79 215.742 118.077C215.107 117.359 214.79 116.346 214.79 115.038C214.79 113.695 215.112 112.657 215.756 111.925C216.406 111.192 217.329 110.826 218.525 110.826C218.911 110.826 219.296 110.868 219.682 110.951C220.068 111.034 220.371 111.131 220.59 111.244L220.217 112.276C219.948 112.169 219.655 112.081 219.338 112.013C219.021 111.939 218.74 111.903 218.496 111.903C216.865 111.903 216.049 112.943 216.049 115.023C216.049 116.009 216.247 116.766 216.643 117.293C217.043 117.821 217.634 118.084 218.415 118.084C219.084 118.084 219.77 117.94 220.473 117.652V118.729C219.936 119.007 219.26 119.146 218.444 119.146ZM226.276 119.146C225.089 119.146 224.152 118.785 223.463 118.062C222.78 117.34 222.438 116.336 222.438 115.052C222.438 113.758 222.755 112.73 223.39 111.969C224.03 111.207 224.887 110.826 225.961 110.826C226.967 110.826 227.763 111.158 228.349 111.822C228.935 112.481 229.228 113.353 229.228 114.437V115.206H223.698C223.722 116.148 223.959 116.864 224.408 117.352C224.862 117.84 225.5 118.084 226.32 118.084C227.184 118.084 228.039 117.904 228.883 117.542V118.626C228.454 118.812 228.046 118.944 227.66 119.022C227.279 119.105 226.818 119.146 226.276 119.146ZM225.946 111.844C225.302 111.844 224.787 112.054 224.401 112.474C224.02 112.894 223.795 113.475 223.727 114.217H227.924C227.924 113.451 227.753 112.865 227.411 112.459C227.069 112.049 226.581 111.844 225.946 111.844ZM237.301 119V113.807C237.301 113.153 237.152 112.665 236.854 112.342C236.556 112.02 236.09 111.859 235.455 111.859C234.615 111.859 234 112.086 233.609 112.54C233.219 112.994 233.023 113.744 233.023 114.789V119H231.808V110.973H232.796L232.994 112.071H233.053C233.302 111.676 233.651 111.371 234.1 111.156C234.549 110.936 235.05 110.826 235.602 110.826C236.568 110.826 237.296 111.061 237.784 111.529C238.272 111.993 238.517 112.738 238.517 113.763V119H237.301ZM246.458 119L246.216 117.857H246.158C245.757 118.36 245.357 118.702 244.957 118.883C244.561 119.059 244.065 119.146 243.47 119.146C242.674 119.146 242.049 118.941 241.595 118.531C241.146 118.121 240.921 117.538 240.921 116.781C240.921 115.16 242.217 114.31 244.81 114.232L246.172 114.188V113.69C246.172 113.06 246.036 112.596 245.762 112.298C245.494 111.996 245.062 111.844 244.466 111.844C243.797 111.844 243.04 112.049 242.195 112.459L241.822 111.529C242.217 111.314 242.649 111.146 243.118 111.024C243.592 110.902 244.065 110.841 244.539 110.841C245.496 110.841 246.204 111.053 246.663 111.478C247.127 111.903 247.359 112.584 247.359 113.521V119H246.458ZM243.711 118.143C244.468 118.143 245.062 117.936 245.491 117.521C245.926 117.105 246.143 116.524 246.143 115.777V115.052L244.927 115.104C243.96 115.138 243.262 115.289 242.833 115.558C242.408 115.821 242.195 116.234 242.195 116.795C242.195 117.235 242.327 117.569 242.591 117.799C242.859 118.028 243.233 118.143 243.711 118.143ZM255.549 116.81C255.549 117.557 255.271 118.133 254.714 118.539C254.158 118.944 253.376 119.146 252.371 119.146C251.306 119.146 250.476 118.978 249.88 118.641V117.513C250.266 117.708 250.679 117.862 251.118 117.975C251.562 118.087 251.99 118.143 252.4 118.143C253.035 118.143 253.523 118.043 253.865 117.843C254.207 117.638 254.377 117.328 254.377 116.913C254.377 116.6 254.241 116.334 253.967 116.114C253.699 115.89 253.171 115.626 252.385 115.323C251.638 115.045 251.106 114.803 250.789 114.598C250.476 114.388 250.242 114.151 250.085 113.888C249.934 113.624 249.858 113.309 249.858 112.943C249.858 112.289 250.125 111.773 250.657 111.397C251.189 111.017 251.919 110.826 252.847 110.826C253.711 110.826 254.556 111.002 255.381 111.354L254.949 112.342C254.143 112.01 253.413 111.844 252.759 111.844C252.183 111.844 251.748 111.935 251.455 112.115C251.162 112.296 251.016 112.545 251.016 112.862C251.016 113.077 251.069 113.26 251.177 113.412C251.289 113.563 251.467 113.707 251.711 113.844C251.956 113.98 252.424 114.178 253.118 114.437C254.07 114.784 254.712 115.133 255.044 115.484C255.381 115.836 255.549 116.278 255.549 116.81ZM265.639 119.146C264.477 119.146 263.576 118.79 262.936 118.077C262.301 117.359 261.984 116.346 261.984 115.038C261.984 113.695 262.306 112.657 262.951 111.925C263.6 111.192 264.523 110.826 265.719 110.826C266.105 110.826 266.491 110.868 266.876 110.951C267.262 111.034 267.565 111.131 267.785 111.244L267.411 112.276C267.143 112.169 266.85 112.081 266.532 112.013C266.215 111.939 265.934 111.903 265.69 111.903C264.059 111.903 263.244 112.943 263.244 115.023C263.244 116.009 263.441 116.766 263.837 117.293C264.237 117.821 264.828 118.084 265.609 118.084C266.278 118.084 266.964 117.94 267.667 117.652V118.729C267.13 119.007 266.454 119.146 265.639 119.146ZM271.222 110.973V116.18C271.222 116.834 271.371 117.323 271.668 117.645C271.966 117.967 272.433 118.128 273.067 118.128C273.907 118.128 274.52 117.899 274.906 117.44C275.296 116.981 275.492 116.231 275.492 115.191V110.973H276.708V119H275.704L275.528 117.923H275.462C275.213 118.319 274.867 118.622 274.422 118.832C273.983 119.042 273.48 119.146 272.914 119.146C271.937 119.146 271.205 118.915 270.716 118.451C270.233 117.987 269.991 117.245 269.991 116.224V110.973H271.222ZM283.455 110.826C283.812 110.826 284.131 110.855 284.415 110.914L284.246 112.042C283.914 111.969 283.621 111.932 283.367 111.932C282.718 111.932 282.161 112.196 281.697 112.723C281.238 113.25 281.009 113.907 281.009 114.693V119H279.793V110.973H280.796L280.936 112.459H280.994C281.292 111.937 281.651 111.534 282.071 111.251C282.491 110.968 282.952 110.826 283.455 110.826ZM291.353 119L291.111 117.857H291.052C290.652 118.36 290.251 118.702 289.851 118.883C289.456 119.059 288.96 119.146 288.364 119.146C287.568 119.146 286.943 118.941 286.489 118.531C286.04 118.121 285.815 117.538 285.815 116.781C285.815 115.16 287.112 114.31 289.705 114.232L291.067 114.188V113.69C291.067 113.06 290.93 112.596 290.657 112.298C290.388 111.996 289.956 111.844 289.36 111.844C288.691 111.844 287.935 112.049 287.09 112.459L286.716 111.529C287.112 111.314 287.544 111.146 288.013 111.024C288.486 110.902 288.96 110.841 289.434 110.841C290.391 110.841 291.099 111.053 291.558 111.478C292.021 111.903 292.253 112.584 292.253 113.521V119H291.353ZM288.606 118.143C289.363 118.143 289.956 117.936 290.386 117.521C290.82 117.105 291.038 116.524 291.038 115.777V115.052L289.822 115.104C288.855 115.138 288.157 115.289 287.727 115.558C287.302 115.821 287.09 116.234 287.09 116.795C287.09 117.235 287.222 117.569 287.485 117.799C287.754 118.028 288.127 118.143 288.606 118.143ZM299.001 110.841C300.056 110.841 300.874 111.202 301.455 111.925C302.041 112.643 302.333 113.661 302.333 114.979C302.333 116.297 302.038 117.323 301.447 118.055C300.861 118.783 300.046 119.146 299.001 119.146C298.479 119.146 298 119.051 297.565 118.861C297.136 118.666 296.774 118.368 296.481 117.967H296.394L296.137 119H295.266V107.604H296.481V110.372C296.481 110.992 296.462 111.549 296.423 112.042H296.481C297.048 111.241 297.888 110.841 299.001 110.841ZM298.825 111.859C297.995 111.859 297.397 112.098 297.031 112.577C296.665 113.05 296.481 113.851 296.481 114.979C296.481 116.107 296.669 116.915 297.045 117.403C297.421 117.887 298.024 118.128 298.854 118.128C299.602 118.128 300.158 117.857 300.524 117.315C300.891 116.769 301.074 115.985 301.074 114.964C301.074 113.919 300.891 113.141 300.524 112.628C300.158 112.115 299.592 111.859 298.825 111.859ZM306.181 119H304.965V110.973H306.181V119ZM304.862 108.797C304.862 108.519 304.931 108.316 305.067 108.189C305.204 108.058 305.375 107.992 305.58 107.992C305.775 107.992 305.944 108.058 306.085 108.189C306.227 108.321 306.298 108.524 306.298 108.797C306.298 109.071 306.227 109.276 306.085 109.413C305.944 109.544 305.775 109.61 305.58 109.61C305.375 109.61 305.204 109.544 305.067 109.413C304.931 109.276 304.862 109.071 304.862 108.797ZM311.852 118.143C312.066 118.143 312.274 118.128 312.474 118.099C312.674 118.065 312.833 118.031 312.95 117.997V118.927C312.818 118.99 312.623 119.042 312.364 119.081C312.11 119.125 311.881 119.146 311.676 119.146C310.123 119.146 309.347 118.329 309.347 116.693V111.917H308.197V111.332L309.347 110.826L309.859 109.112H310.562V110.973H312.892V111.917H310.562V116.642C310.562 117.125 310.677 117.496 310.907 117.755C311.136 118.014 311.451 118.143 311.852 118.143ZM316.204 110.973V116.18C316.204 116.834 316.353 117.323 316.651 117.645C316.949 117.967 317.415 118.128 318.05 118.128C318.89 118.128 319.502 117.899 319.888 117.44C320.279 116.981 320.474 116.231 320.474 115.191V110.973H321.69V119H320.687L320.511 117.923H320.445C320.196 118.319 319.849 118.622 319.405 118.832C318.965 119.042 318.462 119.146 317.896 119.146C316.919 119.146 316.187 118.915 315.699 118.451C315.215 117.987 314.974 117.245 314.974 116.224V110.973H316.204ZM328.438 110.826C328.794 110.826 329.114 110.855 329.397 110.914L329.229 112.042C328.896 111.969 328.604 111.932 328.35 111.932C327.7 111.932 327.144 112.196 326.68 112.723C326.221 113.25 325.991 113.907 325.991 114.693V119H324.775V110.973H325.779L325.918 112.459H325.977C326.274 111.937 326.633 111.534 327.053 111.251C327.473 110.968 327.935 110.826 328.438 110.826ZM6.78223 145V139.807C6.78223 139.153 6.6333 138.665 6.33545 138.342C6.0376 138.02 5.57129 137.859 4.93652 137.859C4.0918 137.859 3.47412 138.088 3.0835 138.547C2.69775 139.006 2.50488 139.758 2.50488 140.803V145H1.28906V133.604H2.50488V137.053C2.50488 137.468 2.48535 137.812 2.44629 138.086H2.51953C2.75879 137.7 3.09814 137.397 3.5376 137.178C3.98193 136.953 4.4873 136.841 5.05371 136.841C6.03516 136.841 6.77002 137.075 7.2583 137.544C7.75146 138.008 7.99805 138.748 7.99805 139.763V145H6.78223ZM15.9395 145L15.6978 143.857H15.6392C15.2388 144.36 14.8384 144.702 14.438 144.883C14.0425 145.059 13.5469 145.146 12.9512 145.146C12.1553 145.146 11.5303 144.941 11.0762 144.531C10.627 144.121 10.4023 143.538 10.4023 142.781C10.4023 141.16 11.6987 140.31 14.2915 140.232L15.6538 140.188V139.69C15.6538 139.06 15.5171 138.596 15.2437 138.298C14.9751 137.996 14.543 137.844 13.9473 137.844C13.2783 137.844 12.5215 138.049 11.6768 138.459L11.3032 137.529C11.6987 137.314 12.1309 137.146 12.5996 137.024C13.0732 136.902 13.5469 136.841 14.0205 136.841C14.9775 136.841 15.6855 137.053 16.1445 137.478C16.6084 137.903 16.8403 138.584 16.8403 139.521V145H15.9395ZM13.1929 144.143C13.9497 144.143 14.543 143.936 14.9727 143.521C15.4072 143.105 15.6245 142.524 15.6245 141.777V141.052L14.4087 141.104C13.4419 141.138 12.7437 141.289 12.314 141.558C11.8892 141.821 11.6768 142.234 11.6768 142.795C11.6768 143.235 11.8086 143.569 12.0723 143.799C12.3408 144.028 12.7144 144.143 13.1929 144.143ZM23.0605 145.146C21.8984 145.146 20.9976 144.79 20.3579 144.077C19.7231 143.359 19.4058 142.346 19.4058 141.038C19.4058 139.695 19.728 138.657 20.3726 137.925C21.022 137.192 21.9448 136.826 23.1411 136.826C23.5269 136.826 23.9126 136.868 24.2983 136.951C24.6841 137.034 24.9868 137.131 25.2065 137.244L24.833 138.276C24.5645 138.169 24.2715 138.081 23.9541 138.013C23.6367 137.939 23.356 137.903 23.1118 137.903C21.481 137.903 20.6655 138.943 20.6655 141.023C20.6655 142.009 20.8633 142.766 21.2588 143.293C21.6592 143.821 22.25 144.084 23.0312 144.084C23.7002 144.084 24.3862 143.94 25.0894 143.652V144.729C24.5522 145.007 23.876 145.146 23.0605 145.146ZM35.5156 137.917H33.4722V145H32.2563V137.917H30.8208V137.368L32.2563 136.929V136.482C32.2563 134.509 33.1182 133.523 34.8418 133.523C35.2666 133.523 35.7646 133.608 36.3359 133.779L36.021 134.753C35.5522 134.602 35.1519 134.526 34.8198 134.526C34.3608 134.526 34.0215 134.68 33.8018 134.988C33.582 135.291 33.4722 135.779 33.4722 136.453V136.973H35.5156V137.917ZM40.8716 145.146C39.6851 145.146 38.7476 144.785 38.0591 144.062C37.3755 143.34 37.0337 142.336 37.0337 141.052C37.0337 139.758 37.3511 138.73 37.9858 137.969C38.6255 137.207 39.4824 136.826 40.5566 136.826C41.5625 136.826 42.3584 137.158 42.9443 137.822C43.5303 138.481 43.8232 139.353 43.8232 140.437V141.206H38.2935C38.3179 142.148 38.5547 142.864 39.0039 143.352C39.458 143.84 40.0952 144.084 40.9155 144.084C41.7798 144.084 42.6343 143.904 43.479 143.542V144.626C43.0493 144.812 42.6416 144.944 42.2559 145.022C41.875 145.105 41.4136 145.146 40.8716 145.146ZM40.542 137.844C39.8975 137.844 39.3823 138.054 38.9966 138.474C38.6157 138.894 38.3911 139.475 38.3228 140.217H42.5195C42.5195 139.451 42.3486 138.865 42.0068 138.459C41.665 138.049 41.1768 137.844 40.542 137.844ZM47.6191 145H46.4033V133.604H47.6191V145ZM51.9131 145H50.6973V136.973H51.9131V145ZM50.5947 134.797C50.5947 134.519 50.6631 134.316 50.7998 134.189C50.9365 134.058 51.1074 133.992 51.3125 133.992C51.5078 133.992 51.6763 134.058 51.8179 134.189C51.9595 134.321 52.0303 134.524 52.0303 134.797C52.0303 135.071 51.9595 135.276 51.8179 135.413C51.6763 135.544 51.5078 135.61 51.3125 135.61C51.1074 135.61 50.9365 135.544 50.7998 135.413C50.6631 135.276 50.5947 135.071 50.5947 134.797ZM60.1694 142.81C60.1694 143.557 59.8911 144.133 59.3345 144.539C58.7778 144.944 57.9966 145.146 56.9907 145.146C55.9263 145.146 55.0962 144.978 54.5005 144.641V143.513C54.8862 143.708 55.2988 143.862 55.7383 143.975C56.1826 144.087 56.6099 144.143 57.02 144.143C57.6548 144.143 58.1431 144.043 58.4849 143.843C58.8267 143.638 58.9976 143.328 58.9976 142.913C58.9976 142.6 58.8608 142.334 58.5874 142.114C58.3188 141.89 57.7915 141.626 57.0054 141.323C56.2583 141.045 55.7261 140.803 55.4087 140.598C55.0962 140.388 54.8618 140.151 54.7056 139.888C54.5542 139.624 54.4785 139.309 54.4785 138.943C54.4785 138.289 54.7446 137.773 55.2769 137.397C55.8091 137.017 56.5391 136.826 57.4668 136.826C58.3311 136.826 59.1758 137.002 60.001 137.354L59.5688 138.342C58.7632 138.01 58.0332 137.844 57.3789 137.844C56.8027 137.844 56.3682 137.935 56.0752 138.115C55.7822 138.296 55.6357 138.545 55.6357 138.862C55.6357 139.077 55.6895 139.26 55.7969 139.412C55.9092 139.563 56.0874 139.707 56.3315 139.844C56.5757 139.98 57.0444 140.178 57.7378 140.437C58.6899 140.784 59.332 141.133 59.6641 141.484C60.001 141.836 60.1694 142.278 60.1694 142.81ZM68.8086 145L65.7617 136.973H67.0654L68.7939 141.733C69.1846 142.847 69.4141 143.569 69.4824 143.901H69.541C69.5947 143.643 69.7632 143.108 70.0464 142.297C70.3345 141.482 70.9766 139.707 71.9727 136.973H73.2764L70.2295 145H68.8086ZM78.4565 145.146C77.27 145.146 76.3325 144.785 75.644 144.062C74.9604 143.34 74.6187 142.336 74.6187 141.052C74.6187 139.758 74.936 138.73 75.5708 137.969C76.2104 137.207 77.0674 136.826 78.1416 136.826C79.1475 136.826 79.9434 137.158 80.5293 137.822C81.1152 138.481 81.4082 139.353 81.4082 140.437V141.206H75.8784C75.9028 142.148 76.1396 142.864 76.5889 143.352C77.043 143.84 77.6802 144.084 78.5005 144.084C79.3647 144.084 80.2192 143.904 81.064 143.542V144.626C80.6343 144.812 80.2266 144.944 79.8408 145.022C79.46 145.105 78.9985 145.146 78.4565 145.146ZM78.127 137.844C77.4824 137.844 76.9673 138.054 76.5815 138.474C76.2007 138.894 75.9761 139.475 75.9077 140.217H80.1045C80.1045 139.451 79.9336 138.865 79.5918 138.459C79.25 138.049 78.7617 137.844 78.127 137.844ZM89.1665 142.81C89.1665 143.557 88.8882 144.133 88.3315 144.539C87.7749 144.944 86.9937 145.146 85.9878 145.146C84.9233 145.146 84.0933 144.978 83.4976 144.641V143.513C83.8833 143.708 84.2959 143.862 84.7354 143.975C85.1797 144.087 85.6069 144.143 86.0171 144.143C86.6519 144.143 87.1401 144.043 87.4819 143.843C87.8237 143.638 87.9946 143.328 87.9946 142.913C87.9946 142.6 87.8579 142.334 87.5845 142.114C87.3159 141.89 86.7886 141.626 86.0024 141.323C85.2554 141.045 84.7231 140.803 84.4058 140.598C84.0933 140.388 83.8589 140.151 83.7026 139.888C83.5513 139.624 83.4756 139.309 83.4756 138.943C83.4756 138.289 83.7417 137.773 84.2739 137.397C84.8062 137.017 85.5361 136.826 86.4639 136.826C87.3281 136.826 88.1729 137.002 88.998 137.354L88.5659 138.342C87.7603 138.01 87.0303 137.844 86.376 137.844C85.7998 137.844 85.3652 137.935 85.0723 138.115C84.7793 138.296 84.6328 138.545 84.6328 138.862C84.6328 139.077 84.6865 139.26 84.7939 139.412C84.9062 139.563 85.0845 139.707 85.3286 139.844C85.5728 139.98 86.0415 140.178 86.7349 140.437C87.687 140.784 88.3291 141.133 88.6611 141.484C88.998 141.836 89.1665 142.278 89.1665 142.81ZM94.2441 144.143C94.459 144.143 94.6665 144.128 94.8667 144.099C95.0669 144.065 95.2256 144.031 95.3428 143.997V144.927C95.2109 144.99 95.0156 145.042 94.7568 145.081C94.5029 145.125 94.2734 145.146 94.0684 145.146C92.5156 145.146 91.7393 144.329 91.7393 142.693V137.917H90.5894V137.332L91.7393 136.826L92.252 135.112H92.9551V136.973H95.2842V137.917H92.9551V142.642C92.9551 143.125 93.0698 143.496 93.2993 143.755C93.5288 144.014 93.8438 144.143 94.2441 144.143ZM98.6699 145H97.4541V136.973H98.6699V145ZM97.3516 134.797C97.3516 134.519 97.4199 134.316 97.5566 134.189C97.6934 134.058 97.8643 133.992 98.0693 133.992C98.2646 133.992 98.4331 134.058 98.5747 134.189C98.7163 134.321 98.7871 134.524 98.7871 134.797C98.7871 135.071 98.7163 135.276 98.5747 135.413C98.4331 135.544 98.2646 135.61 98.0693 135.61C97.8643 135.61 97.6934 135.544 97.5566 135.413C97.4199 135.276 97.3516 135.071 97.3516 134.797ZM105.483 136.841C106.538 136.841 107.356 137.202 107.937 137.925C108.523 138.643 108.816 139.661 108.816 140.979C108.816 142.297 108.521 143.323 107.93 144.055C107.344 144.783 106.528 145.146 105.483 145.146C104.961 145.146 104.482 145.051 104.048 144.861C103.618 144.666 103.257 144.368 102.964 143.967H102.876L102.62 145H101.748V133.604H102.964V136.372C102.964 136.992 102.944 137.549 102.905 138.042H102.964C103.53 137.241 104.37 136.841 105.483 136.841ZM105.308 137.859C104.478 137.859 103.879 138.098 103.513 138.577C103.147 139.05 102.964 139.851 102.964 140.979C102.964 142.107 103.152 142.915 103.528 143.403C103.904 143.887 104.507 144.128 105.337 144.128C106.084 144.128 106.641 143.857 107.007 143.315C107.373 142.769 107.556 141.985 107.556 140.964C107.556 139.919 107.373 139.141 107.007 138.628C106.641 138.115 106.074 137.859 105.308 137.859ZM112.59 136.973V142.18C112.59 142.834 112.739 143.323 113.037 143.645C113.334 143.967 113.801 144.128 114.436 144.128C115.275 144.128 115.888 143.899 116.274 143.44C116.665 142.981 116.86 142.231 116.86 141.191V136.973H118.076V145H117.072L116.896 143.923H116.831C116.582 144.319 116.235 144.622 115.791 144.832C115.351 145.042 114.848 145.146 114.282 145.146C113.305 145.146 112.573 144.915 112.084 144.451C111.601 143.987 111.359 143.245 111.359 142.224V136.973H112.59ZM122.377 145H121.161V133.604H122.377V145ZM126.598 136.973V142.18C126.598 142.834 126.747 143.323 127.044 143.645C127.342 143.967 127.809 144.128 128.443 144.128C129.283 144.128 129.896 143.899 130.282 143.44C130.672 142.981 130.868 142.231 130.868 141.191V136.973H132.083V145H131.08L130.904 143.923H130.838C130.589 144.319 130.243 144.622 129.798 144.832C129.359 145.042 128.856 145.146 128.29 145.146C127.313 145.146 126.581 144.915 126.092 144.451C125.609 143.987 125.367 143.245 125.367 142.224V136.973H126.598ZM145.401 145V139.778C145.401 139.138 145.264 138.66 144.991 138.342C144.717 138.02 144.292 137.859 143.716 137.859C142.959 137.859 142.4 138.076 142.039 138.511C141.678 138.945 141.497 139.614 141.497 140.518V145H140.281V139.778C140.281 139.138 140.145 138.66 139.871 138.342C139.598 138.02 139.17 137.859 138.589 137.859C137.828 137.859 137.269 138.088 136.912 138.547C136.561 139.001 136.385 139.749 136.385 140.789V145H135.169V136.973H136.158L136.355 138.071H136.414C136.644 137.681 136.966 137.375 137.381 137.156C137.801 136.936 138.27 136.826 138.787 136.826C140.042 136.826 140.862 137.28 141.248 138.188H141.307C141.546 137.769 141.893 137.437 142.347 137.192C142.801 136.948 143.318 136.826 143.899 136.826C144.808 136.826 145.486 137.061 145.936 137.529C146.39 137.993 146.617 138.738 146.617 139.763V145H145.401ZM155.168 136.973V142.18C155.168 142.834 155.317 143.323 155.615 143.645C155.913 143.967 156.379 144.128 157.014 144.128C157.854 144.128 158.466 143.899 158.852 143.44C159.243 142.981 159.438 142.231 159.438 141.191V136.973H160.654V145H159.65L159.475 143.923H159.409C159.16 144.319 158.813 144.622 158.369 144.832C157.929 145.042 157.426 145.146 156.86 145.146C155.883 145.146 155.151 144.915 154.663 144.451C154.179 143.987 153.938 143.245 153.938 142.224V136.973H155.168ZM167.401 136.826C167.758 136.826 168.078 136.855 168.361 136.914L168.192 138.042C167.86 137.969 167.567 137.932 167.313 137.932C166.664 137.932 166.107 138.196 165.644 138.723C165.185 139.25 164.955 139.907 164.955 140.693V145H163.739V136.973H164.743L164.882 138.459H164.94C165.238 137.937 165.597 137.534 166.017 137.251C166.437 136.968 166.898 136.826 167.401 136.826ZM175.855 145V139.807C175.855 139.153 175.707 138.665 175.409 138.342C175.111 138.02 174.645 137.859 174.01 137.859C173.17 137.859 172.555 138.086 172.164 138.54C171.773 138.994 171.578 139.744 171.578 140.789V145H170.362V136.973H171.351L171.549 138.071H171.607C171.856 137.676 172.206 137.371 172.655 137.156C173.104 136.936 173.604 136.826 174.156 136.826C175.123 136.826 175.851 137.061 176.339 137.529C176.827 137.993 177.071 138.738 177.071 139.763V145H175.855ZM185.013 145L184.771 143.857H184.712C184.312 144.36 183.912 144.702 183.511 144.883C183.116 145.059 182.62 145.146 182.024 145.146C181.229 145.146 180.604 144.941 180.149 144.531C179.7 144.121 179.476 143.538 179.476 142.781C179.476 141.16 180.772 140.31 183.365 140.232L184.727 140.188V139.69C184.727 139.06 184.59 138.596 184.317 138.298C184.048 137.996 183.616 137.844 183.021 137.844C182.352 137.844 181.595 138.049 180.75 138.459L180.376 137.529C180.772 137.314 181.204 137.146 181.673 137.024C182.146 136.902 182.62 136.841 183.094 136.841C184.051 136.841 184.759 137.053 185.218 137.478C185.682 137.903 185.914 138.584 185.914 139.521V145H185.013ZM182.266 144.143C183.023 144.143 183.616 143.936 184.046 143.521C184.48 143.105 184.698 142.524 184.698 141.777V141.052L183.482 141.104C182.515 141.138 181.817 141.289 181.387 141.558C180.962 141.821 180.75 142.234 180.75 142.795C180.75 143.235 180.882 143.569 181.146 143.799C181.414 144.028 181.788 144.143 182.266 144.143ZM195.08 145L192.033 136.973H193.337L195.065 141.733C195.456 142.847 195.686 143.569 195.754 143.901H195.812C195.866 143.643 196.035 143.108 196.318 142.297C196.606 141.482 197.248 139.707 198.244 136.973H199.548L196.501 145H195.08ZM204.728 145.146C203.542 145.146 202.604 144.785 201.916 144.062C201.232 143.34 200.89 142.336 200.89 141.052C200.89 139.758 201.208 138.73 201.842 137.969C202.482 137.207 203.339 136.826 204.413 136.826C205.419 136.826 206.215 137.158 206.801 137.822C207.387 138.481 207.68 139.353 207.68 140.437V141.206H202.15C202.174 142.148 202.411 142.864 202.86 143.352C203.314 143.84 203.952 144.084 204.772 144.084C205.636 144.084 206.491 143.904 207.335 143.542V144.626C206.906 144.812 206.498 144.944 206.112 145.022C205.731 145.105 205.27 145.146 204.728 145.146ZM204.398 137.844C203.754 137.844 203.239 138.054 202.853 138.474C202.472 138.894 202.248 139.475 202.179 140.217H206.376C206.376 139.451 206.205 138.865 205.863 138.459C205.521 138.049 205.033 137.844 204.398 137.844ZM211.476 145H210.26V133.604H211.476V145ZM215.77 145H214.554V136.973H215.77V145ZM214.451 134.797C214.451 134.519 214.52 134.316 214.656 134.189C214.793 134.058 214.964 133.992 215.169 133.992C215.364 133.992 215.533 134.058 215.674 134.189C215.816 134.321 215.887 134.524 215.887 134.797C215.887 135.071 215.816 135.276 215.674 135.413C215.533 135.544 215.364 135.61 215.169 135.61C214.964 135.61 214.793 135.544 214.656 135.413C214.52 135.276 214.451 135.071 214.451 134.797ZM221.44 144.143C221.655 144.143 221.863 144.128 222.063 144.099C222.263 144.065 222.422 144.031 222.539 143.997V144.927C222.407 144.99 222.212 145.042 221.953 145.081C221.699 145.125 221.47 145.146 221.265 145.146C219.712 145.146 218.936 144.329 218.936 142.693V137.917H217.786V137.332L218.936 136.826L219.448 135.112H220.151V136.973H222.48V137.917H220.151V142.642C220.151 143.125 220.266 143.496 220.496 143.755C220.725 144.014 221.04 144.143 221.44 144.143ZM232.782 145.146C232.26 145.146 231.781 145.051 231.347 144.861C230.917 144.666 230.556 144.368 230.263 143.967H230.175C230.233 144.436 230.263 144.88 230.263 145.3V148.604H229.047V136.973H230.036L230.204 138.071H230.263C230.575 137.632 230.939 137.314 231.354 137.119C231.769 136.924 232.245 136.826 232.782 136.826C233.847 136.826 234.667 137.19 235.243 137.917C235.824 138.645 236.115 139.666 236.115 140.979C236.115 142.297 235.819 143.323 235.229 144.055C234.643 144.783 233.827 145.146 232.782 145.146ZM232.606 137.859C231.786 137.859 231.193 138.086 230.827 138.54C230.46 138.994 230.272 139.717 230.263 140.708V140.979C230.263 142.107 230.451 142.915 230.827 143.403C231.203 143.887 231.806 144.128 232.636 144.128C233.329 144.128 233.871 143.848 234.262 143.286C234.657 142.725 234.855 141.951 234.855 140.964C234.855 139.963 234.657 139.197 234.262 138.665C233.871 138.127 233.319 137.859 232.606 137.859ZM243.683 145L243.441 143.857H243.382C242.982 144.36 242.582 144.702 242.181 144.883C241.786 145.059 241.29 145.146 240.694 145.146C239.898 145.146 239.273 144.941 238.819 144.531C238.37 144.121 238.146 143.538 238.146 142.781C238.146 141.16 239.442 140.31 242.035 140.232L243.397 140.188V139.69C243.397 139.06 243.26 138.596 242.987 138.298C242.718 137.996 242.286 137.844 241.69 137.844C241.021 137.844 240.265 138.049 239.42 138.459L239.046 137.529C239.442 137.314 239.874 137.146 240.343 137.024C240.816 136.902 241.29 136.841 241.764 136.841C242.721 136.841 243.429 137.053 243.888 137.478C244.352 137.903 244.583 138.584 244.583 139.521V145H243.683ZM240.936 144.143C241.693 144.143 242.286 143.936 242.716 143.521C243.15 143.105 243.368 142.524 243.368 141.777V141.052L242.152 141.104C241.185 141.138 240.487 141.289 240.057 141.558C239.632 141.821 239.42 142.234 239.42 142.795C239.42 143.235 239.552 143.569 239.815 143.799C240.084 144.028 240.458 144.143 240.936 144.143ZM251.258 136.826C251.614 136.826 251.934 136.855 252.217 136.914L252.049 138.042C251.717 137.969 251.424 137.932 251.17 137.932C250.521 137.932 249.964 138.196 249.5 138.723C249.041 139.25 248.812 139.907 248.812 140.693V145H247.596V136.973H248.599L248.738 138.459H248.797C249.095 137.937 249.454 137.534 249.874 137.251C250.293 136.968 250.755 136.826 251.258 136.826ZM256.812 144.143C257.026 144.143 257.234 144.128 257.434 144.099C257.634 144.065 257.793 144.031 257.91 143.997V144.927C257.778 144.99 257.583 145.042 257.324 145.081C257.07 145.125 256.841 145.146 256.636 145.146C255.083 145.146 254.307 144.329 254.307 142.693V137.917H253.157V137.332L254.307 136.826L254.819 135.112H255.522V136.973H257.852V137.917H255.522V142.642C255.522 143.125 255.637 143.496 255.867 143.755C256.096 144.014 256.411 144.143 256.812 144.143ZM261.164 136.973V142.18C261.164 142.834 261.313 143.323 261.611 143.645C261.909 143.967 262.375 144.128 263.01 144.128C263.85 144.128 264.462 143.899 264.848 143.44C265.239 142.981 265.434 142.231 265.434 141.191V136.973H266.65V145H265.646L265.471 143.923H265.405C265.156 144.319 264.809 144.622 264.365 144.832C263.925 145.042 263.422 145.146 262.856 145.146C261.879 145.146 261.147 144.915 260.659 144.451C260.175 143.987 259.934 143.245 259.934 142.224V136.973H261.164ZM273.397 136.826C273.754 136.826 274.074 136.855 274.357 136.914L274.188 138.042C273.856 137.969 273.563 137.932 273.31 137.932C272.66 137.932 272.104 138.196 271.64 138.723C271.181 139.25 270.951 139.907 270.951 140.693V145H269.735V136.973H270.739L270.878 138.459H270.937C271.234 137.937 271.593 137.534 272.013 137.251C272.433 136.968 272.895 136.826 273.397 136.826ZM277.574 145H276.358V136.973H277.574V145ZM276.256 134.797C276.256 134.519 276.324 134.316 276.461 134.189C276.598 134.058 276.769 133.992 276.974 133.992C277.169 133.992 277.337 134.058 277.479 134.189C277.621 134.321 277.691 134.524 277.691 134.797C277.691 135.071 277.621 135.276 277.479 135.413C277.337 135.544 277.169 135.61 276.974 135.61C276.769 135.61 276.598 135.544 276.461 135.413C276.324 135.276 276.256 135.071 276.256 134.797ZM284.043 145.146C282.857 145.146 281.919 144.785 281.231 144.062C280.547 143.34 280.206 142.336 280.206 141.052C280.206 139.758 280.523 138.73 281.158 137.969C281.797 137.207 282.654 136.826 283.729 136.826C284.734 136.826 285.53 137.158 286.116 137.822C286.702 138.481 286.995 139.353 286.995 140.437V141.206H281.465C281.49 142.148 281.727 142.864 282.176 143.352C282.63 143.84 283.267 144.084 284.087 144.084C284.952 144.084 285.806 143.904 286.651 143.542V144.626C286.221 144.812 285.813 144.944 285.428 145.022C285.047 145.105 284.585 145.146 284.043 145.146ZM283.714 137.844C283.069 137.844 282.554 138.054 282.168 138.474C281.788 138.894 281.563 139.475 281.495 140.217H285.691C285.691 139.451 285.521 138.865 285.179 138.459C284.837 138.049 284.349 137.844 283.714 137.844ZM295.068 145V139.807C295.068 139.153 294.919 138.665 294.622 138.342C294.324 138.02 293.857 137.859 293.223 137.859C292.383 137.859 291.768 138.086 291.377 138.54C290.986 138.994 290.791 139.744 290.791 140.789V145H289.575V136.973H290.564L290.762 138.071H290.82C291.069 137.676 291.418 137.371 291.868 137.156C292.317 136.936 292.817 136.826 293.369 136.826C294.336 136.826 295.063 137.061 295.552 137.529C296.04 137.993 296.284 138.738 296.284 139.763V145H295.068ZM301.882 144.143C302.097 144.143 302.304 144.128 302.504 144.099C302.705 144.065 302.863 144.031 302.98 143.997V144.927C302.849 144.99 302.653 145.042 302.395 145.081C302.141 145.125 301.911 145.146 301.706 145.146C300.153 145.146 299.377 144.329 299.377 142.693V137.917H298.227V137.332L299.377 136.826L299.89 135.112H300.593V136.973H302.922V137.917H300.593V142.642C300.593 143.125 300.708 143.496 300.937 143.755C301.167 144.014 301.481 144.143 301.882 144.143ZM6.46729 168.81C6.46729 169.557 6.18896 170.133 5.63232 170.539C5.07568 170.944 4.29443 171.146 3.28857 171.146C2.22412 171.146 1.39404 170.978 0.79834 170.641V169.513C1.18408 169.708 1.59668 169.862 2.03613 169.975C2.48047 170.087 2.90771 170.143 3.31787 170.143C3.95264 170.143 4.44092 170.043 4.78271 169.843C5.12451 169.638 5.29541 169.328 5.29541 168.913C5.29541 168.6 5.15869 168.334 4.88525 168.114C4.6167 167.89 4.08936 167.626 3.30322 167.323C2.55615 167.045 2.02393 166.803 1.70654 166.598C1.39404 166.388 1.15967 166.151 1.00342 165.888C0.852051 165.624 0.776367 165.309 0.776367 164.943C0.776367 164.289 1.04248 163.773 1.57471 163.397C2.10693 163.017 2.83691 162.826 3.76465 162.826C4.62891 162.826 5.47363 163.002 6.29883 163.354L5.8667 164.342C5.06104 164.01 4.33105 163.844 3.67676 163.844C3.10059 163.844 2.66602 163.935 2.37305 164.115C2.08008 164.296 1.93359 164.545 1.93359 164.862C1.93359 165.077 1.9873 165.26 2.09473 165.412C2.20703 165.563 2.38525 165.707 2.62939 165.844C2.87354 165.98 3.34229 166.178 4.03564 166.437C4.98779 166.784 5.62988 167.133 5.96191 167.484C6.29883 167.836 6.46729 168.278 6.46729 168.81ZM10.0947 162.973V168.18C10.0947 168.834 10.2437 169.323 10.5415 169.645C10.8394 169.967 11.3057 170.128 11.9404 170.128C12.7803 170.128 13.3931 169.899 13.7788 169.44C14.1694 168.981 14.3647 168.231 14.3647 167.191V162.973H15.5806V171H14.5771L14.4014 169.923H14.3354C14.0864 170.319 13.7397 170.622 13.2954 170.832C12.856 171.042 12.353 171.146 11.7866 171.146C10.8101 171.146 10.0776 170.915 9.58936 170.451C9.10596 169.987 8.86426 169.245 8.86426 168.224V162.973H10.0947ZM23.8442 168.81C23.8442 169.557 23.5659 170.133 23.0093 170.539C22.4526 170.944 21.6714 171.146 20.6655 171.146C19.6011 171.146 18.771 170.978 18.1753 170.641V169.513C18.561 169.708 18.9736 169.862 19.4131 169.975C19.8574 170.087 20.2847 170.143 20.6948 170.143C21.3296 170.143 21.8179 170.043 22.1597 169.843C22.5015 169.638 22.6724 169.328 22.6724 168.913C22.6724 168.6 22.5356 168.334 22.2622 168.114C21.9937 167.89 21.4663 167.626 20.6802 167.323C19.9331 167.045 19.4009 166.803 19.0835 166.598C18.771 166.388 18.5366 166.151 18.3804 165.888C18.229 165.624 18.1533 165.309 18.1533 164.943C18.1533 164.289 18.4194 163.773 18.9517 163.397C19.4839 163.017 20.2139 162.826 21.1416 162.826C22.0059 162.826 22.8506 163.002 23.6758 163.354L23.2437 164.342C22.438 164.01 21.708 163.844 21.0537 163.844C20.4775 163.844 20.043 163.935 19.75 164.115C19.457 164.296 19.3105 164.545 19.3105 164.862C19.3105 165.077 19.3643 165.26 19.4717 165.412C19.584 165.563 19.7622 165.707 20.0063 165.844C20.2505 165.98 20.7192 166.178 21.4126 166.437C22.3647 166.784 23.0068 167.133 23.3389 167.484C23.6758 167.836 23.8442 168.278 23.8442 168.81ZM30.0645 171.146C29.542 171.146 29.0635 171.051 28.6289 170.861C28.1992 170.666 27.8379 170.368 27.5449 169.967H27.457C27.5156 170.436 27.5449 170.88 27.5449 171.3V174.604H26.3291V162.973H27.3179L27.4863 164.071H27.5449C27.8574 163.632 28.2212 163.314 28.6362 163.119C29.0513 162.924 29.5273 162.826 30.0645 162.826C31.1289 162.826 31.9492 163.19 32.5254 163.917C33.1064 164.645 33.397 165.666 33.397 166.979C33.397 168.297 33.1016 169.323 32.5107 170.055C31.9248 170.783 31.1094 171.146 30.0645 171.146ZM29.8887 163.859C29.0684 163.859 28.4751 164.086 28.1089 164.54C27.7427 164.994 27.5547 165.717 27.5449 166.708V166.979C27.5449 168.107 27.7329 168.915 28.1089 169.403C28.4849 169.887 29.0879 170.128 29.918 170.128C30.6113 170.128 31.1533 169.848 31.5439 169.286C31.9395 168.725 32.1372 167.951 32.1372 166.964C32.1372 165.963 31.9395 165.197 31.5439 164.665C31.1533 164.127 30.6016 163.859 29.8887 163.859ZM39.4194 171.146C38.2329 171.146 37.2954 170.785 36.6069 170.062C35.9233 169.34 35.5815 168.336 35.5815 167.052C35.5815 165.758 35.8989 164.73 36.5337 163.969C37.1733 163.207 38.0303 162.826 39.1045 162.826C40.1104 162.826 40.9062 163.158 41.4922 163.822C42.0781 164.481 42.3711 165.353 42.3711 166.437V167.206H36.8413C36.8657 168.148 37.1025 168.864 37.5518 169.352C38.0059 169.84 38.6431 170.084 39.4634 170.084C40.3276 170.084 41.1821 169.904 42.0269 169.542V170.626C41.5972 170.812 41.1895 170.944 40.8037 171.022C40.4229 171.105 39.9614 171.146 39.4194 171.146ZM39.0898 163.844C38.4453 163.844 37.9302 164.054 37.5444 164.474C37.1636 164.894 36.939 165.475 36.8706 166.217H41.0674C41.0674 165.451 40.8965 164.865 40.5547 164.459C40.2129 164.049 39.7246 163.844 39.0898 163.844ZM50.4443 171V165.807C50.4443 165.153 50.2954 164.665 49.9976 164.342C49.6997 164.02 49.2334 163.859 48.5986 163.859C47.7588 163.859 47.1436 164.086 46.7529 164.54C46.3623 164.994 46.167 165.744 46.167 166.789V171H44.9512V162.973H45.9399L46.1377 164.071H46.1963C46.4453 163.676 46.7944 163.371 47.2437 163.156C47.6929 162.936 48.1934 162.826 48.7451 162.826C49.7119 162.826 50.4395 163.061 50.9277 163.529C51.416 163.993 51.6602 164.738 51.6602 165.763V171H50.4443ZM60.1289 169.923H60.063C59.5015 170.739 58.6616 171.146 57.5435 171.146C56.4937 171.146 55.6758 170.788 55.0898 170.07C54.5088 169.352 54.2183 168.332 54.2183 167.008C54.2183 165.685 54.5112 164.657 55.0972 163.925C55.6831 163.192 56.4985 162.826 57.5435 162.826C58.6323 162.826 59.4673 163.222 60.0483 164.013H60.1436L60.0923 163.434L60.063 162.87V159.604H61.2788V171H60.29L60.1289 169.923ZM57.6973 170.128C58.5273 170.128 59.1279 169.904 59.499 169.455C59.875 169 60.063 168.271 60.063 167.265V167.008C60.063 165.871 59.8726 165.06 59.4917 164.577C59.1157 164.088 58.5127 163.844 57.6826 163.844C56.9697 163.844 56.4229 164.123 56.042 164.679C55.666 165.231 55.478 166.012 55.478 167.023C55.478 168.048 55.666 168.822 56.042 169.345C56.418 169.867 56.9697 170.128 57.6973 170.128ZM65.5801 171H64.3643V162.973H65.5801V171ZM64.2617 160.797C64.2617 160.519 64.3301 160.316 64.4668 160.189C64.6035 160.058 64.7744 159.992 64.9795 159.992C65.1748 159.992 65.3433 160.058 65.4849 160.189C65.6265 160.321 65.6973 160.524 65.6973 160.797C65.6973 161.071 65.6265 161.276 65.4849 161.413C65.3433 161.544 65.1748 161.61 64.9795 161.61C64.7744 161.61 64.6035 161.544 64.4668 161.413C64.3301 161.276 64.2617 161.071 64.2617 160.797ZM73.8364 168.81C73.8364 169.557 73.5581 170.133 73.0015 170.539C72.4448 170.944 71.6636 171.146 70.6577 171.146C69.5933 171.146 68.7632 170.978 68.1675 170.641V169.513C68.5532 169.708 68.9658 169.862 69.4053 169.975C69.8496 170.087 70.2769 170.143 70.687 170.143C71.3218 170.143 71.8101 170.043 72.1519 169.843C72.4937 169.638 72.6646 169.328 72.6646 168.913C72.6646 168.6 72.5278 168.334 72.2544 168.114C71.9858 167.89 71.4585 167.626 70.6724 167.323C69.9253 167.045 69.3931 166.803 69.0757 166.598C68.7632 166.388 68.5288 166.151 68.3726 165.888C68.2212 165.624 68.1455 165.309 68.1455 164.943C68.1455 164.289 68.4116 163.773 68.9438 163.397C69.4761 163.017 70.2061 162.826 71.1338 162.826C71.998 162.826 72.8428 163.002 73.668 163.354L73.2358 164.342C72.4302 164.01 71.7002 163.844 71.0459 163.844C70.4697 163.844 70.0352 163.935 69.7422 164.115C69.4492 164.296 69.3027 164.545 69.3027 164.862C69.3027 165.077 69.3564 165.26 69.4639 165.412C69.5762 165.563 69.7544 165.707 69.9985 165.844C70.2427 165.98 70.7114 166.178 71.4048 166.437C72.3569 166.784 72.999 167.133 73.3311 167.484C73.668 167.836 73.8364 168.278 73.8364 168.81ZM81.4995 168.81C81.4995 169.557 81.2212 170.133 80.6646 170.539C80.1079 170.944 79.3267 171.146 78.3208 171.146C77.2563 171.146 76.4263 170.978 75.8306 170.641V169.513C76.2163 169.708 76.6289 169.862 77.0684 169.975C77.5127 170.087 77.9399 170.143 78.3501 170.143C78.9849 170.143 79.4731 170.043 79.8149 169.843C80.1567 169.638 80.3276 169.328 80.3276 168.913C80.3276 168.6 80.1909 168.334 79.9175 168.114C79.6489 167.89 79.1216 167.626 78.3354 167.323C77.5884 167.045 77.0562 166.803 76.7388 166.598C76.4263 166.388 76.1919 166.151 76.0356 165.888C75.8843 165.624 75.8086 165.309 75.8086 164.943C75.8086 164.289 76.0747 163.773 76.6069 163.397C77.1392 163.017 77.8691 162.826 78.7969 162.826C79.6611 162.826 80.5059 163.002 81.3311 163.354L80.8989 164.342C80.0933 164.01 79.3633 163.844 78.709 163.844C78.1328 163.844 77.6982 163.935 77.4053 164.115C77.1123 164.296 76.9658 164.545 76.9658 164.862C76.9658 165.077 77.0195 165.26 77.127 165.412C77.2393 165.563 77.4175 165.707 77.6616 165.844C77.9058 165.98 78.3745 166.178 79.0679 166.437C80.02 166.784 80.6621 167.133 80.9941 167.484C81.3311 167.836 81.4995 168.278 81.4995 168.81ZM87.3755 171.146C86.189 171.146 85.2515 170.785 84.563 170.062C83.8794 169.34 83.5376 168.336 83.5376 167.052C83.5376 165.758 83.855 164.73 84.4897 163.969C85.1294 163.207 85.9863 162.826 87.0605 162.826C88.0664 162.826 88.8623 163.158 89.4482 163.822C90.0342 164.481 90.3271 165.353 90.3271 166.437V167.206H84.7974C84.8218 168.148 85.0586 168.864 85.5078 169.352C85.9619 169.84 86.5991 170.084 87.4194 170.084C88.2837 170.084 89.1382 169.904 89.9829 169.542V170.626C89.5532 170.812 89.1455 170.944 88.7598 171.022C88.3789 171.105 87.9175 171.146 87.3755 171.146ZM87.0459 163.844C86.4014 163.844 85.8862 164.054 85.5005 164.474C85.1196 164.894 84.895 165.475 84.8267 166.217H89.0234C89.0234 165.451 88.8525 164.865 88.5107 164.459C88.1689 164.049 87.6807 163.844 87.0459 163.844ZM102.24 171L101.999 169.857H101.94C101.54 170.36 101.139 170.702 100.739 170.883C100.343 171.059 99.8477 171.146 99.252 171.146C98.4561 171.146 97.8311 170.941 97.377 170.531C96.9277 170.121 96.7031 169.538 96.7031 168.781C96.7031 167.16 97.9995 166.31 100.592 166.232L101.955 166.188V165.69C101.955 165.06 101.818 164.596 101.544 164.298C101.276 163.996 100.844 163.844 100.248 163.844C99.5791 163.844 98.8223 164.049 97.9775 164.459L97.604 163.529C97.9995 163.314 98.4316 163.146 98.9004 163.024C99.374 162.902 99.8477 162.841 100.321 162.841C101.278 162.841 101.986 163.053 102.445 163.478C102.909 163.903 103.141 164.584 103.141 165.521V171H102.24ZM99.4937 170.143C100.25 170.143 100.844 169.936 101.273 169.521C101.708 169.105 101.925 168.524 101.925 167.777V167.052L100.709 167.104C99.7427 167.138 99.0444 167.289 98.6147 167.558C98.1899 167.821 97.9775 168.234 97.9775 168.795C97.9775 169.235 98.1094 169.569 98.373 169.799C98.6416 170.028 99.0151 170.143 99.4937 170.143ZM115.486 171L115.245 169.857H115.186C114.786 170.36 114.385 170.702 113.985 170.883C113.589 171.059 113.094 171.146 112.498 171.146C111.702 171.146 111.077 170.941 110.623 170.531C110.174 170.121 109.949 169.538 109.949 168.781C109.949 167.16 111.246 166.31 113.838 166.232L115.201 166.188V165.69C115.201 165.06 115.064 164.596 114.791 164.298C114.522 163.996 114.09 163.844 113.494 163.844C112.825 163.844 112.068 164.049 111.224 164.459L110.85 163.529C111.246 163.314 111.678 163.146 112.146 163.024C112.62 162.902 113.094 162.841 113.567 162.841C114.524 162.841 115.232 163.053 115.691 163.478C116.155 163.903 116.387 164.584 116.387 165.521V171H115.486ZM112.74 170.143C113.497 170.143 114.09 169.936 114.52 169.521C114.954 169.105 115.171 168.524 115.171 167.777V167.052L113.956 167.104C112.989 167.138 112.291 167.289 111.861 167.558C111.436 167.821 111.224 168.234 111.224 168.795C111.224 169.235 111.355 169.569 111.619 169.799C111.888 170.028 112.261 170.143 112.74 170.143ZM124.863 169.923H124.797C124.236 170.739 123.396 171.146 122.278 171.146C121.228 171.146 120.41 170.788 119.824 170.07C119.243 169.352 118.953 168.332 118.953 167.008C118.953 165.685 119.246 164.657 119.832 163.925C120.417 163.192 121.233 162.826 122.278 162.826C123.367 162.826 124.202 163.222 124.783 164.013H124.878L124.827 163.434L124.797 162.87V159.604H126.013V171H125.024L124.863 169.923ZM122.432 170.128C123.262 170.128 123.862 169.904 124.233 169.455C124.609 169 124.797 168.271 124.797 167.265V167.008C124.797 165.871 124.607 165.06 124.226 164.577C123.85 164.088 123.247 163.844 122.417 163.844C121.704 163.844 121.157 164.123 120.776 164.679C120.4 165.231 120.212 166.012 120.212 167.023C120.212 168.048 120.4 168.822 120.776 169.345C121.152 169.867 121.704 170.128 122.432 170.128ZM134.711 171H133.495V159.604H134.711V171ZM142.726 171L142.484 169.857H142.425C142.025 170.36 141.625 170.702 141.224 170.883C140.829 171.059 140.333 171.146 139.737 171.146C138.941 171.146 138.316 170.941 137.862 170.531C137.413 170.121 137.188 169.538 137.188 168.781C137.188 167.16 138.485 166.31 141.078 166.232L142.44 166.188V165.69C142.44 165.06 142.303 164.596 142.03 164.298C141.761 163.996 141.329 163.844 140.733 163.844C140.064 163.844 139.308 164.049 138.463 164.459L138.089 163.529C138.485 163.314 138.917 163.146 139.386 163.024C139.859 162.902 140.333 162.841 140.807 162.841C141.764 162.841 142.472 163.053 142.931 163.478C143.395 163.903 143.626 164.584 143.626 165.521V171H142.726ZM139.979 170.143C140.736 170.143 141.329 169.936 141.759 169.521C142.193 169.105 142.411 168.524 142.411 167.777V167.052L141.195 167.104C140.228 167.138 139.53 167.289 139.1 167.558C138.675 167.821 138.463 168.234 138.463 168.795C138.463 169.235 138.595 169.569 138.858 169.799C139.127 170.028 139.5 170.143 139.979 170.143ZM149.847 171.146C148.685 171.146 147.784 170.79 147.144 170.077C146.509 169.359 146.192 168.346 146.192 167.038C146.192 165.695 146.514 164.657 147.159 163.925C147.808 163.192 148.731 162.826 149.927 162.826C150.313 162.826 150.699 162.868 151.084 162.951C151.47 163.034 151.773 163.131 151.993 163.244L151.619 164.276C151.351 164.169 151.058 164.081 150.74 164.013C150.423 163.939 150.142 163.903 149.898 163.903C148.267 163.903 147.452 164.943 147.452 167.023C147.452 168.009 147.649 168.766 148.045 169.293C148.445 169.821 149.036 170.084 149.817 170.084C150.486 170.084 151.172 169.94 151.875 169.652V170.729C151.338 171.007 150.662 171.146 149.847 171.146ZM155.43 162.973V168.18C155.43 168.834 155.579 169.323 155.876 169.645C156.174 169.967 156.641 170.128 157.275 170.128C158.115 170.128 158.728 169.899 159.114 169.44C159.504 168.981 159.7 168.231 159.7 167.191V162.973H160.916V171H159.912L159.736 169.923H159.67C159.421 170.319 159.075 170.622 158.63 170.832C158.191 171.042 157.688 171.146 157.122 171.146C156.145 171.146 155.413 170.915 154.924 170.451C154.441 169.987 154.199 169.245 154.199 168.224V162.973H155.43ZM169.179 168.81C169.179 169.557 168.901 170.133 168.344 170.539C167.788 170.944 167.006 171.146 166 171.146C164.936 171.146 164.106 170.978 163.51 170.641V169.513C163.896 169.708 164.309 169.862 164.748 169.975C165.192 170.087 165.62 170.143 166.03 170.143C166.665 170.143 167.153 170.043 167.495 169.843C167.836 169.638 168.007 169.328 168.007 168.913C168.007 168.6 167.871 168.334 167.597 168.114C167.329 167.89 166.801 167.626 166.015 167.323C165.268 167.045 164.736 166.803 164.418 166.598C164.106 166.388 163.872 166.151 163.715 165.888C163.564 165.624 163.488 165.309 163.488 164.943C163.488 164.289 163.754 163.773 164.287 163.397C164.819 163.017 165.549 162.826 166.477 162.826C167.341 162.826 168.186 163.002 169.011 163.354L168.579 164.342C167.773 164.01 167.043 163.844 166.389 163.844C165.812 163.844 165.378 163.935 165.085 164.115C164.792 164.296 164.646 164.545 164.646 164.862C164.646 165.077 164.699 165.26 164.807 165.412C164.919 165.563 165.097 165.707 165.341 165.844C165.585 165.98 166.054 166.178 166.748 166.437C167.7 166.784 168.342 167.133 168.674 167.484C169.011 167.836 169.179 168.278 169.179 168.81ZM186.292 171V165.778C186.292 165.138 186.156 164.66 185.882 164.342C185.609 164.02 185.184 163.859 184.608 163.859C183.851 163.859 183.292 164.076 182.931 164.511C182.569 164.945 182.389 165.614 182.389 166.518V171H181.173V165.778C181.173 165.138 181.036 164.66 180.763 164.342C180.489 164.02 180.062 163.859 179.481 163.859C178.719 163.859 178.16 164.088 177.804 164.547C177.452 165.001 177.276 165.749 177.276 166.789V171H176.061V162.973H177.049L177.247 164.071H177.306C177.535 163.681 177.857 163.375 178.272 163.156C178.692 162.936 179.161 162.826 179.679 162.826C180.934 162.826 181.754 163.28 182.14 164.188H182.198C182.438 163.769 182.784 163.437 183.238 163.192C183.692 162.948 184.21 162.826 184.791 162.826C185.699 162.826 186.378 163.061 186.827 163.529C187.281 163.993 187.508 164.738 187.508 165.763V171H186.292ZM195.457 171L195.215 169.857H195.157C194.756 170.36 194.356 170.702 193.956 170.883C193.56 171.059 193.064 171.146 192.469 171.146C191.673 171.146 191.048 170.941 190.594 170.531C190.145 170.121 189.92 169.538 189.92 168.781C189.92 167.16 191.216 166.31 193.809 166.232L195.171 166.188V165.69C195.171 165.06 195.035 164.596 194.761 164.298C194.493 163.996 194.061 163.844 193.465 163.844C192.796 163.844 192.039 164.049 191.194 164.459L190.821 163.529C191.216 163.314 191.648 163.146 192.117 163.024C192.591 162.902 193.064 162.841 193.538 162.841C194.495 162.841 195.203 163.053 195.662 163.478C196.126 163.903 196.358 164.584 196.358 165.521V171H195.457ZM192.71 170.143C193.467 170.143 194.061 169.936 194.49 169.521C194.925 169.105 195.142 168.524 195.142 167.777V167.052L193.926 167.104C192.959 167.138 192.261 167.289 191.832 167.558C191.407 167.821 191.194 168.234 191.194 168.795C191.194 169.235 191.326 169.569 191.59 169.799C191.858 170.028 192.232 170.143 192.71 170.143ZM200.513 162.973V168.18C200.513 168.834 200.662 169.323 200.959 169.645C201.257 169.967 201.724 170.128 202.358 170.128C203.198 170.128 203.811 169.899 204.197 169.44C204.587 168.981 204.783 168.231 204.783 167.191V162.973H205.999V171H204.995L204.819 169.923H204.753C204.504 170.319 204.158 170.622 203.713 170.832C203.274 171.042 202.771 171.146 202.205 171.146C201.228 171.146 200.496 170.915 200.007 170.451C199.524 169.987 199.282 169.245 199.282 168.224V162.973H200.513ZM212.746 162.826C213.103 162.826 213.422 162.855 213.706 162.914L213.537 164.042C213.205 163.969 212.912 163.932 212.658 163.932C212.009 163.932 211.452 164.196 210.988 164.723C210.529 165.25 210.3 165.907 210.3 166.693V171H209.084V162.973H210.087L210.227 164.459H210.285C210.583 163.937 210.942 163.534 211.362 163.251C211.782 162.968 212.243 162.826 212.746 162.826ZM216.923 171H215.707V162.973H216.923V171ZM215.604 160.797C215.604 160.519 215.673 160.316 215.81 160.189C215.946 160.058 216.117 159.992 216.322 159.992C216.518 159.992 216.686 160.058 216.828 160.189C216.969 160.321 217.04 160.524 217.04 160.797C217.04 161.071 216.969 161.276 216.828 161.413C216.686 161.544 216.518 161.61 216.322 161.61C216.117 161.61 215.946 161.544 215.81 161.413C215.673 161.276 215.604 161.071 215.604 160.797ZM225.179 168.81C225.179 169.557 224.901 170.133 224.344 170.539C223.788 170.944 223.006 171.146 222 171.146C220.936 171.146 220.106 170.978 219.51 170.641V169.513C219.896 169.708 220.309 169.862 220.748 169.975C221.192 170.087 221.62 170.143 222.03 170.143C222.665 170.143 223.153 170.043 223.495 169.843C223.836 169.638 224.007 169.328 224.007 168.913C224.007 168.6 223.871 168.334 223.597 168.114C223.329 167.89 222.801 167.626 222.015 167.323C221.268 167.045 220.736 166.803 220.418 166.598C220.106 166.388 219.872 166.151 219.715 165.888C219.564 165.624 219.488 165.309 219.488 164.943C219.488 164.289 219.754 163.773 220.287 163.397C220.819 163.017 221.549 162.826 222.477 162.826C223.341 162.826 224.186 163.002 225.011 163.354L224.579 164.342C223.773 164.01 223.043 163.844 222.389 163.844C221.812 163.844 221.378 163.935 221.085 164.115C220.792 164.296 220.646 164.545 220.646 164.862C220.646 165.077 220.699 165.26 220.807 165.412C220.919 165.563 221.097 165.707 221.341 165.844C221.585 165.98 222.054 166.178 222.748 166.437C223.7 166.784 224.342 167.133 224.674 167.484C225.011 167.836 225.179 168.278 225.179 168.81Z" fill="#5D5F65"/>
<path d="M8.36 79.12C6.97333 79.12 5.72 78.8133 4.6 78.2C3.49333 77.5867 2.62 76.74 1.98 75.66C1.35333 74.5667 1.04 73.3467 1.04 72C1.04 70.6533 1.35333 69.44 1.98 68.36C2.62 67.2667 3.5 66.4133 4.62 65.8C5.74 65.1867 6.99333 64.88 8.38 64.88C9.42 64.88 10.38 65.0533 11.26 65.4C12.14 65.7467 12.8867 66.2533 13.5 66.92L12.56 67.86C11.4667 66.7533 10.0867 66.2 8.42 66.2C7.31333 66.2 6.30667 66.4533 5.4 66.96C4.49333 67.4667 3.78 68.16 3.26 69.04C2.75333 69.92 2.5 70.9067 2.5 72C2.5 73.0933 2.75333 74.08 3.26 74.96C3.78 75.84 4.49333 76.5333 5.4 77.04C6.30667 77.5467 7.31333 77.8 8.42 77.8C10.1 77.8 11.48 77.24 12.56 76.12L13.5 77.06C12.8867 77.7267 12.1333 78.24 11.24 78.6C10.36 78.9467 9.4 79.12 8.36 79.12ZM20.1863 79.1C19.1729 79.1 18.2596 78.8733 17.4463 78.42C16.6329 77.9533 15.9929 77.3133 15.5263 76.5C15.0596 75.6867 14.8263 74.7667 14.8263 73.74C14.8263 72.7133 15.0596 71.7933 15.5263 70.98C15.9929 70.1667 16.6329 69.5333 17.4463 69.08C18.2596 68.6267 19.1729 68.4 20.1863 68.4C21.1996 68.4 22.1129 68.6267 22.9263 69.08C23.7396 69.5333 24.3729 70.1667 24.8263 70.98C25.2929 71.7933 25.5263 72.7133 25.5263 73.74C25.5263 74.7667 25.2929 75.6867 24.8263 76.5C24.3729 77.3133 23.7396 77.9533 22.9263 78.42C22.1129 78.8733 21.1996 79.1 20.1863 79.1ZM20.1863 77.84C20.9329 77.84 21.5996 77.6733 22.1863 77.34C22.7863 76.9933 23.2529 76.5067 23.5863 75.88C23.9196 75.2533 24.0863 74.54 24.0863 73.74C24.0863 72.94 23.9196 72.2267 23.5863 71.6C23.2529 70.9733 22.7863 70.4933 22.1863 70.16C21.5996 69.8133 20.9329 69.64 20.1863 69.64C19.4396 69.64 18.7663 69.8133 18.1663 70.16C17.5796 70.4933 17.1129 70.9733 16.7663 71.6C16.4329 72.2267 16.2663 72.94 16.2663 73.74C16.2663 74.54 16.4329 75.2533 16.7663 75.88C17.1129 76.5067 17.5796 76.9933 18.1663 77.34C18.7663 77.6733 19.4396 77.84 20.1863 77.84ZM33.7853 68.4C35.1053 68.4 36.152 68.7867 36.9253 69.56C37.712 70.32 38.1053 71.4333 38.1053 72.9V79H36.6853V73.04C36.6853 71.9467 36.412 71.1133 35.8653 70.54C35.3186 69.9667 34.5386 69.68 33.5253 69.68C32.392 69.68 31.492 70.02 30.8253 70.7C30.172 71.3667 29.8453 72.2933 29.8453 73.48V79H28.4253V68.48H29.7853V70.42C30.172 69.78 30.7053 69.2867 31.3853 68.94C32.0786 68.58 32.8786 68.4 33.7853 68.4ZM44.7805 79.1C43.9271 79.1 43.1071 78.98 42.3205 78.74C41.5471 78.4867 40.9405 78.1733 40.5005 77.8L41.1405 76.68C41.5805 77.0267 42.1338 77.3133 42.8005 77.54C43.4671 77.7533 44.1605 77.86 44.8805 77.86C45.8405 77.86 46.5471 77.7133 47.0005 77.42C47.4671 77.1133 47.7005 76.6867 47.7005 76.14C47.7005 75.7533 47.5738 75.4533 47.3205 75.24C47.0671 75.0133 46.7471 74.8467 46.3605 74.74C45.9738 74.62 45.4605 74.5067 44.8205 74.4C43.9671 74.24 43.2805 74.08 42.7605 73.92C42.2405 73.7467 41.7938 73.46 41.4205 73.06C41.0605 72.66 40.8805 72.1067 40.8805 71.4C40.8805 70.52 41.2471 69.8 41.9805 69.24C42.7138 68.68 43.7338 68.4 45.0405 68.4C45.7205 68.4 46.4005 68.4933 47.0805 68.68C47.7605 68.8533 48.3205 69.0867 48.7605 69.38L48.1405 70.52C47.2738 69.92 46.2405 69.62 45.0405 69.62C44.1338 69.62 43.4471 69.78 42.9805 70.1C42.5271 70.42 42.3005 70.84 42.3005 71.36C42.3005 71.76 42.4271 72.08 42.6805 72.32C42.9471 72.56 43.2738 72.74 43.6605 72.86C44.0471 72.9667 44.5805 73.08 45.2605 73.2C46.1005 73.36 46.7738 73.52 47.2805 73.68C47.7871 73.84 48.2205 74.1133 48.5805 74.5C48.9405 74.8867 49.1205 75.42 49.1205 76.1C49.1205 77.02 48.7338 77.7533 47.9605 78.3C47.2005 78.8333 46.1405 79.1 44.7805 79.1ZM60.9056 74.18H52.1056C52.1856 75.2733 52.6056 76.16 53.3656 76.84C54.1256 77.5067 55.0856 77.84 56.2456 77.84C56.899 77.84 57.499 77.7267 58.0456 77.5C58.5923 77.26 59.0656 76.9133 59.4656 76.46L60.2656 77.38C59.799 77.94 59.2123 78.3667 58.5056 78.66C57.8123 78.9533 57.0456 79.1 56.2056 79.1C55.1256 79.1 54.1656 78.8733 53.3256 78.42C52.499 77.9533 51.8523 77.3133 51.3856 76.5C50.919 75.6867 50.6856 74.7667 50.6856 73.74C50.6856 72.7133 50.9056 71.7933 51.3456 70.98C51.799 70.1667 52.4123 69.5333 53.1856 69.08C53.9723 68.6267 54.8523 68.4 55.8256 68.4C56.799 68.4 57.6723 68.6267 58.4456 69.08C59.219 69.5333 59.8256 70.1667 60.2656 70.98C60.7056 71.78 60.9256 72.7 60.9256 73.74L60.9056 74.18ZM55.8256 69.62C54.8123 69.62 53.959 69.9467 53.2656 70.6C52.5856 71.24 52.199 72.08 52.1056 73.12H59.5656C59.4723 72.08 59.079 71.24 58.3856 70.6C57.7056 69.9467 56.8523 69.62 55.8256 69.62ZM68.1759 79.1C67.1359 79.1 66.2026 78.8733 65.3759 78.42C64.5626 77.9667 63.9226 77.3333 63.4559 76.52C62.9893 75.6933 62.7559 74.7667 62.7559 73.74C62.7559 72.7133 62.9893 71.7933 63.4559 70.98C63.9226 70.1667 64.5626 69.5333 65.3759 69.08C66.2026 68.6267 67.1359 68.4 68.1759 68.4C69.0826 68.4 69.8893 68.58 70.5959 68.94C71.3159 69.2867 71.8826 69.8 72.2959 70.48L71.2359 71.2C70.8893 70.68 70.4493 70.2933 69.9159 70.04C69.3826 69.7733 68.8026 69.64 68.1759 69.64C67.4159 69.64 66.7293 69.8133 66.1159 70.16C65.5159 70.4933 65.0426 70.9733 64.6959 71.6C64.3626 72.2267 64.1959 72.94 64.1959 73.74C64.1959 74.5533 64.3626 75.2733 64.6959 75.9C65.0426 76.5133 65.5159 76.9933 66.1159 77.34C66.7293 77.6733 67.4159 77.84 68.1759 77.84C68.8026 77.84 69.3826 77.7133 69.9159 77.46C70.4493 77.2067 70.8893 76.82 71.2359 76.3L72.2959 77.02C71.8826 77.7 71.3159 78.22 70.5959 78.58C69.8759 78.9267 69.0693 79.1 68.1759 79.1ZM80.7427 78.36C80.476 78.6 80.1427 78.7867 79.7427 78.92C79.356 79.04 78.9493 79.1 78.5227 79.1C77.536 79.1 76.776 78.8333 76.2427 78.3C75.7093 77.7667 75.4427 77.0133 75.4427 76.04V69.68H73.5627V68.48H75.4427V66.18H76.8627V68.48H80.0627V69.68H76.8627V75.96C76.8627 76.5867 77.016 77.0667 77.3227 77.4C77.6427 77.72 78.096 77.88 78.6827 77.88C78.976 77.88 79.256 77.8333 79.5227 77.74C79.8027 77.6467 80.0427 77.5133 80.2427 77.34L80.7427 78.36ZM92.1166 74.18H83.3166C83.3966 75.2733 83.8166 76.16 84.5766 76.84C85.3366 77.5067 86.2966 77.84 87.4566 77.84C88.1099 77.84 88.7099 77.7267 89.2566 77.5C89.8032 77.26 90.2766 76.9133 90.6766 76.46L91.4766 77.38C91.0099 77.94 90.4232 78.3667 89.7166 78.66C89.0232 78.9533 88.2566 79.1 87.4166 79.1C86.3366 79.1 85.3766 78.8733 84.5366 78.42C83.7099 77.9533 83.0632 77.3133 82.5966 76.5C82.1299 75.6867 81.8966 74.7667 81.8966 73.74C81.8966 72.7133 82.1166 71.7933 82.5566 70.98C83.0099 70.1667 83.6232 69.5333 84.3966 69.08C85.1832 68.6267 86.0632 68.4 87.0366 68.4C88.0099 68.4 88.8832 68.6267 89.6566 69.08C90.4299 69.5333 91.0366 70.1667 91.4766 70.98C91.9166 71.78 92.1366 72.7 92.1366 73.74L92.1166 74.18ZM87.0366 69.62C86.0232 69.62 85.1699 69.9467 84.4766 70.6C83.7966 71.24 83.4099 72.08 83.3166 73.12H90.7766C90.6832 72.08 90.2899 71.24 89.5966 70.6C88.9166 69.9467 88.0632 69.62 87.0366 69.62ZM100.567 78.36C100.3 78.6 99.9669 78.7867 99.5669 78.92C99.1802 79.04 98.7735 79.1 98.3469 79.1C97.3602 79.1 96.6002 78.8333 96.0669 78.3C95.5335 77.7667 95.2669 77.0133 95.2669 76.04V69.68H93.3869V68.48H95.2669V66.18H96.6869V68.48H99.8869V69.68H96.6869V75.96C96.6869 76.5867 96.8402 77.0667 97.1469 77.4C97.4669 77.72 97.9202 77.88 98.5069 77.88C98.8002 77.88 99.0802 77.8333 99.3469 77.74C99.6269 77.6467 99.8669 77.5133 100.067 77.34L100.567 78.36ZM112.632 68.48V79H111.272V77.08C110.899 77.72 110.385 78.22 109.732 78.58C109.079 78.9267 108.332 79.1 107.492 79.1C106.119 79.1 105.032 78.72 104.232 77.96C103.445 77.1867 103.052 76.06 103.052 74.58V68.48H104.472V74.44C104.472 75.5467 104.745 76.3867 105.292 76.96C105.839 77.5333 106.619 77.82 107.632 77.82C108.739 77.82 109.612 77.4867 110.252 76.82C110.892 76.14 111.212 75.2 111.212 74V68.48H112.632ZM117.969 70.54C118.302 69.8333 118.796 69.3 119.449 68.94C120.116 68.58 120.936 68.4 121.909 68.4V69.78L121.569 69.76C120.462 69.76 119.596 70.1 118.969 70.78C118.342 71.46 118.029 72.4133 118.029 73.64V79H116.609V68.48H117.969V70.54ZM138.711 68.48L134.031 79H132.571L127.911 68.48H129.391L133.331 77.44L137.311 68.48H138.711ZM149.578 74.18H140.778C140.858 75.2733 141.278 76.16 142.038 76.84C142.798 77.5067 143.758 77.84 144.918 77.84C145.571 77.84 146.171 77.7267 146.718 77.5C147.264 77.26 147.738 76.9133 148.138 76.46L148.938 77.38C148.471 77.94 147.884 78.3667 147.178 78.66C146.484 78.9533 145.718 79.1 144.878 79.1C143.798 79.1 142.838 78.8733 141.998 78.42C141.171 77.9533 140.524 77.3133 140.058 76.5C139.591 75.6867 139.358 74.7667 139.358 73.74C139.358 72.7133 139.578 71.7933 140.018 70.98C140.471 70.1667 141.084 69.5333 141.858 69.08C142.644 68.6267 143.524 68.4 144.498 68.4C145.471 68.4 146.344 68.6267 147.118 69.08C147.891 69.5333 148.498 70.1667 148.938 70.98C149.378 71.78 149.598 72.7 149.598 73.74L149.578 74.18ZM144.498 69.62C143.484 69.62 142.631 69.9467 141.938 70.6C141.258 71.24 140.871 72.08 140.778 73.12H148.238C148.144 72.08 147.751 71.24 147.058 70.6C146.378 69.9467 145.524 69.62 144.498 69.62ZM155.308 79.1C154.454 79.1 153.634 78.98 152.848 78.74C152.074 78.4867 151.468 78.1733 151.028 77.8L151.668 76.68C152.108 77.0267 152.661 77.3133 153.328 77.54C153.994 77.7533 154.688 77.86 155.408 77.86C156.368 77.86 157.074 77.7133 157.528 77.42C157.994 77.1133 158.228 76.6867 158.228 76.14C158.228 75.7533 158.101 75.4533 157.848 75.24C157.594 75.0133 157.274 74.8467 156.888 74.74C156.501 74.62 155.988 74.5067 155.348 74.4C154.494 74.24 153.808 74.08 153.288 73.92C152.768 73.7467 152.321 73.46 151.948 73.06C151.588 72.66 151.408 72.1067 151.408 71.4C151.408 70.52 151.774 69.8 152.508 69.24C153.241 68.68 154.261 68.4 155.568 68.4C156.248 68.4 156.928 68.4933 157.608 68.68C158.288 68.8533 158.848 69.0867 159.288 69.38L158.668 70.52C157.801 69.92 156.768 69.62 155.568 69.62C154.661 69.62 153.974 69.78 153.508 70.1C153.054 70.42 152.828 70.84 152.828 71.36C152.828 71.76 152.954 72.08 153.208 72.32C153.474 72.56 153.801 72.74 154.188 72.86C154.574 72.9667 155.108 73.08 155.788 73.2C156.628 73.36 157.301 73.52 157.808 73.68C158.314 73.84 158.748 74.1133 159.108 74.5C159.468 74.8867 159.648 75.42 159.648 76.1C159.648 77.02 159.261 77.7533 158.488 78.3C157.728 78.8333 156.668 79.1 155.308 79.1ZM167.813 78.36C167.546 78.6 167.213 78.7867 166.813 78.92C166.426 79.04 166.02 79.1 165.593 79.1C164.606 79.1 163.846 78.8333 163.313 78.3C162.78 77.7667 162.513 77.0133 162.513 76.04V69.68H160.633V68.48H162.513V66.18H163.933V68.48H167.133V69.68H163.933V75.96C163.933 76.5867 164.086 77.0667 164.393 77.4C164.713 77.72 165.166 77.88 165.753 77.88C166.046 77.88 166.326 77.8333 166.593 77.74C166.873 77.6467 167.113 77.5133 167.313 77.34L167.813 78.36ZM170.398 68.48H171.818V79H170.398V68.48ZM171.118 66.18C170.825 66.18 170.578 66.08 170.378 65.88C170.178 65.68 170.078 65.44 170.078 65.16C170.078 64.8933 170.178 64.66 170.378 64.46C170.578 64.26 170.825 64.16 171.118 64.16C171.411 64.16 171.658 64.26 171.858 64.46C172.058 64.6467 172.158 64.8733 172.158 65.14C172.158 65.4333 172.058 65.68 171.858 65.88C171.658 66.08 171.411 66.18 171.118 66.18ZM181.189 68.4C182.176 68.4 183.069 68.6267 183.869 69.08C184.669 69.52 185.296 70.1467 185.749 70.96C186.202 71.7733 186.429 72.7 186.429 73.74C186.429 74.78 186.202 75.7067 185.749 76.52C185.296 77.3333 184.669 77.9667 183.869 78.42C183.069 78.8733 182.176 79.1 181.189 79.1C180.309 79.1 179.516 78.9133 178.809 78.54C178.116 78.1667 177.556 77.6267 177.129 76.92V79H175.769V64.16H177.189V70.48C177.629 69.8 178.189 69.2867 178.869 68.94C179.562 68.58 180.336 68.4 181.189 68.4ZM181.089 77.84C181.822 77.84 182.489 77.6733 183.089 77.34C183.689 76.9933 184.156 76.5067 184.489 75.88C184.836 75.2533 185.009 74.54 185.009 73.74C185.009 72.94 184.836 72.2267 184.489 71.6C184.156 70.9733 183.689 70.4933 183.089 70.16C182.489 69.8133 181.822 69.64 181.089 69.64C180.342 69.64 179.669 69.8133 179.069 70.16C178.482 70.4933 178.016 70.9733 177.669 71.6C177.336 72.2267 177.169 72.94 177.169 73.74C177.169 74.54 177.336 75.2533 177.669 75.88C178.016 76.5067 178.482 76.9933 179.069 77.34C179.669 77.6733 180.342 77.84 181.089 77.84ZM198.804 68.48V79H197.444V77.08C197.07 77.72 196.557 78.22 195.904 78.58C195.25 78.9267 194.504 79.1 193.664 79.1C192.29 79.1 191.204 78.72 190.404 77.96C189.617 77.1867 189.224 76.06 189.224 74.58V68.48H190.644V74.44C190.644 75.5467 190.917 76.3867 191.464 76.96C192.01 77.5333 192.79 77.82 193.804 77.82C194.91 77.82 195.784 77.4867 196.424 76.82C197.064 76.14 197.384 75.2 197.384 74V68.48H198.804ZM202.781 64.16H204.201V79H202.781V64.16ZM217.632 68.48V79H216.272V77.08C215.899 77.72 215.385 78.22 214.732 78.58C214.079 78.9267 213.332 79.1 212.492 79.1C211.119 79.1 210.032 78.72 209.232 77.96C208.445 77.1867 208.052 76.06 208.052 74.58V68.48H209.472V74.44C209.472 75.5467 209.745 76.3867 210.292 76.96C210.839 77.5333 211.619 77.82 212.632 77.82C213.739 77.82 214.612 77.4867 215.252 76.82C215.892 76.14 216.212 75.2 216.212 74V68.48H217.632ZM234.729 68.4C236.049 68.4 237.082 68.78 237.829 69.54C238.589 70.3 238.969 71.42 238.969 72.9V79H237.549V73.04C237.549 71.9467 237.282 71.1133 236.749 70.54C236.229 69.9667 235.489 69.68 234.529 69.68C233.436 69.68 232.576 70.02 231.949 70.7C231.322 71.3667 231.009 72.2933 231.009 73.48V79H229.589V73.04C229.589 71.9467 229.322 71.1133 228.789 70.54C228.269 69.9667 227.522 69.68 226.549 69.68C225.469 69.68 224.609 70.02 223.969 70.7C223.342 71.3667 223.029 72.2933 223.029 73.48V79H221.609V68.48H222.969V70.4C223.342 69.76 223.862 69.2667 224.529 68.92C225.196 68.5733 225.962 68.4 226.829 68.4C227.709 68.4 228.469 68.5867 229.109 68.96C229.762 69.3333 230.249 69.8867 230.569 70.62C230.956 69.9267 231.509 69.3867 232.229 69C232.962 68.6 233.796 68.4 234.729 68.4Z" fill="#141720"/>
<path fill-rule="evenodd" clip-rule="evenodd" d="M21 0C9.91719 0 1 8.47133 1 19C1 29.5287 9.91719 38 21 38C32.0828 38 41 29.5287 41 19C41 8.47133 32.0828 0 21 0ZM21 36.4162C10.9172 36.4162 2.66719 28.5787 2.66719 19C2.66719 9.42133 10.9172 1.58383 21 1.58383C31.0828 1.58383 39.3328 9.42133 39.3328 19C39.3328 28.5787 31.0828 36.4162 21 36.4162Z" fill="#C71222"/>
<path fill-rule="evenodd" clip-rule="evenodd" d="M30.9492 21.8C30.5384 21.6663 30.0461 21.7338 29.883 22.0663C28.0784 24.9325 24.5492 26.6663 20.6938 26.6663C16.7553 26.6663 13.3092 24.9325 11.5046 22.0663C11.34 21.7325 10.8476 21.6 10.4384 21.8C10.0276 21.9338 9.86457 22.3338 10.0276 22.6663C12.0784 25.9325 16.1 28 20.6938 28C25.2061 28 29.3092 25.9338 31.2784 22.6663C31.5246 22.3325 31.36 21.9325 30.9507 21.8H30.9492Z" fill="#C71222"/>
<path fill-rule="evenodd" clip-rule="evenodd" d="M16.5892 14.6663C16.5892 15.7713 15.4877 16.6663 14.1277 16.6663C12.7677 16.6663 11.6661 15.7713 11.6661 14.6663C11.6661 13.5613 12.7677 12.6663 14.1277 12.6663C15.4877 12.6663 16.5892 13.5613 16.5892 14.6663Z" fill="#C71222"/>
<path fill-rule="evenodd" clip-rule="evenodd" d="M29.7185 14.6663C29.7185 15.7713 28.6169 16.6663 27.2569 16.6663C25.8969 16.6663 24.7954 15.7713 24.7954 14.6663C24.7954 13.5613 25.8969 12.6663 27.2569 12.6663C28.6169 12.6663 29.7185 13.5613 29.7185 14.6663Z" fill="#C71222"/>
</svg>
