<svg width="355" height="180" viewBox="0 0 355 180" fill="none" xmlns="http://www.w3.org/2000/svg">
<path d="M6.05713 111.251C4.88037 111.251 3.9502 111.645 3.2666 112.431C2.58789 113.212 2.24854 114.284 2.24854 115.646C2.24854 117.047 2.57568 118.131 3.22998 118.898C3.88916 119.66 4.82666 120.041 6.04248 120.041C6.78955 120.041 7.6416 119.906 8.59863 119.638V120.729C7.85645 121.007 6.94092 121.146 5.85205 121.146C4.2749 121.146 3.05664 120.668 2.19727 119.711C1.34277 118.754 0.915527 117.394 0.915527 115.631C0.915527 114.528 1.12061 113.561 1.53076 112.731C1.9458 111.901 2.5415 111.261 3.31787 110.812C4.09912 110.363 5.01709 110.138 6.07178 110.138C7.19482 110.138 8.17627 110.343 9.01611 110.753L8.48877 111.823C7.67822 111.442 6.86768 111.251 6.05713 111.251ZM18.1807 116.979C18.1807 118.288 17.8511 119.311 17.1919 120.048C16.5327 120.78 15.6221 121.146 14.46 121.146C13.7422 121.146 13.105 120.978 12.5483 120.641C11.9917 120.304 11.562 119.821 11.2593 119.191C10.9565 118.561 10.8052 117.824 10.8052 116.979C10.8052 115.67 11.1323 114.652 11.7866 113.925C12.4409 113.192 13.3491 112.826 14.5112 112.826C15.6343 112.826 16.5254 113.2 17.1846 113.947C17.8486 114.694 18.1807 115.705 18.1807 116.979ZM12.0649 116.979C12.0649 118.004 12.27 118.786 12.6802 119.323C13.0903 119.86 13.6934 120.128 14.4893 120.128C15.2852 120.128 15.8882 119.862 16.2983 119.33C16.7134 118.793 16.9209 118.009 16.9209 116.979C16.9209 115.958 16.7134 115.185 16.2983 114.657C15.8882 114.125 15.2803 113.859 14.4746 113.859C13.6787 113.859 13.0781 114.12 12.6729 114.643C12.2676 115.165 12.0649 115.944 12.0649 116.979ZM26.3125 121V115.807C26.3125 115.153 26.1636 114.665 25.8657 114.342C25.5679 114.02 25.1016 113.859 24.4668 113.859C23.627 113.859 23.0117 114.086 22.6211 114.54C22.2305 114.994 22.0352 115.744 22.0352 116.789V121H20.8193V112.973H21.8081L22.0059 114.071H22.0645C22.3135 113.676 22.6626 113.371 23.1118 113.156C23.561 112.936 24.0615 112.826 24.6133 112.826C25.5801 112.826 26.3076 113.061 26.7959 113.529C27.2842 113.993 27.5283 114.738 27.5283 115.763V121H26.3125ZM35.7114 118.81C35.7114 119.557 35.4331 120.133 34.8765 120.539C34.3198 120.944 33.5386 121.146 32.5327 121.146C31.4683 121.146 30.6382 120.978 30.0425 120.641V119.513C30.4282 119.708 30.8408 119.862 31.2803 119.975C31.7246 120.087 32.1519 120.143 32.562 120.143C33.1968 120.143 33.6851 120.043 34.0269 119.843C34.3687 119.638 34.5396 119.328 34.5396 118.913C34.5396 118.6 34.4028 118.334 34.1294 118.114C33.8608 117.89 33.3335 117.626 32.5474 117.323C31.8003 117.045 31.2681 116.803 30.9507 116.598C30.6382 116.388 30.4038 116.151 30.2476 115.888C30.0962 115.624 30.0205 115.309 30.0205 114.943C30.0205 114.289 30.2866 113.773 30.8188 113.397C31.3511 113.017 32.0811 112.826 33.0088 112.826C33.873 112.826 34.7178 113.002 35.543 113.354L35.1108 114.342C34.3052 114.01 33.5752 113.844 32.9209 113.844C32.3447 113.844 31.9102 113.935 31.6172 114.115C31.3242 114.296 31.1777 114.545 31.1777 114.862C31.1777 115.077 31.2314 115.26 31.3389 115.412C31.4512 115.563 31.6294 115.707 31.8735 115.844C32.1177 115.98 32.5864 116.178 33.2798 116.437C34.2319 116.784 34.874 117.133 35.2061 117.484C35.543 117.836 35.7114 118.278 35.7114 118.81ZM41.5874 121.146C40.4009 121.146 39.4634 120.785 38.7749 120.062C38.0913 119.34 37.7495 118.336 37.7495 117.052C37.7495 115.758 38.0669 114.73 38.7017 113.969C39.3413 113.207 40.1982 112.826 41.2725 112.826C42.2783 112.826 43.0742 113.158 43.6602 113.822C44.2461 114.481 44.5391 115.353 44.5391 116.437V117.206H39.0093C39.0337 118.148 39.2705 118.864 39.7197 119.352C40.1738 119.84 40.811 120.084 41.6313 120.084C42.4956 120.084 43.3501 119.904 44.1948 119.542V120.626C43.7651 120.812 43.3574 120.944 42.9717 121.022C42.5908 121.105 42.1294 121.146 41.5874 121.146ZM41.2578 113.844C40.6133 113.844 40.0981 114.054 39.7124 114.474C39.3315 114.894 39.1069 115.475 39.0386 116.217H43.2354C43.2354 115.451 43.0645 114.865 42.7227 114.459C42.3809 114.049 41.8926 113.844 41.2578 113.844ZM50.3271 121.146C49.165 121.146 48.2642 120.79 47.6245 120.077C46.9897 119.359 46.6724 118.346 46.6724 117.038C46.6724 115.695 46.9946 114.657 47.6392 113.925C48.2886 113.192 49.2114 112.826 50.4077 112.826C50.7935 112.826 51.1792 112.868 51.5649 112.951C51.9507 113.034 52.2534 113.131 52.4731 113.244L52.0996 114.276C51.8311 114.169 51.5381 114.081 51.2207 114.013C50.9033 113.939 50.6226 113.903 50.3784 113.903C48.7476 113.903 47.9321 114.943 47.9321 117.023C47.9321 118.009 48.1299 118.766 48.5254 119.293C48.9258 119.821 49.5166 120.084 50.2979 120.084C50.9668 120.084 51.6528 119.94 52.356 119.652V120.729C51.8188 121.007 51.1426 121.146 50.3271 121.146ZM57.3604 120.143C57.5752 120.143 57.7827 120.128 57.9829 120.099C58.1831 120.065 58.3418 120.031 58.459 119.997V120.927C58.3271 120.99 58.1318 121.042 57.873 121.081C57.6191 121.125 57.3896 121.146 57.1846 121.146C55.6318 121.146 54.8555 120.329 54.8555 118.693V113.917H53.7056V113.332L54.8555 112.826L55.3682 111.112H56.0713V112.973H58.4004V113.917H56.0713V118.642C56.0713 119.125 56.186 119.496 56.4155 119.755C56.645 120.014 56.96 120.143 57.3604 120.143ZM63.9614 121.146C62.7749 121.146 61.8374 120.785 61.1489 120.062C60.4653 119.34 60.1235 118.336 60.1235 117.052C60.1235 115.758 60.4409 114.73 61.0757 113.969C61.7153 113.207 62.5723 112.826 63.6465 112.826C64.6523 112.826 65.4482 113.158 66.0342 113.822C66.6201 114.481 66.9131 115.353 66.9131 116.437V117.206H61.3833C61.4077 118.148 61.6445 118.864 62.0938 119.352C62.5479 119.84 63.1851 120.084 64.0054 120.084C64.8696 120.084 65.7241 119.904 66.5688 119.542V120.626C66.1392 120.812 65.7314 120.944 65.3457 121.022C64.9648 121.105 64.5034 121.146 63.9614 121.146ZM63.6318 113.844C62.9873 113.844 62.4722 114.054 62.0864 114.474C61.7056 114.894 61.481 115.475 61.4126 116.217H65.6094C65.6094 115.451 65.4385 114.865 65.0967 114.459C64.7549 114.049 64.2666 113.844 63.6318 113.844ZM72.0859 120.143C72.3008 120.143 72.5083 120.128 72.7085 120.099C72.9087 120.065 73.0674 120.031 73.1846 119.997V120.927C73.0527 120.99 72.8574 121.042 72.5986 121.081C72.3447 121.125 72.1152 121.146 71.9102 121.146C70.3574 121.146 69.5811 120.329 69.5811 118.693V113.917H68.4312V113.332L69.5811 112.826L70.0938 111.112H70.7969V112.973H73.126V113.917H70.7969V118.642C70.7969 119.125 70.9116 119.496 71.1411 119.755C71.3706 120.014 71.6855 120.143 72.0859 120.143ZM76.4385 112.973V118.18C76.4385 118.834 76.5874 119.323 76.8853 119.645C77.1831 119.967 77.6494 120.128 78.2842 120.128C79.124 120.128 79.7368 119.899 80.1226 119.44C80.5132 118.981 80.7085 118.231 80.7085 117.191V112.973H81.9243V121H80.9209L80.7451 119.923H80.6792C80.4302 120.319 80.0835 120.622 79.6392 120.832C79.1997 121.042 78.6968 121.146 78.1304 121.146C77.1538 121.146 76.4214 120.915 75.9331 120.451C75.4497 119.987 75.208 119.245 75.208 118.224V112.973H76.4385ZM88.6719 112.826C89.0283 112.826 89.3481 112.855 89.6313 112.914L89.4629 114.042C89.1309 113.969 88.8379 113.932 88.584 113.932C87.9346 113.932 87.3779 114.196 86.9141 114.723C86.4551 115.25 86.2256 115.907 86.2256 116.693V121H85.0098V112.973H86.0132L86.1523 114.459H86.2109C86.5088 113.937 86.8677 113.534 87.2876 113.251C87.7075 112.968 88.1689 112.826 88.6719 112.826ZM97.7871 121L94.7402 112.973H96.0439L97.7725 117.733C98.1631 118.847 98.3926 119.569 98.4609 119.901H98.5195C98.5732 119.643 98.7417 119.108 99.0249 118.297C99.313 117.482 99.9551 115.707 100.951 112.973H102.255L99.208 121H97.7871ZM107.435 121.146C106.249 121.146 105.311 120.785 104.623 120.062C103.939 119.34 103.597 118.336 103.597 117.052C103.597 115.758 103.915 114.73 104.549 113.969C105.189 113.207 106.046 112.826 107.12 112.826C108.126 112.826 108.922 113.158 109.508 113.822C110.094 114.481 110.387 115.353 110.387 116.437V117.206H104.857C104.881 118.148 105.118 118.864 105.567 119.352C106.021 119.84 106.659 120.084 107.479 120.084C108.343 120.084 109.198 119.904 110.042 119.542V120.626C109.613 120.812 109.205 120.944 108.819 121.022C108.438 121.105 107.977 121.146 107.435 121.146ZM107.105 113.844C106.461 113.844 105.946 114.054 105.56 114.474C105.179 114.894 104.955 115.475 104.886 116.217H109.083C109.083 115.451 108.912 114.865 108.57 114.459C108.229 114.049 107.74 113.844 107.105 113.844ZM118.145 118.81C118.145 119.557 117.867 120.133 117.31 120.539C116.753 120.944 115.972 121.146 114.966 121.146C113.902 121.146 113.072 120.978 112.476 120.641V119.513C112.862 119.708 113.274 119.862 113.714 119.975C114.158 120.087 114.585 120.143 114.996 120.143C115.63 120.143 116.119 120.043 116.46 119.843C116.802 119.638 116.973 119.328 116.973 118.913C116.973 118.6 116.836 118.334 116.563 118.114C116.294 117.89 115.767 117.626 114.981 117.323C114.234 117.045 113.702 116.803 113.384 116.598C113.072 116.388 112.837 116.151 112.681 115.888C112.53 115.624 112.454 115.309 112.454 114.943C112.454 114.289 112.72 113.773 113.252 113.397C113.785 113.017 114.515 112.826 115.442 112.826C116.307 112.826 117.151 113.002 117.977 113.354L117.544 114.342C116.739 114.01 116.009 113.844 115.354 113.844C114.778 113.844 114.344 113.935 114.051 114.115C113.758 114.296 113.611 114.545 113.611 114.862C113.611 115.077 113.665 115.26 113.772 115.412C113.885 115.563 114.063 115.707 114.307 115.844C114.551 115.98 115.02 116.178 115.713 116.437C116.666 116.784 117.308 117.133 117.64 117.484C117.977 117.836 118.145 118.278 118.145 118.81ZM123.223 120.143C123.438 120.143 123.645 120.128 123.845 120.099C124.045 120.065 124.204 120.031 124.321 119.997V120.927C124.189 120.99 123.994 121.042 123.735 121.081C123.481 121.125 123.252 121.146 123.047 121.146C121.494 121.146 120.718 120.329 120.718 118.693V113.917H119.568V113.332L120.718 112.826L121.23 111.112H121.934V112.973H124.263V113.917H121.934V118.642C121.934 119.125 122.048 119.496 122.278 119.755C122.507 120.014 122.822 120.143 123.223 120.143ZM127.648 121H126.433V112.973H127.648V121ZM126.33 110.797C126.33 110.519 126.398 110.316 126.535 110.189C126.672 110.058 126.843 109.992 127.048 109.992C127.243 109.992 127.412 110.058 127.553 110.189C127.695 110.321 127.766 110.524 127.766 110.797C127.766 111.071 127.695 111.276 127.553 111.413C127.412 111.544 127.243 111.61 127.048 111.61C126.843 111.61 126.672 111.544 126.535 111.413C126.398 111.276 126.33 111.071 126.33 110.797ZM134.462 112.841C135.517 112.841 136.334 113.202 136.916 113.925C137.501 114.643 137.794 115.661 137.794 116.979C137.794 118.297 137.499 119.323 136.908 120.055C136.322 120.783 135.507 121.146 134.462 121.146C133.939 121.146 133.461 121.051 133.026 120.861C132.597 120.666 132.235 120.368 131.942 119.967H131.854L131.598 121H130.727V109.604H131.942V112.372C131.942 112.992 131.923 113.549 131.884 114.042H131.942C132.509 113.241 133.349 112.841 134.462 112.841ZM134.286 113.859C133.456 113.859 132.858 114.098 132.492 114.577C132.125 115.05 131.942 115.851 131.942 116.979C131.942 118.107 132.13 118.915 132.506 119.403C132.882 119.887 133.485 120.128 134.315 120.128C135.062 120.128 135.619 119.857 135.985 119.315C136.352 118.769 136.535 117.985 136.535 116.964C136.535 115.919 136.352 115.141 135.985 114.628C135.619 114.115 135.053 113.859 134.286 113.859ZM141.568 112.973V118.18C141.568 118.834 141.717 119.323 142.015 119.645C142.313 119.967 142.779 120.128 143.414 120.128C144.254 120.128 144.867 119.899 145.252 119.44C145.643 118.981 145.838 118.231 145.838 117.191V112.973H147.054V121H146.051L145.875 119.923H145.809C145.56 120.319 145.213 120.622 144.769 120.832C144.33 121.042 143.827 121.146 143.26 121.146C142.284 121.146 141.551 120.915 141.063 120.451C140.58 119.987 140.338 119.245 140.338 118.224V112.973H141.568ZM151.355 121H150.14V109.604H151.355V121ZM155.576 112.973V118.18C155.576 118.834 155.725 119.323 156.023 119.645C156.321 119.967 156.787 120.128 157.422 120.128C158.262 120.128 158.875 119.899 159.26 119.44C159.651 118.981 159.846 118.231 159.846 117.191V112.973H161.062V121H160.059L159.883 119.923H159.817C159.568 120.319 159.221 120.622 158.777 120.832C158.337 121.042 157.834 121.146 157.268 121.146C156.292 121.146 155.559 120.915 155.071 120.451C154.587 119.987 154.346 119.245 154.346 118.224V112.973H155.576ZM174.379 121V115.778C174.379 115.138 174.243 114.66 173.969 114.342C173.696 114.02 173.271 113.859 172.695 113.859C171.938 113.859 171.379 114.076 171.018 114.511C170.656 114.945 170.476 115.614 170.476 116.518V121H169.26V115.778C169.26 115.138 169.123 114.66 168.85 114.342C168.576 114.02 168.149 113.859 167.568 113.859C166.806 113.859 166.247 114.088 165.891 114.547C165.539 115.001 165.363 115.749 165.363 116.789V121H164.147V112.973H165.136L165.334 114.071H165.393C165.622 113.681 165.944 113.375 166.359 113.156C166.779 112.936 167.248 112.826 167.766 112.826C169.021 112.826 169.841 113.28 170.227 114.188H170.285C170.524 113.769 170.871 113.437 171.325 113.192C171.779 112.948 172.297 112.826 172.878 112.826C173.786 112.826 174.465 113.061 174.914 113.529C175.368 113.993 175.595 114.738 175.595 115.763V121H174.379ZM193.236 121V115.778C193.236 115.138 193.099 114.66 192.826 114.342C192.552 114.02 192.127 113.859 191.551 113.859C190.794 113.859 190.235 114.076 189.874 114.511C189.513 114.945 189.332 115.614 189.332 116.518V121H188.116V115.778C188.116 115.138 187.979 114.66 187.706 114.342C187.433 114.02 187.005 113.859 186.424 113.859C185.663 113.859 185.104 114.088 184.747 114.547C184.396 115.001 184.22 115.749 184.22 116.789V121H183.004V112.973H183.993L184.19 114.071H184.249C184.479 113.681 184.801 113.375 185.216 113.156C185.636 112.936 186.104 112.826 186.622 112.826C187.877 112.826 188.697 113.28 189.083 114.188H189.142C189.381 113.769 189.728 113.437 190.182 113.192C190.636 112.948 191.153 112.826 191.734 112.826C192.643 112.826 193.321 113.061 193.771 113.529C194.225 113.993 194.452 114.738 194.452 115.763V121H193.236ZM202.4 121L202.159 119.857H202.1C201.7 120.36 201.299 120.702 200.899 120.883C200.503 121.059 200.008 121.146 199.412 121.146C198.616 121.146 197.991 120.941 197.537 120.531C197.088 120.121 196.863 119.538 196.863 118.781C196.863 117.16 198.16 116.31 200.752 116.232L202.115 116.188V115.69C202.115 115.06 201.978 114.596 201.705 114.298C201.436 113.996 201.004 113.844 200.408 113.844C199.739 113.844 198.982 114.049 198.138 114.459L197.764 113.529C198.16 113.314 198.592 113.146 199.061 113.024C199.534 112.902 200.008 112.841 200.481 112.841C201.438 112.841 202.146 113.053 202.605 113.478C203.069 113.903 203.301 114.584 203.301 115.521V121H202.4ZM199.654 120.143C200.411 120.143 201.004 119.936 201.434 119.521C201.868 119.105 202.085 118.524 202.085 117.777V117.052L200.87 117.104C199.903 117.138 199.205 117.289 198.775 117.558C198.35 117.821 198.138 118.234 198.138 118.795C198.138 119.235 198.27 119.569 198.533 119.799C198.802 120.028 199.175 120.143 199.654 120.143ZM209.705 121.146C208.518 121.146 207.581 120.785 206.892 120.062C206.208 119.34 205.867 118.336 205.867 117.052C205.867 115.758 206.184 114.73 206.819 113.969C207.458 113.207 208.315 112.826 209.39 112.826C210.396 112.826 211.191 113.158 211.777 113.822C212.363 114.481 212.656 115.353 212.656 116.437V117.206H207.126C207.151 118.148 207.388 118.864 207.837 119.352C208.291 119.84 208.928 120.084 209.749 120.084C210.613 120.084 211.467 119.904 212.312 119.542V120.626C211.882 120.812 211.475 120.944 211.089 121.022C210.708 121.105 210.247 121.146 209.705 121.146ZM209.375 113.844C208.73 113.844 208.215 114.054 207.83 114.474C207.449 114.894 207.224 115.475 207.156 116.217H211.353C211.353 115.451 211.182 114.865 210.84 114.459C210.498 114.049 210.01 113.844 209.375 113.844ZM218.444 121.146C217.282 121.146 216.381 120.79 215.742 120.077C215.107 119.359 214.79 118.346 214.79 117.038C214.79 115.695 215.112 114.657 215.756 113.925C216.406 113.192 217.329 112.826 218.525 112.826C218.911 112.826 219.296 112.868 219.682 112.951C220.068 113.034 220.371 113.131 220.59 113.244L220.217 114.276C219.948 114.169 219.655 114.081 219.338 114.013C219.021 113.939 218.74 113.903 218.496 113.903C216.865 113.903 216.049 114.943 216.049 117.023C216.049 118.009 216.247 118.766 216.643 119.293C217.043 119.821 217.634 120.084 218.415 120.084C219.084 120.084 219.77 119.94 220.473 119.652V120.729C219.936 121.007 219.26 121.146 218.444 121.146ZM226.276 121.146C225.089 121.146 224.152 120.785 223.463 120.062C222.78 119.34 222.438 118.336 222.438 117.052C222.438 115.758 222.755 114.73 223.39 113.969C224.03 113.207 224.887 112.826 225.961 112.826C226.967 112.826 227.763 113.158 228.349 113.822C228.935 114.481 229.228 115.353 229.228 116.437V117.206H223.698C223.722 118.148 223.959 118.864 224.408 119.352C224.862 119.84 225.5 120.084 226.32 120.084C227.184 120.084 228.039 119.904 228.883 119.542V120.626C228.454 120.812 228.046 120.944 227.66 121.022C227.279 121.105 226.818 121.146 226.276 121.146ZM225.946 113.844C225.302 113.844 224.787 114.054 224.401 114.474C224.02 114.894 223.795 115.475 223.727 116.217H227.924C227.924 115.451 227.753 114.865 227.411 114.459C227.069 114.049 226.581 113.844 225.946 113.844ZM237.301 121V115.807C237.301 115.153 237.152 114.665 236.854 114.342C236.556 114.02 236.09 113.859 235.455 113.859C234.615 113.859 234 114.086 233.609 114.54C233.219 114.994 233.023 115.744 233.023 116.789V121H231.808V112.973H232.796L232.994 114.071H233.053C233.302 113.676 233.651 113.371 234.1 113.156C234.549 112.936 235.05 112.826 235.602 112.826C236.568 112.826 237.296 113.061 237.784 113.529C238.272 113.993 238.517 114.738 238.517 115.763V121H237.301ZM246.458 121L246.216 119.857H246.158C245.757 120.36 245.357 120.702 244.957 120.883C244.561 121.059 244.065 121.146 243.47 121.146C242.674 121.146 242.049 120.941 241.595 120.531C241.146 120.121 240.921 119.538 240.921 118.781C240.921 117.16 242.217 116.31 244.81 116.232L246.172 116.188V115.69C246.172 115.06 246.036 114.596 245.762 114.298C245.494 113.996 245.062 113.844 244.466 113.844C243.797 113.844 243.04 114.049 242.195 114.459L241.822 113.529C242.217 113.314 242.649 113.146 243.118 113.024C243.592 112.902 244.065 112.841 244.539 112.841C245.496 112.841 246.204 113.053 246.663 113.478C247.127 113.903 247.359 114.584 247.359 115.521V121H246.458ZM243.711 120.143C244.468 120.143 245.062 119.936 245.491 119.521C245.926 119.105 246.143 118.524 246.143 117.777V117.052L244.927 117.104C243.96 117.138 243.262 117.289 242.833 117.558C242.408 117.821 242.195 118.234 242.195 118.795C242.195 119.235 242.327 119.569 242.591 119.799C242.859 120.028 243.233 120.143 243.711 120.143ZM255.549 118.81C255.549 119.557 255.271 120.133 254.714 120.539C254.158 120.944 253.376 121.146 252.371 121.146C251.306 121.146 250.476 120.978 249.88 120.641V119.513C250.266 119.708 250.679 119.862 251.118 119.975C251.562 120.087 251.99 120.143 252.4 120.143C253.035 120.143 253.523 120.043 253.865 119.843C254.207 119.638 254.377 119.328 254.377 118.913C254.377 118.6 254.241 118.334 253.967 118.114C253.699 117.89 253.171 117.626 252.385 117.323C251.638 117.045 251.106 116.803 250.789 116.598C250.476 116.388 250.242 116.151 250.085 115.888C249.934 115.624 249.858 115.309 249.858 114.943C249.858 114.289 250.125 113.773 250.657 113.397C251.189 113.017 251.919 112.826 252.847 112.826C253.711 112.826 254.556 113.002 255.381 113.354L254.949 114.342C254.143 114.01 253.413 113.844 252.759 113.844C252.183 113.844 251.748 113.935 251.455 114.115C251.162 114.296 251.016 114.545 251.016 114.862C251.016 115.077 251.069 115.26 251.177 115.412C251.289 115.563 251.467 115.707 251.711 115.844C251.956 115.98 252.424 116.178 253.118 116.437C254.07 116.784 254.712 117.133 255.044 117.484C255.381 117.836 255.549 118.278 255.549 118.81ZM265.639 121.146C264.477 121.146 263.576 120.79 262.936 120.077C262.301 119.359 261.984 118.346 261.984 117.038C261.984 115.695 262.306 114.657 262.951 113.925C263.6 113.192 264.523 112.826 265.719 112.826C266.105 112.826 266.491 112.868 266.876 112.951C267.262 113.034 267.565 113.131 267.785 113.244L267.411 114.276C267.143 114.169 266.85 114.081 266.532 114.013C266.215 113.939 265.934 113.903 265.69 113.903C264.059 113.903 263.244 114.943 263.244 117.023C263.244 118.009 263.441 118.766 263.837 119.293C264.237 119.821 264.828 120.084 265.609 120.084C266.278 120.084 266.964 119.94 267.667 119.652V120.729C267.13 121.007 266.454 121.146 265.639 121.146ZM271.222 112.973V118.18C271.222 118.834 271.371 119.323 271.668 119.645C271.966 119.967 272.433 120.128 273.067 120.128C273.907 120.128 274.52 119.899 274.906 119.44C275.296 118.981 275.492 118.231 275.492 117.191V112.973H276.708V121H275.704L275.528 119.923H275.462C275.213 120.319 274.867 120.622 274.422 120.832C273.983 121.042 273.48 121.146 272.914 121.146C271.937 121.146 271.205 120.915 270.716 120.451C270.233 119.987 269.991 119.245 269.991 118.224V112.973H271.222ZM283.455 112.826C283.812 112.826 284.131 112.855 284.415 112.914L284.246 114.042C283.914 113.969 283.621 113.932 283.367 113.932C282.718 113.932 282.161 114.196 281.697 114.723C281.238 115.25 281.009 115.907 281.009 116.693V121H279.793V112.973H280.796L280.936 114.459H280.994C281.292 113.937 281.651 113.534 282.071 113.251C282.491 112.968 282.952 112.826 283.455 112.826ZM291.353 121L291.111 119.857H291.052C290.652 120.36 290.251 120.702 289.851 120.883C289.456 121.059 288.96 121.146 288.364 121.146C287.568 121.146 286.943 120.941 286.489 120.531C286.04 120.121 285.815 119.538 285.815 118.781C285.815 117.16 287.112 116.31 289.705 116.232L291.067 116.188V115.69C291.067 115.06 290.93 114.596 290.657 114.298C290.388 113.996 289.956 113.844 289.36 113.844C288.691 113.844 287.935 114.049 287.09 114.459L286.716 113.529C287.112 113.314 287.544 113.146 288.013 113.024C288.486 112.902 288.96 112.841 289.434 112.841C290.391 112.841 291.099 113.053 291.558 113.478C292.021 113.903 292.253 114.584 292.253 115.521V121H291.353ZM288.606 120.143C289.363 120.143 289.956 119.936 290.386 119.521C290.82 119.105 291.038 118.524 291.038 117.777V117.052L289.822 117.104C288.855 117.138 288.157 117.289 287.727 117.558C287.302 117.821 287.09 118.234 287.09 118.795C287.09 119.235 287.222 119.569 287.485 119.799C287.754 120.028 288.127 120.143 288.606 120.143ZM299.001 112.841C300.056 112.841 300.874 113.202 301.455 113.925C302.041 114.643 302.333 115.661 302.333 116.979C302.333 118.297 302.038 119.323 301.447 120.055C300.861 120.783 300.046 121.146 299.001 121.146C298.479 121.146 298 121.051 297.565 120.861C297.136 120.666 296.774 120.368 296.481 119.967H296.394L296.137 121H295.266V109.604H296.481V112.372C296.481 112.992 296.462 113.549 296.423 114.042H296.481C297.048 113.241 297.888 112.841 299.001 112.841ZM298.825 113.859C297.995 113.859 297.397 114.098 297.031 114.577C296.665 115.05 296.481 115.851 296.481 116.979C296.481 118.107 296.669 118.915 297.045 119.403C297.421 119.887 298.024 120.128 298.854 120.128C299.602 120.128 300.158 119.857 300.524 119.315C300.891 118.769 301.074 117.985 301.074 116.964C301.074 115.919 300.891 115.141 300.524 114.628C300.158 114.115 299.592 113.859 298.825 113.859ZM306.181 121H304.965V112.973H306.181V121ZM304.862 110.797C304.862 110.519 304.931 110.316 305.067 110.189C305.204 110.058 305.375 109.992 305.58 109.992C305.775 109.992 305.944 110.058 306.085 110.189C306.227 110.321 306.298 110.524 306.298 110.797C306.298 111.071 306.227 111.276 306.085 111.413C305.944 111.544 305.775 111.61 305.58 111.61C305.375 111.61 305.204 111.544 305.067 111.413C304.931 111.276 304.862 111.071 304.862 110.797ZM311.852 120.143C312.066 120.143 312.274 120.128 312.474 120.099C312.674 120.065 312.833 120.031 312.95 119.997V120.927C312.818 120.99 312.623 121.042 312.364 121.081C312.11 121.125 311.881 121.146 311.676 121.146C310.123 121.146 309.347 120.329 309.347 118.693V113.917H308.197V113.332L309.347 112.826L309.859 111.112H310.562V112.973H312.892V113.917H310.562V118.642C310.562 119.125 310.677 119.496 310.907 119.755C311.136 120.014 311.451 120.143 311.852 120.143ZM316.204 112.973V118.18C316.204 118.834 316.353 119.323 316.651 119.645C316.949 119.967 317.415 120.128 318.05 120.128C318.89 120.128 319.502 119.899 319.888 119.44C320.279 118.981 320.474 118.231 320.474 117.191V112.973H321.69V121H320.687L320.511 119.923H320.445C320.196 120.319 319.849 120.622 319.405 120.832C318.965 121.042 318.462 121.146 317.896 121.146C316.919 121.146 316.187 120.915 315.699 120.451C315.215 119.987 314.974 119.245 314.974 118.224V112.973H316.204ZM328.438 112.826C328.794 112.826 329.114 112.855 329.397 112.914L329.229 114.042C328.896 113.969 328.604 113.932 328.35 113.932C327.7 113.932 327.144 114.196 326.68 114.723C326.221 115.25 325.991 115.907 325.991 116.693V121H324.775V112.973H325.779L325.918 114.459H325.977C326.274 113.937 326.633 113.534 327.053 113.251C327.473 112.968 327.935 112.826 328.438 112.826ZM6.78223 147V141.807C6.78223 141.153 6.6333 140.665 6.33545 140.342C6.0376 140.02 5.57129 139.859 4.93652 139.859C4.0918 139.859 3.47412 140.088 3.0835 140.547C2.69775 141.006 2.50488 141.758 2.50488 142.803V147H1.28906V135.604H2.50488V139.053C2.50488 139.468 2.48535 139.812 2.44629 140.086H2.51953C2.75879 139.7 3.09814 139.397 3.5376 139.178C3.98193 138.953 4.4873 138.841 5.05371 138.841C6.03516 138.841 6.77002 139.075 7.2583 139.544C7.75146 140.008 7.99805 140.748 7.99805 141.763V147H6.78223ZM15.9395 147L15.6978 145.857H15.6392C15.2388 146.36 14.8384 146.702 14.438 146.883C14.0425 147.059 13.5469 147.146 12.9512 147.146C12.1553 147.146 11.5303 146.941 11.0762 146.531C10.627 146.121 10.4023 145.538 10.4023 144.781C10.4023 143.16 11.6987 142.31 14.2915 142.232L15.6538 142.188V141.69C15.6538 141.06 15.5171 140.596 15.2437 140.298C14.9751 139.996 14.543 139.844 13.9473 139.844C13.2783 139.844 12.5215 140.049 11.6768 140.459L11.3032 139.529C11.6987 139.314 12.1309 139.146 12.5996 139.024C13.0732 138.902 13.5469 138.841 14.0205 138.841C14.9775 138.841 15.6855 139.053 16.1445 139.478C16.6084 139.903 16.8403 140.584 16.8403 141.521V147H15.9395ZM13.1929 146.143C13.9497 146.143 14.543 145.936 14.9727 145.521C15.4072 145.105 15.6245 144.524 15.6245 143.777V143.052L14.4087 143.104C13.4419 143.138 12.7437 143.289 12.314 143.558C11.8892 143.821 11.6768 144.234 11.6768 144.795C11.6768 145.235 11.8086 145.569 12.0723 145.799C12.3408 146.028 12.7144 146.143 13.1929 146.143ZM23.0605 147.146C21.8984 147.146 20.9976 146.79 20.3579 146.077C19.7231 145.359 19.4058 144.346 19.4058 143.038C19.4058 141.695 19.728 140.657 20.3726 139.925C21.022 139.192 21.9448 138.826 23.1411 138.826C23.5269 138.826 23.9126 138.868 24.2983 138.951C24.6841 139.034 24.9868 139.131 25.2065 139.244L24.833 140.276C24.5645 140.169 24.2715 140.081 23.9541 140.013C23.6367 139.939 23.356 139.903 23.1118 139.903C21.481 139.903 20.6655 140.943 20.6655 143.023C20.6655 144.009 20.8633 144.766 21.2588 145.293C21.6592 145.821 22.25 146.084 23.0312 146.084C23.7002 146.084 24.3862 145.94 25.0894 145.652V146.729C24.5522 147.007 23.876 147.146 23.0605 147.146ZM35.5156 139.917H33.4722V147H32.2563V139.917H30.8208V139.368L32.2563 138.929V138.482C32.2563 136.509 33.1182 135.523 34.8418 135.523C35.2666 135.523 35.7646 135.608 36.3359 135.779L36.021 136.753C35.5522 136.602 35.1519 136.526 34.8198 136.526C34.3608 136.526 34.0215 136.68 33.8018 136.988C33.582 137.291 33.4722 137.779 33.4722 138.453V138.973H35.5156V139.917ZM40.8716 147.146C39.6851 147.146 38.7476 146.785 38.0591 146.062C37.3755 145.34 37.0337 144.336 37.0337 143.052C37.0337 141.758 37.3511 140.73 37.9858 139.969C38.6255 139.207 39.4824 138.826 40.5566 138.826C41.5625 138.826 42.3584 139.158 42.9443 139.822C43.5303 140.481 43.8232 141.353 43.8232 142.437V143.206H38.2935C38.3179 144.148 38.5547 144.864 39.0039 145.352C39.458 145.84 40.0952 146.084 40.9155 146.084C41.7798 146.084 42.6343 145.904 43.479 145.542V146.626C43.0493 146.812 42.6416 146.944 42.2559 147.022C41.875 147.105 41.4136 147.146 40.8716 147.146ZM40.542 139.844C39.8975 139.844 39.3823 140.054 38.9966 140.474C38.6157 140.894 38.3911 141.475 38.3228 142.217H42.5195C42.5195 141.451 42.3486 140.865 42.0068 140.459C41.665 140.049 41.1768 139.844 40.542 139.844ZM47.6191 147H46.4033V135.604H47.6191V147ZM51.9131 147H50.6973V138.973H51.9131V147ZM50.5947 136.797C50.5947 136.519 50.6631 136.316 50.7998 136.189C50.9365 136.058 51.1074 135.992 51.3125 135.992C51.5078 135.992 51.6763 136.058 51.8179 136.189C51.9595 136.321 52.0303 136.524 52.0303 136.797C52.0303 137.071 51.9595 137.276 51.8179 137.413C51.6763 137.544 51.5078 137.61 51.3125 137.61C51.1074 137.61 50.9365 137.544 50.7998 137.413C50.6631 137.276 50.5947 137.071 50.5947 136.797ZM60.1694 144.81C60.1694 145.557 59.8911 146.133 59.3345 146.539C58.7778 146.944 57.9966 147.146 56.9907 147.146C55.9263 147.146 55.0962 146.978 54.5005 146.641V145.513C54.8862 145.708 55.2988 145.862 55.7383 145.975C56.1826 146.087 56.6099 146.143 57.02 146.143C57.6548 146.143 58.1431 146.043 58.4849 145.843C58.8267 145.638 58.9976 145.328 58.9976 144.913C58.9976 144.6 58.8608 144.334 58.5874 144.114C58.3188 143.89 57.7915 143.626 57.0054 143.323C56.2583 143.045 55.7261 142.803 55.4087 142.598C55.0962 142.388 54.8618 142.151 54.7056 141.888C54.5542 141.624 54.4785 141.309 54.4785 140.943C54.4785 140.289 54.7446 139.773 55.2769 139.397C55.8091 139.017 56.5391 138.826 57.4668 138.826C58.3311 138.826 59.1758 139.002 60.001 139.354L59.5688 140.342C58.7632 140.01 58.0332 139.844 57.3789 139.844C56.8027 139.844 56.3682 139.935 56.0752 140.115C55.7822 140.296 55.6357 140.545 55.6357 140.862C55.6357 141.077 55.6895 141.26 55.7969 141.412C55.9092 141.563 56.0874 141.707 56.3315 141.844C56.5757 141.98 57.0444 142.178 57.7378 142.437C58.6899 142.784 59.332 143.133 59.6641 143.484C60.001 143.836 60.1694 144.278 60.1694 144.81ZM68.8086 147L65.7617 138.973H67.0654L68.7939 143.733C69.1846 144.847 69.4141 145.569 69.4824 145.901H69.541C69.5947 145.643 69.7632 145.108 70.0464 144.297C70.3345 143.482 70.9766 141.707 71.9727 138.973H73.2764L70.2295 147H68.8086ZM78.4565 147.146C77.27 147.146 76.3325 146.785 75.644 146.062C74.9604 145.34 74.6187 144.336 74.6187 143.052C74.6187 141.758 74.936 140.73 75.5708 139.969C76.2104 139.207 77.0674 138.826 78.1416 138.826C79.1475 138.826 79.9434 139.158 80.5293 139.822C81.1152 140.481 81.4082 141.353 81.4082 142.437V143.206H75.8784C75.9028 144.148 76.1396 144.864 76.5889 145.352C77.043 145.84 77.6802 146.084 78.5005 146.084C79.3647 146.084 80.2192 145.904 81.064 145.542V146.626C80.6343 146.812 80.2266 146.944 79.8408 147.022C79.46 147.105 78.9985 147.146 78.4565 147.146ZM78.127 139.844C77.4824 139.844 76.9673 140.054 76.5815 140.474C76.2007 140.894 75.9761 141.475 75.9077 142.217H80.1045C80.1045 141.451 79.9336 140.865 79.5918 140.459C79.25 140.049 78.7617 139.844 78.127 139.844ZM89.1665 144.81C89.1665 145.557 88.8882 146.133 88.3315 146.539C87.7749 146.944 86.9937 147.146 85.9878 147.146C84.9233 147.146 84.0933 146.978 83.4976 146.641V145.513C83.8833 145.708 84.2959 145.862 84.7354 145.975C85.1797 146.087 85.6069 146.143 86.0171 146.143C86.6519 146.143 87.1401 146.043 87.4819 145.843C87.8237 145.638 87.9946 145.328 87.9946 144.913C87.9946 144.6 87.8579 144.334 87.5845 144.114C87.3159 143.89 86.7886 143.626 86.0024 143.323C85.2554 143.045 84.7231 142.803 84.4058 142.598C84.0933 142.388 83.8589 142.151 83.7026 141.888C83.5513 141.624 83.4756 141.309 83.4756 140.943C83.4756 140.289 83.7417 139.773 84.2739 139.397C84.8062 139.017 85.5361 138.826 86.4639 138.826C87.3281 138.826 88.1729 139.002 88.998 139.354L88.5659 140.342C87.7603 140.01 87.0303 139.844 86.376 139.844C85.7998 139.844 85.3652 139.935 85.0723 140.115C84.7793 140.296 84.6328 140.545 84.6328 140.862C84.6328 141.077 84.6865 141.26 84.7939 141.412C84.9062 141.563 85.0845 141.707 85.3286 141.844C85.5728 141.98 86.0415 142.178 86.7349 142.437C87.687 142.784 88.3291 143.133 88.6611 143.484C88.998 143.836 89.1665 144.278 89.1665 144.81ZM94.2441 146.143C94.459 146.143 94.6665 146.128 94.8667 146.099C95.0669 146.065 95.2256 146.031 95.3428 145.997V146.927C95.2109 146.99 95.0156 147.042 94.7568 147.081C94.5029 147.125 94.2734 147.146 94.0684 147.146C92.5156 147.146 91.7393 146.329 91.7393 144.693V139.917H90.5894V139.332L91.7393 138.826L92.252 137.112H92.9551V138.973H95.2842V139.917H92.9551V144.642C92.9551 145.125 93.0698 145.496 93.2993 145.755C93.5288 146.014 93.8438 146.143 94.2441 146.143ZM98.6699 147H97.4541V138.973H98.6699V147ZM97.3516 136.797C97.3516 136.519 97.4199 136.316 97.5566 136.189C97.6934 136.058 97.8643 135.992 98.0693 135.992C98.2646 135.992 98.4331 136.058 98.5747 136.189C98.7163 136.321 98.7871 136.524 98.7871 136.797C98.7871 137.071 98.7163 137.276 98.5747 137.413C98.4331 137.544 98.2646 137.61 98.0693 137.61C97.8643 137.61 97.6934 137.544 97.5566 137.413C97.4199 137.276 97.3516 137.071 97.3516 136.797ZM105.483 138.841C106.538 138.841 107.356 139.202 107.937 139.925C108.523 140.643 108.816 141.661 108.816 142.979C108.816 144.297 108.521 145.323 107.93 146.055C107.344 146.783 106.528 147.146 105.483 147.146C104.961 147.146 104.482 147.051 104.048 146.861C103.618 146.666 103.257 146.368 102.964 145.967H102.876L102.62 147H101.748V135.604H102.964V138.372C102.964 138.992 102.944 139.549 102.905 140.042H102.964C103.53 139.241 104.37 138.841 105.483 138.841ZM105.308 139.859C104.478 139.859 103.879 140.098 103.513 140.577C103.147 141.05 102.964 141.851 102.964 142.979C102.964 144.107 103.152 144.915 103.528 145.403C103.904 145.887 104.507 146.128 105.337 146.128C106.084 146.128 106.641 145.857 107.007 145.315C107.373 144.769 107.556 143.985 107.556 142.964C107.556 141.919 107.373 141.141 107.007 140.628C106.641 140.115 106.074 139.859 105.308 139.859ZM112.59 138.973V144.18C112.59 144.834 112.739 145.323 113.037 145.645C113.334 145.967 113.801 146.128 114.436 146.128C115.275 146.128 115.888 145.899 116.274 145.44C116.665 144.981 116.86 144.231 116.86 143.191V138.973H118.076V147H117.072L116.896 145.923H116.831C116.582 146.319 116.235 146.622 115.791 146.832C115.351 147.042 114.848 147.146 114.282 147.146C113.305 147.146 112.573 146.915 112.084 146.451C111.601 145.987 111.359 145.245 111.359 144.224V138.973H112.59ZM122.377 147H121.161V135.604H122.377V147ZM126.598 138.973V144.18C126.598 144.834 126.747 145.323 127.044 145.645C127.342 145.967 127.809 146.128 128.443 146.128C129.283 146.128 129.896 145.899 130.282 145.44C130.672 144.981 130.868 144.231 130.868 143.191V138.973H132.083V147H131.08L130.904 145.923H130.838C130.589 146.319 130.243 146.622 129.798 146.832C129.359 147.042 128.856 147.146 128.29 147.146C127.313 147.146 126.581 146.915 126.092 146.451C125.609 145.987 125.367 145.245 125.367 144.224V138.973H126.598ZM145.401 147V141.778C145.401 141.138 145.264 140.66 144.991 140.342C144.717 140.02 144.292 139.859 143.716 139.859C142.959 139.859 142.4 140.076 142.039 140.511C141.678 140.945 141.497 141.614 141.497 142.518V147H140.281V141.778C140.281 141.138 140.145 140.66 139.871 140.342C139.598 140.02 139.17 139.859 138.589 139.859C137.828 139.859 137.269 140.088 136.912 140.547C136.561 141.001 136.385 141.749 136.385 142.789V147H135.169V138.973H136.158L136.355 140.071H136.414C136.644 139.681 136.966 139.375 137.381 139.156C137.801 138.936 138.27 138.826 138.787 138.826C140.042 138.826 140.862 139.28 141.248 140.188H141.307C141.546 139.769 141.893 139.437 142.347 139.192C142.801 138.948 143.318 138.826 143.899 138.826C144.808 138.826 145.486 139.061 145.936 139.529C146.39 139.993 146.617 140.738 146.617 141.763V147H145.401ZM155.168 138.973V144.18C155.168 144.834 155.317 145.323 155.615 145.645C155.913 145.967 156.379 146.128 157.014 146.128C157.854 146.128 158.466 145.899 158.852 145.44C159.243 144.981 159.438 144.231 159.438 143.191V138.973H160.654V147H159.65L159.475 145.923H159.409C159.16 146.319 158.813 146.622 158.369 146.832C157.929 147.042 157.426 147.146 156.86 147.146C155.883 147.146 155.151 146.915 154.663 146.451C154.179 145.987 153.938 145.245 153.938 144.224V138.973H155.168ZM167.401 138.826C167.758 138.826 168.078 138.855 168.361 138.914L168.192 140.042C167.86 139.969 167.567 139.932 167.313 139.932C166.664 139.932 166.107 140.196 165.644 140.723C165.185 141.25 164.955 141.907 164.955 142.693V147H163.739V138.973H164.743L164.882 140.459H164.94C165.238 139.937 165.597 139.534 166.017 139.251C166.437 138.968 166.898 138.826 167.401 138.826ZM175.855 147V141.807C175.855 141.153 175.707 140.665 175.409 140.342C175.111 140.02 174.645 139.859 174.01 139.859C173.17 139.859 172.555 140.086 172.164 140.54C171.773 140.994 171.578 141.744 171.578 142.789V147H170.362V138.973H171.351L171.549 140.071H171.607C171.856 139.676 172.206 139.371 172.655 139.156C173.104 138.936 173.604 138.826 174.156 138.826C175.123 138.826 175.851 139.061 176.339 139.529C176.827 139.993 177.071 140.738 177.071 141.763V147H175.855ZM185.013 147L184.771 145.857H184.712C184.312 146.36 183.912 146.702 183.511 146.883C183.116 147.059 182.62 147.146 182.024 147.146C181.229 147.146 180.604 146.941 180.149 146.531C179.7 146.121 179.476 145.538 179.476 144.781C179.476 143.16 180.772 142.31 183.365 142.232L184.727 142.188V141.69C184.727 141.06 184.59 140.596 184.317 140.298C184.048 139.996 183.616 139.844 183.021 139.844C182.352 139.844 181.595 140.049 180.75 140.459L180.376 139.529C180.772 139.314 181.204 139.146 181.673 139.024C182.146 138.902 182.62 138.841 183.094 138.841C184.051 138.841 184.759 139.053 185.218 139.478C185.682 139.903 185.914 140.584 185.914 141.521V147H185.013ZM182.266 146.143C183.023 146.143 183.616 145.936 184.046 145.521C184.48 145.105 184.698 144.524 184.698 143.777V143.052L183.482 143.104C182.515 143.138 181.817 143.289 181.387 143.558C180.962 143.821 180.75 144.234 180.75 144.795C180.75 145.235 180.882 145.569 181.146 145.799C181.414 146.028 181.788 146.143 182.266 146.143ZM195.08 147L192.033 138.973H193.337L195.065 143.733C195.456 144.847 195.686 145.569 195.754 145.901H195.812C195.866 145.643 196.035 145.108 196.318 144.297C196.606 143.482 197.248 141.707 198.244 138.973H199.548L196.501 147H195.08ZM204.728 147.146C203.542 147.146 202.604 146.785 201.916 146.062C201.232 145.34 200.89 144.336 200.89 143.052C200.89 141.758 201.208 140.73 201.842 139.969C202.482 139.207 203.339 138.826 204.413 138.826C205.419 138.826 206.215 139.158 206.801 139.822C207.387 140.481 207.68 141.353 207.68 142.437V143.206H202.15C202.174 144.148 202.411 144.864 202.86 145.352C203.314 145.84 203.952 146.084 204.772 146.084C205.636 146.084 206.491 145.904 207.335 145.542V146.626C206.906 146.812 206.498 146.944 206.112 147.022C205.731 147.105 205.27 147.146 204.728 147.146ZM204.398 139.844C203.754 139.844 203.239 140.054 202.853 140.474C202.472 140.894 202.248 141.475 202.179 142.217H206.376C206.376 141.451 206.205 140.865 205.863 140.459C205.521 140.049 205.033 139.844 204.398 139.844ZM211.476 147H210.26V135.604H211.476V147ZM215.77 147H214.554V138.973H215.77V147ZM214.451 136.797C214.451 136.519 214.52 136.316 214.656 136.189C214.793 136.058 214.964 135.992 215.169 135.992C215.364 135.992 215.533 136.058 215.674 136.189C215.816 136.321 215.887 136.524 215.887 136.797C215.887 137.071 215.816 137.276 215.674 137.413C215.533 137.544 215.364 137.61 215.169 137.61C214.964 137.61 214.793 137.544 214.656 137.413C214.52 137.276 214.451 137.071 214.451 136.797ZM221.44 146.143C221.655 146.143 221.863 146.128 222.063 146.099C222.263 146.065 222.422 146.031 222.539 145.997V146.927C222.407 146.99 222.212 147.042 221.953 147.081C221.699 147.125 221.47 147.146 221.265 147.146C219.712 147.146 218.936 146.329 218.936 144.693V139.917H217.786V139.332L218.936 138.826L219.448 137.112H220.151V138.973H222.48V139.917H220.151V144.642C220.151 145.125 220.266 145.496 220.496 145.755C220.725 146.014 221.04 146.143 221.44 146.143ZM232.782 147.146C232.26 147.146 231.781 147.051 231.347 146.861C230.917 146.666 230.556 146.368 230.263 145.967H230.175C230.233 146.436 230.263 146.88 230.263 147.3V150.604H229.047V138.973H230.036L230.204 140.071H230.263C230.575 139.632 230.939 139.314 231.354 139.119C231.769 138.924 232.245 138.826 232.782 138.826C233.847 138.826 234.667 139.19 235.243 139.917C235.824 140.645 236.115 141.666 236.115 142.979C236.115 144.297 235.819 145.323 235.229 146.055C234.643 146.783 233.827 147.146 232.782 147.146ZM232.606 139.859C231.786 139.859 231.193 140.086 230.827 140.54C230.46 140.994 230.272 141.717 230.263 142.708V142.979C230.263 144.107 230.451 144.915 230.827 145.403C231.203 145.887 231.806 146.128 232.636 146.128C233.329 146.128 233.871 145.848 234.262 145.286C234.657 144.725 234.855 143.951 234.855 142.964C234.855 141.963 234.657 141.197 234.262 140.665C233.871 140.127 233.319 139.859 232.606 139.859ZM243.683 147L243.441 145.857H243.382C242.982 146.36 242.582 146.702 242.181 146.883C241.786 147.059 241.29 147.146 240.694 147.146C239.898 147.146 239.273 146.941 238.819 146.531C238.37 146.121 238.146 145.538 238.146 144.781C238.146 143.16 239.442 142.31 242.035 142.232L243.397 142.188V141.69C243.397 141.06 243.26 140.596 242.987 140.298C242.718 139.996 242.286 139.844 241.69 139.844C241.021 139.844 240.265 140.049 239.42 140.459L239.046 139.529C239.442 139.314 239.874 139.146 240.343 139.024C240.816 138.902 241.29 138.841 241.764 138.841C242.721 138.841 243.429 139.053 243.888 139.478C244.352 139.903 244.583 140.584 244.583 141.521V147H243.683ZM240.936 146.143C241.693 146.143 242.286 145.936 242.716 145.521C243.15 145.105 243.368 144.524 243.368 143.777V143.052L242.152 143.104C241.185 143.138 240.487 143.289 240.057 143.558C239.632 143.821 239.42 144.234 239.42 144.795C239.42 145.235 239.552 145.569 239.815 145.799C240.084 146.028 240.458 146.143 240.936 146.143ZM251.258 138.826C251.614 138.826 251.934 138.855 252.217 138.914L252.049 140.042C251.717 139.969 251.424 139.932 251.17 139.932C250.521 139.932 249.964 140.196 249.5 140.723C249.041 141.25 248.812 141.907 248.812 142.693V147H247.596V138.973H248.599L248.738 140.459H248.797C249.095 139.937 249.454 139.534 249.874 139.251C250.293 138.968 250.755 138.826 251.258 138.826ZM256.812 146.143C257.026 146.143 257.234 146.128 257.434 146.099C257.634 146.065 257.793 146.031 257.91 145.997V146.927C257.778 146.99 257.583 147.042 257.324 147.081C257.07 147.125 256.841 147.146 256.636 147.146C255.083 147.146 254.307 146.329 254.307 144.693V139.917H253.157V139.332L254.307 138.826L254.819 137.112H255.522V138.973H257.852V139.917H255.522V144.642C255.522 145.125 255.637 145.496 255.867 145.755C256.096 146.014 256.411 146.143 256.812 146.143ZM261.164 138.973V144.18C261.164 144.834 261.313 145.323 261.611 145.645C261.909 145.967 262.375 146.128 263.01 146.128C263.85 146.128 264.462 145.899 264.848 145.44C265.239 144.981 265.434 144.231 265.434 143.191V138.973H266.65V147H265.646L265.471 145.923H265.405C265.156 146.319 264.809 146.622 264.365 146.832C263.925 147.042 263.422 147.146 262.856 147.146C261.879 147.146 261.147 146.915 260.659 146.451C260.175 145.987 259.934 145.245 259.934 144.224V138.973H261.164ZM273.397 138.826C273.754 138.826 274.074 138.855 274.357 138.914L274.188 140.042C273.856 139.969 273.563 139.932 273.31 139.932C272.66 139.932 272.104 140.196 271.64 140.723C271.181 141.25 270.951 141.907 270.951 142.693V147H269.735V138.973H270.739L270.878 140.459H270.937C271.234 139.937 271.593 139.534 272.013 139.251C272.433 138.968 272.895 138.826 273.397 138.826ZM277.574 147H276.358V138.973H277.574V147ZM276.256 136.797C276.256 136.519 276.324 136.316 276.461 136.189C276.598 136.058 276.769 135.992 276.974 135.992C277.169 135.992 277.337 136.058 277.479 136.189C277.621 136.321 277.691 136.524 277.691 136.797C277.691 137.071 277.621 137.276 277.479 137.413C277.337 137.544 277.169 137.61 276.974 137.61C276.769 137.61 276.598 137.544 276.461 137.413C276.324 137.276 276.256 137.071 276.256 136.797ZM284.043 147.146C282.857 147.146 281.919 146.785 281.231 146.062C280.547 145.34 280.206 144.336 280.206 143.052C280.206 141.758 280.523 140.73 281.158 139.969C281.797 139.207 282.654 138.826 283.729 138.826C284.734 138.826 285.53 139.158 286.116 139.822C286.702 140.481 286.995 141.353 286.995 142.437V143.206H281.465C281.49 144.148 281.727 144.864 282.176 145.352C282.63 145.84 283.267 146.084 284.087 146.084C284.952 146.084 285.806 145.904 286.651 145.542V146.626C286.221 146.812 285.813 146.944 285.428 147.022C285.047 147.105 284.585 147.146 284.043 147.146ZM283.714 139.844C283.069 139.844 282.554 140.054 282.168 140.474C281.788 140.894 281.563 141.475 281.495 142.217H285.691C285.691 141.451 285.521 140.865 285.179 140.459C284.837 140.049 284.349 139.844 283.714 139.844ZM295.068 147V141.807C295.068 141.153 294.919 140.665 294.622 140.342C294.324 140.02 293.857 139.859 293.223 139.859C292.383 139.859 291.768 140.086 291.377 140.54C290.986 140.994 290.791 141.744 290.791 142.789V147H289.575V138.973H290.564L290.762 140.071H290.82C291.069 139.676 291.418 139.371 291.868 139.156C292.317 138.936 292.817 138.826 293.369 138.826C294.336 138.826 295.063 139.061 295.552 139.529C296.04 139.993 296.284 140.738 296.284 141.763V147H295.068ZM301.882 146.143C302.097 146.143 302.304 146.128 302.504 146.099C302.705 146.065 302.863 146.031 302.98 145.997V146.927C302.849 146.99 302.653 147.042 302.395 147.081C302.141 147.125 301.911 147.146 301.706 147.146C300.153 147.146 299.377 146.329 299.377 144.693V139.917H298.227V139.332L299.377 138.826L299.89 137.112H300.593V138.973H302.922V139.917H300.593V144.642C300.593 145.125 300.708 145.496 300.937 145.755C301.167 146.014 301.481 146.143 301.882 146.143ZM6.46729 170.81C6.46729 171.557 6.18896 172.133 5.63232 172.539C5.07568 172.944 4.29443 173.146 3.28857 173.146C2.22412 173.146 1.39404 172.978 0.79834 172.641V171.513C1.18408 171.708 1.59668 171.862 2.03613 171.975C2.48047 172.087 2.90771 172.143 3.31787 172.143C3.95264 172.143 4.44092 172.043 4.78271 171.843C5.12451 171.638 5.29541 171.328 5.29541 170.913C5.29541 170.6 5.15869 170.334 4.88525 170.114C4.6167 169.89 4.08936 169.626 3.30322 169.323C2.55615 169.045 2.02393 168.803 1.70654 168.598C1.39404 168.388 1.15967 168.151 1.00342 167.888C0.852051 167.624 0.776367 167.309 0.776367 166.943C0.776367 166.289 1.04248 165.773 1.57471 165.397C2.10693 165.017 2.83691 164.826 3.76465 164.826C4.62891 164.826 5.47363 165.002 6.29883 165.354L5.8667 166.342C5.06104 166.01 4.33105 165.844 3.67676 165.844C3.10059 165.844 2.66602 165.935 2.37305 166.115C2.08008 166.296 1.93359 166.545 1.93359 166.862C1.93359 167.077 1.9873 167.26 2.09473 167.412C2.20703 167.563 2.38525 167.707 2.62939 167.844C2.87354 167.98 3.34229 168.178 4.03564 168.437C4.98779 168.784 5.62988 169.133 5.96191 169.484C6.29883 169.836 6.46729 170.278 6.46729 170.81ZM10.0947 164.973V170.18C10.0947 170.834 10.2437 171.323 10.5415 171.645C10.8394 171.967 11.3057 172.128 11.9404 172.128C12.7803 172.128 13.3931 171.899 13.7788 171.44C14.1694 170.981 14.3647 170.231 14.3647 169.191V164.973H15.5806V173H14.5771L14.4014 171.923H14.3354C14.0864 172.319 13.7397 172.622 13.2954 172.832C12.856 173.042 12.353 173.146 11.7866 173.146C10.8101 173.146 10.0776 172.915 9.58936 172.451C9.10596 171.987 8.86426 171.245 8.86426 170.224V164.973H10.0947ZM23.8442 170.81C23.8442 171.557 23.5659 172.133 23.0093 172.539C22.4526 172.944 21.6714 173.146 20.6655 173.146C19.6011 173.146 18.771 172.978 18.1753 172.641V171.513C18.561 171.708 18.9736 171.862 19.4131 171.975C19.8574 172.087 20.2847 172.143 20.6948 172.143C21.3296 172.143 21.8179 172.043 22.1597 171.843C22.5015 171.638 22.6724 171.328 22.6724 170.913C22.6724 170.6 22.5356 170.334 22.2622 170.114C21.9937 169.89 21.4663 169.626 20.6802 169.323C19.9331 169.045 19.4009 168.803 19.0835 168.598C18.771 168.388 18.5366 168.151 18.3804 167.888C18.229 167.624 18.1533 167.309 18.1533 166.943C18.1533 166.289 18.4194 165.773 18.9517 165.397C19.4839 165.017 20.2139 164.826 21.1416 164.826C22.0059 164.826 22.8506 165.002 23.6758 165.354L23.2437 166.342C22.438 166.01 21.708 165.844 21.0537 165.844C20.4775 165.844 20.043 165.935 19.75 166.115C19.457 166.296 19.3105 166.545 19.3105 166.862C19.3105 167.077 19.3643 167.26 19.4717 167.412C19.584 167.563 19.7622 167.707 20.0063 167.844C20.2505 167.98 20.7192 168.178 21.4126 168.437C22.3647 168.784 23.0068 169.133 23.3389 169.484C23.6758 169.836 23.8442 170.278 23.8442 170.81ZM30.0645 173.146C29.542 173.146 29.0635 173.051 28.6289 172.861C28.1992 172.666 27.8379 172.368 27.5449 171.967H27.457C27.5156 172.436 27.5449 172.88 27.5449 173.3V176.604H26.3291V164.973H27.3179L27.4863 166.071H27.5449C27.8574 165.632 28.2212 165.314 28.6362 165.119C29.0513 164.924 29.5273 164.826 30.0645 164.826C31.1289 164.826 31.9492 165.19 32.5254 165.917C33.1064 166.645 33.397 167.666 33.397 168.979C33.397 170.297 33.1016 171.323 32.5107 172.055C31.9248 172.783 31.1094 173.146 30.0645 173.146ZM29.8887 165.859C29.0684 165.859 28.4751 166.086 28.1089 166.54C27.7427 166.994 27.5547 167.717 27.5449 168.708V168.979C27.5449 170.107 27.7329 170.915 28.1089 171.403C28.4849 171.887 29.0879 172.128 29.918 172.128C30.6113 172.128 31.1533 171.848 31.5439 171.286C31.9395 170.725 32.1372 169.951 32.1372 168.964C32.1372 167.963 31.9395 167.197 31.5439 166.665C31.1533 166.127 30.6016 165.859 29.8887 165.859ZM39.4194 173.146C38.2329 173.146 37.2954 172.785 36.6069 172.062C35.9233 171.34 35.5815 170.336 35.5815 169.052C35.5815 167.758 35.8989 166.73 36.5337 165.969C37.1733 165.207 38.0303 164.826 39.1045 164.826C40.1104 164.826 40.9062 165.158 41.4922 165.822C42.0781 166.481 42.3711 167.353 42.3711 168.437V169.206H36.8413C36.8657 170.148 37.1025 170.864 37.5518 171.352C38.0059 171.84 38.6431 172.084 39.4634 172.084C40.3276 172.084 41.1821 171.904 42.0269 171.542V172.626C41.5972 172.812 41.1895 172.944 40.8037 173.022C40.4229 173.105 39.9614 173.146 39.4194 173.146ZM39.0898 165.844C38.4453 165.844 37.9302 166.054 37.5444 166.474C37.1636 166.894 36.939 167.475 36.8706 168.217H41.0674C41.0674 167.451 40.8965 166.865 40.5547 166.459C40.2129 166.049 39.7246 165.844 39.0898 165.844ZM50.4443 173V167.807C50.4443 167.153 50.2954 166.665 49.9976 166.342C49.6997 166.02 49.2334 165.859 48.5986 165.859C47.7588 165.859 47.1436 166.086 46.7529 166.54C46.3623 166.994 46.167 167.744 46.167 168.789V173H44.9512V164.973H45.9399L46.1377 166.071H46.1963C46.4453 165.676 46.7944 165.371 47.2437 165.156C47.6929 164.936 48.1934 164.826 48.7451 164.826C49.7119 164.826 50.4395 165.061 50.9277 165.529C51.416 165.993 51.6602 166.738 51.6602 167.763V173H50.4443ZM60.1289 171.923H60.063C59.5015 172.739 58.6616 173.146 57.5435 173.146C56.4937 173.146 55.6758 172.788 55.0898 172.07C54.5088 171.352 54.2183 170.332 54.2183 169.008C54.2183 167.685 54.5112 166.657 55.0972 165.925C55.6831 165.192 56.4985 164.826 57.5435 164.826C58.6323 164.826 59.4673 165.222 60.0483 166.013H60.1436L60.0923 165.434L60.063 164.87V161.604H61.2788V173H60.29L60.1289 171.923ZM57.6973 172.128C58.5273 172.128 59.1279 171.904 59.499 171.455C59.875 171 60.063 170.271 60.063 169.265V169.008C60.063 167.871 59.8726 167.06 59.4917 166.577C59.1157 166.088 58.5127 165.844 57.6826 165.844C56.9697 165.844 56.4229 166.123 56.042 166.679C55.666 167.231 55.478 168.012 55.478 169.023C55.478 170.048 55.666 170.822 56.042 171.345C56.418 171.867 56.9697 172.128 57.6973 172.128ZM65.5801 173H64.3643V164.973H65.5801V173ZM64.2617 162.797C64.2617 162.519 64.3301 162.316 64.4668 162.189C64.6035 162.058 64.7744 161.992 64.9795 161.992C65.1748 161.992 65.3433 162.058 65.4849 162.189C65.6265 162.321 65.6973 162.524 65.6973 162.797C65.6973 163.071 65.6265 163.276 65.4849 163.413C65.3433 163.544 65.1748 163.61 64.9795 163.61C64.7744 163.61 64.6035 163.544 64.4668 163.413C64.3301 163.276 64.2617 163.071 64.2617 162.797ZM73.8364 170.81C73.8364 171.557 73.5581 172.133 73.0015 172.539C72.4448 172.944 71.6636 173.146 70.6577 173.146C69.5933 173.146 68.7632 172.978 68.1675 172.641V171.513C68.5532 171.708 68.9658 171.862 69.4053 171.975C69.8496 172.087 70.2769 172.143 70.687 172.143C71.3218 172.143 71.8101 172.043 72.1519 171.843C72.4937 171.638 72.6646 171.328 72.6646 170.913C72.6646 170.6 72.5278 170.334 72.2544 170.114C71.9858 169.89 71.4585 169.626 70.6724 169.323C69.9253 169.045 69.3931 168.803 69.0757 168.598C68.7632 168.388 68.5288 168.151 68.3726 167.888C68.2212 167.624 68.1455 167.309 68.1455 166.943C68.1455 166.289 68.4116 165.773 68.9438 165.397C69.4761 165.017 70.2061 164.826 71.1338 164.826C71.998 164.826 72.8428 165.002 73.668 165.354L73.2358 166.342C72.4302 166.01 71.7002 165.844 71.0459 165.844C70.4697 165.844 70.0352 165.935 69.7422 166.115C69.4492 166.296 69.3027 166.545 69.3027 166.862C69.3027 167.077 69.3564 167.26 69.4639 167.412C69.5762 167.563 69.7544 167.707 69.9985 167.844C70.2427 167.98 70.7114 168.178 71.4048 168.437C72.3569 168.784 72.999 169.133 73.3311 169.484C73.668 169.836 73.8364 170.278 73.8364 170.81ZM81.4995 170.81C81.4995 171.557 81.2212 172.133 80.6646 172.539C80.1079 172.944 79.3267 173.146 78.3208 173.146C77.2563 173.146 76.4263 172.978 75.8306 172.641V171.513C76.2163 171.708 76.6289 171.862 77.0684 171.975C77.5127 172.087 77.9399 172.143 78.3501 172.143C78.9849 172.143 79.4731 172.043 79.8149 171.843C80.1567 171.638 80.3276 171.328 80.3276 170.913C80.3276 170.6 80.1909 170.334 79.9175 170.114C79.6489 169.89 79.1216 169.626 78.3354 169.323C77.5884 169.045 77.0562 168.803 76.7388 168.598C76.4263 168.388 76.1919 168.151 76.0356 167.888C75.8843 167.624 75.8086 167.309 75.8086 166.943C75.8086 166.289 76.0747 165.773 76.6069 165.397C77.1392 165.017 77.8691 164.826 78.7969 164.826C79.6611 164.826 80.5059 165.002 81.3311 165.354L80.8989 166.342C80.0933 166.01 79.3633 165.844 78.709 165.844C78.1328 165.844 77.6982 165.935 77.4053 166.115C77.1123 166.296 76.9658 166.545 76.9658 166.862C76.9658 167.077 77.0195 167.26 77.127 167.412C77.2393 167.563 77.4175 167.707 77.6616 167.844C77.9058 167.98 78.3745 168.178 79.0679 168.437C80.02 168.784 80.6621 169.133 80.9941 169.484C81.3311 169.836 81.4995 170.278 81.4995 170.81ZM87.3755 173.146C86.189 173.146 85.2515 172.785 84.563 172.062C83.8794 171.34 83.5376 170.336 83.5376 169.052C83.5376 167.758 83.855 166.73 84.4897 165.969C85.1294 165.207 85.9863 164.826 87.0605 164.826C88.0664 164.826 88.8623 165.158 89.4482 165.822C90.0342 166.481 90.3271 167.353 90.3271 168.437V169.206H84.7974C84.8218 170.148 85.0586 170.864 85.5078 171.352C85.9619 171.84 86.5991 172.084 87.4194 172.084C88.2837 172.084 89.1382 171.904 89.9829 171.542V172.626C89.5532 172.812 89.1455 172.944 88.7598 173.022C88.3789 173.105 87.9175 173.146 87.3755 173.146ZM87.0459 165.844C86.4014 165.844 85.8862 166.054 85.5005 166.474C85.1196 166.894 84.895 167.475 84.8267 168.217H89.0234C89.0234 167.451 88.8525 166.865 88.5107 166.459C88.1689 166.049 87.6807 165.844 87.0459 165.844ZM102.24 173L101.999 171.857H101.94C101.54 172.36 101.139 172.702 100.739 172.883C100.343 173.059 99.8477 173.146 99.252 173.146C98.4561 173.146 97.8311 172.941 97.377 172.531C96.9277 172.121 96.7031 171.538 96.7031 170.781C96.7031 169.16 97.9995 168.31 100.592 168.232L101.955 168.188V167.69C101.955 167.06 101.818 166.596 101.544 166.298C101.276 165.996 100.844 165.844 100.248 165.844C99.5791 165.844 98.8223 166.049 97.9775 166.459L97.604 165.529C97.9995 165.314 98.4316 165.146 98.9004 165.024C99.374 164.902 99.8477 164.841 100.321 164.841C101.278 164.841 101.986 165.053 102.445 165.478C102.909 165.903 103.141 166.584 103.141 167.521V173H102.24ZM99.4937 172.143C100.25 172.143 100.844 171.936 101.273 171.521C101.708 171.105 101.925 170.524 101.925 169.777V169.052L100.709 169.104C99.7427 169.138 99.0444 169.289 98.6147 169.558C98.1899 169.821 97.9775 170.234 97.9775 170.795C97.9775 171.235 98.1094 171.569 98.373 171.799C98.6416 172.028 99.0151 172.143 99.4937 172.143ZM115.486 173L115.245 171.857H115.186C114.786 172.36 114.385 172.702 113.985 172.883C113.589 173.059 113.094 173.146 112.498 173.146C111.702 173.146 111.077 172.941 110.623 172.531C110.174 172.121 109.949 171.538 109.949 170.781C109.949 169.16 111.246 168.31 113.838 168.232L115.201 168.188V167.69C115.201 167.06 115.064 166.596 114.791 166.298C114.522 165.996 114.09 165.844 113.494 165.844C112.825 165.844 112.068 166.049 111.224 166.459L110.85 165.529C111.246 165.314 111.678 165.146 112.146 165.024C112.62 164.902 113.094 164.841 113.567 164.841C114.524 164.841 115.232 165.053 115.691 165.478C116.155 165.903 116.387 166.584 116.387 167.521V173H115.486ZM112.74 172.143C113.497 172.143 114.09 171.936 114.52 171.521C114.954 171.105 115.171 170.524 115.171 169.777V169.052L113.956 169.104C112.989 169.138 112.291 169.289 111.861 169.558C111.436 169.821 111.224 170.234 111.224 170.795C111.224 171.235 111.355 171.569 111.619 171.799C111.888 172.028 112.261 172.143 112.74 172.143ZM124.863 171.923H124.797C124.236 172.739 123.396 173.146 122.278 173.146C121.228 173.146 120.41 172.788 119.824 172.07C119.243 171.352 118.953 170.332 118.953 169.008C118.953 167.685 119.246 166.657 119.832 165.925C120.417 165.192 121.233 164.826 122.278 164.826C123.367 164.826 124.202 165.222 124.783 166.013H124.878L124.827 165.434L124.797 164.87V161.604H126.013V173H125.024L124.863 171.923ZM122.432 172.128C123.262 172.128 123.862 171.904 124.233 171.455C124.609 171 124.797 170.271 124.797 169.265V169.008C124.797 167.871 124.607 167.06 124.226 166.577C123.85 166.088 123.247 165.844 122.417 165.844C121.704 165.844 121.157 166.123 120.776 166.679C120.4 167.231 120.212 168.012 120.212 169.023C120.212 170.048 120.4 170.822 120.776 171.345C121.152 171.867 121.704 172.128 122.432 172.128ZM134.711 173H133.495V161.604H134.711V173ZM142.726 173L142.484 171.857H142.425C142.025 172.36 141.625 172.702 141.224 172.883C140.829 173.059 140.333 173.146 139.737 173.146C138.941 173.146 138.316 172.941 137.862 172.531C137.413 172.121 137.188 171.538 137.188 170.781C137.188 169.16 138.485 168.31 141.078 168.232L142.44 168.188V167.69C142.44 167.06 142.303 166.596 142.03 166.298C141.761 165.996 141.329 165.844 140.733 165.844C140.064 165.844 139.308 166.049 138.463 166.459L138.089 165.529C138.485 165.314 138.917 165.146 139.386 165.024C139.859 164.902 140.333 164.841 140.807 164.841C141.764 164.841 142.472 165.053 142.931 165.478C143.395 165.903 143.626 166.584 143.626 167.521V173H142.726ZM139.979 172.143C140.736 172.143 141.329 171.936 141.759 171.521C142.193 171.105 142.411 170.524 142.411 169.777V169.052L141.195 169.104C140.228 169.138 139.53 169.289 139.1 169.558C138.675 169.821 138.463 170.234 138.463 170.795C138.463 171.235 138.595 171.569 138.858 171.799C139.127 172.028 139.5 172.143 139.979 172.143ZM149.847 173.146C148.685 173.146 147.784 172.79 147.144 172.077C146.509 171.359 146.192 170.346 146.192 169.038C146.192 167.695 146.514 166.657 147.159 165.925C147.808 165.192 148.731 164.826 149.927 164.826C150.313 164.826 150.699 164.868 151.084 164.951C151.47 165.034 151.773 165.131 151.993 165.244L151.619 166.276C151.351 166.169 151.058 166.081 150.74 166.013C150.423 165.939 150.142 165.903 149.898 165.903C148.267 165.903 147.452 166.943 147.452 169.023C147.452 170.009 147.649 170.766 148.045 171.293C148.445 171.821 149.036 172.084 149.817 172.084C150.486 172.084 151.172 171.94 151.875 171.652V172.729C151.338 173.007 150.662 173.146 149.847 173.146ZM155.43 164.973V170.18C155.43 170.834 155.579 171.323 155.876 171.645C156.174 171.967 156.641 172.128 157.275 172.128C158.115 172.128 158.728 171.899 159.114 171.44C159.504 170.981 159.7 170.231 159.7 169.191V164.973H160.916V173H159.912L159.736 171.923H159.67C159.421 172.319 159.075 172.622 158.63 172.832C158.191 173.042 157.688 173.146 157.122 173.146C156.145 173.146 155.413 172.915 154.924 172.451C154.441 171.987 154.199 171.245 154.199 170.224V164.973H155.43ZM169.179 170.81C169.179 171.557 168.901 172.133 168.344 172.539C167.788 172.944 167.006 173.146 166 173.146C164.936 173.146 164.106 172.978 163.51 172.641V171.513C163.896 171.708 164.309 171.862 164.748 171.975C165.192 172.087 165.62 172.143 166.03 172.143C166.665 172.143 167.153 172.043 167.495 171.843C167.836 171.638 168.007 171.328 168.007 170.913C168.007 170.6 167.871 170.334 167.597 170.114C167.329 169.89 166.801 169.626 166.015 169.323C165.268 169.045 164.736 168.803 164.418 168.598C164.106 168.388 163.872 168.151 163.715 167.888C163.564 167.624 163.488 167.309 163.488 166.943C163.488 166.289 163.754 165.773 164.287 165.397C164.819 165.017 165.549 164.826 166.477 164.826C167.341 164.826 168.186 165.002 169.011 165.354L168.579 166.342C167.773 166.01 167.043 165.844 166.389 165.844C165.812 165.844 165.378 165.935 165.085 166.115C164.792 166.296 164.646 166.545 164.646 166.862C164.646 167.077 164.699 167.26 164.807 167.412C164.919 167.563 165.097 167.707 165.341 167.844C165.585 167.98 166.054 168.178 166.748 168.437C167.7 168.784 168.342 169.133 168.674 169.484C169.011 169.836 169.179 170.278 169.179 170.81ZM186.292 173V167.778C186.292 167.138 186.156 166.66 185.882 166.342C185.609 166.02 185.184 165.859 184.608 165.859C183.851 165.859 183.292 166.076 182.931 166.511C182.569 166.945 182.389 167.614 182.389 168.518V173H181.173V167.778C181.173 167.138 181.036 166.66 180.763 166.342C180.489 166.02 180.062 165.859 179.481 165.859C178.719 165.859 178.16 166.088 177.804 166.547C177.452 167.001 177.276 167.749 177.276 168.789V173H176.061V164.973H177.049L177.247 166.071H177.306C177.535 165.681 177.857 165.375 178.272 165.156C178.692 164.936 179.161 164.826 179.679 164.826C180.934 164.826 181.754 165.28 182.14 166.188H182.198C182.438 165.769 182.784 165.437 183.238 165.192C183.692 164.948 184.21 164.826 184.791 164.826C185.699 164.826 186.378 165.061 186.827 165.529C187.281 165.993 187.508 166.738 187.508 167.763V173H186.292ZM195.457 173L195.215 171.857H195.157C194.756 172.36 194.356 172.702 193.956 172.883C193.56 173.059 193.064 173.146 192.469 173.146C191.673 173.146 191.048 172.941 190.594 172.531C190.145 172.121 189.92 171.538 189.92 170.781C189.92 169.16 191.216 168.31 193.809 168.232L195.171 168.188V167.69C195.171 167.06 195.035 166.596 194.761 166.298C194.493 165.996 194.061 165.844 193.465 165.844C192.796 165.844 192.039 166.049 191.194 166.459L190.821 165.529C191.216 165.314 191.648 165.146 192.117 165.024C192.591 164.902 193.064 164.841 193.538 164.841C194.495 164.841 195.203 165.053 195.662 165.478C196.126 165.903 196.358 166.584 196.358 167.521V173H195.457ZM192.71 172.143C193.467 172.143 194.061 171.936 194.49 171.521C194.925 171.105 195.142 170.524 195.142 169.777V169.052L193.926 169.104C192.959 169.138 192.261 169.289 191.832 169.558C191.407 169.821 191.194 170.234 191.194 170.795C191.194 171.235 191.326 171.569 191.59 171.799C191.858 172.028 192.232 172.143 192.71 172.143ZM200.513 164.973V170.18C200.513 170.834 200.662 171.323 200.959 171.645C201.257 171.967 201.724 172.128 202.358 172.128C203.198 172.128 203.811 171.899 204.197 171.44C204.587 170.981 204.783 170.231 204.783 169.191V164.973H205.999V173H204.995L204.819 171.923H204.753C204.504 172.319 204.158 172.622 203.713 172.832C203.274 173.042 202.771 173.146 202.205 173.146C201.228 173.146 200.496 172.915 200.007 172.451C199.524 171.987 199.282 171.245 199.282 170.224V164.973H200.513ZM212.746 164.826C213.103 164.826 213.422 164.855 213.706 164.914L213.537 166.042C213.205 165.969 212.912 165.932 212.658 165.932C212.009 165.932 211.452 166.196 210.988 166.723C210.529 167.25 210.3 167.907 210.3 168.693V173H209.084V164.973H210.087L210.227 166.459H210.285C210.583 165.937 210.942 165.534 211.362 165.251C211.782 164.968 212.243 164.826 212.746 164.826ZM216.923 173H215.707V164.973H216.923V173ZM215.604 162.797C215.604 162.519 215.673 162.316 215.81 162.189C215.946 162.058 216.117 161.992 216.322 161.992C216.518 161.992 216.686 162.058 216.828 162.189C216.969 162.321 217.04 162.524 217.04 162.797C217.04 163.071 216.969 163.276 216.828 163.413C216.686 163.544 216.518 163.61 216.322 163.61C216.117 163.61 215.946 163.544 215.81 163.413C215.673 163.276 215.604 163.071 215.604 162.797ZM225.179 170.81C225.179 171.557 224.901 172.133 224.344 172.539C223.788 172.944 223.006 173.146 222 173.146C220.936 173.146 220.106 172.978 219.51 172.641V171.513C219.896 171.708 220.309 171.862 220.748 171.975C221.192 172.087 221.62 172.143 222.03 172.143C222.665 172.143 223.153 172.043 223.495 171.843C223.836 171.638 224.007 171.328 224.007 170.913C224.007 170.6 223.871 170.334 223.597 170.114C223.329 169.89 222.801 169.626 222.015 169.323C221.268 169.045 220.736 168.803 220.418 168.598C220.106 168.388 219.872 168.151 219.715 167.888C219.564 167.624 219.488 167.309 219.488 166.943C219.488 166.289 219.754 165.773 220.287 165.397C220.819 165.017 221.549 164.826 222.477 164.826C223.341 164.826 224.186 165.002 225.011 165.354L224.579 166.342C223.773 166.01 223.043 165.844 222.389 165.844C221.812 165.844 221.378 165.935 221.085 166.115C220.792 166.296 220.646 166.545 220.646 166.862C220.646 167.077 220.699 167.26 220.807 167.412C220.919 167.563 221.097 167.707 221.341 167.844C221.585 167.98 222.054 168.178 222.748 168.437C223.7 168.784 224.342 169.133 224.674 169.484C225.011 169.836 225.179 170.278 225.179 170.81Z" fill="#5D5F65"/>
<path d="M8.36 81.12C6.97333 81.12 5.72 80.8133 4.6 80.2C3.49333 79.5867 2.62 78.74 1.98 77.66C1.35333 76.5667 1.04 75.3467 1.04 74C1.04 72.6533 1.35333 71.44 1.98 70.36C2.62 69.2667 3.5 68.4133 4.62 67.8C5.74 67.1867 6.99333 66.88 8.38 66.88C9.42 66.88 10.38 67.0533 11.26 67.4C12.14 67.7467 12.8867 68.2533 13.5 68.92L12.56 69.86C11.4667 68.7533 10.0867 68.2 8.42 68.2C7.31333 68.2 6.30667 68.4533 5.4 68.96C4.49333 69.4667 3.78 70.16 3.26 71.04C2.75333 71.92 2.5 72.9067 2.5 74C2.5 75.0933 2.75333 76.08 3.26 76.96C3.78 77.84 4.49333 78.5333 5.4 79.04C6.30667 79.5467 7.31333 79.8 8.42 79.8C10.1 79.8 11.48 79.24 12.56 78.12L13.5 79.06C12.8867 79.7267 12.1333 80.24 11.24 80.6C10.36 80.9467 9.4 81.12 8.36 81.12ZM20.1863 81.1C19.1729 81.1 18.2596 80.8733 17.4463 80.42C16.6329 79.9533 15.9929 79.3133 15.5263 78.5C15.0596 77.6867 14.8263 76.7667 14.8263 75.74C14.8263 74.7133 15.0596 73.7933 15.5263 72.98C15.9929 72.1667 16.6329 71.5333 17.4463 71.08C18.2596 70.6267 19.1729 70.4 20.1863 70.4C21.1996 70.4 22.1129 70.6267 22.9263 71.08C23.7396 71.5333 24.3729 72.1667 24.8263 72.98C25.2929 73.7933 25.5263 74.7133 25.5263 75.74C25.5263 76.7667 25.2929 77.6867 24.8263 78.5C24.3729 79.3133 23.7396 79.9533 22.9263 80.42C22.1129 80.8733 21.1996 81.1 20.1863 81.1ZM20.1863 79.84C20.9329 79.84 21.5996 79.6733 22.1863 79.34C22.7863 78.9933 23.2529 78.5067 23.5863 77.88C23.9196 77.2533 24.0863 76.54 24.0863 75.74C24.0863 74.94 23.9196 74.2267 23.5863 73.6C23.2529 72.9733 22.7863 72.4933 22.1863 72.16C21.5996 71.8133 20.9329 71.64 20.1863 71.64C19.4396 71.64 18.7663 71.8133 18.1663 72.16C17.5796 72.4933 17.1129 72.9733 16.7663 73.6C16.4329 74.2267 16.2663 74.94 16.2663 75.74C16.2663 76.54 16.4329 77.2533 16.7663 77.88C17.1129 78.5067 17.5796 78.9933 18.1663 79.34C18.7663 79.6733 19.4396 79.84 20.1863 79.84ZM33.7853 70.4C35.1053 70.4 36.152 70.7867 36.9253 71.56C37.712 72.32 38.1053 73.4333 38.1053 74.9V81H36.6853V75.04C36.6853 73.9467 36.412 73.1133 35.8653 72.54C35.3186 71.9667 34.5386 71.68 33.5253 71.68C32.392 71.68 31.492 72.02 30.8253 72.7C30.172 73.3667 29.8453 74.2933 29.8453 75.48V81H28.4253V70.48H29.7853V72.42C30.172 71.78 30.7053 71.2867 31.3853 70.94C32.0786 70.58 32.8786 70.4 33.7853 70.4ZM44.7805 81.1C43.9271 81.1 43.1071 80.98 42.3205 80.74C41.5471 80.4867 40.9405 80.1733 40.5005 79.8L41.1405 78.68C41.5805 79.0267 42.1338 79.3133 42.8005 79.54C43.4671 79.7533 44.1605 79.86 44.8805 79.86C45.8405 79.86 46.5471 79.7133 47.0005 79.42C47.4671 79.1133 47.7005 78.6867 47.7005 78.14C47.7005 77.7533 47.5738 77.4533 47.3205 77.24C47.0671 77.0133 46.7471 76.8467 46.3605 76.74C45.9738 76.62 45.4605 76.5067 44.8205 76.4C43.9671 76.24 43.2805 76.08 42.7605 75.92C42.2405 75.7467 41.7938 75.46 41.4205 75.06C41.0605 74.66 40.8805 74.1067 40.8805 73.4C40.8805 72.52 41.2471 71.8 41.9805 71.24C42.7138 70.68 43.7338 70.4 45.0405 70.4C45.7205 70.4 46.4005 70.4933 47.0805 70.68C47.7605 70.8533 48.3205 71.0867 48.7605 71.38L48.1405 72.52C47.2738 71.92 46.2405 71.62 45.0405 71.62C44.1338 71.62 43.4471 71.78 42.9805 72.1C42.5271 72.42 42.3005 72.84 42.3005 73.36C42.3005 73.76 42.4271 74.08 42.6805 74.32C42.9471 74.56 43.2738 74.74 43.6605 74.86C44.0471 74.9667 44.5805 75.08 45.2605 75.2C46.1005 75.36 46.7738 75.52 47.2805 75.68C47.7871 75.84 48.2205 76.1133 48.5805 76.5C48.9405 76.8867 49.1205 77.42 49.1205 78.1C49.1205 79.02 48.7338 79.7533 47.9605 80.3C47.2005 80.8333 46.1405 81.1 44.7805 81.1ZM60.9056 76.18H52.1056C52.1856 77.2733 52.6056 78.16 53.3656 78.84C54.1256 79.5067 55.0856 79.84 56.2456 79.84C56.899 79.84 57.499 79.7267 58.0456 79.5C58.5923 79.26 59.0656 78.9133 59.4656 78.46L60.2656 79.38C59.799 79.94 59.2123 80.3667 58.5056 80.66C57.8123 80.9533 57.0456 81.1 56.2056 81.1C55.1256 81.1 54.1656 80.8733 53.3256 80.42C52.499 79.9533 51.8523 79.3133 51.3856 78.5C50.919 77.6867 50.6856 76.7667 50.6856 75.74C50.6856 74.7133 50.9056 73.7933 51.3456 72.98C51.799 72.1667 52.4123 71.5333 53.1856 71.08C53.9723 70.6267 54.8523 70.4 55.8256 70.4C56.799 70.4 57.6723 70.6267 58.4456 71.08C59.219 71.5333 59.8256 72.1667 60.2656 72.98C60.7056 73.78 60.9256 74.7 60.9256 75.74L60.9056 76.18ZM55.8256 71.62C54.8123 71.62 53.959 71.9467 53.2656 72.6C52.5856 73.24 52.199 74.08 52.1056 75.12H59.5656C59.4723 74.08 59.079 73.24 58.3856 72.6C57.7056 71.9467 56.8523 71.62 55.8256 71.62ZM68.1759 81.1C67.1359 81.1 66.2026 80.8733 65.3759 80.42C64.5626 79.9667 63.9226 79.3333 63.4559 78.52C62.9893 77.6933 62.7559 76.7667 62.7559 75.74C62.7559 74.7133 62.9893 73.7933 63.4559 72.98C63.9226 72.1667 64.5626 71.5333 65.3759 71.08C66.2026 70.6267 67.1359 70.4 68.1759 70.4C69.0826 70.4 69.8893 70.58 70.5959 70.94C71.3159 71.2867 71.8826 71.8 72.2959 72.48L71.2359 73.2C70.8893 72.68 70.4493 72.2933 69.9159 72.04C69.3826 71.7733 68.8026 71.64 68.1759 71.64C67.4159 71.64 66.7293 71.8133 66.1159 72.16C65.5159 72.4933 65.0426 72.9733 64.6959 73.6C64.3626 74.2267 64.1959 74.94 64.1959 75.74C64.1959 76.5533 64.3626 77.2733 64.6959 77.9C65.0426 78.5133 65.5159 78.9933 66.1159 79.34C66.7293 79.6733 67.4159 79.84 68.1759 79.84C68.8026 79.84 69.3826 79.7133 69.9159 79.46C70.4493 79.2067 70.8893 78.82 71.2359 78.3L72.2959 79.02C71.8826 79.7 71.3159 80.22 70.5959 80.58C69.8759 80.9267 69.0693 81.1 68.1759 81.1ZM80.7427 80.36C80.476 80.6 80.1427 80.7867 79.7427 80.92C79.356 81.04 78.9493 81.1 78.5227 81.1C77.536 81.1 76.776 80.8333 76.2427 80.3C75.7093 79.7667 75.4427 79.0133 75.4427 78.04V71.68H73.5627V70.48H75.4427V68.18H76.8627V70.48H80.0627V71.68H76.8627V77.96C76.8627 78.5867 77.016 79.0667 77.3227 79.4C77.6427 79.72 78.096 79.88 78.6827 79.88C78.976 79.88 79.256 79.8333 79.5227 79.74C79.8027 79.6467 80.0427 79.5133 80.2427 79.34L80.7427 80.36ZM92.1166 76.18H83.3166C83.3966 77.2733 83.8166 78.16 84.5766 78.84C85.3366 79.5067 86.2966 79.84 87.4566 79.84C88.1099 79.84 88.7099 79.7267 89.2566 79.5C89.8032 79.26 90.2766 78.9133 90.6766 78.46L91.4766 79.38C91.0099 79.94 90.4232 80.3667 89.7166 80.66C89.0232 80.9533 88.2566 81.1 87.4166 81.1C86.3366 81.1 85.3766 80.8733 84.5366 80.42C83.7099 79.9533 83.0632 79.3133 82.5966 78.5C82.1299 77.6867 81.8966 76.7667 81.8966 75.74C81.8966 74.7133 82.1166 73.7933 82.5566 72.98C83.0099 72.1667 83.6232 71.5333 84.3966 71.08C85.1832 70.6267 86.0632 70.4 87.0366 70.4C88.0099 70.4 88.8832 70.6267 89.6566 71.08C90.4299 71.5333 91.0366 72.1667 91.4766 72.98C91.9166 73.78 92.1366 74.7 92.1366 75.74L92.1166 76.18ZM87.0366 71.62C86.0232 71.62 85.1699 71.9467 84.4766 72.6C83.7966 73.24 83.4099 74.08 83.3166 75.12H90.7766C90.6832 74.08 90.2899 73.24 89.5966 72.6C88.9166 71.9467 88.0632 71.62 87.0366 71.62ZM100.567 80.36C100.3 80.6 99.9669 80.7867 99.5669 80.92C99.1802 81.04 98.7735 81.1 98.3469 81.1C97.3602 81.1 96.6002 80.8333 96.0669 80.3C95.5335 79.7667 95.2669 79.0133 95.2669 78.04V71.68H93.3869V70.48H95.2669V68.18H96.6869V70.48H99.8869V71.68H96.6869V77.96C96.6869 78.5867 96.8402 79.0667 97.1469 79.4C97.4669 79.72 97.9202 79.88 98.5069 79.88C98.8002 79.88 99.0802 79.8333 99.3469 79.74C99.6269 79.6467 99.8669 79.5133 100.067 79.34L100.567 80.36ZM112.632 70.48V81H111.272V79.08C110.899 79.72 110.385 80.22 109.732 80.58C109.079 80.9267 108.332 81.1 107.492 81.1C106.119 81.1 105.032 80.72 104.232 79.96C103.445 79.1867 103.052 78.06 103.052 76.58V70.48H104.472V76.44C104.472 77.5467 104.745 78.3867 105.292 78.96C105.839 79.5333 106.619 79.82 107.632 79.82C108.739 79.82 109.612 79.4867 110.252 78.82C110.892 78.14 111.212 77.2 111.212 76V70.48H112.632ZM117.969 72.54C118.302 71.8333 118.796 71.3 119.449 70.94C120.116 70.58 120.936 70.4 121.909 70.4V71.78L121.569 71.76C120.462 71.76 119.596 72.1 118.969 72.78C118.342 73.46 118.029 74.4133 118.029 75.64V81H116.609V70.48H117.969V72.54ZM138.711 70.48L134.031 81H132.571L127.911 70.48H129.391L133.331 79.44L137.311 70.48H138.711ZM149.578 76.18H140.778C140.858 77.2733 141.278 78.16 142.038 78.84C142.798 79.5067 143.758 79.84 144.918 79.84C145.571 79.84 146.171 79.7267 146.718 79.5C147.264 79.26 147.738 78.9133 148.138 78.46L148.938 79.38C148.471 79.94 147.884 80.3667 147.178 80.66C146.484 80.9533 145.718 81.1 144.878 81.1C143.798 81.1 142.838 80.8733 141.998 80.42C141.171 79.9533 140.524 79.3133 140.058 78.5C139.591 77.6867 139.358 76.7667 139.358 75.74C139.358 74.7133 139.578 73.7933 140.018 72.98C140.471 72.1667 141.084 71.5333 141.858 71.08C142.644 70.6267 143.524 70.4 144.498 70.4C145.471 70.4 146.344 70.6267 147.118 71.08C147.891 71.5333 148.498 72.1667 148.938 72.98C149.378 73.78 149.598 74.7 149.598 75.74L149.578 76.18ZM144.498 71.62C143.484 71.62 142.631 71.9467 141.938 72.6C141.258 73.24 140.871 74.08 140.778 75.12H148.238C148.144 74.08 147.751 73.24 147.058 72.6C146.378 71.9467 145.524 71.62 144.498 71.62ZM155.308 81.1C154.454 81.1 153.634 80.98 152.848 80.74C152.074 80.4867 151.468 80.1733 151.028 79.8L151.668 78.68C152.108 79.0267 152.661 79.3133 153.328 79.54C153.994 79.7533 154.688 79.86 155.408 79.86C156.368 79.86 157.074 79.7133 157.528 79.42C157.994 79.1133 158.228 78.6867 158.228 78.14C158.228 77.7533 158.101 77.4533 157.848 77.24C157.594 77.0133 157.274 76.8467 156.888 76.74C156.501 76.62 155.988 76.5067 155.348 76.4C154.494 76.24 153.808 76.08 153.288 75.92C152.768 75.7467 152.321 75.46 151.948 75.06C151.588 74.66 151.408 74.1067 151.408 73.4C151.408 72.52 151.774 71.8 152.508 71.24C153.241 70.68 154.261 70.4 155.568 70.4C156.248 70.4 156.928 70.4933 157.608 70.68C158.288 70.8533 158.848 71.0867 159.288 71.38L158.668 72.52C157.801 71.92 156.768 71.62 155.568 71.62C154.661 71.62 153.974 71.78 153.508 72.1C153.054 72.42 152.828 72.84 152.828 73.36C152.828 73.76 152.954 74.08 153.208 74.32C153.474 74.56 153.801 74.74 154.188 74.86C154.574 74.9667 155.108 75.08 155.788 75.2C156.628 75.36 157.301 75.52 157.808 75.68C158.314 75.84 158.748 76.1133 159.108 76.5C159.468 76.8867 159.648 77.42 159.648 78.1C159.648 79.02 159.261 79.7533 158.488 80.3C157.728 80.8333 156.668 81.1 155.308 81.1ZM167.813 80.36C167.546 80.6 167.213 80.7867 166.813 80.92C166.426 81.04 166.02 81.1 165.593 81.1C164.606 81.1 163.846 80.8333 163.313 80.3C162.78 79.7667 162.513 79.0133 162.513 78.04V71.68H160.633V70.48H162.513V68.18H163.933V70.48H167.133V71.68H163.933V77.96C163.933 78.5867 164.086 79.0667 164.393 79.4C164.713 79.72 165.166 79.88 165.753 79.88C166.046 79.88 166.326 79.8333 166.593 79.74C166.873 79.6467 167.113 79.5133 167.313 79.34L167.813 80.36ZM170.398 70.48H171.818V81H170.398V70.48ZM171.118 68.18C170.825 68.18 170.578 68.08 170.378 67.88C170.178 67.68 170.078 67.44 170.078 67.16C170.078 66.8933 170.178 66.66 170.378 66.46C170.578 66.26 170.825 66.16 171.118 66.16C171.411 66.16 171.658 66.26 171.858 66.46C172.058 66.6467 172.158 66.8733 172.158 67.14C172.158 67.4333 172.058 67.68 171.858 67.88C171.658 68.08 171.411 68.18 171.118 68.18ZM181.189 70.4C182.176 70.4 183.069 70.6267 183.869 71.08C184.669 71.52 185.296 72.1467 185.749 72.96C186.202 73.7733 186.429 74.7 186.429 75.74C186.429 76.78 186.202 77.7067 185.749 78.52C185.296 79.3333 184.669 79.9667 183.869 80.42C183.069 80.8733 182.176 81.1 181.189 81.1C180.309 81.1 179.516 80.9133 178.809 80.54C178.116 80.1667 177.556 79.6267 177.129 78.92V81H175.769V66.16H177.189V72.48C177.629 71.8 178.189 71.2867 178.869 70.94C179.562 70.58 180.336 70.4 181.189 70.4ZM181.089 79.84C181.822 79.84 182.489 79.6733 183.089 79.34C183.689 78.9933 184.156 78.5067 184.489 77.88C184.836 77.2533 185.009 76.54 185.009 75.74C185.009 74.94 184.836 74.2267 184.489 73.6C184.156 72.9733 183.689 72.4933 183.089 72.16C182.489 71.8133 181.822 71.64 181.089 71.64C180.342 71.64 179.669 71.8133 179.069 72.16C178.482 72.4933 178.016 72.9733 177.669 73.6C177.336 74.2267 177.169 74.94 177.169 75.74C177.169 76.54 177.336 77.2533 177.669 77.88C178.016 78.5067 178.482 78.9933 179.069 79.34C179.669 79.6733 180.342 79.84 181.089 79.84ZM198.804 70.48V81H197.444V79.08C197.07 79.72 196.557 80.22 195.904 80.58C195.25 80.9267 194.504 81.1 193.664 81.1C192.29 81.1 191.204 80.72 190.404 79.96C189.617 79.1867 189.224 78.06 189.224 76.58V70.48H190.644V76.44C190.644 77.5467 190.917 78.3867 191.464 78.96C192.01 79.5333 192.79 79.82 193.804 79.82C194.91 79.82 195.784 79.4867 196.424 78.82C197.064 78.14 197.384 77.2 197.384 76V70.48H198.804ZM202.781 66.16H204.201V81H202.781V66.16ZM217.632 70.48V81H216.272V79.08C215.899 79.72 215.385 80.22 214.732 80.58C214.079 80.9267 213.332 81.1 212.492 81.1C211.119 81.1 210.032 80.72 209.232 79.96C208.445 79.1867 208.052 78.06 208.052 76.58V70.48H209.472V76.44C209.472 77.5467 209.745 78.3867 210.292 78.96C210.839 79.5333 211.619 79.82 212.632 79.82C213.739 79.82 214.612 79.4867 215.252 78.82C215.892 78.14 216.212 77.2 216.212 76V70.48H217.632ZM234.729 70.4C236.049 70.4 237.082 70.78 237.829 71.54C238.589 72.3 238.969 73.42 238.969 74.9V81H237.549V75.04C237.549 73.9467 237.282 73.1133 236.749 72.54C236.229 71.9667 235.489 71.68 234.529 71.68C233.436 71.68 232.576 72.02 231.949 72.7C231.322 73.3667 231.009 74.2933 231.009 75.48V81H229.589V75.04C229.589 73.9467 229.322 73.1133 228.789 72.54C228.269 71.9667 227.522 71.68 226.549 71.68C225.469 71.68 224.609 72.02 223.969 72.7C223.342 73.3667 223.029 74.2933 223.029 75.48V81H221.609V70.48H222.969V72.4C223.342 71.76 223.862 71.2667 224.529 70.92C225.196 70.5733 225.962 70.4 226.829 70.4C227.709 70.4 228.469 70.5867 229.109 70.96C229.762 71.3333 230.249 71.8867 230.569 72.62C230.956 71.9267 231.509 71.3867 232.229 71C232.962 70.6 233.796 70.4 234.729 70.4Z" fill="#141720"/>
<path fill-rule="evenodd" clip-rule="evenodd" d="M39.7391 8.3375H34.3281V3.76562C34.3281 1.69062 32.6469 0.0078125 30.5703 0.0078125H4.76721C2.69221 0.0078125 1.0094 1.69062 1.0094 3.76562V38.7391C1.0094 39.4313 1.57034 39.9922 2.26252 39.9922H39.7407C40.4328 39.9922 40.9938 39.4313 40.9938 38.7391V9.59062C40.9938 8.89844 40.4328 8.3375 39.7407 8.3375H39.7391ZM4.76565 1.67344H30.5688C31.7219 1.67344 32.661 2.6125 32.661 3.76562V8.3375H2.67346V3.76562C2.67346 2.6125 3.61252 1.67344 4.76565 1.67344ZM39.3266 38.3266H2.67502V10.0047H39.3266V38.3266Z" fill="#C71222"/>
<path fill-rule="evenodd" clip-rule="evenodd" d="M27.6641 24.1656C27.6641 26.4656 29.5297 28.3297 31.8297 28.3297C34.1297 28.3297 35.9937 26.4656 35.9937 24.1656C35.9937 21.8656 34.1297 20 31.8297 20C29.5297 20 27.6641 21.8641 27.6641 24.1656ZM34.3281 24.1656C34.3281 25.5422 33.2078 26.6625 31.8297 26.6625C30.4516 26.6625 29.3297 25.5422 29.3297 24.1656C29.3297 22.7875 30.4516 21.6672 31.8297 21.6672C33.2078 21.6672 34.3281 22.7875 34.3281 24.1656Z" fill="#C71222"/>
</svg>
