<svg width="355" height="759" viewBox="0 0 355 759" fill="none" xmlns="http://www.w3.org/2000/svg">
<path d="M6.05713 690.251C4.88037 690.251 3.9502 690.645 3.2666 691.431C2.58789 692.212 2.24854 693.284 2.24854 694.646C2.24854 696.047 2.57568 697.131 3.22998 697.898C3.88916 698.66 4.82666 699.041 6.04248 699.041C6.78955 699.041 7.6416 698.906 8.59863 698.638V699.729C7.85645 700.007 6.94092 700.146 5.85205 700.146C4.2749 700.146 3.05664 699.668 2.19727 698.711C1.34277 697.754 0.915527 696.394 0.915527 694.631C0.915527 693.528 1.12061 692.561 1.53076 691.731C1.9458 690.901 2.5415 690.261 3.31787 689.812C4.09912 689.363 5.01709 689.138 6.07178 689.138C7.19482 689.138 8.17627 689.343 9.01611 689.753L8.48877 690.823C7.67822 690.442 6.86768 690.251 6.05713 690.251ZM18.1807 695.979C18.1807 697.288 17.8511 698.311 17.1919 699.048C16.5327 699.78 15.6221 700.146 14.46 700.146C13.7422 700.146 13.105 699.978 12.5483 699.641C11.9917 699.304 11.562 698.821 11.2593 698.191C10.9565 697.561 10.8052 696.824 10.8052 695.979C10.8052 694.67 11.1323 693.652 11.7866 692.925C12.4409 692.192 13.3491 691.826 14.5112 691.826C15.6343 691.826 16.5254 692.2 17.1846 692.947C17.8486 693.694 18.1807 694.705 18.1807 695.979ZM12.0649 695.979C12.0649 697.004 12.27 697.786 12.6802 698.323C13.0903 698.86 13.6934 699.128 14.4893 699.128C15.2852 699.128 15.8882 698.862 16.2983 698.33C16.7134 697.793 16.9209 697.009 16.9209 695.979C16.9209 694.958 16.7134 694.185 16.2983 693.657C15.8882 693.125 15.2803 692.859 14.4746 692.859C13.6787 692.859 13.0781 693.12 12.6729 693.643C12.2676 694.165 12.0649 694.944 12.0649 695.979ZM26.3125 700V694.807C26.3125 694.153 26.1636 693.665 25.8657 693.342C25.5679 693.02 25.1016 692.859 24.4668 692.859C23.627 692.859 23.0117 693.086 22.6211 693.54C22.2305 693.994 22.0352 694.744 22.0352 695.789V700H20.8193V691.973H21.8081L22.0059 693.071H22.0645C22.3135 692.676 22.6626 692.371 23.1118 692.156C23.561 691.936 24.0615 691.826 24.6133 691.826C25.5801 691.826 26.3076 692.061 26.7959 692.529C27.2842 692.993 27.5283 693.738 27.5283 694.763V700H26.3125ZM35.7114 697.81C35.7114 698.557 35.4331 699.133 34.8765 699.539C34.3198 699.944 33.5386 700.146 32.5327 700.146C31.4683 700.146 30.6382 699.978 30.0425 699.641V698.513C30.4282 698.708 30.8408 698.862 31.2803 698.975C31.7246 699.087 32.1519 699.143 32.562 699.143C33.1968 699.143 33.6851 699.043 34.0269 698.843C34.3687 698.638 34.5396 698.328 34.5396 697.913C34.5396 697.6 34.4028 697.334 34.1294 697.114C33.8608 696.89 33.3335 696.626 32.5474 696.323C31.8003 696.045 31.2681 695.803 30.9507 695.598C30.6382 695.388 30.4038 695.151 30.2476 694.888C30.0962 694.624 30.0205 694.309 30.0205 693.943C30.0205 693.289 30.2866 692.773 30.8188 692.397C31.3511 692.017 32.0811 691.826 33.0088 691.826C33.873 691.826 34.7178 692.002 35.543 692.354L35.1108 693.342C34.3052 693.01 33.5752 692.844 32.9209 692.844C32.3447 692.844 31.9102 692.935 31.6172 693.115C31.3242 693.296 31.1777 693.545 31.1777 693.862C31.1777 694.077 31.2314 694.26 31.3389 694.412C31.4512 694.563 31.6294 694.707 31.8735 694.844C32.1177 694.98 32.5864 695.178 33.2798 695.437C34.2319 695.784 34.874 696.133 35.2061 696.484C35.543 696.836 35.7114 697.278 35.7114 697.81ZM41.5874 700.146C40.4009 700.146 39.4634 699.785 38.7749 699.062C38.0913 698.34 37.7495 697.336 37.7495 696.052C37.7495 694.758 38.0669 693.73 38.7017 692.969C39.3413 692.207 40.1982 691.826 41.2725 691.826C42.2783 691.826 43.0742 692.158 43.6602 692.822C44.2461 693.481 44.5391 694.353 44.5391 695.437V696.206H39.0093C39.0337 697.148 39.2705 697.864 39.7197 698.352C40.1738 698.84 40.811 699.084 41.6313 699.084C42.4956 699.084 43.3501 698.904 44.1948 698.542V699.626C43.7651 699.812 43.3574 699.944 42.9717 700.022C42.5908 700.105 42.1294 700.146 41.5874 700.146ZM41.2578 692.844C40.6133 692.844 40.0981 693.054 39.7124 693.474C39.3315 693.894 39.1069 694.475 39.0386 695.217H43.2354C43.2354 694.451 43.0645 693.865 42.7227 693.459C42.3809 693.049 41.8926 692.844 41.2578 692.844ZM50.3271 700.146C49.165 700.146 48.2642 699.79 47.6245 699.077C46.9897 698.359 46.6724 697.346 46.6724 696.038C46.6724 694.695 46.9946 693.657 47.6392 692.925C48.2886 692.192 49.2114 691.826 50.4077 691.826C50.7935 691.826 51.1792 691.868 51.5649 691.951C51.9507 692.034 52.2534 692.131 52.4731 692.244L52.0996 693.276C51.8311 693.169 51.5381 693.081 51.2207 693.013C50.9033 692.939 50.6226 692.903 50.3784 692.903C48.7476 692.903 47.9321 693.943 47.9321 696.023C47.9321 697.009 48.1299 697.766 48.5254 698.293C48.9258 698.821 49.5166 699.084 50.2979 699.084C50.9668 699.084 51.6528 698.94 52.356 698.652V699.729C51.8188 700.007 51.1426 700.146 50.3271 700.146ZM57.3604 699.143C57.5752 699.143 57.7827 699.128 57.9829 699.099C58.1831 699.065 58.3418 699.031 58.459 698.997V699.927C58.3271 699.99 58.1318 700.042 57.873 700.081C57.6191 700.125 57.3896 700.146 57.1846 700.146C55.6318 700.146 54.8555 699.329 54.8555 697.693V692.917H53.7056V692.332L54.8555 691.826L55.3682 690.112H56.0713V691.973H58.4004V692.917H56.0713V697.642C56.0713 698.125 56.186 698.496 56.4155 698.755C56.645 699.014 56.96 699.143 57.3604 699.143ZM63.9614 700.146C62.7749 700.146 61.8374 699.785 61.1489 699.062C60.4653 698.34 60.1235 697.336 60.1235 696.052C60.1235 694.758 60.4409 693.73 61.0757 692.969C61.7153 692.207 62.5723 691.826 63.6465 691.826C64.6523 691.826 65.4482 692.158 66.0342 692.822C66.6201 693.481 66.9131 694.353 66.9131 695.437V696.206H61.3833C61.4077 697.148 61.6445 697.864 62.0938 698.352C62.5479 698.84 63.1851 699.084 64.0054 699.084C64.8696 699.084 65.7241 698.904 66.5688 698.542V699.626C66.1392 699.812 65.7314 699.944 65.3457 700.022C64.9648 700.105 64.5034 700.146 63.9614 700.146ZM63.6318 692.844C62.9873 692.844 62.4722 693.054 62.0864 693.474C61.7056 693.894 61.481 694.475 61.4126 695.217H65.6094C65.6094 694.451 65.4385 693.865 65.0967 693.459C64.7549 693.049 64.2666 692.844 63.6318 692.844ZM72.0859 699.143C72.3008 699.143 72.5083 699.128 72.7085 699.099C72.9087 699.065 73.0674 699.031 73.1846 698.997V699.927C73.0527 699.99 72.8574 700.042 72.5986 700.081C72.3447 700.125 72.1152 700.146 71.9102 700.146C70.3574 700.146 69.5811 699.329 69.5811 697.693V692.917H68.4312V692.332L69.5811 691.826L70.0938 690.112H70.7969V691.973H73.126V692.917H70.7969V697.642C70.7969 698.125 70.9116 698.496 71.1411 698.755C71.3706 699.014 71.6855 699.143 72.0859 699.143ZM76.4385 691.973V697.18C76.4385 697.834 76.5874 698.323 76.8853 698.645C77.1831 698.967 77.6494 699.128 78.2842 699.128C79.124 699.128 79.7368 698.899 80.1226 698.44C80.5132 697.981 80.7085 697.231 80.7085 696.191V691.973H81.9243V700H80.9209L80.7451 698.923H80.6792C80.4302 699.319 80.0835 699.622 79.6392 699.832C79.1997 700.042 78.6968 700.146 78.1304 700.146C77.1538 700.146 76.4214 699.915 75.9331 699.451C75.4497 698.987 75.208 698.245 75.208 697.224V691.973H76.4385ZM88.6719 691.826C89.0283 691.826 89.3481 691.855 89.6313 691.914L89.4629 693.042C89.1309 692.969 88.8379 692.932 88.584 692.932C87.9346 692.932 87.3779 693.196 86.9141 693.723C86.4551 694.25 86.2256 694.907 86.2256 695.693V700H85.0098V691.973H86.0132L86.1523 693.459H86.2109C86.5088 692.937 86.8677 692.534 87.2876 692.251C87.7075 691.968 88.1689 691.826 88.6719 691.826ZM97.7871 700L94.7402 691.973H96.0439L97.7725 696.733C98.1631 697.847 98.3926 698.569 98.4609 698.901H98.5195C98.5732 698.643 98.7417 698.108 99.0249 697.297C99.313 696.482 99.9551 694.707 100.951 691.973H102.255L99.208 700H97.7871ZM107.435 700.146C106.249 700.146 105.311 699.785 104.623 699.062C103.939 698.34 103.597 697.336 103.597 696.052C103.597 694.758 103.915 693.73 104.549 692.969C105.189 692.207 106.046 691.826 107.12 691.826C108.126 691.826 108.922 692.158 109.508 692.822C110.094 693.481 110.387 694.353 110.387 695.437V696.206H104.857C104.881 697.148 105.118 697.864 105.567 698.352C106.021 698.84 106.659 699.084 107.479 699.084C108.343 699.084 109.198 698.904 110.042 698.542V699.626C109.613 699.812 109.205 699.944 108.819 700.022C108.438 700.105 107.977 700.146 107.435 700.146ZM107.105 692.844C106.461 692.844 105.946 693.054 105.56 693.474C105.179 693.894 104.955 694.475 104.886 695.217H109.083C109.083 694.451 108.912 693.865 108.57 693.459C108.229 693.049 107.74 692.844 107.105 692.844ZM118.145 697.81C118.145 698.557 117.867 699.133 117.31 699.539C116.753 699.944 115.972 700.146 114.966 700.146C113.902 700.146 113.072 699.978 112.476 699.641V698.513C112.862 698.708 113.274 698.862 113.714 698.975C114.158 699.087 114.585 699.143 114.996 699.143C115.63 699.143 116.119 699.043 116.46 698.843C116.802 698.638 116.973 698.328 116.973 697.913C116.973 697.6 116.836 697.334 116.563 697.114C116.294 696.89 115.767 696.626 114.981 696.323C114.234 696.045 113.702 695.803 113.384 695.598C113.072 695.388 112.837 695.151 112.681 694.888C112.53 694.624 112.454 694.309 112.454 693.943C112.454 693.289 112.72 692.773 113.252 692.397C113.785 692.017 114.515 691.826 115.442 691.826C116.307 691.826 117.151 692.002 117.977 692.354L117.544 693.342C116.739 693.01 116.009 692.844 115.354 692.844C114.778 692.844 114.344 692.935 114.051 693.115C113.758 693.296 113.611 693.545 113.611 693.862C113.611 694.077 113.665 694.26 113.772 694.412C113.885 694.563 114.063 694.707 114.307 694.844C114.551 694.98 115.02 695.178 115.713 695.437C116.666 695.784 117.308 696.133 117.64 696.484C117.977 696.836 118.145 697.278 118.145 697.81ZM123.223 699.143C123.438 699.143 123.645 699.128 123.845 699.099C124.045 699.065 124.204 699.031 124.321 698.997V699.927C124.189 699.99 123.994 700.042 123.735 700.081C123.481 700.125 123.252 700.146 123.047 700.146C121.494 700.146 120.718 699.329 120.718 697.693V692.917H119.568V692.332L120.718 691.826L121.23 690.112H121.934V691.973H124.263V692.917H121.934V697.642C121.934 698.125 122.048 698.496 122.278 698.755C122.507 699.014 122.822 699.143 123.223 699.143ZM127.648 700H126.433V691.973H127.648V700ZM126.33 689.797C126.33 689.519 126.398 689.316 126.535 689.189C126.672 689.058 126.843 688.992 127.048 688.992C127.243 688.992 127.412 689.058 127.553 689.189C127.695 689.321 127.766 689.524 127.766 689.797C127.766 690.071 127.695 690.276 127.553 690.413C127.412 690.544 127.243 690.61 127.048 690.61C126.843 690.61 126.672 690.544 126.535 690.413C126.398 690.276 126.33 690.071 126.33 689.797ZM134.462 691.841C135.517 691.841 136.334 692.202 136.916 692.925C137.501 693.643 137.794 694.661 137.794 695.979C137.794 697.297 137.499 698.323 136.908 699.055C136.322 699.783 135.507 700.146 134.462 700.146C133.939 700.146 133.461 700.051 133.026 699.861C132.597 699.666 132.235 699.368 131.942 698.967H131.854L131.598 700H130.727V688.604H131.942V691.372C131.942 691.992 131.923 692.549 131.884 693.042H131.942C132.509 692.241 133.349 691.841 134.462 691.841ZM134.286 692.859C133.456 692.859 132.858 693.098 132.492 693.577C132.125 694.05 131.942 694.851 131.942 695.979C131.942 697.107 132.13 697.915 132.506 698.403C132.882 698.887 133.485 699.128 134.315 699.128C135.062 699.128 135.619 698.857 135.985 698.315C136.352 697.769 136.535 696.985 136.535 695.964C136.535 694.919 136.352 694.141 135.985 693.628C135.619 693.115 135.053 692.859 134.286 692.859ZM141.568 691.973V697.18C141.568 697.834 141.717 698.323 142.015 698.645C142.313 698.967 142.779 699.128 143.414 699.128C144.254 699.128 144.867 698.899 145.252 698.44C145.643 697.981 145.838 697.231 145.838 696.191V691.973H147.054V700H146.051L145.875 698.923H145.809C145.56 699.319 145.213 699.622 144.769 699.832C144.33 700.042 143.827 700.146 143.26 700.146C142.284 700.146 141.551 699.915 141.063 699.451C140.58 698.987 140.338 698.245 140.338 697.224V691.973H141.568ZM151.355 700H150.14V688.604H151.355V700ZM155.576 691.973V697.18C155.576 697.834 155.725 698.323 156.023 698.645C156.321 698.967 156.787 699.128 157.422 699.128C158.262 699.128 158.875 698.899 159.26 698.44C159.651 697.981 159.846 697.231 159.846 696.191V691.973H161.062V700H160.059L159.883 698.923H159.817C159.568 699.319 159.221 699.622 158.777 699.832C158.337 700.042 157.834 700.146 157.268 700.146C156.292 700.146 155.559 699.915 155.071 699.451C154.587 698.987 154.346 698.245 154.346 697.224V691.973H155.576ZM174.379 700V694.778C174.379 694.138 174.243 693.66 173.969 693.342C173.696 693.02 173.271 692.859 172.695 692.859C171.938 692.859 171.379 693.076 171.018 693.511C170.656 693.945 170.476 694.614 170.476 695.518V700H169.26V694.778C169.26 694.138 169.123 693.66 168.85 693.342C168.576 693.02 168.149 692.859 167.568 692.859C166.806 692.859 166.247 693.088 165.891 693.547C165.539 694.001 165.363 694.749 165.363 695.789V700H164.147V691.973H165.136L165.334 693.071H165.393C165.622 692.681 165.944 692.375 166.359 692.156C166.779 691.936 167.248 691.826 167.766 691.826C169.021 691.826 169.841 692.28 170.227 693.188H170.285C170.524 692.769 170.871 692.437 171.325 692.192C171.779 691.948 172.297 691.826 172.878 691.826C173.786 691.826 174.465 692.061 174.914 692.529C175.368 692.993 175.595 693.738 175.595 694.763V700H174.379ZM193.236 700V694.778C193.236 694.138 193.099 693.66 192.826 693.342C192.552 693.02 192.127 692.859 191.551 692.859C190.794 692.859 190.235 693.076 189.874 693.511C189.513 693.945 189.332 694.614 189.332 695.518V700H188.116V694.778C188.116 694.138 187.979 693.66 187.706 693.342C187.433 693.02 187.005 692.859 186.424 692.859C185.663 692.859 185.104 693.088 184.747 693.547C184.396 694.001 184.22 694.749 184.22 695.789V700H183.004V691.973H183.993L184.19 693.071H184.249C184.479 692.681 184.801 692.375 185.216 692.156C185.636 691.936 186.104 691.826 186.622 691.826C187.877 691.826 188.697 692.28 189.083 693.188H189.142C189.381 692.769 189.728 692.437 190.182 692.192C190.636 691.948 191.153 691.826 191.734 691.826C192.643 691.826 193.321 692.061 193.771 692.529C194.225 692.993 194.452 693.738 194.452 694.763V700H193.236ZM202.4 700L202.159 698.857H202.1C201.7 699.36 201.299 699.702 200.899 699.883C200.503 700.059 200.008 700.146 199.412 700.146C198.616 700.146 197.991 699.941 197.537 699.531C197.088 699.121 196.863 698.538 196.863 697.781C196.863 696.16 198.16 695.31 200.752 695.232L202.115 695.188V694.69C202.115 694.06 201.978 693.596 201.705 693.298C201.436 692.996 201.004 692.844 200.408 692.844C199.739 692.844 198.982 693.049 198.138 693.459L197.764 692.529C198.16 692.314 198.592 692.146 199.061 692.024C199.534 691.902 200.008 691.841 200.481 691.841C201.438 691.841 202.146 692.053 202.605 692.478C203.069 692.903 203.301 693.584 203.301 694.521V700H202.4ZM199.654 699.143C200.411 699.143 201.004 698.936 201.434 698.521C201.868 698.105 202.085 697.524 202.085 696.777V696.052L200.87 696.104C199.903 696.138 199.205 696.289 198.775 696.558C198.35 696.821 198.138 697.234 198.138 697.795C198.138 698.235 198.27 698.569 198.533 698.799C198.802 699.028 199.175 699.143 199.654 699.143ZM209.705 700.146C208.518 700.146 207.581 699.785 206.892 699.062C206.208 698.34 205.867 697.336 205.867 696.052C205.867 694.758 206.184 693.73 206.819 692.969C207.458 692.207 208.315 691.826 209.39 691.826C210.396 691.826 211.191 692.158 211.777 692.822C212.363 693.481 212.656 694.353 212.656 695.437V696.206H207.126C207.151 697.148 207.388 697.864 207.837 698.352C208.291 698.84 208.928 699.084 209.749 699.084C210.613 699.084 211.467 698.904 212.312 698.542V699.626C211.882 699.812 211.475 699.944 211.089 700.022C210.708 700.105 210.247 700.146 209.705 700.146ZM209.375 692.844C208.73 692.844 208.215 693.054 207.83 693.474C207.449 693.894 207.224 694.475 207.156 695.217H211.353C211.353 694.451 211.182 693.865 210.84 693.459C210.498 693.049 210.01 692.844 209.375 692.844ZM218.444 700.146C217.282 700.146 216.381 699.79 215.742 699.077C215.107 698.359 214.79 697.346 214.79 696.038C214.79 694.695 215.112 693.657 215.756 692.925C216.406 692.192 217.329 691.826 218.525 691.826C218.911 691.826 219.296 691.868 219.682 691.951C220.068 692.034 220.371 692.131 220.59 692.244L220.217 693.276C219.948 693.169 219.655 693.081 219.338 693.013C219.021 692.939 218.74 692.903 218.496 692.903C216.865 692.903 216.049 693.943 216.049 696.023C216.049 697.009 216.247 697.766 216.643 698.293C217.043 698.821 217.634 699.084 218.415 699.084C219.084 699.084 219.77 698.94 220.473 698.652V699.729C219.936 700.007 219.26 700.146 218.444 700.146ZM226.276 700.146C225.089 700.146 224.152 699.785 223.463 699.062C222.78 698.34 222.438 697.336 222.438 696.052C222.438 694.758 222.755 693.73 223.39 692.969C224.03 692.207 224.887 691.826 225.961 691.826C226.967 691.826 227.763 692.158 228.349 692.822C228.935 693.481 229.228 694.353 229.228 695.437V696.206H223.698C223.722 697.148 223.959 697.864 224.408 698.352C224.862 698.84 225.5 699.084 226.32 699.084C227.184 699.084 228.039 698.904 228.883 698.542V699.626C228.454 699.812 228.046 699.944 227.66 700.022C227.279 700.105 226.818 700.146 226.276 700.146ZM225.946 692.844C225.302 692.844 224.787 693.054 224.401 693.474C224.02 693.894 223.795 694.475 223.727 695.217H227.924C227.924 694.451 227.753 693.865 227.411 693.459C227.069 693.049 226.581 692.844 225.946 692.844ZM237.301 700V694.807C237.301 694.153 237.152 693.665 236.854 693.342C236.556 693.02 236.09 692.859 235.455 692.859C234.615 692.859 234 693.086 233.609 693.54C233.219 693.994 233.023 694.744 233.023 695.789V700H231.808V691.973H232.796L232.994 693.071H233.053C233.302 692.676 233.651 692.371 234.1 692.156C234.549 691.936 235.05 691.826 235.602 691.826C236.568 691.826 237.296 692.061 237.784 692.529C238.272 692.993 238.517 693.738 238.517 694.763V700H237.301ZM246.458 700L246.216 698.857H246.158C245.757 699.36 245.357 699.702 244.957 699.883C244.561 700.059 244.065 700.146 243.47 700.146C242.674 700.146 242.049 699.941 241.595 699.531C241.146 699.121 240.921 698.538 240.921 697.781C240.921 696.16 242.217 695.31 244.81 695.232L246.172 695.188V694.69C246.172 694.06 246.036 693.596 245.762 693.298C245.494 692.996 245.062 692.844 244.466 692.844C243.797 692.844 243.04 693.049 242.195 693.459L241.822 692.529C242.217 692.314 242.649 692.146 243.118 692.024C243.592 691.902 244.065 691.841 244.539 691.841C245.496 691.841 246.204 692.053 246.663 692.478C247.127 692.903 247.359 693.584 247.359 694.521V700H246.458ZM243.711 699.143C244.468 699.143 245.062 698.936 245.491 698.521C245.926 698.105 246.143 697.524 246.143 696.777V696.052L244.927 696.104C243.96 696.138 243.262 696.289 242.833 696.558C242.408 696.821 242.195 697.234 242.195 697.795C242.195 698.235 242.327 698.569 242.591 698.799C242.859 699.028 243.233 699.143 243.711 699.143ZM255.549 697.81C255.549 698.557 255.271 699.133 254.714 699.539C254.158 699.944 253.376 700.146 252.371 700.146C251.306 700.146 250.476 699.978 249.88 699.641V698.513C250.266 698.708 250.679 698.862 251.118 698.975C251.562 699.087 251.99 699.143 252.4 699.143C253.035 699.143 253.523 699.043 253.865 698.843C254.207 698.638 254.377 698.328 254.377 697.913C254.377 697.6 254.241 697.334 253.967 697.114C253.699 696.89 253.171 696.626 252.385 696.323C251.638 696.045 251.106 695.803 250.789 695.598C250.476 695.388 250.242 695.151 250.085 694.888C249.934 694.624 249.858 694.309 249.858 693.943C249.858 693.289 250.125 692.773 250.657 692.397C251.189 692.017 251.919 691.826 252.847 691.826C253.711 691.826 254.556 692.002 255.381 692.354L254.949 693.342C254.143 693.01 253.413 692.844 252.759 692.844C252.183 692.844 251.748 692.935 251.455 693.115C251.162 693.296 251.016 693.545 251.016 693.862C251.016 694.077 251.069 694.26 251.177 694.412C251.289 694.563 251.467 694.707 251.711 694.844C251.956 694.98 252.424 695.178 253.118 695.437C254.07 695.784 254.712 696.133 255.044 696.484C255.381 696.836 255.549 697.278 255.549 697.81ZM265.639 700.146C264.477 700.146 263.576 699.79 262.936 699.077C262.301 698.359 261.984 697.346 261.984 696.038C261.984 694.695 262.306 693.657 262.951 692.925C263.6 692.192 264.523 691.826 265.719 691.826C266.105 691.826 266.491 691.868 266.876 691.951C267.262 692.034 267.565 692.131 267.785 692.244L267.411 693.276C267.143 693.169 266.85 693.081 266.532 693.013C266.215 692.939 265.934 692.903 265.69 692.903C264.059 692.903 263.244 693.943 263.244 696.023C263.244 697.009 263.441 697.766 263.837 698.293C264.237 698.821 264.828 699.084 265.609 699.084C266.278 699.084 266.964 698.94 267.667 698.652V699.729C267.13 700.007 266.454 700.146 265.639 700.146ZM271.222 691.973V697.18C271.222 697.834 271.371 698.323 271.668 698.645C271.966 698.967 272.433 699.128 273.067 699.128C273.907 699.128 274.52 698.899 274.906 698.44C275.296 697.981 275.492 697.231 275.492 696.191V691.973H276.708V700H275.704L275.528 698.923H275.462C275.213 699.319 274.867 699.622 274.422 699.832C273.983 700.042 273.48 700.146 272.914 700.146C271.937 700.146 271.205 699.915 270.716 699.451C270.233 698.987 269.991 698.245 269.991 697.224V691.973H271.222ZM283.455 691.826C283.812 691.826 284.131 691.855 284.415 691.914L284.246 693.042C283.914 692.969 283.621 692.932 283.367 692.932C282.718 692.932 282.161 693.196 281.697 693.723C281.238 694.25 281.009 694.907 281.009 695.693V700H279.793V691.973H280.796L280.936 693.459H280.994C281.292 692.937 281.651 692.534 282.071 692.251C282.491 691.968 282.952 691.826 283.455 691.826ZM291.353 700L291.111 698.857H291.052C290.652 699.36 290.251 699.702 289.851 699.883C289.456 700.059 288.96 700.146 288.364 700.146C287.568 700.146 286.943 699.941 286.489 699.531C286.04 699.121 285.815 698.538 285.815 697.781C285.815 696.16 287.112 695.31 289.705 695.232L291.067 695.188V694.69C291.067 694.06 290.93 693.596 290.657 693.298C290.388 692.996 289.956 692.844 289.36 692.844C288.691 692.844 287.935 693.049 287.09 693.459L286.716 692.529C287.112 692.314 287.544 692.146 288.013 692.024C288.486 691.902 288.96 691.841 289.434 691.841C290.391 691.841 291.099 692.053 291.558 692.478C292.021 692.903 292.253 693.584 292.253 694.521V700H291.353ZM288.606 699.143C289.363 699.143 289.956 698.936 290.386 698.521C290.82 698.105 291.038 697.524 291.038 696.777V696.052L289.822 696.104C288.855 696.138 288.157 696.289 287.727 696.558C287.302 696.821 287.09 697.234 287.09 697.795C287.09 698.235 287.222 698.569 287.485 698.799C287.754 699.028 288.127 699.143 288.606 699.143ZM299.001 691.841C300.056 691.841 300.874 692.202 301.455 692.925C302.041 693.643 302.333 694.661 302.333 695.979C302.333 697.297 302.038 698.323 301.447 699.055C300.861 699.783 300.046 700.146 299.001 700.146C298.479 700.146 298 700.051 297.565 699.861C297.136 699.666 296.774 699.368 296.481 698.967H296.394L296.137 700H295.266V688.604H296.481V691.372C296.481 691.992 296.462 692.549 296.423 693.042H296.481C297.048 692.241 297.888 691.841 299.001 691.841ZM298.825 692.859C297.995 692.859 297.397 693.098 297.031 693.577C296.665 694.05 296.481 694.851 296.481 695.979C296.481 697.107 296.669 697.915 297.045 698.403C297.421 698.887 298.024 699.128 298.854 699.128C299.602 699.128 300.158 698.857 300.524 698.315C300.891 697.769 301.074 696.985 301.074 695.964C301.074 694.919 300.891 694.141 300.524 693.628C300.158 693.115 299.592 692.859 298.825 692.859ZM306.181 700H304.965V691.973H306.181V700ZM304.862 689.797C304.862 689.519 304.931 689.316 305.067 689.189C305.204 689.058 305.375 688.992 305.58 688.992C305.775 688.992 305.944 689.058 306.085 689.189C306.227 689.321 306.298 689.524 306.298 689.797C306.298 690.071 306.227 690.276 306.085 690.413C305.944 690.544 305.775 690.61 305.58 690.61C305.375 690.61 305.204 690.544 305.067 690.413C304.931 690.276 304.862 690.071 304.862 689.797ZM311.852 699.143C312.066 699.143 312.274 699.128 312.474 699.099C312.674 699.065 312.833 699.031 312.95 698.997V699.927C312.818 699.99 312.623 700.042 312.364 700.081C312.11 700.125 311.881 700.146 311.676 700.146C310.123 700.146 309.347 699.329 309.347 697.693V692.917H308.197V692.332L309.347 691.826L309.859 690.112H310.562V691.973H312.892V692.917H310.562V697.642C310.562 698.125 310.677 698.496 310.907 698.755C311.136 699.014 311.451 699.143 311.852 699.143ZM316.204 691.973V697.18C316.204 697.834 316.353 698.323 316.651 698.645C316.949 698.967 317.415 699.128 318.05 699.128C318.89 699.128 319.502 698.899 319.888 698.44C320.279 697.981 320.474 697.231 320.474 696.191V691.973H321.69V700H320.687L320.511 698.923H320.445C320.196 699.319 319.849 699.622 319.405 699.832C318.965 700.042 318.462 700.146 317.896 700.146C316.919 700.146 316.187 699.915 315.699 699.451C315.215 698.987 314.974 698.245 314.974 697.224V691.973H316.204ZM328.438 691.826C328.794 691.826 329.114 691.855 329.397 691.914L329.229 693.042C328.896 692.969 328.604 692.932 328.35 692.932C327.7 692.932 327.144 693.196 326.68 693.723C326.221 694.25 325.991 694.907 325.991 695.693V700H324.775V691.973H325.779L325.918 693.459H325.977C326.274 692.937 326.633 692.534 327.053 692.251C327.473 691.968 327.935 691.826 328.438 691.826ZM6.78223 726V720.807C6.78223 720.153 6.6333 719.665 6.33545 719.342C6.0376 719.02 5.57129 718.859 4.93652 718.859C4.0918 718.859 3.47412 719.088 3.0835 719.547C2.69775 720.006 2.50488 720.758 2.50488 721.803V726H1.28906V714.604H2.50488V718.053C2.50488 718.468 2.48535 718.812 2.44629 719.086H2.51953C2.75879 718.7 3.09814 718.397 3.5376 718.178C3.98193 717.953 4.4873 717.841 5.05371 717.841C6.03516 717.841 6.77002 718.075 7.2583 718.544C7.75146 719.008 7.99805 719.748 7.99805 720.763V726H6.78223ZM15.9395 726L15.6978 724.857H15.6392C15.2388 725.36 14.8384 725.702 14.438 725.883C14.0425 726.059 13.5469 726.146 12.9512 726.146C12.1553 726.146 11.5303 725.941 11.0762 725.531C10.627 725.121 10.4023 724.538 10.4023 723.781C10.4023 722.16 11.6987 721.31 14.2915 721.232L15.6538 721.188V720.69C15.6538 720.06 15.5171 719.596 15.2437 719.298C14.9751 718.996 14.543 718.844 13.9473 718.844C13.2783 718.844 12.5215 719.049 11.6768 719.459L11.3032 718.529C11.6987 718.314 12.1309 718.146 12.5996 718.024C13.0732 717.902 13.5469 717.841 14.0205 717.841C14.9775 717.841 15.6855 718.053 16.1445 718.478C16.6084 718.903 16.8403 719.584 16.8403 720.521V726H15.9395ZM13.1929 725.143C13.9497 725.143 14.543 724.936 14.9727 724.521C15.4072 724.105 15.6245 723.524 15.6245 722.777V722.052L14.4087 722.104C13.4419 722.138 12.7437 722.289 12.314 722.558C11.8892 722.821 11.6768 723.234 11.6768 723.795C11.6768 724.235 11.8086 724.569 12.0723 724.799C12.3408 725.028 12.7144 725.143 13.1929 725.143ZM23.0605 726.146C21.8984 726.146 20.9976 725.79 20.3579 725.077C19.7231 724.359 19.4058 723.346 19.4058 722.038C19.4058 720.695 19.728 719.657 20.3726 718.925C21.022 718.192 21.9448 717.826 23.1411 717.826C23.5269 717.826 23.9126 717.868 24.2983 717.951C24.6841 718.034 24.9868 718.131 25.2065 718.244L24.833 719.276C24.5645 719.169 24.2715 719.081 23.9541 719.013C23.6367 718.939 23.356 718.903 23.1118 718.903C21.481 718.903 20.6655 719.943 20.6655 722.023C20.6655 723.009 20.8633 723.766 21.2588 724.293C21.6592 724.821 22.25 725.084 23.0312 725.084C23.7002 725.084 24.3862 724.94 25.0894 724.652V725.729C24.5522 726.007 23.876 726.146 23.0605 726.146ZM35.5156 718.917H33.4722V726H32.2563V718.917H30.8208V718.368L32.2563 717.929V717.482C32.2563 715.509 33.1182 714.523 34.8418 714.523C35.2666 714.523 35.7646 714.608 36.3359 714.779L36.021 715.753C35.5522 715.602 35.1519 715.526 34.8198 715.526C34.3608 715.526 34.0215 715.68 33.8018 715.988C33.582 716.291 33.4722 716.779 33.4722 717.453V717.973H35.5156V718.917ZM40.8716 726.146C39.6851 726.146 38.7476 725.785 38.0591 725.062C37.3755 724.34 37.0337 723.336 37.0337 722.052C37.0337 720.758 37.3511 719.73 37.9858 718.969C38.6255 718.207 39.4824 717.826 40.5566 717.826C41.5625 717.826 42.3584 718.158 42.9443 718.822C43.5303 719.481 43.8232 720.353 43.8232 721.437V722.206H38.2935C38.3179 723.148 38.5547 723.864 39.0039 724.352C39.458 724.84 40.0952 725.084 40.9155 725.084C41.7798 725.084 42.6343 724.904 43.479 724.542V725.626C43.0493 725.812 42.6416 725.944 42.2559 726.022C41.875 726.105 41.4136 726.146 40.8716 726.146ZM40.542 718.844C39.8975 718.844 39.3823 719.054 38.9966 719.474C38.6157 719.894 38.3911 720.475 38.3228 721.217H42.5195C42.5195 720.451 42.3486 719.865 42.0068 719.459C41.665 719.049 41.1768 718.844 40.542 718.844ZM47.6191 726H46.4033V714.604H47.6191V726ZM51.9131 726H50.6973V717.973H51.9131V726ZM50.5947 715.797C50.5947 715.519 50.6631 715.316 50.7998 715.189C50.9365 715.058 51.1074 714.992 51.3125 714.992C51.5078 714.992 51.6763 715.058 51.8179 715.189C51.9595 715.321 52.0303 715.524 52.0303 715.797C52.0303 716.071 51.9595 716.276 51.8179 716.413C51.6763 716.544 51.5078 716.61 51.3125 716.61C51.1074 716.61 50.9365 716.544 50.7998 716.413C50.6631 716.276 50.5947 716.071 50.5947 715.797ZM60.1694 723.81C60.1694 724.557 59.8911 725.133 59.3345 725.539C58.7778 725.944 57.9966 726.146 56.9907 726.146C55.9263 726.146 55.0962 725.978 54.5005 725.641V724.513C54.8862 724.708 55.2988 724.862 55.7383 724.975C56.1826 725.087 56.6099 725.143 57.02 725.143C57.6548 725.143 58.1431 725.043 58.4849 724.843C58.8267 724.638 58.9976 724.328 58.9976 723.913C58.9976 723.6 58.8608 723.334 58.5874 723.114C58.3188 722.89 57.7915 722.626 57.0054 722.323C56.2583 722.045 55.7261 721.803 55.4087 721.598C55.0962 721.388 54.8618 721.151 54.7056 720.888C54.5542 720.624 54.4785 720.309 54.4785 719.943C54.4785 719.289 54.7446 718.773 55.2769 718.397C55.8091 718.017 56.5391 717.826 57.4668 717.826C58.3311 717.826 59.1758 718.002 60.001 718.354L59.5688 719.342C58.7632 719.01 58.0332 718.844 57.3789 718.844C56.8027 718.844 56.3682 718.935 56.0752 719.115C55.7822 719.296 55.6357 719.545 55.6357 719.862C55.6357 720.077 55.6895 720.26 55.7969 720.412C55.9092 720.563 56.0874 720.707 56.3315 720.844C56.5757 720.98 57.0444 721.178 57.7378 721.437C58.6899 721.784 59.332 722.133 59.6641 722.484C60.001 722.836 60.1694 723.278 60.1694 723.81ZM68.8086 726L65.7617 717.973H67.0654L68.7939 722.733C69.1846 723.847 69.4141 724.569 69.4824 724.901H69.541C69.5947 724.643 69.7632 724.108 70.0464 723.297C70.3345 722.482 70.9766 720.707 71.9727 717.973H73.2764L70.2295 726H68.8086ZM78.4565 726.146C77.27 726.146 76.3325 725.785 75.644 725.062C74.9604 724.34 74.6187 723.336 74.6187 722.052C74.6187 720.758 74.936 719.73 75.5708 718.969C76.2104 718.207 77.0674 717.826 78.1416 717.826C79.1475 717.826 79.9434 718.158 80.5293 718.822C81.1152 719.481 81.4082 720.353 81.4082 721.437V722.206H75.8784C75.9028 723.148 76.1396 723.864 76.5889 724.352C77.043 724.84 77.6802 725.084 78.5005 725.084C79.3647 725.084 80.2192 724.904 81.064 724.542V725.626C80.6343 725.812 80.2266 725.944 79.8408 726.022C79.46 726.105 78.9985 726.146 78.4565 726.146ZM78.127 718.844C77.4824 718.844 76.9673 719.054 76.5815 719.474C76.2007 719.894 75.9761 720.475 75.9077 721.217H80.1045C80.1045 720.451 79.9336 719.865 79.5918 719.459C79.25 719.049 78.7617 718.844 78.127 718.844ZM89.1665 723.81C89.1665 724.557 88.8882 725.133 88.3315 725.539C87.7749 725.944 86.9937 726.146 85.9878 726.146C84.9233 726.146 84.0933 725.978 83.4976 725.641V724.513C83.8833 724.708 84.2959 724.862 84.7354 724.975C85.1797 725.087 85.6069 725.143 86.0171 725.143C86.6519 725.143 87.1401 725.043 87.4819 724.843C87.8237 724.638 87.9946 724.328 87.9946 723.913C87.9946 723.6 87.8579 723.334 87.5845 723.114C87.3159 722.89 86.7886 722.626 86.0024 722.323C85.2554 722.045 84.7231 721.803 84.4058 721.598C84.0933 721.388 83.8589 721.151 83.7026 720.888C83.5513 720.624 83.4756 720.309 83.4756 719.943C83.4756 719.289 83.7417 718.773 84.2739 718.397C84.8062 718.017 85.5361 717.826 86.4639 717.826C87.3281 717.826 88.1729 718.002 88.998 718.354L88.5659 719.342C87.7603 719.01 87.0303 718.844 86.376 718.844C85.7998 718.844 85.3652 718.935 85.0723 719.115C84.7793 719.296 84.6328 719.545 84.6328 719.862C84.6328 720.077 84.6865 720.26 84.7939 720.412C84.9062 720.563 85.0845 720.707 85.3286 720.844C85.5728 720.98 86.0415 721.178 86.7349 721.437C87.687 721.784 88.3291 722.133 88.6611 722.484C88.998 722.836 89.1665 723.278 89.1665 723.81ZM94.2441 725.143C94.459 725.143 94.6665 725.128 94.8667 725.099C95.0669 725.065 95.2256 725.031 95.3428 724.997V725.927C95.2109 725.99 95.0156 726.042 94.7568 726.081C94.5029 726.125 94.2734 726.146 94.0684 726.146C92.5156 726.146 91.7393 725.329 91.7393 723.693V718.917H90.5894V718.332L91.7393 717.826L92.252 716.112H92.9551V717.973H95.2842V718.917H92.9551V723.642C92.9551 724.125 93.0698 724.496 93.2993 724.755C93.5288 725.014 93.8438 725.143 94.2441 725.143ZM98.6699 726H97.4541V717.973H98.6699V726ZM97.3516 715.797C97.3516 715.519 97.4199 715.316 97.5566 715.189C97.6934 715.058 97.8643 714.992 98.0693 714.992C98.2646 714.992 98.4331 715.058 98.5747 715.189C98.7163 715.321 98.7871 715.524 98.7871 715.797C98.7871 716.071 98.7163 716.276 98.5747 716.413C98.4331 716.544 98.2646 716.61 98.0693 716.61C97.8643 716.61 97.6934 716.544 97.5566 716.413C97.4199 716.276 97.3516 716.071 97.3516 715.797ZM105.483 717.841C106.538 717.841 107.356 718.202 107.937 718.925C108.523 719.643 108.816 720.661 108.816 721.979C108.816 723.297 108.521 724.323 107.93 725.055C107.344 725.783 106.528 726.146 105.483 726.146C104.961 726.146 104.482 726.051 104.048 725.861C103.618 725.666 103.257 725.368 102.964 724.967H102.876L102.62 726H101.748V714.604H102.964V717.372C102.964 717.992 102.944 718.549 102.905 719.042H102.964C103.53 718.241 104.37 717.841 105.483 717.841ZM105.308 718.859C104.478 718.859 103.879 719.098 103.513 719.577C103.147 720.05 102.964 720.851 102.964 721.979C102.964 723.107 103.152 723.915 103.528 724.403C103.904 724.887 104.507 725.128 105.337 725.128C106.084 725.128 106.641 724.857 107.007 724.315C107.373 723.769 107.556 722.985 107.556 721.964C107.556 720.919 107.373 720.141 107.007 719.628C106.641 719.115 106.074 718.859 105.308 718.859ZM112.59 717.973V723.18C112.59 723.834 112.739 724.323 113.037 724.645C113.334 724.967 113.801 725.128 114.436 725.128C115.275 725.128 115.888 724.899 116.274 724.44C116.665 723.981 116.86 723.231 116.86 722.191V717.973H118.076V726H117.072L116.896 724.923H116.831C116.582 725.319 116.235 725.622 115.791 725.832C115.351 726.042 114.848 726.146 114.282 726.146C113.305 726.146 112.573 725.915 112.084 725.451C111.601 724.987 111.359 724.245 111.359 723.224V717.973H112.59ZM122.377 726H121.161V714.604H122.377V726ZM126.598 717.973V723.18C126.598 723.834 126.747 724.323 127.044 724.645C127.342 724.967 127.809 725.128 128.443 725.128C129.283 725.128 129.896 724.899 130.282 724.44C130.672 723.981 130.868 723.231 130.868 722.191V717.973H132.083V726H131.08L130.904 724.923H130.838C130.589 725.319 130.243 725.622 129.798 725.832C129.359 726.042 128.856 726.146 128.29 726.146C127.313 726.146 126.581 725.915 126.092 725.451C125.609 724.987 125.367 724.245 125.367 723.224V717.973H126.598ZM145.401 726V720.778C145.401 720.138 145.264 719.66 144.991 719.342C144.717 719.02 144.292 718.859 143.716 718.859C142.959 718.859 142.4 719.076 142.039 719.511C141.678 719.945 141.497 720.614 141.497 721.518V726H140.281V720.778C140.281 720.138 140.145 719.66 139.871 719.342C139.598 719.02 139.17 718.859 138.589 718.859C137.828 718.859 137.269 719.088 136.912 719.547C136.561 720.001 136.385 720.749 136.385 721.789V726H135.169V717.973H136.158L136.355 719.071H136.414C136.644 718.681 136.966 718.375 137.381 718.156C137.801 717.936 138.27 717.826 138.787 717.826C140.042 717.826 140.862 718.28 141.248 719.188H141.307C141.546 718.769 141.893 718.437 142.347 718.192C142.801 717.948 143.318 717.826 143.899 717.826C144.808 717.826 145.486 718.061 145.936 718.529C146.39 718.993 146.617 719.738 146.617 720.763V726H145.401ZM155.168 717.973V723.18C155.168 723.834 155.317 724.323 155.615 724.645C155.913 724.967 156.379 725.128 157.014 725.128C157.854 725.128 158.466 724.899 158.852 724.44C159.243 723.981 159.438 723.231 159.438 722.191V717.973H160.654V726H159.65L159.475 724.923H159.409C159.16 725.319 158.813 725.622 158.369 725.832C157.929 726.042 157.426 726.146 156.86 726.146C155.883 726.146 155.151 725.915 154.663 725.451C154.179 724.987 153.938 724.245 153.938 723.224V717.973H155.168ZM167.401 717.826C167.758 717.826 168.078 717.855 168.361 717.914L168.192 719.042C167.86 718.969 167.567 718.932 167.313 718.932C166.664 718.932 166.107 719.196 165.644 719.723C165.185 720.25 164.955 720.907 164.955 721.693V726H163.739V717.973H164.743L164.882 719.459H164.94C165.238 718.937 165.597 718.534 166.017 718.251C166.437 717.968 166.898 717.826 167.401 717.826ZM175.855 726V720.807C175.855 720.153 175.707 719.665 175.409 719.342C175.111 719.02 174.645 718.859 174.01 718.859C173.17 718.859 172.555 719.086 172.164 719.54C171.773 719.994 171.578 720.744 171.578 721.789V726H170.362V717.973H171.351L171.549 719.071H171.607C171.856 718.676 172.206 718.371 172.655 718.156C173.104 717.936 173.604 717.826 174.156 717.826C175.123 717.826 175.851 718.061 176.339 718.529C176.827 718.993 177.071 719.738 177.071 720.763V726H175.855ZM185.013 726L184.771 724.857H184.712C184.312 725.36 183.912 725.702 183.511 725.883C183.116 726.059 182.62 726.146 182.024 726.146C181.229 726.146 180.604 725.941 180.149 725.531C179.7 725.121 179.476 724.538 179.476 723.781C179.476 722.16 180.772 721.31 183.365 721.232L184.727 721.188V720.69C184.727 720.06 184.59 719.596 184.317 719.298C184.048 718.996 183.616 718.844 183.021 718.844C182.352 718.844 181.595 719.049 180.75 719.459L180.376 718.529C180.772 718.314 181.204 718.146 181.673 718.024C182.146 717.902 182.62 717.841 183.094 717.841C184.051 717.841 184.759 718.053 185.218 718.478C185.682 718.903 185.914 719.584 185.914 720.521V726H185.013ZM182.266 725.143C183.023 725.143 183.616 724.936 184.046 724.521C184.48 724.105 184.698 723.524 184.698 722.777V722.052L183.482 722.104C182.515 722.138 181.817 722.289 181.387 722.558C180.962 722.821 180.75 723.234 180.75 723.795C180.75 724.235 180.882 724.569 181.146 724.799C181.414 725.028 181.788 725.143 182.266 725.143ZM195.08 726L192.033 717.973H193.337L195.065 722.733C195.456 723.847 195.686 724.569 195.754 724.901H195.812C195.866 724.643 196.035 724.108 196.318 723.297C196.606 722.482 197.248 720.707 198.244 717.973H199.548L196.501 726H195.08ZM204.728 726.146C203.542 726.146 202.604 725.785 201.916 725.062C201.232 724.34 200.89 723.336 200.89 722.052C200.89 720.758 201.208 719.73 201.842 718.969C202.482 718.207 203.339 717.826 204.413 717.826C205.419 717.826 206.215 718.158 206.801 718.822C207.387 719.481 207.68 720.353 207.68 721.437V722.206H202.15C202.174 723.148 202.411 723.864 202.86 724.352C203.314 724.84 203.952 725.084 204.772 725.084C205.636 725.084 206.491 724.904 207.335 724.542V725.626C206.906 725.812 206.498 725.944 206.112 726.022C205.731 726.105 205.27 726.146 204.728 726.146ZM204.398 718.844C203.754 718.844 203.239 719.054 202.853 719.474C202.472 719.894 202.248 720.475 202.179 721.217H206.376C206.376 720.451 206.205 719.865 205.863 719.459C205.521 719.049 205.033 718.844 204.398 718.844ZM211.476 726H210.26V714.604H211.476V726ZM215.77 726H214.554V717.973H215.77V726ZM214.451 715.797C214.451 715.519 214.52 715.316 214.656 715.189C214.793 715.058 214.964 714.992 215.169 714.992C215.364 714.992 215.533 715.058 215.674 715.189C215.816 715.321 215.887 715.524 215.887 715.797C215.887 716.071 215.816 716.276 215.674 716.413C215.533 716.544 215.364 716.61 215.169 716.61C214.964 716.61 214.793 716.544 214.656 716.413C214.52 716.276 214.451 716.071 214.451 715.797ZM221.44 725.143C221.655 725.143 221.863 725.128 222.063 725.099C222.263 725.065 222.422 725.031 222.539 724.997V725.927C222.407 725.99 222.212 726.042 221.953 726.081C221.699 726.125 221.47 726.146 221.265 726.146C219.712 726.146 218.936 725.329 218.936 723.693V718.917H217.786V718.332L218.936 717.826L219.448 716.112H220.151V717.973H222.48V718.917H220.151V723.642C220.151 724.125 220.266 724.496 220.496 724.755C220.725 725.014 221.04 725.143 221.44 725.143ZM232.782 726.146C232.26 726.146 231.781 726.051 231.347 725.861C230.917 725.666 230.556 725.368 230.263 724.967H230.175C230.233 725.436 230.263 725.88 230.263 726.3V729.604H229.047V717.973H230.036L230.204 719.071H230.263C230.575 718.632 230.939 718.314 231.354 718.119C231.769 717.924 232.245 717.826 232.782 717.826C233.847 717.826 234.667 718.19 235.243 718.917C235.824 719.645 236.115 720.666 236.115 721.979C236.115 723.297 235.819 724.323 235.229 725.055C234.643 725.783 233.827 726.146 232.782 726.146ZM232.606 718.859C231.786 718.859 231.193 719.086 230.827 719.54C230.46 719.994 230.272 720.717 230.263 721.708V721.979C230.263 723.107 230.451 723.915 230.827 724.403C231.203 724.887 231.806 725.128 232.636 725.128C233.329 725.128 233.871 724.848 234.262 724.286C234.657 723.725 234.855 722.951 234.855 721.964C234.855 720.963 234.657 720.197 234.262 719.665C233.871 719.127 233.319 718.859 232.606 718.859ZM243.683 726L243.441 724.857H243.382C242.982 725.36 242.582 725.702 242.181 725.883C241.786 726.059 241.29 726.146 240.694 726.146C239.898 726.146 239.273 725.941 238.819 725.531C238.37 725.121 238.146 724.538 238.146 723.781C238.146 722.16 239.442 721.31 242.035 721.232L243.397 721.188V720.69C243.397 720.06 243.26 719.596 242.987 719.298C242.718 718.996 242.286 718.844 241.69 718.844C241.021 718.844 240.265 719.049 239.42 719.459L239.046 718.529C239.442 718.314 239.874 718.146 240.343 718.024C240.816 717.902 241.29 717.841 241.764 717.841C242.721 717.841 243.429 718.053 243.888 718.478C244.352 718.903 244.583 719.584 244.583 720.521V726H243.683ZM240.936 725.143C241.693 725.143 242.286 724.936 242.716 724.521C243.15 724.105 243.368 723.524 243.368 722.777V722.052L242.152 722.104C241.185 722.138 240.487 722.289 240.057 722.558C239.632 722.821 239.42 723.234 239.42 723.795C239.42 724.235 239.552 724.569 239.815 724.799C240.084 725.028 240.458 725.143 240.936 725.143ZM251.258 717.826C251.614 717.826 251.934 717.855 252.217 717.914L252.049 719.042C251.717 718.969 251.424 718.932 251.17 718.932C250.521 718.932 249.964 719.196 249.5 719.723C249.041 720.25 248.812 720.907 248.812 721.693V726H247.596V717.973H248.599L248.738 719.459H248.797C249.095 718.937 249.454 718.534 249.874 718.251C250.293 717.968 250.755 717.826 251.258 717.826ZM256.812 725.143C257.026 725.143 257.234 725.128 257.434 725.099C257.634 725.065 257.793 725.031 257.91 724.997V725.927C257.778 725.99 257.583 726.042 257.324 726.081C257.07 726.125 256.841 726.146 256.636 726.146C255.083 726.146 254.307 725.329 254.307 723.693V718.917H253.157V718.332L254.307 717.826L254.819 716.112H255.522V717.973H257.852V718.917H255.522V723.642C255.522 724.125 255.637 724.496 255.867 724.755C256.096 725.014 256.411 725.143 256.812 725.143ZM261.164 717.973V723.18C261.164 723.834 261.313 724.323 261.611 724.645C261.909 724.967 262.375 725.128 263.01 725.128C263.85 725.128 264.462 724.899 264.848 724.44C265.239 723.981 265.434 723.231 265.434 722.191V717.973H266.65V726H265.646L265.471 724.923H265.405C265.156 725.319 264.809 725.622 264.365 725.832C263.925 726.042 263.422 726.146 262.856 726.146C261.879 726.146 261.147 725.915 260.659 725.451C260.175 724.987 259.934 724.245 259.934 723.224V717.973H261.164ZM273.397 717.826C273.754 717.826 274.074 717.855 274.357 717.914L274.188 719.042C273.856 718.969 273.563 718.932 273.31 718.932C272.66 718.932 272.104 719.196 271.64 719.723C271.181 720.25 270.951 720.907 270.951 721.693V726H269.735V717.973H270.739L270.878 719.459H270.937C271.234 718.937 271.593 718.534 272.013 718.251C272.433 717.968 272.895 717.826 273.397 717.826ZM277.574 726H276.358V717.973H277.574V726ZM276.256 715.797C276.256 715.519 276.324 715.316 276.461 715.189C276.598 715.058 276.769 714.992 276.974 714.992C277.169 714.992 277.337 715.058 277.479 715.189C277.621 715.321 277.691 715.524 277.691 715.797C277.691 716.071 277.621 716.276 277.479 716.413C277.337 716.544 277.169 716.61 276.974 716.61C276.769 716.61 276.598 716.544 276.461 716.413C276.324 716.276 276.256 716.071 276.256 715.797ZM284.043 726.146C282.857 726.146 281.919 725.785 281.231 725.062C280.547 724.34 280.206 723.336 280.206 722.052C280.206 720.758 280.523 719.73 281.158 718.969C281.797 718.207 282.654 717.826 283.729 717.826C284.734 717.826 285.53 718.158 286.116 718.822C286.702 719.481 286.995 720.353 286.995 721.437V722.206H281.465C281.49 723.148 281.727 723.864 282.176 724.352C282.63 724.84 283.267 725.084 284.087 725.084C284.952 725.084 285.806 724.904 286.651 724.542V725.626C286.221 725.812 285.813 725.944 285.428 726.022C285.047 726.105 284.585 726.146 284.043 726.146ZM283.714 718.844C283.069 718.844 282.554 719.054 282.168 719.474C281.788 719.894 281.563 720.475 281.495 721.217H285.691C285.691 720.451 285.521 719.865 285.179 719.459C284.837 719.049 284.349 718.844 283.714 718.844ZM295.068 726V720.807C295.068 720.153 294.919 719.665 294.622 719.342C294.324 719.02 293.857 718.859 293.223 718.859C292.383 718.859 291.768 719.086 291.377 719.54C290.986 719.994 290.791 720.744 290.791 721.789V726H289.575V717.973H290.564L290.762 719.071H290.82C291.069 718.676 291.418 718.371 291.868 718.156C292.317 717.936 292.817 717.826 293.369 717.826C294.336 717.826 295.063 718.061 295.552 718.529C296.04 718.993 296.284 719.738 296.284 720.763V726H295.068ZM301.882 725.143C302.097 725.143 302.304 725.128 302.504 725.099C302.705 725.065 302.863 725.031 302.98 724.997V725.927C302.849 725.99 302.653 726.042 302.395 726.081C302.141 726.125 301.911 726.146 301.706 726.146C300.153 726.146 299.377 725.329 299.377 723.693V718.917H298.227V718.332L299.377 717.826L299.89 716.112H300.593V717.973H302.922V718.917H300.593V723.642C300.593 724.125 300.708 724.496 300.937 724.755C301.167 725.014 301.481 725.143 301.882 725.143ZM6.46729 749.81C6.46729 750.557 6.18896 751.133 5.63232 751.539C5.07568 751.944 4.29443 752.146 3.28857 752.146C2.22412 752.146 1.39404 751.978 0.79834 751.641V750.513C1.18408 750.708 1.59668 750.862 2.03613 750.975C2.48047 751.087 2.90771 751.143 3.31787 751.143C3.95264 751.143 4.44092 751.043 4.78271 750.843C5.12451 750.638 5.29541 750.328 5.29541 749.913C5.29541 749.6 5.15869 749.334 4.88525 749.114C4.6167 748.89 4.08936 748.626 3.30322 748.323C2.55615 748.045 2.02393 747.803 1.70654 747.598C1.39404 747.388 1.15967 747.151 1.00342 746.888C0.852051 746.624 0.776367 746.309 0.776367 745.943C0.776367 745.289 1.04248 744.773 1.57471 744.397C2.10693 744.017 2.83691 743.826 3.76465 743.826C4.62891 743.826 5.47363 744.002 6.29883 744.354L5.8667 745.342C5.06104 745.01 4.33105 744.844 3.67676 744.844C3.10059 744.844 2.66602 744.935 2.37305 745.115C2.08008 745.296 1.93359 745.545 1.93359 745.862C1.93359 746.077 1.9873 746.26 2.09473 746.412C2.20703 746.563 2.38525 746.707 2.62939 746.844C2.87354 746.98 3.34229 747.178 4.03564 747.437C4.98779 747.784 5.62988 748.133 5.96191 748.484C6.29883 748.836 6.46729 749.278 6.46729 749.81ZM10.0947 743.973V749.18C10.0947 749.834 10.2437 750.323 10.5415 750.645C10.8394 750.967 11.3057 751.128 11.9404 751.128C12.7803 751.128 13.3931 750.899 13.7788 750.44C14.1694 749.981 14.3647 749.231 14.3647 748.191V743.973H15.5806V752H14.5771L14.4014 750.923H14.3354C14.0864 751.319 13.7397 751.622 13.2954 751.832C12.856 752.042 12.353 752.146 11.7866 752.146C10.8101 752.146 10.0776 751.915 9.58936 751.451C9.10596 750.987 8.86426 750.245 8.86426 749.224V743.973H10.0947ZM23.8442 749.81C23.8442 750.557 23.5659 751.133 23.0093 751.539C22.4526 751.944 21.6714 752.146 20.6655 752.146C19.6011 752.146 18.771 751.978 18.1753 751.641V750.513C18.561 750.708 18.9736 750.862 19.4131 750.975C19.8574 751.087 20.2847 751.143 20.6948 751.143C21.3296 751.143 21.8179 751.043 22.1597 750.843C22.5015 750.638 22.6724 750.328 22.6724 749.913C22.6724 749.6 22.5356 749.334 22.2622 749.114C21.9937 748.89 21.4663 748.626 20.6802 748.323C19.9331 748.045 19.4009 747.803 19.0835 747.598C18.771 747.388 18.5366 747.151 18.3804 746.888C18.229 746.624 18.1533 746.309 18.1533 745.943C18.1533 745.289 18.4194 744.773 18.9517 744.397C19.4839 744.017 20.2139 743.826 21.1416 743.826C22.0059 743.826 22.8506 744.002 23.6758 744.354L23.2437 745.342C22.438 745.01 21.708 744.844 21.0537 744.844C20.4775 744.844 20.043 744.935 19.75 745.115C19.457 745.296 19.3105 745.545 19.3105 745.862C19.3105 746.077 19.3643 746.26 19.4717 746.412C19.584 746.563 19.7622 746.707 20.0063 746.844C20.2505 746.98 20.7192 747.178 21.4126 747.437C22.3647 747.784 23.0068 748.133 23.3389 748.484C23.6758 748.836 23.8442 749.278 23.8442 749.81ZM30.0645 752.146C29.542 752.146 29.0635 752.051 28.6289 751.861C28.1992 751.666 27.8379 751.368 27.5449 750.967H27.457C27.5156 751.436 27.5449 751.88 27.5449 752.3V755.604H26.3291V743.973H27.3179L27.4863 745.071H27.5449C27.8574 744.632 28.2212 744.314 28.6362 744.119C29.0513 743.924 29.5273 743.826 30.0645 743.826C31.1289 743.826 31.9492 744.19 32.5254 744.917C33.1064 745.645 33.397 746.666 33.397 747.979C33.397 749.297 33.1016 750.323 32.5107 751.055C31.9248 751.783 31.1094 752.146 30.0645 752.146ZM29.8887 744.859C29.0684 744.859 28.4751 745.086 28.1089 745.54C27.7427 745.994 27.5547 746.717 27.5449 747.708V747.979C27.5449 749.107 27.7329 749.915 28.1089 750.403C28.4849 750.887 29.0879 751.128 29.918 751.128C30.6113 751.128 31.1533 750.848 31.5439 750.286C31.9395 749.725 32.1372 748.951 32.1372 747.964C32.1372 746.963 31.9395 746.197 31.5439 745.665C31.1533 745.127 30.6016 744.859 29.8887 744.859ZM39.4194 752.146C38.2329 752.146 37.2954 751.785 36.6069 751.062C35.9233 750.34 35.5815 749.336 35.5815 748.052C35.5815 746.758 35.8989 745.73 36.5337 744.969C37.1733 744.207 38.0303 743.826 39.1045 743.826C40.1104 743.826 40.9062 744.158 41.4922 744.822C42.0781 745.481 42.3711 746.353 42.3711 747.437V748.206H36.8413C36.8657 749.148 37.1025 749.864 37.5518 750.352C38.0059 750.84 38.6431 751.084 39.4634 751.084C40.3276 751.084 41.1821 750.904 42.0269 750.542V751.626C41.5972 751.812 41.1895 751.944 40.8037 752.022C40.4229 752.105 39.9614 752.146 39.4194 752.146ZM39.0898 744.844C38.4453 744.844 37.9302 745.054 37.5444 745.474C37.1636 745.894 36.939 746.475 36.8706 747.217H41.0674C41.0674 746.451 40.8965 745.865 40.5547 745.459C40.2129 745.049 39.7246 744.844 39.0898 744.844ZM50.4443 752V746.807C50.4443 746.153 50.2954 745.665 49.9976 745.342C49.6997 745.02 49.2334 744.859 48.5986 744.859C47.7588 744.859 47.1436 745.086 46.7529 745.54C46.3623 745.994 46.167 746.744 46.167 747.789V752H44.9512V743.973H45.9399L46.1377 745.071H46.1963C46.4453 744.676 46.7944 744.371 47.2437 744.156C47.6929 743.936 48.1934 743.826 48.7451 743.826C49.7119 743.826 50.4395 744.061 50.9277 744.529C51.416 744.993 51.6602 745.738 51.6602 746.763V752H50.4443ZM60.1289 750.923H60.063C59.5015 751.739 58.6616 752.146 57.5435 752.146C56.4937 752.146 55.6758 751.788 55.0898 751.07C54.5088 750.352 54.2183 749.332 54.2183 748.008C54.2183 746.685 54.5112 745.657 55.0972 744.925C55.6831 744.192 56.4985 743.826 57.5435 743.826C58.6323 743.826 59.4673 744.222 60.0483 745.013H60.1436L60.0923 744.434L60.063 743.87V740.604H61.2788V752H60.29L60.1289 750.923ZM57.6973 751.128C58.5273 751.128 59.1279 750.904 59.499 750.455C59.875 750 60.063 749.271 60.063 748.265V748.008C60.063 746.871 59.8726 746.06 59.4917 745.577C59.1157 745.088 58.5127 744.844 57.6826 744.844C56.9697 744.844 56.4229 745.123 56.042 745.679C55.666 746.231 55.478 747.012 55.478 748.023C55.478 749.048 55.666 749.822 56.042 750.345C56.418 750.867 56.9697 751.128 57.6973 751.128ZM65.5801 752H64.3643V743.973H65.5801V752ZM64.2617 741.797C64.2617 741.519 64.3301 741.316 64.4668 741.189C64.6035 741.058 64.7744 740.992 64.9795 740.992C65.1748 740.992 65.3433 741.058 65.4849 741.189C65.6265 741.321 65.6973 741.524 65.6973 741.797C65.6973 742.071 65.6265 742.276 65.4849 742.413C65.3433 742.544 65.1748 742.61 64.9795 742.61C64.7744 742.61 64.6035 742.544 64.4668 742.413C64.3301 742.276 64.2617 742.071 64.2617 741.797ZM73.8364 749.81C73.8364 750.557 73.5581 751.133 73.0015 751.539C72.4448 751.944 71.6636 752.146 70.6577 752.146C69.5933 752.146 68.7632 751.978 68.1675 751.641V750.513C68.5532 750.708 68.9658 750.862 69.4053 750.975C69.8496 751.087 70.2769 751.143 70.687 751.143C71.3218 751.143 71.8101 751.043 72.1519 750.843C72.4937 750.638 72.6646 750.328 72.6646 749.913C72.6646 749.6 72.5278 749.334 72.2544 749.114C71.9858 748.89 71.4585 748.626 70.6724 748.323C69.9253 748.045 69.3931 747.803 69.0757 747.598C68.7632 747.388 68.5288 747.151 68.3726 746.888C68.2212 746.624 68.1455 746.309 68.1455 745.943C68.1455 745.289 68.4116 744.773 68.9438 744.397C69.4761 744.017 70.2061 743.826 71.1338 743.826C71.998 743.826 72.8428 744.002 73.668 744.354L73.2358 745.342C72.4302 745.01 71.7002 744.844 71.0459 744.844C70.4697 744.844 70.0352 744.935 69.7422 745.115C69.4492 745.296 69.3027 745.545 69.3027 745.862C69.3027 746.077 69.3564 746.26 69.4639 746.412C69.5762 746.563 69.7544 746.707 69.9985 746.844C70.2427 746.98 70.7114 747.178 71.4048 747.437C72.3569 747.784 72.999 748.133 73.3311 748.484C73.668 748.836 73.8364 749.278 73.8364 749.81ZM81.4995 749.81C81.4995 750.557 81.2212 751.133 80.6646 751.539C80.1079 751.944 79.3267 752.146 78.3208 752.146C77.2563 752.146 76.4263 751.978 75.8306 751.641V750.513C76.2163 750.708 76.6289 750.862 77.0684 750.975C77.5127 751.087 77.9399 751.143 78.3501 751.143C78.9849 751.143 79.4731 751.043 79.8149 750.843C80.1567 750.638 80.3276 750.328 80.3276 749.913C80.3276 749.6 80.1909 749.334 79.9175 749.114C79.6489 748.89 79.1216 748.626 78.3354 748.323C77.5884 748.045 77.0562 747.803 76.7388 747.598C76.4263 747.388 76.1919 747.151 76.0356 746.888C75.8843 746.624 75.8086 746.309 75.8086 745.943C75.8086 745.289 76.0747 744.773 76.6069 744.397C77.1392 744.017 77.8691 743.826 78.7969 743.826C79.6611 743.826 80.5059 744.002 81.3311 744.354L80.8989 745.342C80.0933 745.01 79.3633 744.844 78.709 744.844C78.1328 744.844 77.6982 744.935 77.4053 745.115C77.1123 745.296 76.9658 745.545 76.9658 745.862C76.9658 746.077 77.0195 746.26 77.127 746.412C77.2393 746.563 77.4175 746.707 77.6616 746.844C77.9058 746.98 78.3745 747.178 79.0679 747.437C80.02 747.784 80.6621 748.133 80.9941 748.484C81.3311 748.836 81.4995 749.278 81.4995 749.81ZM87.3755 752.146C86.189 752.146 85.2515 751.785 84.563 751.062C83.8794 750.34 83.5376 749.336 83.5376 748.052C83.5376 746.758 83.855 745.73 84.4897 744.969C85.1294 744.207 85.9863 743.826 87.0605 743.826C88.0664 743.826 88.8623 744.158 89.4482 744.822C90.0342 745.481 90.3271 746.353 90.3271 747.437V748.206H84.7974C84.8218 749.148 85.0586 749.864 85.5078 750.352C85.9619 750.84 86.5991 751.084 87.4194 751.084C88.2837 751.084 89.1382 750.904 89.9829 750.542V751.626C89.5532 751.812 89.1455 751.944 88.7598 752.022C88.3789 752.105 87.9175 752.146 87.3755 752.146ZM87.0459 744.844C86.4014 744.844 85.8862 745.054 85.5005 745.474C85.1196 745.894 84.895 746.475 84.8267 747.217H89.0234C89.0234 746.451 88.8525 745.865 88.5107 745.459C88.1689 745.049 87.6807 744.844 87.0459 744.844ZM102.24 752L101.999 750.857H101.94C101.54 751.36 101.139 751.702 100.739 751.883C100.343 752.059 99.8477 752.146 99.252 752.146C98.4561 752.146 97.8311 751.941 97.377 751.531C96.9277 751.121 96.7031 750.538 96.7031 749.781C96.7031 748.16 97.9995 747.31 100.592 747.232L101.955 747.188V746.69C101.955 746.06 101.818 745.596 101.544 745.298C101.276 744.996 100.844 744.844 100.248 744.844C99.5791 744.844 98.8223 745.049 97.9775 745.459L97.604 744.529C97.9995 744.314 98.4316 744.146 98.9004 744.024C99.374 743.902 99.8477 743.841 100.321 743.841C101.278 743.841 101.986 744.053 102.445 744.478C102.909 744.903 103.141 745.584 103.141 746.521V752H102.24ZM99.4937 751.143C100.25 751.143 100.844 750.936 101.273 750.521C101.708 750.105 101.925 749.524 101.925 748.777V748.052L100.709 748.104C99.7427 748.138 99.0444 748.289 98.6147 748.558C98.1899 748.821 97.9775 749.234 97.9775 749.795C97.9775 750.235 98.1094 750.569 98.373 750.799C98.6416 751.028 99.0151 751.143 99.4937 751.143ZM115.486 752L115.245 750.857H115.186C114.786 751.36 114.385 751.702 113.985 751.883C113.589 752.059 113.094 752.146 112.498 752.146C111.702 752.146 111.077 751.941 110.623 751.531C110.174 751.121 109.949 750.538 109.949 749.781C109.949 748.16 111.246 747.31 113.838 747.232L115.201 747.188V746.69C115.201 746.06 115.064 745.596 114.791 745.298C114.522 744.996 114.09 744.844 113.494 744.844C112.825 744.844 112.068 745.049 111.224 745.459L110.85 744.529C111.246 744.314 111.678 744.146 112.146 744.024C112.62 743.902 113.094 743.841 113.567 743.841C114.524 743.841 115.232 744.053 115.691 744.478C116.155 744.903 116.387 745.584 116.387 746.521V752H115.486ZM112.74 751.143C113.497 751.143 114.09 750.936 114.52 750.521C114.954 750.105 115.171 749.524 115.171 748.777V748.052L113.956 748.104C112.989 748.138 112.291 748.289 111.861 748.558C111.436 748.821 111.224 749.234 111.224 749.795C111.224 750.235 111.355 750.569 111.619 750.799C111.888 751.028 112.261 751.143 112.74 751.143ZM124.863 750.923H124.797C124.236 751.739 123.396 752.146 122.278 752.146C121.228 752.146 120.41 751.788 119.824 751.07C119.243 750.352 118.953 749.332 118.953 748.008C118.953 746.685 119.246 745.657 119.832 744.925C120.417 744.192 121.233 743.826 122.278 743.826C123.367 743.826 124.202 744.222 124.783 745.013H124.878L124.827 744.434L124.797 743.87V740.604H126.013V752H125.024L124.863 750.923ZM122.432 751.128C123.262 751.128 123.862 750.904 124.233 750.455C124.609 750 124.797 749.271 124.797 748.265V748.008C124.797 746.871 124.607 746.06 124.226 745.577C123.85 745.088 123.247 744.844 122.417 744.844C121.704 744.844 121.157 745.123 120.776 745.679C120.4 746.231 120.212 747.012 120.212 748.023C120.212 749.048 120.4 749.822 120.776 750.345C121.152 750.867 121.704 751.128 122.432 751.128ZM134.711 752H133.495V740.604H134.711V752ZM142.726 752L142.484 750.857H142.425C142.025 751.36 141.625 751.702 141.224 751.883C140.829 752.059 140.333 752.146 139.737 752.146C138.941 752.146 138.316 751.941 137.862 751.531C137.413 751.121 137.188 750.538 137.188 749.781C137.188 748.16 138.485 747.31 141.078 747.232L142.44 747.188V746.69C142.44 746.06 142.303 745.596 142.03 745.298C141.761 744.996 141.329 744.844 140.733 744.844C140.064 744.844 139.308 745.049 138.463 745.459L138.089 744.529C138.485 744.314 138.917 744.146 139.386 744.024C139.859 743.902 140.333 743.841 140.807 743.841C141.764 743.841 142.472 744.053 142.931 744.478C143.395 744.903 143.626 745.584 143.626 746.521V752H142.726ZM139.979 751.143C140.736 751.143 141.329 750.936 141.759 750.521C142.193 750.105 142.411 749.524 142.411 748.777V748.052L141.195 748.104C140.228 748.138 139.53 748.289 139.1 748.558C138.675 748.821 138.463 749.234 138.463 749.795C138.463 750.235 138.595 750.569 138.858 750.799C139.127 751.028 139.5 751.143 139.979 751.143ZM149.847 752.146C148.685 752.146 147.784 751.79 147.144 751.077C146.509 750.359 146.192 749.346 146.192 748.038C146.192 746.695 146.514 745.657 147.159 744.925C147.808 744.192 148.731 743.826 149.927 743.826C150.313 743.826 150.699 743.868 151.084 743.951C151.47 744.034 151.773 744.131 151.993 744.244L151.619 745.276C151.351 745.169 151.058 745.081 150.74 745.013C150.423 744.939 150.142 744.903 149.898 744.903C148.267 744.903 147.452 745.943 147.452 748.023C147.452 749.009 147.649 749.766 148.045 750.293C148.445 750.821 149.036 751.084 149.817 751.084C150.486 751.084 151.172 750.94 151.875 750.652V751.729C151.338 752.007 150.662 752.146 149.847 752.146ZM155.43 743.973V749.18C155.43 749.834 155.579 750.323 155.876 750.645C156.174 750.967 156.641 751.128 157.275 751.128C158.115 751.128 158.728 750.899 159.114 750.44C159.504 749.981 159.7 749.231 159.7 748.191V743.973H160.916V752H159.912L159.736 750.923H159.67C159.421 751.319 159.075 751.622 158.63 751.832C158.191 752.042 157.688 752.146 157.122 752.146C156.145 752.146 155.413 751.915 154.924 751.451C154.441 750.987 154.199 750.245 154.199 749.224V743.973H155.43ZM169.179 749.81C169.179 750.557 168.901 751.133 168.344 751.539C167.788 751.944 167.006 752.146 166 752.146C164.936 752.146 164.106 751.978 163.51 751.641V750.513C163.896 750.708 164.309 750.862 164.748 750.975C165.192 751.087 165.62 751.143 166.03 751.143C166.665 751.143 167.153 751.043 167.495 750.843C167.836 750.638 168.007 750.328 168.007 749.913C168.007 749.6 167.871 749.334 167.597 749.114C167.329 748.89 166.801 748.626 166.015 748.323C165.268 748.045 164.736 747.803 164.418 747.598C164.106 747.388 163.872 747.151 163.715 746.888C163.564 746.624 163.488 746.309 163.488 745.943C163.488 745.289 163.754 744.773 164.287 744.397C164.819 744.017 165.549 743.826 166.477 743.826C167.341 743.826 168.186 744.002 169.011 744.354L168.579 745.342C167.773 745.01 167.043 744.844 166.389 744.844C165.812 744.844 165.378 744.935 165.085 745.115C164.792 745.296 164.646 745.545 164.646 745.862C164.646 746.077 164.699 746.26 164.807 746.412C164.919 746.563 165.097 746.707 165.341 746.844C165.585 746.98 166.054 747.178 166.748 747.437C167.7 747.784 168.342 748.133 168.674 748.484C169.011 748.836 169.179 749.278 169.179 749.81ZM186.292 752V746.778C186.292 746.138 186.156 745.66 185.882 745.342C185.609 745.02 185.184 744.859 184.608 744.859C183.851 744.859 183.292 745.076 182.931 745.511C182.569 745.945 182.389 746.614 182.389 747.518V752H181.173V746.778C181.173 746.138 181.036 745.66 180.763 745.342C180.489 745.02 180.062 744.859 179.481 744.859C178.719 744.859 178.16 745.088 177.804 745.547C177.452 746.001 177.276 746.749 177.276 747.789V752H176.061V743.973H177.049L177.247 745.071H177.306C177.535 744.681 177.857 744.375 178.272 744.156C178.692 743.936 179.161 743.826 179.679 743.826C180.934 743.826 181.754 744.28 182.14 745.188H182.198C182.438 744.769 182.784 744.437 183.238 744.192C183.692 743.948 184.21 743.826 184.791 743.826C185.699 743.826 186.378 744.061 186.827 744.529C187.281 744.993 187.508 745.738 187.508 746.763V752H186.292ZM195.457 752L195.215 750.857H195.157C194.756 751.36 194.356 751.702 193.956 751.883C193.56 752.059 193.064 752.146 192.469 752.146C191.673 752.146 191.048 751.941 190.594 751.531C190.145 751.121 189.92 750.538 189.92 749.781C189.92 748.16 191.216 747.31 193.809 747.232L195.171 747.188V746.69C195.171 746.06 195.035 745.596 194.761 745.298C194.493 744.996 194.061 744.844 193.465 744.844C192.796 744.844 192.039 745.049 191.194 745.459L190.821 744.529C191.216 744.314 191.648 744.146 192.117 744.024C192.591 743.902 193.064 743.841 193.538 743.841C194.495 743.841 195.203 744.053 195.662 744.478C196.126 744.903 196.358 745.584 196.358 746.521V752H195.457ZM192.71 751.143C193.467 751.143 194.061 750.936 194.49 750.521C194.925 750.105 195.142 749.524 195.142 748.777V748.052L193.926 748.104C192.959 748.138 192.261 748.289 191.832 748.558C191.407 748.821 191.194 749.234 191.194 749.795C191.194 750.235 191.326 750.569 191.59 750.799C191.858 751.028 192.232 751.143 192.71 751.143ZM200.513 743.973V749.18C200.513 749.834 200.662 750.323 200.959 750.645C201.257 750.967 201.724 751.128 202.358 751.128C203.198 751.128 203.811 750.899 204.197 750.44C204.587 749.981 204.783 749.231 204.783 748.191V743.973H205.999V752H204.995L204.819 750.923H204.753C204.504 751.319 204.158 751.622 203.713 751.832C203.274 752.042 202.771 752.146 202.205 752.146C201.228 752.146 200.496 751.915 200.007 751.451C199.524 750.987 199.282 750.245 199.282 749.224V743.973H200.513ZM212.746 743.826C213.103 743.826 213.422 743.855 213.706 743.914L213.537 745.042C213.205 744.969 212.912 744.932 212.658 744.932C212.009 744.932 211.452 745.196 210.988 745.723C210.529 746.25 210.3 746.907 210.3 747.693V752H209.084V743.973H210.087L210.227 745.459H210.285C210.583 744.937 210.942 744.534 211.362 744.251C211.782 743.968 212.243 743.826 212.746 743.826ZM216.923 752H215.707V743.973H216.923V752ZM215.604 741.797C215.604 741.519 215.673 741.316 215.81 741.189C215.946 741.058 216.117 740.992 216.322 740.992C216.518 740.992 216.686 741.058 216.828 741.189C216.969 741.321 217.04 741.524 217.04 741.797C217.04 742.071 216.969 742.276 216.828 742.413C216.686 742.544 216.518 742.61 216.322 742.61C216.117 742.61 215.946 742.544 215.81 742.413C215.673 742.276 215.604 742.071 215.604 741.797ZM225.179 749.81C225.179 750.557 224.901 751.133 224.344 751.539C223.788 751.944 223.006 752.146 222 752.146C220.936 752.146 220.106 751.978 219.51 751.641V750.513C219.896 750.708 220.309 750.862 220.748 750.975C221.192 751.087 221.62 751.143 222.03 751.143C222.665 751.143 223.153 751.043 223.495 750.843C223.836 750.638 224.007 750.328 224.007 749.913C224.007 749.6 223.871 749.334 223.597 749.114C223.329 748.89 222.801 748.626 222.015 748.323C221.268 748.045 220.736 747.803 220.418 747.598C220.106 747.388 219.872 747.151 219.715 746.888C219.564 746.624 219.488 746.309 219.488 745.943C219.488 745.289 219.754 744.773 220.287 744.397C220.819 744.017 221.549 743.826 222.477 743.826C223.341 743.826 224.186 744.002 225.011 744.354L224.579 745.342C223.773 745.01 223.043 744.844 222.389 744.844C221.812 744.844 221.378 744.935 221.085 745.115C220.792 745.296 220.646 745.545 220.646 745.862C220.646 746.077 220.699 746.26 220.807 746.412C220.919 746.563 221.097 746.707 221.341 746.844C221.585 746.98 222.054 747.178 222.748 747.437C223.7 747.784 224.342 748.133 224.674 748.484C225.011 748.836 225.179 749.278 225.179 749.81Z" fill="#5D5F65"/>
<path d="M8.36 660.12C6.97333 660.12 5.72 659.813 4.6 659.2C3.49333 658.587 2.62 657.74 1.98 656.66C1.35333 655.567 1.04 654.347 1.04 653C1.04 651.653 1.35333 650.44 1.98 649.36C2.62 648.267 3.5 647.413 4.62 646.8C5.74 646.187 6.99333 645.88 8.38 645.88C9.42 645.88 10.38 646.053 11.26 646.4C12.14 646.747 12.8867 647.253 13.5 647.92L12.56 648.86C11.4667 647.753 10.0867 647.2 8.42 647.2C7.31333 647.2 6.30667 647.453 5.4 647.96C4.49333 648.467 3.78 649.16 3.26 650.04C2.75333 650.92 2.5 651.907 2.5 653C2.5 654.093 2.75333 655.08 3.26 655.96C3.78 656.84 4.49333 657.533 5.4 658.04C6.30667 658.547 7.31333 658.8 8.42 658.8C10.1 658.8 11.48 658.24 12.56 657.12L13.5 658.06C12.8867 658.727 12.1333 659.24 11.24 659.6C10.36 659.947 9.4 660.12 8.36 660.12ZM20.1863 660.1C19.1729 660.1 18.2596 659.873 17.4463 659.42C16.6329 658.953 15.9929 658.313 15.5263 657.5C15.0596 656.687 14.8263 655.767 14.8263 654.74C14.8263 653.713 15.0596 652.793 15.5263 651.98C15.9929 651.167 16.6329 650.533 17.4463 650.08C18.2596 649.627 19.1729 649.4 20.1863 649.4C21.1996 649.4 22.1129 649.627 22.9263 650.08C23.7396 650.533 24.3729 651.167 24.8263 651.98C25.2929 652.793 25.5263 653.713 25.5263 654.74C25.5263 655.767 25.2929 656.687 24.8263 657.5C24.3729 658.313 23.7396 658.953 22.9263 659.42C22.1129 659.873 21.1996 660.1 20.1863 660.1ZM20.1863 658.84C20.9329 658.84 21.5996 658.673 22.1863 658.34C22.7863 657.993 23.2529 657.507 23.5863 656.88C23.9196 656.253 24.0863 655.54 24.0863 654.74C24.0863 653.94 23.9196 653.227 23.5863 652.6C23.2529 651.973 22.7863 651.493 22.1863 651.16C21.5996 650.813 20.9329 650.64 20.1863 650.64C19.4396 650.64 18.7663 650.813 18.1663 651.16C17.5796 651.493 17.1129 651.973 16.7663 652.6C16.4329 653.227 16.2663 653.94 16.2663 654.74C16.2663 655.54 16.4329 656.253 16.7663 656.88C17.1129 657.507 17.5796 657.993 18.1663 658.34C18.7663 658.673 19.4396 658.84 20.1863 658.84ZM33.7853 649.4C35.1053 649.4 36.152 649.787 36.9253 650.56C37.712 651.32 38.1053 652.433 38.1053 653.9V660H36.6853V654.04C36.6853 652.947 36.412 652.113 35.8653 651.54C35.3186 650.967 34.5386 650.68 33.5253 650.68C32.392 650.68 31.492 651.02 30.8253 651.7C30.172 652.367 29.8453 653.293 29.8453 654.48V660H28.4253V649.48H29.7853V651.42C30.172 650.78 30.7053 650.287 31.3853 649.94C32.0786 649.58 32.8786 649.4 33.7853 649.4ZM44.7805 660.1C43.9271 660.1 43.1071 659.98 42.3205 659.74C41.5471 659.487 40.9405 659.173 40.5005 658.8L41.1405 657.68C41.5805 658.027 42.1338 658.313 42.8005 658.54C43.4671 658.753 44.1605 658.86 44.8805 658.86C45.8405 658.86 46.5471 658.713 47.0005 658.42C47.4671 658.113 47.7005 657.687 47.7005 657.14C47.7005 656.753 47.5738 656.453 47.3205 656.24C47.0671 656.013 46.7471 655.847 46.3605 655.74C45.9738 655.62 45.4605 655.507 44.8205 655.4C43.9671 655.24 43.2805 655.08 42.7605 654.92C42.2405 654.747 41.7938 654.46 41.4205 654.06C41.0605 653.66 40.8805 653.107 40.8805 652.4C40.8805 651.52 41.2471 650.8 41.9805 650.24C42.7138 649.68 43.7338 649.4 45.0405 649.4C45.7205 649.4 46.4005 649.493 47.0805 649.68C47.7605 649.853 48.3205 650.087 48.7605 650.38L48.1405 651.52C47.2738 650.92 46.2405 650.62 45.0405 650.62C44.1338 650.62 43.4471 650.78 42.9805 651.1C42.5271 651.42 42.3005 651.84 42.3005 652.36C42.3005 652.76 42.4271 653.08 42.6805 653.32C42.9471 653.56 43.2738 653.74 43.6605 653.86C44.0471 653.967 44.5805 654.08 45.2605 654.2C46.1005 654.36 46.7738 654.52 47.2805 654.68C47.7871 654.84 48.2205 655.113 48.5805 655.5C48.9405 655.887 49.1205 656.42 49.1205 657.1C49.1205 658.02 48.7338 658.753 47.9605 659.3C47.2005 659.833 46.1405 660.1 44.7805 660.1ZM60.9056 655.18H52.1056C52.1856 656.273 52.6056 657.16 53.3656 657.84C54.1256 658.507 55.0856 658.84 56.2456 658.84C56.899 658.84 57.499 658.727 58.0456 658.5C58.5923 658.26 59.0656 657.913 59.4656 657.46L60.2656 658.38C59.799 658.94 59.2123 659.367 58.5056 659.66C57.8123 659.953 57.0456 660.1 56.2056 660.1C55.1256 660.1 54.1656 659.873 53.3256 659.42C52.499 658.953 51.8523 658.313 51.3856 657.5C50.919 656.687 50.6856 655.767 50.6856 654.74C50.6856 653.713 50.9056 652.793 51.3456 651.98C51.799 651.167 52.4123 650.533 53.1856 650.08C53.9723 649.627 54.8523 649.4 55.8256 649.4C56.799 649.4 57.6723 649.627 58.4456 650.08C59.219 650.533 59.8256 651.167 60.2656 651.98C60.7056 652.78 60.9256 653.7 60.9256 654.74L60.9056 655.18ZM55.8256 650.62C54.8123 650.62 53.959 650.947 53.2656 651.6C52.5856 652.24 52.199 653.08 52.1056 654.12H59.5656C59.4723 653.08 59.079 652.24 58.3856 651.6C57.7056 650.947 56.8523 650.62 55.8256 650.62ZM68.1759 660.1C67.1359 660.1 66.2026 659.873 65.3759 659.42C64.5626 658.967 63.9226 658.333 63.4559 657.52C62.9893 656.693 62.7559 655.767 62.7559 654.74C62.7559 653.713 62.9893 652.793 63.4559 651.98C63.9226 651.167 64.5626 650.533 65.3759 650.08C66.2026 649.627 67.1359 649.4 68.1759 649.4C69.0826 649.4 69.8893 649.58 70.5959 649.94C71.3159 650.287 71.8826 650.8 72.2959 651.48L71.2359 652.2C70.8893 651.68 70.4493 651.293 69.9159 651.04C69.3826 650.773 68.8026 650.64 68.1759 650.64C67.4159 650.64 66.7293 650.813 66.1159 651.16C65.5159 651.493 65.0426 651.973 64.6959 652.6C64.3626 653.227 64.1959 653.94 64.1959 654.74C64.1959 655.553 64.3626 656.273 64.6959 656.9C65.0426 657.513 65.5159 657.993 66.1159 658.34C66.7293 658.673 67.4159 658.84 68.1759 658.84C68.8026 658.84 69.3826 658.713 69.9159 658.46C70.4493 658.207 70.8893 657.82 71.2359 657.3L72.2959 658.02C71.8826 658.7 71.3159 659.22 70.5959 659.58C69.8759 659.927 69.0693 660.1 68.1759 660.1ZM80.7427 659.36C80.476 659.6 80.1427 659.787 79.7427 659.92C79.356 660.04 78.9493 660.1 78.5227 660.1C77.536 660.1 76.776 659.833 76.2427 659.3C75.7093 658.767 75.4427 658.013 75.4427 657.04V650.68H73.5627V649.48H75.4427V647.18H76.8627V649.48H80.0627V650.68H76.8627V656.96C76.8627 657.587 77.016 658.067 77.3227 658.4C77.6427 658.72 78.096 658.88 78.6827 658.88C78.976 658.88 79.256 658.833 79.5227 658.74C79.8027 658.647 80.0427 658.513 80.2427 658.34L80.7427 659.36ZM92.1166 655.18H83.3166C83.3966 656.273 83.8166 657.16 84.5766 657.84C85.3366 658.507 86.2966 658.84 87.4566 658.84C88.1099 658.84 88.7099 658.727 89.2566 658.5C89.8032 658.26 90.2766 657.913 90.6766 657.46L91.4766 658.38C91.0099 658.94 90.4232 659.367 89.7166 659.66C89.0232 659.953 88.2566 660.1 87.4166 660.1C86.3366 660.1 85.3766 659.873 84.5366 659.42C83.7099 658.953 83.0632 658.313 82.5966 657.5C82.1299 656.687 81.8966 655.767 81.8966 654.74C81.8966 653.713 82.1166 652.793 82.5566 651.98C83.0099 651.167 83.6232 650.533 84.3966 650.08C85.1832 649.627 86.0632 649.4 87.0366 649.4C88.0099 649.4 88.8832 649.627 89.6566 650.08C90.4299 650.533 91.0366 651.167 91.4766 651.98C91.9166 652.78 92.1366 653.7 92.1366 654.74L92.1166 655.18ZM87.0366 650.62C86.0232 650.62 85.1699 650.947 84.4766 651.6C83.7966 652.24 83.4099 653.08 83.3166 654.12H90.7766C90.6832 653.08 90.2899 652.24 89.5966 651.6C88.9166 650.947 88.0632 650.62 87.0366 650.62ZM100.567 659.36C100.3 659.6 99.9669 659.787 99.5669 659.92C99.1802 660.04 98.7735 660.1 98.3469 660.1C97.3602 660.1 96.6002 659.833 96.0669 659.3C95.5335 658.767 95.2669 658.013 95.2669 657.04V650.68H93.3869V649.48H95.2669V647.18H96.6869V649.48H99.8869V650.68H96.6869V656.96C96.6869 657.587 96.8402 658.067 97.1469 658.4C97.4669 658.72 97.9202 658.88 98.5069 658.88C98.8002 658.88 99.0802 658.833 99.3469 658.74C99.6269 658.647 99.8669 658.513 100.067 658.34L100.567 659.36ZM112.632 649.48V660H111.272V658.08C110.899 658.72 110.385 659.22 109.732 659.58C109.079 659.927 108.332 660.1 107.492 660.1C106.119 660.1 105.032 659.72 104.232 658.96C103.445 658.187 103.052 657.06 103.052 655.58V649.48H104.472V655.44C104.472 656.547 104.745 657.387 105.292 657.96C105.839 658.533 106.619 658.82 107.632 658.82C108.739 658.82 109.612 658.487 110.252 657.82C110.892 657.14 111.212 656.2 111.212 655V649.48H112.632ZM117.969 651.54C118.302 650.833 118.796 650.3 119.449 649.94C120.116 649.58 120.936 649.4 121.909 649.4V650.78L121.569 650.76C120.462 650.76 119.596 651.1 118.969 651.78C118.342 652.46 118.029 653.413 118.029 654.64V660H116.609V649.48H117.969V651.54ZM138.711 649.48L134.031 660H132.571L127.911 649.48H129.391L133.331 658.44L137.311 649.48H138.711ZM149.578 655.18H140.778C140.858 656.273 141.278 657.16 142.038 657.84C142.798 658.507 143.758 658.84 144.918 658.84C145.571 658.84 146.171 658.727 146.718 658.5C147.264 658.26 147.738 657.913 148.138 657.46L148.938 658.38C148.471 658.94 147.884 659.367 147.178 659.66C146.484 659.953 145.718 660.1 144.878 660.1C143.798 660.1 142.838 659.873 141.998 659.42C141.171 658.953 140.524 658.313 140.058 657.5C139.591 656.687 139.358 655.767 139.358 654.74C139.358 653.713 139.578 652.793 140.018 651.98C140.471 651.167 141.084 650.533 141.858 650.08C142.644 649.627 143.524 649.4 144.498 649.4C145.471 649.4 146.344 649.627 147.118 650.08C147.891 650.533 148.498 651.167 148.938 651.98C149.378 652.78 149.598 653.7 149.598 654.74L149.578 655.18ZM144.498 650.62C143.484 650.62 142.631 650.947 141.938 651.6C141.258 652.24 140.871 653.08 140.778 654.12H148.238C148.144 653.08 147.751 652.24 147.058 651.6C146.378 650.947 145.524 650.62 144.498 650.62ZM155.308 660.1C154.454 660.1 153.634 659.98 152.848 659.74C152.074 659.487 151.468 659.173 151.028 658.8L151.668 657.68C152.108 658.027 152.661 658.313 153.328 658.54C153.994 658.753 154.688 658.86 155.408 658.86C156.368 658.86 157.074 658.713 157.528 658.42C157.994 658.113 158.228 657.687 158.228 657.14C158.228 656.753 158.101 656.453 157.848 656.24C157.594 656.013 157.274 655.847 156.888 655.74C156.501 655.62 155.988 655.507 155.348 655.4C154.494 655.24 153.808 655.08 153.288 654.92C152.768 654.747 152.321 654.46 151.948 654.06C151.588 653.66 151.408 653.107 151.408 652.4C151.408 651.52 151.774 650.8 152.508 650.24C153.241 649.68 154.261 649.4 155.568 649.4C156.248 649.4 156.928 649.493 157.608 649.68C158.288 649.853 158.848 650.087 159.288 650.38L158.668 651.52C157.801 650.92 156.768 650.62 155.568 650.62C154.661 650.62 153.974 650.78 153.508 651.1C153.054 651.42 152.828 651.84 152.828 652.36C152.828 652.76 152.954 653.08 153.208 653.32C153.474 653.56 153.801 653.74 154.188 653.86C154.574 653.967 155.108 654.08 155.788 654.2C156.628 654.36 157.301 654.52 157.808 654.68C158.314 654.84 158.748 655.113 159.108 655.5C159.468 655.887 159.648 656.42 159.648 657.1C159.648 658.02 159.261 658.753 158.488 659.3C157.728 659.833 156.668 660.1 155.308 660.1ZM167.813 659.36C167.546 659.6 167.213 659.787 166.813 659.92C166.426 660.04 166.02 660.1 165.593 660.1C164.606 660.1 163.846 659.833 163.313 659.3C162.78 658.767 162.513 658.013 162.513 657.04V650.68H160.633V649.48H162.513V647.18H163.933V649.48H167.133V650.68H163.933V656.96C163.933 657.587 164.086 658.067 164.393 658.4C164.713 658.72 165.166 658.88 165.753 658.88C166.046 658.88 166.326 658.833 166.593 658.74C166.873 658.647 167.113 658.513 167.313 658.34L167.813 659.36ZM170.398 649.48H171.818V660H170.398V649.48ZM171.118 647.18C170.825 647.18 170.578 647.08 170.378 646.88C170.178 646.68 170.078 646.44 170.078 646.16C170.078 645.893 170.178 645.66 170.378 645.46C170.578 645.26 170.825 645.16 171.118 645.16C171.411 645.16 171.658 645.26 171.858 645.46C172.058 645.647 172.158 645.873 172.158 646.14C172.158 646.433 172.058 646.68 171.858 646.88C171.658 647.08 171.411 647.18 171.118 647.18ZM181.189 649.4C182.176 649.4 183.069 649.627 183.869 650.08C184.669 650.52 185.296 651.147 185.749 651.96C186.202 652.773 186.429 653.7 186.429 654.74C186.429 655.78 186.202 656.707 185.749 657.52C185.296 658.333 184.669 658.967 183.869 659.42C183.069 659.873 182.176 660.1 181.189 660.1C180.309 660.1 179.516 659.913 178.809 659.54C178.116 659.167 177.556 658.627 177.129 657.92V660H175.769V645.16H177.189V651.48C177.629 650.8 178.189 650.287 178.869 649.94C179.562 649.58 180.336 649.4 181.189 649.4ZM181.089 658.84C181.822 658.84 182.489 658.673 183.089 658.34C183.689 657.993 184.156 657.507 184.489 656.88C184.836 656.253 185.009 655.54 185.009 654.74C185.009 653.94 184.836 653.227 184.489 652.6C184.156 651.973 183.689 651.493 183.089 651.16C182.489 650.813 181.822 650.64 181.089 650.64C180.342 650.64 179.669 650.813 179.069 651.16C178.482 651.493 178.016 651.973 177.669 652.6C177.336 653.227 177.169 653.94 177.169 654.74C177.169 655.54 177.336 656.253 177.669 656.88C178.016 657.507 178.482 657.993 179.069 658.34C179.669 658.673 180.342 658.84 181.089 658.84ZM198.804 649.48V660H197.444V658.08C197.07 658.72 196.557 659.22 195.904 659.58C195.25 659.927 194.504 660.1 193.664 660.1C192.29 660.1 191.204 659.72 190.404 658.96C189.617 658.187 189.224 657.06 189.224 655.58V649.48H190.644V655.44C190.644 656.547 190.917 657.387 191.464 657.96C192.01 658.533 192.79 658.82 193.804 658.82C194.91 658.82 195.784 658.487 196.424 657.82C197.064 657.14 197.384 656.2 197.384 655V649.48H198.804ZM202.781 645.16H204.201V660H202.781V645.16ZM217.632 649.48V660H216.272V658.08C215.899 658.72 215.385 659.22 214.732 659.58C214.079 659.927 213.332 660.1 212.492 660.1C211.119 660.1 210.032 659.72 209.232 658.96C208.445 658.187 208.052 657.06 208.052 655.58V649.48H209.472V655.44C209.472 656.547 209.745 657.387 210.292 657.96C210.839 658.533 211.619 658.82 212.632 658.82C213.739 658.82 214.612 658.487 215.252 657.82C215.892 657.14 216.212 656.2 216.212 655V649.48H217.632ZM234.729 649.4C236.049 649.4 237.082 649.78 237.829 650.54C238.589 651.3 238.969 652.42 238.969 653.9V660H237.549V654.04C237.549 652.947 237.282 652.113 236.749 651.54C236.229 650.967 235.489 650.68 234.529 650.68C233.436 650.68 232.576 651.02 231.949 651.7C231.322 652.367 231.009 653.293 231.009 654.48V660H229.589V654.04C229.589 652.947 229.322 652.113 228.789 651.54C228.269 650.967 227.522 650.68 226.549 650.68C225.469 650.68 224.609 651.02 223.969 651.7C223.342 652.367 223.029 653.293 223.029 654.48V660H221.609V649.48H222.969V651.4C223.342 650.76 223.862 650.267 224.529 649.92C225.196 649.573 225.962 649.4 226.829 649.4C227.709 649.4 228.469 649.587 229.109 649.96C229.762 650.333 230.249 650.887 230.569 651.62C230.956 650.927 231.509 650.387 232.229 650C232.962 649.6 233.796 649.4 234.729 649.4Z" fill="#141720"/>
<path fill-rule="evenodd" clip-rule="evenodd" d="M15.4642 589C13.365 589 11.7142 590.539 11.7142 592.5C11.7142 594.461 13.3636 596 15.4642 596C17.5635 596 19.2142 594.461 19.2142 592.5C19.2142 590.539 17.5649 589 15.4642 589ZM14.9285 594C13.7138 594 12.7857 593.134 12.7857 592C12.7857 590.866 13.7138 590 14.9285 590C16.1433 590 17.0714 590.866 17.0714 592C17.0714 593.134 16.1433 594 14.9285 594Z" fill="#C71222"/>
<path fill-rule="evenodd" clip-rule="evenodd" d="M22.6954 603.667C22.6954 598.867 22.6954 593.401 22.6954 591.4C22.6954 587.667 20.0199 582.6 15.4636 580C10.9073 582.6 8.2318 587.667 8.2318 591.467C8.2318 593.467 8.2318 598.933 8.2318 603.733L1 612H29.9286L22.6968 603.666L22.6954 603.667ZM8.5 611H4.21429L8.5 606V611ZM21.3558 611H9.57143V591.844C9.57143 588.851 11.6333 584.527 15.4643 582C19.2939 584.528 21.3571 588.785 21.3571 591.844V611H21.3558ZM22.4286 606L26.7143 611H22.4286C22.4286 609.835 22.4286 608.055 22.4286 606Z" fill="#C71222"/>
<path fill-rule="evenodd" clip-rule="evenodd" d="M14.9286 613H16V620H14.9286V613Z" fill="#C71222"/>
<path fill-rule="evenodd" clip-rule="evenodd" d="M18.1428 613H19.2143V617H18.1428V613Z" fill="#C71222"/>
<path fill-rule="evenodd" clip-rule="evenodd" d="M11.7142 613H12.7857V617H11.7142V613H11.7142Z" fill="#C71222"/>
</svg>
