<svg width="355" height="177" viewBox="0 0 355 177" fill="none" xmlns="http://www.w3.org/2000/svg">
<path d="M6.05713 108.251C4.88037 108.251 3.9502 108.645 3.2666 109.431C2.58789 110.212 2.24854 111.284 2.24854 112.646C2.24854 114.047 2.57568 115.131 3.22998 115.898C3.88916 116.66 4.82666 117.041 6.04248 117.041C6.78955 117.041 7.6416 116.906 8.59863 116.638V117.729C7.85645 118.007 6.94092 118.146 5.85205 118.146C4.2749 118.146 3.05664 117.668 2.19727 116.711C1.34277 115.754 0.915527 114.394 0.915527 112.631C0.915527 111.528 1.12061 110.561 1.53076 109.731C1.9458 108.901 2.5415 108.261 3.31787 107.812C4.09912 107.363 5.01709 107.138 6.07178 107.138C7.19482 107.138 8.17627 107.343 9.01611 107.753L8.48877 108.823C7.67822 108.442 6.86768 108.251 6.05713 108.251ZM18.1807 113.979C18.1807 115.288 17.8511 116.311 17.1919 117.048C16.5327 117.78 15.6221 118.146 14.46 118.146C13.7422 118.146 13.105 117.978 12.5483 117.641C11.9917 117.304 11.562 116.821 11.2593 116.191C10.9565 115.561 10.8052 114.824 10.8052 113.979C10.8052 112.67 11.1323 111.652 11.7866 110.925C12.4409 110.192 13.3491 109.826 14.5112 109.826C15.6343 109.826 16.5254 110.2 17.1846 110.947C17.8486 111.694 18.1807 112.705 18.1807 113.979ZM12.0649 113.979C12.0649 115.004 12.27 115.786 12.6802 116.323C13.0903 116.86 13.6934 117.128 14.4893 117.128C15.2852 117.128 15.8882 116.862 16.2983 116.33C16.7134 115.793 16.9209 115.009 16.9209 113.979C16.9209 112.958 16.7134 112.185 16.2983 111.657C15.8882 111.125 15.2803 110.859 14.4746 110.859C13.6787 110.859 13.0781 111.12 12.6729 111.643C12.2676 112.165 12.0649 112.944 12.0649 113.979ZM26.3125 118V112.807C26.3125 112.153 26.1636 111.665 25.8657 111.342C25.5679 111.02 25.1016 110.859 24.4668 110.859C23.627 110.859 23.0117 111.086 22.6211 111.54C22.2305 111.994 22.0352 112.744 22.0352 113.789V118H20.8193V109.973H21.8081L22.0059 111.071H22.0645C22.3135 110.676 22.6626 110.371 23.1118 110.156C23.561 109.936 24.0615 109.826 24.6133 109.826C25.5801 109.826 26.3076 110.061 26.7959 110.529C27.2842 110.993 27.5283 111.738 27.5283 112.763V118H26.3125ZM35.7114 115.81C35.7114 116.557 35.4331 117.133 34.8765 117.539C34.3198 117.944 33.5386 118.146 32.5327 118.146C31.4683 118.146 30.6382 117.978 30.0425 117.641V116.513C30.4282 116.708 30.8408 116.862 31.2803 116.975C31.7246 117.087 32.1519 117.143 32.562 117.143C33.1968 117.143 33.6851 117.043 34.0269 116.843C34.3687 116.638 34.5396 116.328 34.5396 115.913C34.5396 115.6 34.4028 115.334 34.1294 115.114C33.8608 114.89 33.3335 114.626 32.5474 114.323C31.8003 114.045 31.2681 113.803 30.9507 113.598C30.6382 113.388 30.4038 113.151 30.2476 112.888C30.0962 112.624 30.0205 112.309 30.0205 111.943C30.0205 111.289 30.2866 110.773 30.8188 110.397C31.3511 110.017 32.0811 109.826 33.0088 109.826C33.873 109.826 34.7178 110.002 35.543 110.354L35.1108 111.342C34.3052 111.01 33.5752 110.844 32.9209 110.844C32.3447 110.844 31.9102 110.935 31.6172 111.115C31.3242 111.296 31.1777 111.545 31.1777 111.862C31.1777 112.077 31.2314 112.26 31.3389 112.412C31.4512 112.563 31.6294 112.707 31.8735 112.844C32.1177 112.98 32.5864 113.178 33.2798 113.437C34.2319 113.784 34.874 114.133 35.2061 114.484C35.543 114.836 35.7114 115.278 35.7114 115.81ZM41.5874 118.146C40.4009 118.146 39.4634 117.785 38.7749 117.062C38.0913 116.34 37.7495 115.336 37.7495 114.052C37.7495 112.758 38.0669 111.73 38.7017 110.969C39.3413 110.207 40.1982 109.826 41.2725 109.826C42.2783 109.826 43.0742 110.158 43.6602 110.822C44.2461 111.481 44.5391 112.353 44.5391 113.437V114.206H39.0093C39.0337 115.148 39.2705 115.864 39.7197 116.352C40.1738 116.84 40.811 117.084 41.6313 117.084C42.4956 117.084 43.3501 116.904 44.1948 116.542V117.626C43.7651 117.812 43.3574 117.944 42.9717 118.022C42.5908 118.105 42.1294 118.146 41.5874 118.146ZM41.2578 110.844C40.6133 110.844 40.0981 111.054 39.7124 111.474C39.3315 111.894 39.1069 112.475 39.0386 113.217H43.2354C43.2354 112.451 43.0645 111.865 42.7227 111.459C42.3809 111.049 41.8926 110.844 41.2578 110.844ZM50.3271 118.146C49.165 118.146 48.2642 117.79 47.6245 117.077C46.9897 116.359 46.6724 115.346 46.6724 114.038C46.6724 112.695 46.9946 111.657 47.6392 110.925C48.2886 110.192 49.2114 109.826 50.4077 109.826C50.7935 109.826 51.1792 109.868 51.5649 109.951C51.9507 110.034 52.2534 110.131 52.4731 110.244L52.0996 111.276C51.8311 111.169 51.5381 111.081 51.2207 111.013C50.9033 110.939 50.6226 110.903 50.3784 110.903C48.7476 110.903 47.9321 111.943 47.9321 114.023C47.9321 115.009 48.1299 115.766 48.5254 116.293C48.9258 116.821 49.5166 117.084 50.2979 117.084C50.9668 117.084 51.6528 116.94 52.356 116.652V117.729C51.8188 118.007 51.1426 118.146 50.3271 118.146ZM57.3604 117.143C57.5752 117.143 57.7827 117.128 57.9829 117.099C58.1831 117.065 58.3418 117.031 58.459 116.997V117.927C58.3271 117.99 58.1318 118.042 57.873 118.081C57.6191 118.125 57.3896 118.146 57.1846 118.146C55.6318 118.146 54.8555 117.329 54.8555 115.693V110.917H53.7056V110.332L54.8555 109.826L55.3682 108.112H56.0713V109.973H58.4004V110.917H56.0713V115.642C56.0713 116.125 56.186 116.496 56.4155 116.755C56.645 117.014 56.96 117.143 57.3604 117.143ZM63.9614 118.146C62.7749 118.146 61.8374 117.785 61.1489 117.062C60.4653 116.34 60.1235 115.336 60.1235 114.052C60.1235 112.758 60.4409 111.73 61.0757 110.969C61.7153 110.207 62.5723 109.826 63.6465 109.826C64.6523 109.826 65.4482 110.158 66.0342 110.822C66.6201 111.481 66.9131 112.353 66.9131 113.437V114.206H61.3833C61.4077 115.148 61.6445 115.864 62.0938 116.352C62.5479 116.84 63.1851 117.084 64.0054 117.084C64.8696 117.084 65.7241 116.904 66.5688 116.542V117.626C66.1392 117.812 65.7314 117.944 65.3457 118.022C64.9648 118.105 64.5034 118.146 63.9614 118.146ZM63.6318 110.844C62.9873 110.844 62.4722 111.054 62.0864 111.474C61.7056 111.894 61.481 112.475 61.4126 113.217H65.6094C65.6094 112.451 65.4385 111.865 65.0967 111.459C64.7549 111.049 64.2666 110.844 63.6318 110.844ZM72.0859 117.143C72.3008 117.143 72.5083 117.128 72.7085 117.099C72.9087 117.065 73.0674 117.031 73.1846 116.997V117.927C73.0527 117.99 72.8574 118.042 72.5986 118.081C72.3447 118.125 72.1152 118.146 71.9102 118.146C70.3574 118.146 69.5811 117.329 69.5811 115.693V110.917H68.4312V110.332L69.5811 109.826L70.0938 108.112H70.7969V109.973H73.126V110.917H70.7969V115.642C70.7969 116.125 70.9116 116.496 71.1411 116.755C71.3706 117.014 71.6855 117.143 72.0859 117.143ZM76.4385 109.973V115.18C76.4385 115.834 76.5874 116.323 76.8853 116.645C77.1831 116.967 77.6494 117.128 78.2842 117.128C79.124 117.128 79.7368 116.899 80.1226 116.44C80.5132 115.981 80.7085 115.231 80.7085 114.191V109.973H81.9243V118H80.9209L80.7451 116.923H80.6792C80.4302 117.319 80.0835 117.622 79.6392 117.832C79.1997 118.042 78.6968 118.146 78.1304 118.146C77.1538 118.146 76.4214 117.915 75.9331 117.451C75.4497 116.987 75.208 116.245 75.208 115.224V109.973H76.4385ZM88.6719 109.826C89.0283 109.826 89.3481 109.855 89.6313 109.914L89.4629 111.042C89.1309 110.969 88.8379 110.932 88.584 110.932C87.9346 110.932 87.3779 111.196 86.9141 111.723C86.4551 112.25 86.2256 112.907 86.2256 113.693V118H85.0098V109.973H86.0132L86.1523 111.459H86.2109C86.5088 110.937 86.8677 110.534 87.2876 110.251C87.7075 109.968 88.1689 109.826 88.6719 109.826ZM97.7871 118L94.7402 109.973H96.0439L97.7725 114.733C98.1631 115.847 98.3926 116.569 98.4609 116.901H98.5195C98.5732 116.643 98.7417 116.108 99.0249 115.297C99.313 114.482 99.9551 112.707 100.951 109.973H102.255L99.208 118H97.7871ZM107.435 118.146C106.249 118.146 105.311 117.785 104.623 117.062C103.939 116.34 103.597 115.336 103.597 114.052C103.597 112.758 103.915 111.73 104.549 110.969C105.189 110.207 106.046 109.826 107.12 109.826C108.126 109.826 108.922 110.158 109.508 110.822C110.094 111.481 110.387 112.353 110.387 113.437V114.206H104.857C104.881 115.148 105.118 115.864 105.567 116.352C106.021 116.84 106.659 117.084 107.479 117.084C108.343 117.084 109.198 116.904 110.042 116.542V117.626C109.613 117.812 109.205 117.944 108.819 118.022C108.438 118.105 107.977 118.146 107.435 118.146ZM107.105 110.844C106.461 110.844 105.946 111.054 105.56 111.474C105.179 111.894 104.955 112.475 104.886 113.217H109.083C109.083 112.451 108.912 111.865 108.57 111.459C108.229 111.049 107.74 110.844 107.105 110.844ZM118.145 115.81C118.145 116.557 117.867 117.133 117.31 117.539C116.753 117.944 115.972 118.146 114.966 118.146C113.902 118.146 113.072 117.978 112.476 117.641V116.513C112.862 116.708 113.274 116.862 113.714 116.975C114.158 117.087 114.585 117.143 114.996 117.143C115.63 117.143 116.119 117.043 116.46 116.843C116.802 116.638 116.973 116.328 116.973 115.913C116.973 115.6 116.836 115.334 116.563 115.114C116.294 114.89 115.767 114.626 114.981 114.323C114.234 114.045 113.702 113.803 113.384 113.598C113.072 113.388 112.837 113.151 112.681 112.888C112.53 112.624 112.454 112.309 112.454 111.943C112.454 111.289 112.72 110.773 113.252 110.397C113.785 110.017 114.515 109.826 115.442 109.826C116.307 109.826 117.151 110.002 117.977 110.354L117.544 111.342C116.739 111.01 116.009 110.844 115.354 110.844C114.778 110.844 114.344 110.935 114.051 111.115C113.758 111.296 113.611 111.545 113.611 111.862C113.611 112.077 113.665 112.26 113.772 112.412C113.885 112.563 114.063 112.707 114.307 112.844C114.551 112.98 115.02 113.178 115.713 113.437C116.666 113.784 117.308 114.133 117.64 114.484C117.977 114.836 118.145 115.278 118.145 115.81ZM123.223 117.143C123.438 117.143 123.645 117.128 123.845 117.099C124.045 117.065 124.204 117.031 124.321 116.997V117.927C124.189 117.99 123.994 118.042 123.735 118.081C123.481 118.125 123.252 118.146 123.047 118.146C121.494 118.146 120.718 117.329 120.718 115.693V110.917H119.568V110.332L120.718 109.826L121.23 108.112H121.934V109.973H124.263V110.917H121.934V115.642C121.934 116.125 122.048 116.496 122.278 116.755C122.507 117.014 122.822 117.143 123.223 117.143ZM127.648 118H126.433V109.973H127.648V118ZM126.33 107.797C126.33 107.519 126.398 107.316 126.535 107.189C126.672 107.058 126.843 106.992 127.048 106.992C127.243 106.992 127.412 107.058 127.553 107.189C127.695 107.321 127.766 107.524 127.766 107.797C127.766 108.071 127.695 108.276 127.553 108.413C127.412 108.544 127.243 108.61 127.048 108.61C126.843 108.61 126.672 108.544 126.535 108.413C126.398 108.276 126.33 108.071 126.33 107.797ZM134.462 109.841C135.517 109.841 136.334 110.202 136.916 110.925C137.501 111.643 137.794 112.661 137.794 113.979C137.794 115.297 137.499 116.323 136.908 117.055C136.322 117.783 135.507 118.146 134.462 118.146C133.939 118.146 133.461 118.051 133.026 117.861C132.597 117.666 132.235 117.368 131.942 116.967H131.854L131.598 118H130.727V106.604H131.942V109.372C131.942 109.992 131.923 110.549 131.884 111.042H131.942C132.509 110.241 133.349 109.841 134.462 109.841ZM134.286 110.859C133.456 110.859 132.858 111.098 132.492 111.577C132.125 112.05 131.942 112.851 131.942 113.979C131.942 115.107 132.13 115.915 132.506 116.403C132.882 116.887 133.485 117.128 134.315 117.128C135.062 117.128 135.619 116.857 135.985 116.315C136.352 115.769 136.535 114.985 136.535 113.964C136.535 112.919 136.352 112.141 135.985 111.628C135.619 111.115 135.053 110.859 134.286 110.859ZM141.568 109.973V115.18C141.568 115.834 141.717 116.323 142.015 116.645C142.313 116.967 142.779 117.128 143.414 117.128C144.254 117.128 144.867 116.899 145.252 116.44C145.643 115.981 145.838 115.231 145.838 114.191V109.973H147.054V118H146.051L145.875 116.923H145.809C145.56 117.319 145.213 117.622 144.769 117.832C144.33 118.042 143.827 118.146 143.26 118.146C142.284 118.146 141.551 117.915 141.063 117.451C140.58 116.987 140.338 116.245 140.338 115.224V109.973H141.568ZM151.355 118H150.14V106.604H151.355V118ZM155.576 109.973V115.18C155.576 115.834 155.725 116.323 156.023 116.645C156.321 116.967 156.787 117.128 157.422 117.128C158.262 117.128 158.875 116.899 159.26 116.44C159.651 115.981 159.846 115.231 159.846 114.191V109.973H161.062V118H160.059L159.883 116.923H159.817C159.568 117.319 159.221 117.622 158.777 117.832C158.337 118.042 157.834 118.146 157.268 118.146C156.292 118.146 155.559 117.915 155.071 117.451C154.587 116.987 154.346 116.245 154.346 115.224V109.973H155.576ZM174.379 118V112.778C174.379 112.138 174.243 111.66 173.969 111.342C173.696 111.02 173.271 110.859 172.695 110.859C171.938 110.859 171.379 111.076 171.018 111.511C170.656 111.945 170.476 112.614 170.476 113.518V118H169.26V112.778C169.26 112.138 169.123 111.66 168.85 111.342C168.576 111.02 168.149 110.859 167.568 110.859C166.806 110.859 166.247 111.088 165.891 111.547C165.539 112.001 165.363 112.749 165.363 113.789V118H164.147V109.973H165.136L165.334 111.071H165.393C165.622 110.681 165.944 110.375 166.359 110.156C166.779 109.936 167.248 109.826 167.766 109.826C169.021 109.826 169.841 110.28 170.227 111.188H170.285C170.524 110.769 170.871 110.437 171.325 110.192C171.779 109.948 172.297 109.826 172.878 109.826C173.786 109.826 174.465 110.061 174.914 110.529C175.368 110.993 175.595 111.738 175.595 112.763V118H174.379ZM193.236 118V112.778C193.236 112.138 193.099 111.66 192.826 111.342C192.552 111.02 192.127 110.859 191.551 110.859C190.794 110.859 190.235 111.076 189.874 111.511C189.513 111.945 189.332 112.614 189.332 113.518V118H188.116V112.778C188.116 112.138 187.979 111.66 187.706 111.342C187.433 111.02 187.005 110.859 186.424 110.859C185.663 110.859 185.104 111.088 184.747 111.547C184.396 112.001 184.22 112.749 184.22 113.789V118H183.004V109.973H183.993L184.19 111.071H184.249C184.479 110.681 184.801 110.375 185.216 110.156C185.636 109.936 186.104 109.826 186.622 109.826C187.877 109.826 188.697 110.28 189.083 111.188H189.142C189.381 110.769 189.728 110.437 190.182 110.192C190.636 109.948 191.153 109.826 191.734 109.826C192.643 109.826 193.321 110.061 193.771 110.529C194.225 110.993 194.452 111.738 194.452 112.763V118H193.236ZM202.4 118L202.159 116.857H202.1C201.7 117.36 201.299 117.702 200.899 117.883C200.503 118.059 200.008 118.146 199.412 118.146C198.616 118.146 197.991 117.941 197.537 117.531C197.088 117.121 196.863 116.538 196.863 115.781C196.863 114.16 198.16 113.31 200.752 113.232L202.115 113.188V112.69C202.115 112.06 201.978 111.596 201.705 111.298C201.436 110.996 201.004 110.844 200.408 110.844C199.739 110.844 198.982 111.049 198.138 111.459L197.764 110.529C198.16 110.314 198.592 110.146 199.061 110.024C199.534 109.902 200.008 109.841 200.481 109.841C201.438 109.841 202.146 110.053 202.605 110.478C203.069 110.903 203.301 111.584 203.301 112.521V118H202.4ZM199.654 117.143C200.411 117.143 201.004 116.936 201.434 116.521C201.868 116.105 202.085 115.524 202.085 114.777V114.052L200.87 114.104C199.903 114.138 199.205 114.289 198.775 114.558C198.35 114.821 198.138 115.234 198.138 115.795C198.138 116.235 198.27 116.569 198.533 116.799C198.802 117.028 199.175 117.143 199.654 117.143ZM209.705 118.146C208.518 118.146 207.581 117.785 206.892 117.062C206.208 116.34 205.867 115.336 205.867 114.052C205.867 112.758 206.184 111.73 206.819 110.969C207.458 110.207 208.315 109.826 209.39 109.826C210.396 109.826 211.191 110.158 211.777 110.822C212.363 111.481 212.656 112.353 212.656 113.437V114.206H207.126C207.151 115.148 207.388 115.864 207.837 116.352C208.291 116.84 208.928 117.084 209.749 117.084C210.613 117.084 211.467 116.904 212.312 116.542V117.626C211.882 117.812 211.475 117.944 211.089 118.022C210.708 118.105 210.247 118.146 209.705 118.146ZM209.375 110.844C208.73 110.844 208.215 111.054 207.83 111.474C207.449 111.894 207.224 112.475 207.156 113.217H211.353C211.353 112.451 211.182 111.865 210.84 111.459C210.498 111.049 210.01 110.844 209.375 110.844ZM218.444 118.146C217.282 118.146 216.381 117.79 215.742 117.077C215.107 116.359 214.79 115.346 214.79 114.038C214.79 112.695 215.112 111.657 215.756 110.925C216.406 110.192 217.329 109.826 218.525 109.826C218.911 109.826 219.296 109.868 219.682 109.951C220.068 110.034 220.371 110.131 220.59 110.244L220.217 111.276C219.948 111.169 219.655 111.081 219.338 111.013C219.021 110.939 218.74 110.903 218.496 110.903C216.865 110.903 216.049 111.943 216.049 114.023C216.049 115.009 216.247 115.766 216.643 116.293C217.043 116.821 217.634 117.084 218.415 117.084C219.084 117.084 219.77 116.94 220.473 116.652V117.729C219.936 118.007 219.26 118.146 218.444 118.146ZM226.276 118.146C225.089 118.146 224.152 117.785 223.463 117.062C222.78 116.34 222.438 115.336 222.438 114.052C222.438 112.758 222.755 111.73 223.39 110.969C224.03 110.207 224.887 109.826 225.961 109.826C226.967 109.826 227.763 110.158 228.349 110.822C228.935 111.481 229.228 112.353 229.228 113.437V114.206H223.698C223.722 115.148 223.959 115.864 224.408 116.352C224.862 116.84 225.5 117.084 226.32 117.084C227.184 117.084 228.039 116.904 228.883 116.542V117.626C228.454 117.812 228.046 117.944 227.66 118.022C227.279 118.105 226.818 118.146 226.276 118.146ZM225.946 110.844C225.302 110.844 224.787 111.054 224.401 111.474C224.02 111.894 223.795 112.475 223.727 113.217H227.924C227.924 112.451 227.753 111.865 227.411 111.459C227.069 111.049 226.581 110.844 225.946 110.844ZM237.301 118V112.807C237.301 112.153 237.152 111.665 236.854 111.342C236.556 111.02 236.09 110.859 235.455 110.859C234.615 110.859 234 111.086 233.609 111.54C233.219 111.994 233.023 112.744 233.023 113.789V118H231.808V109.973H232.796L232.994 111.071H233.053C233.302 110.676 233.651 110.371 234.1 110.156C234.549 109.936 235.05 109.826 235.602 109.826C236.568 109.826 237.296 110.061 237.784 110.529C238.272 110.993 238.517 111.738 238.517 112.763V118H237.301ZM246.458 118L246.216 116.857H246.158C245.757 117.36 245.357 117.702 244.957 117.883C244.561 118.059 244.065 118.146 243.47 118.146C242.674 118.146 242.049 117.941 241.595 117.531C241.146 117.121 240.921 116.538 240.921 115.781C240.921 114.16 242.217 113.31 244.81 113.232L246.172 113.188V112.69C246.172 112.06 246.036 111.596 245.762 111.298C245.494 110.996 245.062 110.844 244.466 110.844C243.797 110.844 243.04 111.049 242.195 111.459L241.822 110.529C242.217 110.314 242.649 110.146 243.118 110.024C243.592 109.902 244.065 109.841 244.539 109.841C245.496 109.841 246.204 110.053 246.663 110.478C247.127 110.903 247.359 111.584 247.359 112.521V118H246.458ZM243.711 117.143C244.468 117.143 245.062 116.936 245.491 116.521C245.926 116.105 246.143 115.524 246.143 114.777V114.052L244.927 114.104C243.96 114.138 243.262 114.289 242.833 114.558C242.408 114.821 242.195 115.234 242.195 115.795C242.195 116.235 242.327 116.569 242.591 116.799C242.859 117.028 243.233 117.143 243.711 117.143ZM255.549 115.81C255.549 116.557 255.271 117.133 254.714 117.539C254.158 117.944 253.376 118.146 252.371 118.146C251.306 118.146 250.476 117.978 249.88 117.641V116.513C250.266 116.708 250.679 116.862 251.118 116.975C251.562 117.087 251.99 117.143 252.4 117.143C253.035 117.143 253.523 117.043 253.865 116.843C254.207 116.638 254.377 116.328 254.377 115.913C254.377 115.6 254.241 115.334 253.967 115.114C253.699 114.89 253.171 114.626 252.385 114.323C251.638 114.045 251.106 113.803 250.789 113.598C250.476 113.388 250.242 113.151 250.085 112.888C249.934 112.624 249.858 112.309 249.858 111.943C249.858 111.289 250.125 110.773 250.657 110.397C251.189 110.017 251.919 109.826 252.847 109.826C253.711 109.826 254.556 110.002 255.381 110.354L254.949 111.342C254.143 111.01 253.413 110.844 252.759 110.844C252.183 110.844 251.748 110.935 251.455 111.115C251.162 111.296 251.016 111.545 251.016 111.862C251.016 112.077 251.069 112.26 251.177 112.412C251.289 112.563 251.467 112.707 251.711 112.844C251.956 112.98 252.424 113.178 253.118 113.437C254.07 113.784 254.712 114.133 255.044 114.484C255.381 114.836 255.549 115.278 255.549 115.81ZM265.639 118.146C264.477 118.146 263.576 117.79 262.936 117.077C262.301 116.359 261.984 115.346 261.984 114.038C261.984 112.695 262.306 111.657 262.951 110.925C263.6 110.192 264.523 109.826 265.719 109.826C266.105 109.826 266.491 109.868 266.876 109.951C267.262 110.034 267.565 110.131 267.785 110.244L267.411 111.276C267.143 111.169 266.85 111.081 266.532 111.013C266.215 110.939 265.934 110.903 265.69 110.903C264.059 110.903 263.244 111.943 263.244 114.023C263.244 115.009 263.441 115.766 263.837 116.293C264.237 116.821 264.828 117.084 265.609 117.084C266.278 117.084 266.964 116.94 267.667 116.652V117.729C267.13 118.007 266.454 118.146 265.639 118.146ZM271.222 109.973V115.18C271.222 115.834 271.371 116.323 271.668 116.645C271.966 116.967 272.433 117.128 273.067 117.128C273.907 117.128 274.52 116.899 274.906 116.44C275.296 115.981 275.492 115.231 275.492 114.191V109.973H276.708V118H275.704L275.528 116.923H275.462C275.213 117.319 274.867 117.622 274.422 117.832C273.983 118.042 273.48 118.146 272.914 118.146C271.937 118.146 271.205 117.915 270.716 117.451C270.233 116.987 269.991 116.245 269.991 115.224V109.973H271.222ZM283.455 109.826C283.812 109.826 284.131 109.855 284.415 109.914L284.246 111.042C283.914 110.969 283.621 110.932 283.367 110.932C282.718 110.932 282.161 111.196 281.697 111.723C281.238 112.25 281.009 112.907 281.009 113.693V118H279.793V109.973H280.796L280.936 111.459H280.994C281.292 110.937 281.651 110.534 282.071 110.251C282.491 109.968 282.952 109.826 283.455 109.826ZM291.353 118L291.111 116.857H291.052C290.652 117.36 290.251 117.702 289.851 117.883C289.456 118.059 288.96 118.146 288.364 118.146C287.568 118.146 286.943 117.941 286.489 117.531C286.04 117.121 285.815 116.538 285.815 115.781C285.815 114.16 287.112 113.31 289.705 113.232L291.067 113.188V112.69C291.067 112.06 290.93 111.596 290.657 111.298C290.388 110.996 289.956 110.844 289.36 110.844C288.691 110.844 287.935 111.049 287.09 111.459L286.716 110.529C287.112 110.314 287.544 110.146 288.013 110.024C288.486 109.902 288.96 109.841 289.434 109.841C290.391 109.841 291.099 110.053 291.558 110.478C292.021 110.903 292.253 111.584 292.253 112.521V118H291.353ZM288.606 117.143C289.363 117.143 289.956 116.936 290.386 116.521C290.82 116.105 291.038 115.524 291.038 114.777V114.052L289.822 114.104C288.855 114.138 288.157 114.289 287.727 114.558C287.302 114.821 287.09 115.234 287.09 115.795C287.09 116.235 287.222 116.569 287.485 116.799C287.754 117.028 288.127 117.143 288.606 117.143ZM299.001 109.841C300.056 109.841 300.874 110.202 301.455 110.925C302.041 111.643 302.333 112.661 302.333 113.979C302.333 115.297 302.038 116.323 301.447 117.055C300.861 117.783 300.046 118.146 299.001 118.146C298.479 118.146 298 118.051 297.565 117.861C297.136 117.666 296.774 117.368 296.481 116.967H296.394L296.137 118H295.266V106.604H296.481V109.372C296.481 109.992 296.462 110.549 296.423 111.042H296.481C297.048 110.241 297.888 109.841 299.001 109.841ZM298.825 110.859C297.995 110.859 297.397 111.098 297.031 111.577C296.665 112.05 296.481 112.851 296.481 113.979C296.481 115.107 296.669 115.915 297.045 116.403C297.421 116.887 298.024 117.128 298.854 117.128C299.602 117.128 300.158 116.857 300.524 116.315C300.891 115.769 301.074 114.985 301.074 113.964C301.074 112.919 300.891 112.141 300.524 111.628C300.158 111.115 299.592 110.859 298.825 110.859ZM306.181 118H304.965V109.973H306.181V118ZM304.862 107.797C304.862 107.519 304.931 107.316 305.067 107.189C305.204 107.058 305.375 106.992 305.58 106.992C305.775 106.992 305.944 107.058 306.085 107.189C306.227 107.321 306.298 107.524 306.298 107.797C306.298 108.071 306.227 108.276 306.085 108.413C305.944 108.544 305.775 108.61 305.58 108.61C305.375 108.61 305.204 108.544 305.067 108.413C304.931 108.276 304.862 108.071 304.862 107.797ZM311.852 117.143C312.066 117.143 312.274 117.128 312.474 117.099C312.674 117.065 312.833 117.031 312.95 116.997V117.927C312.818 117.99 312.623 118.042 312.364 118.081C312.11 118.125 311.881 118.146 311.676 118.146C310.123 118.146 309.347 117.329 309.347 115.693V110.917H308.197V110.332L309.347 109.826L309.859 108.112H310.562V109.973H312.892V110.917H310.562V115.642C310.562 116.125 310.677 116.496 310.907 116.755C311.136 117.014 311.451 117.143 311.852 117.143ZM316.204 109.973V115.18C316.204 115.834 316.353 116.323 316.651 116.645C316.949 116.967 317.415 117.128 318.05 117.128C318.89 117.128 319.502 116.899 319.888 116.44C320.279 115.981 320.474 115.231 320.474 114.191V109.973H321.69V118H320.687L320.511 116.923H320.445C320.196 117.319 319.849 117.622 319.405 117.832C318.965 118.042 318.462 118.146 317.896 118.146C316.919 118.146 316.187 117.915 315.699 117.451C315.215 116.987 314.974 116.245 314.974 115.224V109.973H316.204ZM328.438 109.826C328.794 109.826 329.114 109.855 329.397 109.914L329.229 111.042C328.896 110.969 328.604 110.932 328.35 110.932C327.7 110.932 327.144 111.196 326.68 111.723C326.221 112.25 325.991 112.907 325.991 113.693V118H324.775V109.973H325.779L325.918 111.459H325.977C326.274 110.937 326.633 110.534 327.053 110.251C327.473 109.968 327.935 109.826 328.438 109.826ZM6.78223 144V138.807C6.78223 138.153 6.6333 137.665 6.33545 137.342C6.0376 137.02 5.57129 136.859 4.93652 136.859C4.0918 136.859 3.47412 137.088 3.0835 137.547C2.69775 138.006 2.50488 138.758 2.50488 139.803V144H1.28906V132.604H2.50488V136.053C2.50488 136.468 2.48535 136.812 2.44629 137.086H2.51953C2.75879 136.7 3.09814 136.397 3.5376 136.178C3.98193 135.953 4.4873 135.841 5.05371 135.841C6.03516 135.841 6.77002 136.075 7.2583 136.544C7.75146 137.008 7.99805 137.748 7.99805 138.763V144H6.78223ZM15.9395 144L15.6978 142.857H15.6392C15.2388 143.36 14.8384 143.702 14.438 143.883C14.0425 144.059 13.5469 144.146 12.9512 144.146C12.1553 144.146 11.5303 143.941 11.0762 143.531C10.627 143.121 10.4023 142.538 10.4023 141.781C10.4023 140.16 11.6987 139.31 14.2915 139.232L15.6538 139.188V138.69C15.6538 138.06 15.5171 137.596 15.2437 137.298C14.9751 136.996 14.543 136.844 13.9473 136.844C13.2783 136.844 12.5215 137.049 11.6768 137.459L11.3032 136.529C11.6987 136.314 12.1309 136.146 12.5996 136.024C13.0732 135.902 13.5469 135.841 14.0205 135.841C14.9775 135.841 15.6855 136.053 16.1445 136.478C16.6084 136.903 16.8403 137.584 16.8403 138.521V144H15.9395ZM13.1929 143.143C13.9497 143.143 14.543 142.936 14.9727 142.521C15.4072 142.105 15.6245 141.524 15.6245 140.777V140.052L14.4087 140.104C13.4419 140.138 12.7437 140.289 12.314 140.558C11.8892 140.821 11.6768 141.234 11.6768 141.795C11.6768 142.235 11.8086 142.569 12.0723 142.799C12.3408 143.028 12.7144 143.143 13.1929 143.143ZM23.0605 144.146C21.8984 144.146 20.9976 143.79 20.3579 143.077C19.7231 142.359 19.4058 141.346 19.4058 140.038C19.4058 138.695 19.728 137.657 20.3726 136.925C21.022 136.192 21.9448 135.826 23.1411 135.826C23.5269 135.826 23.9126 135.868 24.2983 135.951C24.6841 136.034 24.9868 136.131 25.2065 136.244L24.833 137.276C24.5645 137.169 24.2715 137.081 23.9541 137.013C23.6367 136.939 23.356 136.903 23.1118 136.903C21.481 136.903 20.6655 137.943 20.6655 140.023C20.6655 141.009 20.8633 141.766 21.2588 142.293C21.6592 142.821 22.25 143.084 23.0312 143.084C23.7002 143.084 24.3862 142.94 25.0894 142.652V143.729C24.5522 144.007 23.876 144.146 23.0605 144.146ZM35.5156 136.917H33.4722V144H32.2563V136.917H30.8208V136.368L32.2563 135.929V135.482C32.2563 133.509 33.1182 132.523 34.8418 132.523C35.2666 132.523 35.7646 132.608 36.3359 132.779L36.021 133.753C35.5522 133.602 35.1519 133.526 34.8198 133.526C34.3608 133.526 34.0215 133.68 33.8018 133.988C33.582 134.291 33.4722 134.779 33.4722 135.453V135.973H35.5156V136.917ZM40.8716 144.146C39.6851 144.146 38.7476 143.785 38.0591 143.062C37.3755 142.34 37.0337 141.336 37.0337 140.052C37.0337 138.758 37.3511 137.73 37.9858 136.969C38.6255 136.207 39.4824 135.826 40.5566 135.826C41.5625 135.826 42.3584 136.158 42.9443 136.822C43.5303 137.481 43.8232 138.353 43.8232 139.437V140.206H38.2935C38.3179 141.148 38.5547 141.864 39.0039 142.352C39.458 142.84 40.0952 143.084 40.9155 143.084C41.7798 143.084 42.6343 142.904 43.479 142.542V143.626C43.0493 143.812 42.6416 143.944 42.2559 144.022C41.875 144.105 41.4136 144.146 40.8716 144.146ZM40.542 136.844C39.8975 136.844 39.3823 137.054 38.9966 137.474C38.6157 137.894 38.3911 138.475 38.3228 139.217H42.5195C42.5195 138.451 42.3486 137.865 42.0068 137.459C41.665 137.049 41.1768 136.844 40.542 136.844ZM47.6191 144H46.4033V132.604H47.6191V144ZM51.9131 144H50.6973V135.973H51.9131V144ZM50.5947 133.797C50.5947 133.519 50.6631 133.316 50.7998 133.189C50.9365 133.058 51.1074 132.992 51.3125 132.992C51.5078 132.992 51.6763 133.058 51.8179 133.189C51.9595 133.321 52.0303 133.524 52.0303 133.797C52.0303 134.071 51.9595 134.276 51.8179 134.413C51.6763 134.544 51.5078 134.61 51.3125 134.61C51.1074 134.61 50.9365 134.544 50.7998 134.413C50.6631 134.276 50.5947 134.071 50.5947 133.797ZM60.1694 141.81C60.1694 142.557 59.8911 143.133 59.3345 143.539C58.7778 143.944 57.9966 144.146 56.9907 144.146C55.9263 144.146 55.0962 143.978 54.5005 143.641V142.513C54.8862 142.708 55.2988 142.862 55.7383 142.975C56.1826 143.087 56.6099 143.143 57.02 143.143C57.6548 143.143 58.1431 143.043 58.4849 142.843C58.8267 142.638 58.9976 142.328 58.9976 141.913C58.9976 141.6 58.8608 141.334 58.5874 141.114C58.3188 140.89 57.7915 140.626 57.0054 140.323C56.2583 140.045 55.7261 139.803 55.4087 139.598C55.0962 139.388 54.8618 139.151 54.7056 138.888C54.5542 138.624 54.4785 138.309 54.4785 137.943C54.4785 137.289 54.7446 136.773 55.2769 136.397C55.8091 136.017 56.5391 135.826 57.4668 135.826C58.3311 135.826 59.1758 136.002 60.001 136.354L59.5688 137.342C58.7632 137.01 58.0332 136.844 57.3789 136.844C56.8027 136.844 56.3682 136.935 56.0752 137.115C55.7822 137.296 55.6357 137.545 55.6357 137.862C55.6357 138.077 55.6895 138.26 55.7969 138.412C55.9092 138.563 56.0874 138.707 56.3315 138.844C56.5757 138.98 57.0444 139.178 57.7378 139.437C58.6899 139.784 59.332 140.133 59.6641 140.484C60.001 140.836 60.1694 141.278 60.1694 141.81ZM68.8086 144L65.7617 135.973H67.0654L68.7939 140.733C69.1846 141.847 69.4141 142.569 69.4824 142.901H69.541C69.5947 142.643 69.7632 142.108 70.0464 141.297C70.3345 140.482 70.9766 138.707 71.9727 135.973H73.2764L70.2295 144H68.8086ZM78.4565 144.146C77.27 144.146 76.3325 143.785 75.644 143.062C74.9604 142.34 74.6187 141.336 74.6187 140.052C74.6187 138.758 74.936 137.73 75.5708 136.969C76.2104 136.207 77.0674 135.826 78.1416 135.826C79.1475 135.826 79.9434 136.158 80.5293 136.822C81.1152 137.481 81.4082 138.353 81.4082 139.437V140.206H75.8784C75.9028 141.148 76.1396 141.864 76.5889 142.352C77.043 142.84 77.6802 143.084 78.5005 143.084C79.3647 143.084 80.2192 142.904 81.064 142.542V143.626C80.6343 143.812 80.2266 143.944 79.8408 144.022C79.46 144.105 78.9985 144.146 78.4565 144.146ZM78.127 136.844C77.4824 136.844 76.9673 137.054 76.5815 137.474C76.2007 137.894 75.9761 138.475 75.9077 139.217H80.1045C80.1045 138.451 79.9336 137.865 79.5918 137.459C79.25 137.049 78.7617 136.844 78.127 136.844ZM89.1665 141.81C89.1665 142.557 88.8882 143.133 88.3315 143.539C87.7749 143.944 86.9937 144.146 85.9878 144.146C84.9233 144.146 84.0933 143.978 83.4976 143.641V142.513C83.8833 142.708 84.2959 142.862 84.7354 142.975C85.1797 143.087 85.6069 143.143 86.0171 143.143C86.6519 143.143 87.1401 143.043 87.4819 142.843C87.8237 142.638 87.9946 142.328 87.9946 141.913C87.9946 141.6 87.8579 141.334 87.5845 141.114C87.3159 140.89 86.7886 140.626 86.0024 140.323C85.2554 140.045 84.7231 139.803 84.4058 139.598C84.0933 139.388 83.8589 139.151 83.7026 138.888C83.5513 138.624 83.4756 138.309 83.4756 137.943C83.4756 137.289 83.7417 136.773 84.2739 136.397C84.8062 136.017 85.5361 135.826 86.4639 135.826C87.3281 135.826 88.1729 136.002 88.998 136.354L88.5659 137.342C87.7603 137.01 87.0303 136.844 86.376 136.844C85.7998 136.844 85.3652 136.935 85.0723 137.115C84.7793 137.296 84.6328 137.545 84.6328 137.862C84.6328 138.077 84.6865 138.26 84.7939 138.412C84.9062 138.563 85.0845 138.707 85.3286 138.844C85.5728 138.98 86.0415 139.178 86.7349 139.437C87.687 139.784 88.3291 140.133 88.6611 140.484C88.998 140.836 89.1665 141.278 89.1665 141.81ZM94.2441 143.143C94.459 143.143 94.6665 143.128 94.8667 143.099C95.0669 143.065 95.2256 143.031 95.3428 142.997V143.927C95.2109 143.99 95.0156 144.042 94.7568 144.081C94.5029 144.125 94.2734 144.146 94.0684 144.146C92.5156 144.146 91.7393 143.329 91.7393 141.693V136.917H90.5894V136.332L91.7393 135.826L92.252 134.112H92.9551V135.973H95.2842V136.917H92.9551V141.642C92.9551 142.125 93.0698 142.496 93.2993 142.755C93.5288 143.014 93.8438 143.143 94.2441 143.143ZM98.6699 144H97.4541V135.973H98.6699V144ZM97.3516 133.797C97.3516 133.519 97.4199 133.316 97.5566 133.189C97.6934 133.058 97.8643 132.992 98.0693 132.992C98.2646 132.992 98.4331 133.058 98.5747 133.189C98.7163 133.321 98.7871 133.524 98.7871 133.797C98.7871 134.071 98.7163 134.276 98.5747 134.413C98.4331 134.544 98.2646 134.61 98.0693 134.61C97.8643 134.61 97.6934 134.544 97.5566 134.413C97.4199 134.276 97.3516 134.071 97.3516 133.797ZM105.483 135.841C106.538 135.841 107.356 136.202 107.937 136.925C108.523 137.643 108.816 138.661 108.816 139.979C108.816 141.297 108.521 142.323 107.93 143.055C107.344 143.783 106.528 144.146 105.483 144.146C104.961 144.146 104.482 144.051 104.048 143.861C103.618 143.666 103.257 143.368 102.964 142.967H102.876L102.62 144H101.748V132.604H102.964V135.372C102.964 135.992 102.944 136.549 102.905 137.042H102.964C103.53 136.241 104.37 135.841 105.483 135.841ZM105.308 136.859C104.478 136.859 103.879 137.098 103.513 137.577C103.147 138.05 102.964 138.851 102.964 139.979C102.964 141.107 103.152 141.915 103.528 142.403C103.904 142.887 104.507 143.128 105.337 143.128C106.084 143.128 106.641 142.857 107.007 142.315C107.373 141.769 107.556 140.985 107.556 139.964C107.556 138.919 107.373 138.141 107.007 137.628C106.641 137.115 106.074 136.859 105.308 136.859ZM112.59 135.973V141.18C112.59 141.834 112.739 142.323 113.037 142.645C113.334 142.967 113.801 143.128 114.436 143.128C115.275 143.128 115.888 142.899 116.274 142.44C116.665 141.981 116.86 141.231 116.86 140.191V135.973H118.076V144H117.072L116.896 142.923H116.831C116.582 143.319 116.235 143.622 115.791 143.832C115.351 144.042 114.848 144.146 114.282 144.146C113.305 144.146 112.573 143.915 112.084 143.451C111.601 142.987 111.359 142.245 111.359 141.224V135.973H112.59ZM122.377 144H121.161V132.604H122.377V144ZM126.598 135.973V141.18C126.598 141.834 126.747 142.323 127.044 142.645C127.342 142.967 127.809 143.128 128.443 143.128C129.283 143.128 129.896 142.899 130.282 142.44C130.672 141.981 130.868 141.231 130.868 140.191V135.973H132.083V144H131.08L130.904 142.923H130.838C130.589 143.319 130.243 143.622 129.798 143.832C129.359 144.042 128.856 144.146 128.29 144.146C127.313 144.146 126.581 143.915 126.092 143.451C125.609 142.987 125.367 142.245 125.367 141.224V135.973H126.598ZM145.401 144V138.778C145.401 138.138 145.264 137.66 144.991 137.342C144.717 137.02 144.292 136.859 143.716 136.859C142.959 136.859 142.4 137.076 142.039 137.511C141.678 137.945 141.497 138.614 141.497 139.518V144H140.281V138.778C140.281 138.138 140.145 137.66 139.871 137.342C139.598 137.02 139.17 136.859 138.589 136.859C137.828 136.859 137.269 137.088 136.912 137.547C136.561 138.001 136.385 138.749 136.385 139.789V144H135.169V135.973H136.158L136.355 137.071H136.414C136.644 136.681 136.966 136.375 137.381 136.156C137.801 135.936 138.27 135.826 138.787 135.826C140.042 135.826 140.862 136.28 141.248 137.188H141.307C141.546 136.769 141.893 136.437 142.347 136.192C142.801 135.948 143.318 135.826 143.899 135.826C144.808 135.826 145.486 136.061 145.936 136.529C146.39 136.993 146.617 137.738 146.617 138.763V144H145.401ZM155.168 135.973V141.18C155.168 141.834 155.317 142.323 155.615 142.645C155.913 142.967 156.379 143.128 157.014 143.128C157.854 143.128 158.466 142.899 158.852 142.44C159.243 141.981 159.438 141.231 159.438 140.191V135.973H160.654V144H159.65L159.475 142.923H159.409C159.16 143.319 158.813 143.622 158.369 143.832C157.929 144.042 157.426 144.146 156.86 144.146C155.883 144.146 155.151 143.915 154.663 143.451C154.179 142.987 153.938 142.245 153.938 141.224V135.973H155.168ZM167.401 135.826C167.758 135.826 168.078 135.855 168.361 135.914L168.192 137.042C167.86 136.969 167.567 136.932 167.313 136.932C166.664 136.932 166.107 137.196 165.644 137.723C165.185 138.25 164.955 138.907 164.955 139.693V144H163.739V135.973H164.743L164.882 137.459H164.94C165.238 136.937 165.597 136.534 166.017 136.251C166.437 135.968 166.898 135.826 167.401 135.826ZM175.855 144V138.807C175.855 138.153 175.707 137.665 175.409 137.342C175.111 137.02 174.645 136.859 174.01 136.859C173.17 136.859 172.555 137.086 172.164 137.54C171.773 137.994 171.578 138.744 171.578 139.789V144H170.362V135.973H171.351L171.549 137.071H171.607C171.856 136.676 172.206 136.371 172.655 136.156C173.104 135.936 173.604 135.826 174.156 135.826C175.123 135.826 175.851 136.061 176.339 136.529C176.827 136.993 177.071 137.738 177.071 138.763V144H175.855ZM185.013 144L184.771 142.857H184.712C184.312 143.36 183.912 143.702 183.511 143.883C183.116 144.059 182.62 144.146 182.024 144.146C181.229 144.146 180.604 143.941 180.149 143.531C179.7 143.121 179.476 142.538 179.476 141.781C179.476 140.16 180.772 139.31 183.365 139.232L184.727 139.188V138.69C184.727 138.06 184.59 137.596 184.317 137.298C184.048 136.996 183.616 136.844 183.021 136.844C182.352 136.844 181.595 137.049 180.75 137.459L180.376 136.529C180.772 136.314 181.204 136.146 181.673 136.024C182.146 135.902 182.62 135.841 183.094 135.841C184.051 135.841 184.759 136.053 185.218 136.478C185.682 136.903 185.914 137.584 185.914 138.521V144H185.013ZM182.266 143.143C183.023 143.143 183.616 142.936 184.046 142.521C184.48 142.105 184.698 141.524 184.698 140.777V140.052L183.482 140.104C182.515 140.138 181.817 140.289 181.387 140.558C180.962 140.821 180.75 141.234 180.75 141.795C180.75 142.235 180.882 142.569 181.146 142.799C181.414 143.028 181.788 143.143 182.266 143.143ZM195.08 144L192.033 135.973H193.337L195.065 140.733C195.456 141.847 195.686 142.569 195.754 142.901H195.812C195.866 142.643 196.035 142.108 196.318 141.297C196.606 140.482 197.248 138.707 198.244 135.973H199.548L196.501 144H195.08ZM204.728 144.146C203.542 144.146 202.604 143.785 201.916 143.062C201.232 142.34 200.89 141.336 200.89 140.052C200.89 138.758 201.208 137.73 201.842 136.969C202.482 136.207 203.339 135.826 204.413 135.826C205.419 135.826 206.215 136.158 206.801 136.822C207.387 137.481 207.68 138.353 207.68 139.437V140.206H202.15C202.174 141.148 202.411 141.864 202.86 142.352C203.314 142.84 203.952 143.084 204.772 143.084C205.636 143.084 206.491 142.904 207.335 142.542V143.626C206.906 143.812 206.498 143.944 206.112 144.022C205.731 144.105 205.27 144.146 204.728 144.146ZM204.398 136.844C203.754 136.844 203.239 137.054 202.853 137.474C202.472 137.894 202.248 138.475 202.179 139.217H206.376C206.376 138.451 206.205 137.865 205.863 137.459C205.521 137.049 205.033 136.844 204.398 136.844ZM211.476 144H210.26V132.604H211.476V144ZM215.77 144H214.554V135.973H215.77V144ZM214.451 133.797C214.451 133.519 214.52 133.316 214.656 133.189C214.793 133.058 214.964 132.992 215.169 132.992C215.364 132.992 215.533 133.058 215.674 133.189C215.816 133.321 215.887 133.524 215.887 133.797C215.887 134.071 215.816 134.276 215.674 134.413C215.533 134.544 215.364 134.61 215.169 134.61C214.964 134.61 214.793 134.544 214.656 134.413C214.52 134.276 214.451 134.071 214.451 133.797ZM221.44 143.143C221.655 143.143 221.863 143.128 222.063 143.099C222.263 143.065 222.422 143.031 222.539 142.997V143.927C222.407 143.99 222.212 144.042 221.953 144.081C221.699 144.125 221.47 144.146 221.265 144.146C219.712 144.146 218.936 143.329 218.936 141.693V136.917H217.786V136.332L218.936 135.826L219.448 134.112H220.151V135.973H222.48V136.917H220.151V141.642C220.151 142.125 220.266 142.496 220.496 142.755C220.725 143.014 221.04 143.143 221.44 143.143ZM232.782 144.146C232.26 144.146 231.781 144.051 231.347 143.861C230.917 143.666 230.556 143.368 230.263 142.967H230.175C230.233 143.436 230.263 143.88 230.263 144.3V147.604H229.047V135.973H230.036L230.204 137.071H230.263C230.575 136.632 230.939 136.314 231.354 136.119C231.769 135.924 232.245 135.826 232.782 135.826C233.847 135.826 234.667 136.19 235.243 136.917C235.824 137.645 236.115 138.666 236.115 139.979C236.115 141.297 235.819 142.323 235.229 143.055C234.643 143.783 233.827 144.146 232.782 144.146ZM232.606 136.859C231.786 136.859 231.193 137.086 230.827 137.54C230.46 137.994 230.272 138.717 230.263 139.708V139.979C230.263 141.107 230.451 141.915 230.827 142.403C231.203 142.887 231.806 143.128 232.636 143.128C233.329 143.128 233.871 142.848 234.262 142.286C234.657 141.725 234.855 140.951 234.855 139.964C234.855 138.963 234.657 138.197 234.262 137.665C233.871 137.127 233.319 136.859 232.606 136.859ZM243.683 144L243.441 142.857H243.382C242.982 143.36 242.582 143.702 242.181 143.883C241.786 144.059 241.29 144.146 240.694 144.146C239.898 144.146 239.273 143.941 238.819 143.531C238.37 143.121 238.146 142.538 238.146 141.781C238.146 140.16 239.442 139.31 242.035 139.232L243.397 139.188V138.69C243.397 138.06 243.26 137.596 242.987 137.298C242.718 136.996 242.286 136.844 241.69 136.844C241.021 136.844 240.265 137.049 239.42 137.459L239.046 136.529C239.442 136.314 239.874 136.146 240.343 136.024C240.816 135.902 241.29 135.841 241.764 135.841C242.721 135.841 243.429 136.053 243.888 136.478C244.352 136.903 244.583 137.584 244.583 138.521V144H243.683ZM240.936 143.143C241.693 143.143 242.286 142.936 242.716 142.521C243.15 142.105 243.368 141.524 243.368 140.777V140.052L242.152 140.104C241.185 140.138 240.487 140.289 240.057 140.558C239.632 140.821 239.42 141.234 239.42 141.795C239.42 142.235 239.552 142.569 239.815 142.799C240.084 143.028 240.458 143.143 240.936 143.143ZM251.258 135.826C251.614 135.826 251.934 135.855 252.217 135.914L252.049 137.042C251.717 136.969 251.424 136.932 251.17 136.932C250.521 136.932 249.964 137.196 249.5 137.723C249.041 138.25 248.812 138.907 248.812 139.693V144H247.596V135.973H248.599L248.738 137.459H248.797C249.095 136.937 249.454 136.534 249.874 136.251C250.293 135.968 250.755 135.826 251.258 135.826ZM256.812 143.143C257.026 143.143 257.234 143.128 257.434 143.099C257.634 143.065 257.793 143.031 257.91 142.997V143.927C257.778 143.99 257.583 144.042 257.324 144.081C257.07 144.125 256.841 144.146 256.636 144.146C255.083 144.146 254.307 143.329 254.307 141.693V136.917H253.157V136.332L254.307 135.826L254.819 134.112H255.522V135.973H257.852V136.917H255.522V141.642C255.522 142.125 255.637 142.496 255.867 142.755C256.096 143.014 256.411 143.143 256.812 143.143ZM261.164 135.973V141.18C261.164 141.834 261.313 142.323 261.611 142.645C261.909 142.967 262.375 143.128 263.01 143.128C263.85 143.128 264.462 142.899 264.848 142.44C265.239 141.981 265.434 141.231 265.434 140.191V135.973H266.65V144H265.646L265.471 142.923H265.405C265.156 143.319 264.809 143.622 264.365 143.832C263.925 144.042 263.422 144.146 262.856 144.146C261.879 144.146 261.147 143.915 260.659 143.451C260.175 142.987 259.934 142.245 259.934 141.224V135.973H261.164ZM273.397 135.826C273.754 135.826 274.074 135.855 274.357 135.914L274.188 137.042C273.856 136.969 273.563 136.932 273.31 136.932C272.66 136.932 272.104 137.196 271.64 137.723C271.181 138.25 270.951 138.907 270.951 139.693V144H269.735V135.973H270.739L270.878 137.459H270.937C271.234 136.937 271.593 136.534 272.013 136.251C272.433 135.968 272.895 135.826 273.397 135.826ZM277.574 144H276.358V135.973H277.574V144ZM276.256 133.797C276.256 133.519 276.324 133.316 276.461 133.189C276.598 133.058 276.769 132.992 276.974 132.992C277.169 132.992 277.337 133.058 277.479 133.189C277.621 133.321 277.691 133.524 277.691 133.797C277.691 134.071 277.621 134.276 277.479 134.413C277.337 134.544 277.169 134.61 276.974 134.61C276.769 134.61 276.598 134.544 276.461 134.413C276.324 134.276 276.256 134.071 276.256 133.797ZM284.043 144.146C282.857 144.146 281.919 143.785 281.231 143.062C280.547 142.34 280.206 141.336 280.206 140.052C280.206 138.758 280.523 137.73 281.158 136.969C281.797 136.207 282.654 135.826 283.729 135.826C284.734 135.826 285.53 136.158 286.116 136.822C286.702 137.481 286.995 138.353 286.995 139.437V140.206H281.465C281.49 141.148 281.727 141.864 282.176 142.352C282.63 142.84 283.267 143.084 284.087 143.084C284.952 143.084 285.806 142.904 286.651 142.542V143.626C286.221 143.812 285.813 143.944 285.428 144.022C285.047 144.105 284.585 144.146 284.043 144.146ZM283.714 136.844C283.069 136.844 282.554 137.054 282.168 137.474C281.788 137.894 281.563 138.475 281.495 139.217H285.691C285.691 138.451 285.521 137.865 285.179 137.459C284.837 137.049 284.349 136.844 283.714 136.844ZM295.068 144V138.807C295.068 138.153 294.919 137.665 294.622 137.342C294.324 137.02 293.857 136.859 293.223 136.859C292.383 136.859 291.768 137.086 291.377 137.54C290.986 137.994 290.791 138.744 290.791 139.789V144H289.575V135.973H290.564L290.762 137.071H290.82C291.069 136.676 291.418 136.371 291.868 136.156C292.317 135.936 292.817 135.826 293.369 135.826C294.336 135.826 295.063 136.061 295.552 136.529C296.04 136.993 296.284 137.738 296.284 138.763V144H295.068ZM301.882 143.143C302.097 143.143 302.304 143.128 302.504 143.099C302.705 143.065 302.863 143.031 302.98 142.997V143.927C302.849 143.99 302.653 144.042 302.395 144.081C302.141 144.125 301.911 144.146 301.706 144.146C300.153 144.146 299.377 143.329 299.377 141.693V136.917H298.227V136.332L299.377 135.826L299.89 134.112H300.593V135.973H302.922V136.917H300.593V141.642C300.593 142.125 300.708 142.496 300.937 142.755C301.167 143.014 301.481 143.143 301.882 143.143ZM6.46729 167.81C6.46729 168.557 6.18896 169.133 5.63232 169.539C5.07568 169.944 4.29443 170.146 3.28857 170.146C2.22412 170.146 1.39404 169.978 0.79834 169.641V168.513C1.18408 168.708 1.59668 168.862 2.03613 168.975C2.48047 169.087 2.90771 169.143 3.31787 169.143C3.95264 169.143 4.44092 169.043 4.78271 168.843C5.12451 168.638 5.29541 168.328 5.29541 167.913C5.29541 167.6 5.15869 167.334 4.88525 167.114C4.6167 166.89 4.08936 166.626 3.30322 166.323C2.55615 166.045 2.02393 165.803 1.70654 165.598C1.39404 165.388 1.15967 165.151 1.00342 164.888C0.852051 164.624 0.776367 164.309 0.776367 163.943C0.776367 163.289 1.04248 162.773 1.57471 162.397C2.10693 162.017 2.83691 161.826 3.76465 161.826C4.62891 161.826 5.47363 162.002 6.29883 162.354L5.8667 163.342C5.06104 163.01 4.33105 162.844 3.67676 162.844C3.10059 162.844 2.66602 162.935 2.37305 163.115C2.08008 163.296 1.93359 163.545 1.93359 163.862C1.93359 164.077 1.9873 164.26 2.09473 164.412C2.20703 164.563 2.38525 164.707 2.62939 164.844C2.87354 164.98 3.34229 165.178 4.03564 165.437C4.98779 165.784 5.62988 166.133 5.96191 166.484C6.29883 166.836 6.46729 167.278 6.46729 167.81ZM10.0947 161.973V167.18C10.0947 167.834 10.2437 168.323 10.5415 168.645C10.8394 168.967 11.3057 169.128 11.9404 169.128C12.7803 169.128 13.3931 168.899 13.7788 168.44C14.1694 167.981 14.3647 167.231 14.3647 166.191V161.973H15.5806V170H14.5771L14.4014 168.923H14.3354C14.0864 169.319 13.7397 169.622 13.2954 169.832C12.856 170.042 12.353 170.146 11.7866 170.146C10.8101 170.146 10.0776 169.915 9.58936 169.451C9.10596 168.987 8.86426 168.245 8.86426 167.224V161.973H10.0947ZM23.8442 167.81C23.8442 168.557 23.5659 169.133 23.0093 169.539C22.4526 169.944 21.6714 170.146 20.6655 170.146C19.6011 170.146 18.771 169.978 18.1753 169.641V168.513C18.561 168.708 18.9736 168.862 19.4131 168.975C19.8574 169.087 20.2847 169.143 20.6948 169.143C21.3296 169.143 21.8179 169.043 22.1597 168.843C22.5015 168.638 22.6724 168.328 22.6724 167.913C22.6724 167.6 22.5356 167.334 22.2622 167.114C21.9937 166.89 21.4663 166.626 20.6802 166.323C19.9331 166.045 19.4009 165.803 19.0835 165.598C18.771 165.388 18.5366 165.151 18.3804 164.888C18.229 164.624 18.1533 164.309 18.1533 163.943C18.1533 163.289 18.4194 162.773 18.9517 162.397C19.4839 162.017 20.2139 161.826 21.1416 161.826C22.0059 161.826 22.8506 162.002 23.6758 162.354L23.2437 163.342C22.438 163.01 21.708 162.844 21.0537 162.844C20.4775 162.844 20.043 162.935 19.75 163.115C19.457 163.296 19.3105 163.545 19.3105 163.862C19.3105 164.077 19.3643 164.26 19.4717 164.412C19.584 164.563 19.7622 164.707 20.0063 164.844C20.2505 164.98 20.7192 165.178 21.4126 165.437C22.3647 165.784 23.0068 166.133 23.3389 166.484C23.6758 166.836 23.8442 167.278 23.8442 167.81ZM30.0645 170.146C29.542 170.146 29.0635 170.051 28.6289 169.861C28.1992 169.666 27.8379 169.368 27.5449 168.967H27.457C27.5156 169.436 27.5449 169.88 27.5449 170.3V173.604H26.3291V161.973H27.3179L27.4863 163.071H27.5449C27.8574 162.632 28.2212 162.314 28.6362 162.119C29.0513 161.924 29.5273 161.826 30.0645 161.826C31.1289 161.826 31.9492 162.19 32.5254 162.917C33.1064 163.645 33.397 164.666 33.397 165.979C33.397 167.297 33.1016 168.323 32.5107 169.055C31.9248 169.783 31.1094 170.146 30.0645 170.146ZM29.8887 162.859C29.0684 162.859 28.4751 163.086 28.1089 163.54C27.7427 163.994 27.5547 164.717 27.5449 165.708V165.979C27.5449 167.107 27.7329 167.915 28.1089 168.403C28.4849 168.887 29.0879 169.128 29.918 169.128C30.6113 169.128 31.1533 168.848 31.5439 168.286C31.9395 167.725 32.1372 166.951 32.1372 165.964C32.1372 164.963 31.9395 164.197 31.5439 163.665C31.1533 163.127 30.6016 162.859 29.8887 162.859ZM39.4194 170.146C38.2329 170.146 37.2954 169.785 36.6069 169.062C35.9233 168.34 35.5815 167.336 35.5815 166.052C35.5815 164.758 35.8989 163.73 36.5337 162.969C37.1733 162.207 38.0303 161.826 39.1045 161.826C40.1104 161.826 40.9062 162.158 41.4922 162.822C42.0781 163.481 42.3711 164.353 42.3711 165.437V166.206H36.8413C36.8657 167.148 37.1025 167.864 37.5518 168.352C38.0059 168.84 38.6431 169.084 39.4634 169.084C40.3276 169.084 41.1821 168.904 42.0269 168.542V169.626C41.5972 169.812 41.1895 169.944 40.8037 170.022C40.4229 170.105 39.9614 170.146 39.4194 170.146ZM39.0898 162.844C38.4453 162.844 37.9302 163.054 37.5444 163.474C37.1636 163.894 36.939 164.475 36.8706 165.217H41.0674C41.0674 164.451 40.8965 163.865 40.5547 163.459C40.2129 163.049 39.7246 162.844 39.0898 162.844ZM50.4443 170V164.807C50.4443 164.153 50.2954 163.665 49.9976 163.342C49.6997 163.02 49.2334 162.859 48.5986 162.859C47.7588 162.859 47.1436 163.086 46.7529 163.54C46.3623 163.994 46.167 164.744 46.167 165.789V170H44.9512V161.973H45.9399L46.1377 163.071H46.1963C46.4453 162.676 46.7944 162.371 47.2437 162.156C47.6929 161.936 48.1934 161.826 48.7451 161.826C49.7119 161.826 50.4395 162.061 50.9277 162.529C51.416 162.993 51.6602 163.738 51.6602 164.763V170H50.4443ZM60.1289 168.923H60.063C59.5015 169.739 58.6616 170.146 57.5435 170.146C56.4937 170.146 55.6758 169.788 55.0898 169.07C54.5088 168.352 54.2183 167.332 54.2183 166.008C54.2183 164.685 54.5112 163.657 55.0972 162.925C55.6831 162.192 56.4985 161.826 57.5435 161.826C58.6323 161.826 59.4673 162.222 60.0483 163.013H60.1436L60.0923 162.434L60.063 161.87V158.604H61.2788V170H60.29L60.1289 168.923ZM57.6973 169.128C58.5273 169.128 59.1279 168.904 59.499 168.455C59.875 168 60.063 167.271 60.063 166.265V166.008C60.063 164.871 59.8726 164.06 59.4917 163.577C59.1157 163.088 58.5127 162.844 57.6826 162.844C56.9697 162.844 56.4229 163.123 56.042 163.679C55.666 164.231 55.478 165.012 55.478 166.023C55.478 167.048 55.666 167.822 56.042 168.345C56.418 168.867 56.9697 169.128 57.6973 169.128ZM65.5801 170H64.3643V161.973H65.5801V170ZM64.2617 159.797C64.2617 159.519 64.3301 159.316 64.4668 159.189C64.6035 159.058 64.7744 158.992 64.9795 158.992C65.1748 158.992 65.3433 159.058 65.4849 159.189C65.6265 159.321 65.6973 159.524 65.6973 159.797C65.6973 160.071 65.6265 160.276 65.4849 160.413C65.3433 160.544 65.1748 160.61 64.9795 160.61C64.7744 160.61 64.6035 160.544 64.4668 160.413C64.3301 160.276 64.2617 160.071 64.2617 159.797ZM73.8364 167.81C73.8364 168.557 73.5581 169.133 73.0015 169.539C72.4448 169.944 71.6636 170.146 70.6577 170.146C69.5933 170.146 68.7632 169.978 68.1675 169.641V168.513C68.5532 168.708 68.9658 168.862 69.4053 168.975C69.8496 169.087 70.2769 169.143 70.687 169.143C71.3218 169.143 71.8101 169.043 72.1519 168.843C72.4937 168.638 72.6646 168.328 72.6646 167.913C72.6646 167.6 72.5278 167.334 72.2544 167.114C71.9858 166.89 71.4585 166.626 70.6724 166.323C69.9253 166.045 69.3931 165.803 69.0757 165.598C68.7632 165.388 68.5288 165.151 68.3726 164.888C68.2212 164.624 68.1455 164.309 68.1455 163.943C68.1455 163.289 68.4116 162.773 68.9438 162.397C69.4761 162.017 70.2061 161.826 71.1338 161.826C71.998 161.826 72.8428 162.002 73.668 162.354L73.2358 163.342C72.4302 163.01 71.7002 162.844 71.0459 162.844C70.4697 162.844 70.0352 162.935 69.7422 163.115C69.4492 163.296 69.3027 163.545 69.3027 163.862C69.3027 164.077 69.3564 164.26 69.4639 164.412C69.5762 164.563 69.7544 164.707 69.9985 164.844C70.2427 164.98 70.7114 165.178 71.4048 165.437C72.3569 165.784 72.999 166.133 73.3311 166.484C73.668 166.836 73.8364 167.278 73.8364 167.81ZM81.4995 167.81C81.4995 168.557 81.2212 169.133 80.6646 169.539C80.1079 169.944 79.3267 170.146 78.3208 170.146C77.2563 170.146 76.4263 169.978 75.8306 169.641V168.513C76.2163 168.708 76.6289 168.862 77.0684 168.975C77.5127 169.087 77.9399 169.143 78.3501 169.143C78.9849 169.143 79.4731 169.043 79.8149 168.843C80.1567 168.638 80.3276 168.328 80.3276 167.913C80.3276 167.6 80.1909 167.334 79.9175 167.114C79.6489 166.89 79.1216 166.626 78.3354 166.323C77.5884 166.045 77.0562 165.803 76.7388 165.598C76.4263 165.388 76.1919 165.151 76.0356 164.888C75.8843 164.624 75.8086 164.309 75.8086 163.943C75.8086 163.289 76.0747 162.773 76.6069 162.397C77.1392 162.017 77.8691 161.826 78.7969 161.826C79.6611 161.826 80.5059 162.002 81.3311 162.354L80.8989 163.342C80.0933 163.01 79.3633 162.844 78.709 162.844C78.1328 162.844 77.6982 162.935 77.4053 163.115C77.1123 163.296 76.9658 163.545 76.9658 163.862C76.9658 164.077 77.0195 164.26 77.127 164.412C77.2393 164.563 77.4175 164.707 77.6616 164.844C77.9058 164.98 78.3745 165.178 79.0679 165.437C80.02 165.784 80.6621 166.133 80.9941 166.484C81.3311 166.836 81.4995 167.278 81.4995 167.81ZM87.3755 170.146C86.189 170.146 85.2515 169.785 84.563 169.062C83.8794 168.34 83.5376 167.336 83.5376 166.052C83.5376 164.758 83.855 163.73 84.4897 162.969C85.1294 162.207 85.9863 161.826 87.0605 161.826C88.0664 161.826 88.8623 162.158 89.4482 162.822C90.0342 163.481 90.3271 164.353 90.3271 165.437V166.206H84.7974C84.8218 167.148 85.0586 167.864 85.5078 168.352C85.9619 168.84 86.5991 169.084 87.4194 169.084C88.2837 169.084 89.1382 168.904 89.9829 168.542V169.626C89.5532 169.812 89.1455 169.944 88.7598 170.022C88.3789 170.105 87.9175 170.146 87.3755 170.146ZM87.0459 162.844C86.4014 162.844 85.8862 163.054 85.5005 163.474C85.1196 163.894 84.895 164.475 84.8267 165.217H89.0234C89.0234 164.451 88.8525 163.865 88.5107 163.459C88.1689 163.049 87.6807 162.844 87.0459 162.844ZM102.24 170L101.999 168.857H101.94C101.54 169.36 101.139 169.702 100.739 169.883C100.343 170.059 99.8477 170.146 99.252 170.146C98.4561 170.146 97.8311 169.941 97.377 169.531C96.9277 169.121 96.7031 168.538 96.7031 167.781C96.7031 166.16 97.9995 165.31 100.592 165.232L101.955 165.188V164.69C101.955 164.06 101.818 163.596 101.544 163.298C101.276 162.996 100.844 162.844 100.248 162.844C99.5791 162.844 98.8223 163.049 97.9775 163.459L97.604 162.529C97.9995 162.314 98.4316 162.146 98.9004 162.024C99.374 161.902 99.8477 161.841 100.321 161.841C101.278 161.841 101.986 162.053 102.445 162.478C102.909 162.903 103.141 163.584 103.141 164.521V170H102.24ZM99.4937 169.143C100.25 169.143 100.844 168.936 101.273 168.521C101.708 168.105 101.925 167.524 101.925 166.777V166.052L100.709 166.104C99.7427 166.138 99.0444 166.289 98.6147 166.558C98.1899 166.821 97.9775 167.234 97.9775 167.795C97.9775 168.235 98.1094 168.569 98.373 168.799C98.6416 169.028 99.0151 169.143 99.4937 169.143ZM115.486 170L115.245 168.857H115.186C114.786 169.36 114.385 169.702 113.985 169.883C113.589 170.059 113.094 170.146 112.498 170.146C111.702 170.146 111.077 169.941 110.623 169.531C110.174 169.121 109.949 168.538 109.949 167.781C109.949 166.16 111.246 165.31 113.838 165.232L115.201 165.188V164.69C115.201 164.06 115.064 163.596 114.791 163.298C114.522 162.996 114.09 162.844 113.494 162.844C112.825 162.844 112.068 163.049 111.224 163.459L110.85 162.529C111.246 162.314 111.678 162.146 112.146 162.024C112.62 161.902 113.094 161.841 113.567 161.841C114.524 161.841 115.232 162.053 115.691 162.478C116.155 162.903 116.387 163.584 116.387 164.521V170H115.486ZM112.74 169.143C113.497 169.143 114.09 168.936 114.52 168.521C114.954 168.105 115.171 167.524 115.171 166.777V166.052L113.956 166.104C112.989 166.138 112.291 166.289 111.861 166.558C111.436 166.821 111.224 167.234 111.224 167.795C111.224 168.235 111.355 168.569 111.619 168.799C111.888 169.028 112.261 169.143 112.74 169.143ZM124.863 168.923H124.797C124.236 169.739 123.396 170.146 122.278 170.146C121.228 170.146 120.41 169.788 119.824 169.07C119.243 168.352 118.953 167.332 118.953 166.008C118.953 164.685 119.246 163.657 119.832 162.925C120.417 162.192 121.233 161.826 122.278 161.826C123.367 161.826 124.202 162.222 124.783 163.013H124.878L124.827 162.434L124.797 161.87V158.604H126.013V170H125.024L124.863 168.923ZM122.432 169.128C123.262 169.128 123.862 168.904 124.233 168.455C124.609 168 124.797 167.271 124.797 166.265V166.008C124.797 164.871 124.607 164.06 124.226 163.577C123.85 163.088 123.247 162.844 122.417 162.844C121.704 162.844 121.157 163.123 120.776 163.679C120.4 164.231 120.212 165.012 120.212 166.023C120.212 167.048 120.4 167.822 120.776 168.345C121.152 168.867 121.704 169.128 122.432 169.128ZM134.711 170H133.495V158.604H134.711V170ZM142.726 170L142.484 168.857H142.425C142.025 169.36 141.625 169.702 141.224 169.883C140.829 170.059 140.333 170.146 139.737 170.146C138.941 170.146 138.316 169.941 137.862 169.531C137.413 169.121 137.188 168.538 137.188 167.781C137.188 166.16 138.485 165.31 141.078 165.232L142.44 165.188V164.69C142.44 164.06 142.303 163.596 142.03 163.298C141.761 162.996 141.329 162.844 140.733 162.844C140.064 162.844 139.308 163.049 138.463 163.459L138.089 162.529C138.485 162.314 138.917 162.146 139.386 162.024C139.859 161.902 140.333 161.841 140.807 161.841C141.764 161.841 142.472 162.053 142.931 162.478C143.395 162.903 143.626 163.584 143.626 164.521V170H142.726ZM139.979 169.143C140.736 169.143 141.329 168.936 141.759 168.521C142.193 168.105 142.411 167.524 142.411 166.777V166.052L141.195 166.104C140.228 166.138 139.53 166.289 139.1 166.558C138.675 166.821 138.463 167.234 138.463 167.795C138.463 168.235 138.595 168.569 138.858 168.799C139.127 169.028 139.5 169.143 139.979 169.143ZM149.847 170.146C148.685 170.146 147.784 169.79 147.144 169.077C146.509 168.359 146.192 167.346 146.192 166.038C146.192 164.695 146.514 163.657 147.159 162.925C147.808 162.192 148.731 161.826 149.927 161.826C150.313 161.826 150.699 161.868 151.084 161.951C151.47 162.034 151.773 162.131 151.993 162.244L151.619 163.276C151.351 163.169 151.058 163.081 150.74 163.013C150.423 162.939 150.142 162.903 149.898 162.903C148.267 162.903 147.452 163.943 147.452 166.023C147.452 167.009 147.649 167.766 148.045 168.293C148.445 168.821 149.036 169.084 149.817 169.084C150.486 169.084 151.172 168.94 151.875 168.652V169.729C151.338 170.007 150.662 170.146 149.847 170.146ZM155.43 161.973V167.18C155.43 167.834 155.579 168.323 155.876 168.645C156.174 168.967 156.641 169.128 157.275 169.128C158.115 169.128 158.728 168.899 159.114 168.44C159.504 167.981 159.7 167.231 159.7 166.191V161.973H160.916V170H159.912L159.736 168.923H159.67C159.421 169.319 159.075 169.622 158.63 169.832C158.191 170.042 157.688 170.146 157.122 170.146C156.145 170.146 155.413 169.915 154.924 169.451C154.441 168.987 154.199 168.245 154.199 167.224V161.973H155.43ZM169.179 167.81C169.179 168.557 168.901 169.133 168.344 169.539C167.788 169.944 167.006 170.146 166 170.146C164.936 170.146 164.106 169.978 163.51 169.641V168.513C163.896 168.708 164.309 168.862 164.748 168.975C165.192 169.087 165.62 169.143 166.03 169.143C166.665 169.143 167.153 169.043 167.495 168.843C167.836 168.638 168.007 168.328 168.007 167.913C168.007 167.6 167.871 167.334 167.597 167.114C167.329 166.89 166.801 166.626 166.015 166.323C165.268 166.045 164.736 165.803 164.418 165.598C164.106 165.388 163.872 165.151 163.715 164.888C163.564 164.624 163.488 164.309 163.488 163.943C163.488 163.289 163.754 162.773 164.287 162.397C164.819 162.017 165.549 161.826 166.477 161.826C167.341 161.826 168.186 162.002 169.011 162.354L168.579 163.342C167.773 163.01 167.043 162.844 166.389 162.844C165.812 162.844 165.378 162.935 165.085 163.115C164.792 163.296 164.646 163.545 164.646 163.862C164.646 164.077 164.699 164.26 164.807 164.412C164.919 164.563 165.097 164.707 165.341 164.844C165.585 164.98 166.054 165.178 166.748 165.437C167.7 165.784 168.342 166.133 168.674 166.484C169.011 166.836 169.179 167.278 169.179 167.81ZM186.292 170V164.778C186.292 164.138 186.156 163.66 185.882 163.342C185.609 163.02 185.184 162.859 184.608 162.859C183.851 162.859 183.292 163.076 182.931 163.511C182.569 163.945 182.389 164.614 182.389 165.518V170H181.173V164.778C181.173 164.138 181.036 163.66 180.763 163.342C180.489 163.02 180.062 162.859 179.481 162.859C178.719 162.859 178.16 163.088 177.804 163.547C177.452 164.001 177.276 164.749 177.276 165.789V170H176.061V161.973H177.049L177.247 163.071H177.306C177.535 162.681 177.857 162.375 178.272 162.156C178.692 161.936 179.161 161.826 179.679 161.826C180.934 161.826 181.754 162.28 182.14 163.188H182.198C182.438 162.769 182.784 162.437 183.238 162.192C183.692 161.948 184.21 161.826 184.791 161.826C185.699 161.826 186.378 162.061 186.827 162.529C187.281 162.993 187.508 163.738 187.508 164.763V170H186.292ZM195.457 170L195.215 168.857H195.157C194.756 169.36 194.356 169.702 193.956 169.883C193.56 170.059 193.064 170.146 192.469 170.146C191.673 170.146 191.048 169.941 190.594 169.531C190.145 169.121 189.92 168.538 189.92 167.781C189.92 166.16 191.216 165.31 193.809 165.232L195.171 165.188V164.69C195.171 164.06 195.035 163.596 194.761 163.298C194.493 162.996 194.061 162.844 193.465 162.844C192.796 162.844 192.039 163.049 191.194 163.459L190.821 162.529C191.216 162.314 191.648 162.146 192.117 162.024C192.591 161.902 193.064 161.841 193.538 161.841C194.495 161.841 195.203 162.053 195.662 162.478C196.126 162.903 196.358 163.584 196.358 164.521V170H195.457ZM192.71 169.143C193.467 169.143 194.061 168.936 194.49 168.521C194.925 168.105 195.142 167.524 195.142 166.777V166.052L193.926 166.104C192.959 166.138 192.261 166.289 191.832 166.558C191.407 166.821 191.194 167.234 191.194 167.795C191.194 168.235 191.326 168.569 191.59 168.799C191.858 169.028 192.232 169.143 192.71 169.143ZM200.513 161.973V167.18C200.513 167.834 200.662 168.323 200.959 168.645C201.257 168.967 201.724 169.128 202.358 169.128C203.198 169.128 203.811 168.899 204.197 168.44C204.587 167.981 204.783 167.231 204.783 166.191V161.973H205.999V170H204.995L204.819 168.923H204.753C204.504 169.319 204.158 169.622 203.713 169.832C203.274 170.042 202.771 170.146 202.205 170.146C201.228 170.146 200.496 169.915 200.007 169.451C199.524 168.987 199.282 168.245 199.282 167.224V161.973H200.513ZM212.746 161.826C213.103 161.826 213.422 161.855 213.706 161.914L213.537 163.042C213.205 162.969 212.912 162.932 212.658 162.932C212.009 162.932 211.452 163.196 210.988 163.723C210.529 164.25 210.3 164.907 210.3 165.693V170H209.084V161.973H210.087L210.227 163.459H210.285C210.583 162.937 210.942 162.534 211.362 162.251C211.782 161.968 212.243 161.826 212.746 161.826ZM216.923 170H215.707V161.973H216.923V170ZM215.604 159.797C215.604 159.519 215.673 159.316 215.81 159.189C215.946 159.058 216.117 158.992 216.322 158.992C216.518 158.992 216.686 159.058 216.828 159.189C216.969 159.321 217.04 159.524 217.04 159.797C217.04 160.071 216.969 160.276 216.828 160.413C216.686 160.544 216.518 160.61 216.322 160.61C216.117 160.61 215.946 160.544 215.81 160.413C215.673 160.276 215.604 160.071 215.604 159.797ZM225.179 167.81C225.179 168.557 224.901 169.133 224.344 169.539C223.788 169.944 223.006 170.146 222 170.146C220.936 170.146 220.106 169.978 219.51 169.641V168.513C219.896 168.708 220.309 168.862 220.748 168.975C221.192 169.087 221.62 169.143 222.03 169.143C222.665 169.143 223.153 169.043 223.495 168.843C223.836 168.638 224.007 168.328 224.007 167.913C224.007 167.6 223.871 167.334 223.597 167.114C223.329 166.89 222.801 166.626 222.015 166.323C221.268 166.045 220.736 165.803 220.418 165.598C220.106 165.388 219.872 165.151 219.715 164.888C219.564 164.624 219.488 164.309 219.488 163.943C219.488 163.289 219.754 162.773 220.287 162.397C220.819 162.017 221.549 161.826 222.477 161.826C223.341 161.826 224.186 162.002 225.011 162.354L224.579 163.342C223.773 163.01 223.043 162.844 222.389 162.844C221.812 162.844 221.378 162.935 221.085 163.115C220.792 163.296 220.646 163.545 220.646 163.862C220.646 164.077 220.699 164.26 220.807 164.412C220.919 164.563 221.097 164.707 221.341 164.844C221.585 164.98 222.054 165.178 222.748 165.437C223.7 165.784 224.342 166.133 224.674 166.484C225.011 166.836 225.179 167.278 225.179 167.81Z" fill="#5D5F65"/>
<path d="M8.36 78.12C6.97333 78.12 5.72 77.8133 4.6 77.2C3.49333 76.5867 2.62 75.74 1.98 74.66C1.35333 73.5667 1.04 72.3467 1.04 71C1.04 69.6533 1.35333 68.44 1.98 67.36C2.62 66.2667 3.5 65.4133 4.62 64.8C5.74 64.1867 6.99333 63.88 8.38 63.88C9.42 63.88 10.38 64.0533 11.26 64.4C12.14 64.7467 12.8867 65.2533 13.5 65.92L12.56 66.86C11.4667 65.7533 10.0867 65.2 8.42 65.2C7.31333 65.2 6.30667 65.4533 5.4 65.96C4.49333 66.4667 3.78 67.16 3.26 68.04C2.75333 68.92 2.5 69.9067 2.5 71C2.5 72.0933 2.75333 73.08 3.26 73.96C3.78 74.84 4.49333 75.5333 5.4 76.04C6.30667 76.5467 7.31333 76.8 8.42 76.8C10.1 76.8 11.48 76.24 12.56 75.12L13.5 76.06C12.8867 76.7267 12.1333 77.24 11.24 77.6C10.36 77.9467 9.4 78.12 8.36 78.12ZM20.1863 78.1C19.1729 78.1 18.2596 77.8733 17.4463 77.42C16.6329 76.9533 15.9929 76.3133 15.5263 75.5C15.0596 74.6867 14.8263 73.7667 14.8263 72.74C14.8263 71.7133 15.0596 70.7933 15.5263 69.98C15.9929 69.1667 16.6329 68.5333 17.4463 68.08C18.2596 67.6267 19.1729 67.4 20.1863 67.4C21.1996 67.4 22.1129 67.6267 22.9263 68.08C23.7396 68.5333 24.3729 69.1667 24.8263 69.98C25.2929 70.7933 25.5263 71.7133 25.5263 72.74C25.5263 73.7667 25.2929 74.6867 24.8263 75.5C24.3729 76.3133 23.7396 76.9533 22.9263 77.42C22.1129 77.8733 21.1996 78.1 20.1863 78.1ZM20.1863 76.84C20.9329 76.84 21.5996 76.6733 22.1863 76.34C22.7863 75.9933 23.2529 75.5067 23.5863 74.88C23.9196 74.2533 24.0863 73.54 24.0863 72.74C24.0863 71.94 23.9196 71.2267 23.5863 70.6C23.2529 69.9733 22.7863 69.4933 22.1863 69.16C21.5996 68.8133 20.9329 68.64 20.1863 68.64C19.4396 68.64 18.7663 68.8133 18.1663 69.16C17.5796 69.4933 17.1129 69.9733 16.7663 70.6C16.4329 71.2267 16.2663 71.94 16.2663 72.74C16.2663 73.54 16.4329 74.2533 16.7663 74.88C17.1129 75.5067 17.5796 75.9933 18.1663 76.34C18.7663 76.6733 19.4396 76.84 20.1863 76.84ZM33.7853 67.4C35.1053 67.4 36.152 67.7867 36.9253 68.56C37.712 69.32 38.1053 70.4333 38.1053 71.9V78H36.6853V72.04C36.6853 70.9467 36.412 70.1133 35.8653 69.54C35.3186 68.9667 34.5386 68.68 33.5253 68.68C32.392 68.68 31.492 69.02 30.8253 69.7C30.172 70.3667 29.8453 71.2933 29.8453 72.48V78H28.4253V67.48H29.7853V69.42C30.172 68.78 30.7053 68.2867 31.3853 67.94C32.0786 67.58 32.8786 67.4 33.7853 67.4ZM44.7805 78.1C43.9271 78.1 43.1071 77.98 42.3205 77.74C41.5471 77.4867 40.9405 77.1733 40.5005 76.8L41.1405 75.68C41.5805 76.0267 42.1338 76.3133 42.8005 76.54C43.4671 76.7533 44.1605 76.86 44.8805 76.86C45.8405 76.86 46.5471 76.7133 47.0005 76.42C47.4671 76.1133 47.7005 75.6867 47.7005 75.14C47.7005 74.7533 47.5738 74.4533 47.3205 74.24C47.0671 74.0133 46.7471 73.8467 46.3605 73.74C45.9738 73.62 45.4605 73.5067 44.8205 73.4C43.9671 73.24 43.2805 73.08 42.7605 72.92C42.2405 72.7467 41.7938 72.46 41.4205 72.06C41.0605 71.66 40.8805 71.1067 40.8805 70.4C40.8805 69.52 41.2471 68.8 41.9805 68.24C42.7138 67.68 43.7338 67.4 45.0405 67.4C45.7205 67.4 46.4005 67.4933 47.0805 67.68C47.7605 67.8533 48.3205 68.0867 48.7605 68.38L48.1405 69.52C47.2738 68.92 46.2405 68.62 45.0405 68.62C44.1338 68.62 43.4471 68.78 42.9805 69.1C42.5271 69.42 42.3005 69.84 42.3005 70.36C42.3005 70.76 42.4271 71.08 42.6805 71.32C42.9471 71.56 43.2738 71.74 43.6605 71.86C44.0471 71.9667 44.5805 72.08 45.2605 72.2C46.1005 72.36 46.7738 72.52 47.2805 72.68C47.7871 72.84 48.2205 73.1133 48.5805 73.5C48.9405 73.8867 49.1205 74.42 49.1205 75.1C49.1205 76.02 48.7338 76.7533 47.9605 77.3C47.2005 77.8333 46.1405 78.1 44.7805 78.1ZM60.9056 73.18H52.1056C52.1856 74.2733 52.6056 75.16 53.3656 75.84C54.1256 76.5067 55.0856 76.84 56.2456 76.84C56.899 76.84 57.499 76.7267 58.0456 76.5C58.5923 76.26 59.0656 75.9133 59.4656 75.46L60.2656 76.38C59.799 76.94 59.2123 77.3667 58.5056 77.66C57.8123 77.9533 57.0456 78.1 56.2056 78.1C55.1256 78.1 54.1656 77.8733 53.3256 77.42C52.499 76.9533 51.8523 76.3133 51.3856 75.5C50.919 74.6867 50.6856 73.7667 50.6856 72.74C50.6856 71.7133 50.9056 70.7933 51.3456 69.98C51.799 69.1667 52.4123 68.5333 53.1856 68.08C53.9723 67.6267 54.8523 67.4 55.8256 67.4C56.799 67.4 57.6723 67.6267 58.4456 68.08C59.219 68.5333 59.8256 69.1667 60.2656 69.98C60.7056 70.78 60.9256 71.7 60.9256 72.74L60.9056 73.18ZM55.8256 68.62C54.8123 68.62 53.959 68.9467 53.2656 69.6C52.5856 70.24 52.199 71.08 52.1056 72.12H59.5656C59.4723 71.08 59.079 70.24 58.3856 69.6C57.7056 68.9467 56.8523 68.62 55.8256 68.62ZM68.1759 78.1C67.1359 78.1 66.2026 77.8733 65.3759 77.42C64.5626 76.9667 63.9226 76.3333 63.4559 75.52C62.9893 74.6933 62.7559 73.7667 62.7559 72.74C62.7559 71.7133 62.9893 70.7933 63.4559 69.98C63.9226 69.1667 64.5626 68.5333 65.3759 68.08C66.2026 67.6267 67.1359 67.4 68.1759 67.4C69.0826 67.4 69.8893 67.58 70.5959 67.94C71.3159 68.2867 71.8826 68.8 72.2959 69.48L71.2359 70.2C70.8893 69.68 70.4493 69.2933 69.9159 69.04C69.3826 68.7733 68.8026 68.64 68.1759 68.64C67.4159 68.64 66.7293 68.8133 66.1159 69.16C65.5159 69.4933 65.0426 69.9733 64.6959 70.6C64.3626 71.2267 64.1959 71.94 64.1959 72.74C64.1959 73.5533 64.3626 74.2733 64.6959 74.9C65.0426 75.5133 65.5159 75.9933 66.1159 76.34C66.7293 76.6733 67.4159 76.84 68.1759 76.84C68.8026 76.84 69.3826 76.7133 69.9159 76.46C70.4493 76.2067 70.8893 75.82 71.2359 75.3L72.2959 76.02C71.8826 76.7 71.3159 77.22 70.5959 77.58C69.8759 77.9267 69.0693 78.1 68.1759 78.1ZM80.7427 77.36C80.476 77.6 80.1427 77.7867 79.7427 77.92C79.356 78.04 78.9493 78.1 78.5227 78.1C77.536 78.1 76.776 77.8333 76.2427 77.3C75.7093 76.7667 75.4427 76.0133 75.4427 75.04V68.68H73.5627V67.48H75.4427V65.18H76.8627V67.48H80.0627V68.68H76.8627V74.96C76.8627 75.5867 77.016 76.0667 77.3227 76.4C77.6427 76.72 78.096 76.88 78.6827 76.88C78.976 76.88 79.256 76.8333 79.5227 76.74C79.8027 76.6467 80.0427 76.5133 80.2427 76.34L80.7427 77.36ZM92.1166 73.18H83.3166C83.3966 74.2733 83.8166 75.16 84.5766 75.84C85.3366 76.5067 86.2966 76.84 87.4566 76.84C88.1099 76.84 88.7099 76.7267 89.2566 76.5C89.8032 76.26 90.2766 75.9133 90.6766 75.46L91.4766 76.38C91.0099 76.94 90.4232 77.3667 89.7166 77.66C89.0232 77.9533 88.2566 78.1 87.4166 78.1C86.3366 78.1 85.3766 77.8733 84.5366 77.42C83.7099 76.9533 83.0632 76.3133 82.5966 75.5C82.1299 74.6867 81.8966 73.7667 81.8966 72.74C81.8966 71.7133 82.1166 70.7933 82.5566 69.98C83.0099 69.1667 83.6232 68.5333 84.3966 68.08C85.1832 67.6267 86.0632 67.4 87.0366 67.4C88.0099 67.4 88.8832 67.6267 89.6566 68.08C90.4299 68.5333 91.0366 69.1667 91.4766 69.98C91.9166 70.78 92.1366 71.7 92.1366 72.74L92.1166 73.18ZM87.0366 68.62C86.0232 68.62 85.1699 68.9467 84.4766 69.6C83.7966 70.24 83.4099 71.08 83.3166 72.12H90.7766C90.6832 71.08 90.2899 70.24 89.5966 69.6C88.9166 68.9467 88.0632 68.62 87.0366 68.62ZM100.567 77.36C100.3 77.6 99.9669 77.7867 99.5669 77.92C99.1802 78.04 98.7735 78.1 98.3469 78.1C97.3602 78.1 96.6002 77.8333 96.0669 77.3C95.5335 76.7667 95.2669 76.0133 95.2669 75.04V68.68H93.3869V67.48H95.2669V65.18H96.6869V67.48H99.8869V68.68H96.6869V74.96C96.6869 75.5867 96.8402 76.0667 97.1469 76.4C97.4669 76.72 97.9202 76.88 98.5069 76.88C98.8002 76.88 99.0802 76.8333 99.3469 76.74C99.6269 76.6467 99.8669 76.5133 100.067 76.34L100.567 77.36ZM112.632 67.48V78H111.272V76.08C110.899 76.72 110.385 77.22 109.732 77.58C109.079 77.9267 108.332 78.1 107.492 78.1C106.119 78.1 105.032 77.72 104.232 76.96C103.445 76.1867 103.052 75.06 103.052 73.58V67.48H104.472V73.44C104.472 74.5467 104.745 75.3867 105.292 75.96C105.839 76.5333 106.619 76.82 107.632 76.82C108.739 76.82 109.612 76.4867 110.252 75.82C110.892 75.14 111.212 74.2 111.212 73V67.48H112.632ZM117.969 69.54C118.302 68.8333 118.796 68.3 119.449 67.94C120.116 67.58 120.936 67.4 121.909 67.4V68.78L121.569 68.76C120.462 68.76 119.596 69.1 118.969 69.78C118.342 70.46 118.029 71.4133 118.029 72.64V78H116.609V67.48H117.969V69.54ZM138.711 67.48L134.031 78H132.571L127.911 67.48H129.391L133.331 76.44L137.311 67.48H138.711ZM149.578 73.18H140.778C140.858 74.2733 141.278 75.16 142.038 75.84C142.798 76.5067 143.758 76.84 144.918 76.84C145.571 76.84 146.171 76.7267 146.718 76.5C147.264 76.26 147.738 75.9133 148.138 75.46L148.938 76.38C148.471 76.94 147.884 77.3667 147.178 77.66C146.484 77.9533 145.718 78.1 144.878 78.1C143.798 78.1 142.838 77.8733 141.998 77.42C141.171 76.9533 140.524 76.3133 140.058 75.5C139.591 74.6867 139.358 73.7667 139.358 72.74C139.358 71.7133 139.578 70.7933 140.018 69.98C140.471 69.1667 141.084 68.5333 141.858 68.08C142.644 67.6267 143.524 67.4 144.498 67.4C145.471 67.4 146.344 67.6267 147.118 68.08C147.891 68.5333 148.498 69.1667 148.938 69.98C149.378 70.78 149.598 71.7 149.598 72.74L149.578 73.18ZM144.498 68.62C143.484 68.62 142.631 68.9467 141.938 69.6C141.258 70.24 140.871 71.08 140.778 72.12H148.238C148.144 71.08 147.751 70.24 147.058 69.6C146.378 68.9467 145.524 68.62 144.498 68.62ZM155.308 78.1C154.454 78.1 153.634 77.98 152.848 77.74C152.074 77.4867 151.468 77.1733 151.028 76.8L151.668 75.68C152.108 76.0267 152.661 76.3133 153.328 76.54C153.994 76.7533 154.688 76.86 155.408 76.86C156.368 76.86 157.074 76.7133 157.528 76.42C157.994 76.1133 158.228 75.6867 158.228 75.14C158.228 74.7533 158.101 74.4533 157.848 74.24C157.594 74.0133 157.274 73.8467 156.888 73.74C156.501 73.62 155.988 73.5067 155.348 73.4C154.494 73.24 153.808 73.08 153.288 72.92C152.768 72.7467 152.321 72.46 151.948 72.06C151.588 71.66 151.408 71.1067 151.408 70.4C151.408 69.52 151.774 68.8 152.508 68.24C153.241 67.68 154.261 67.4 155.568 67.4C156.248 67.4 156.928 67.4933 157.608 67.68C158.288 67.8533 158.848 68.0867 159.288 68.38L158.668 69.52C157.801 68.92 156.768 68.62 155.568 68.62C154.661 68.62 153.974 68.78 153.508 69.1C153.054 69.42 152.828 69.84 152.828 70.36C152.828 70.76 152.954 71.08 153.208 71.32C153.474 71.56 153.801 71.74 154.188 71.86C154.574 71.9667 155.108 72.08 155.788 72.2C156.628 72.36 157.301 72.52 157.808 72.68C158.314 72.84 158.748 73.1133 159.108 73.5C159.468 73.8867 159.648 74.42 159.648 75.1C159.648 76.02 159.261 76.7533 158.488 77.3C157.728 77.8333 156.668 78.1 155.308 78.1ZM167.813 77.36C167.546 77.6 167.213 77.7867 166.813 77.92C166.426 78.04 166.02 78.1 165.593 78.1C164.606 78.1 163.846 77.8333 163.313 77.3C162.78 76.7667 162.513 76.0133 162.513 75.04V68.68H160.633V67.48H162.513V65.18H163.933V67.48H167.133V68.68H163.933V74.96C163.933 75.5867 164.086 76.0667 164.393 76.4C164.713 76.72 165.166 76.88 165.753 76.88C166.046 76.88 166.326 76.8333 166.593 76.74C166.873 76.6467 167.113 76.5133 167.313 76.34L167.813 77.36ZM170.398 67.48H171.818V78H170.398V67.48ZM171.118 65.18C170.825 65.18 170.578 65.08 170.378 64.88C170.178 64.68 170.078 64.44 170.078 64.16C170.078 63.8933 170.178 63.66 170.378 63.46C170.578 63.26 170.825 63.16 171.118 63.16C171.411 63.16 171.658 63.26 171.858 63.46C172.058 63.6467 172.158 63.8733 172.158 64.14C172.158 64.4333 172.058 64.68 171.858 64.88C171.658 65.08 171.411 65.18 171.118 65.18ZM181.189 67.4C182.176 67.4 183.069 67.6267 183.869 68.08C184.669 68.52 185.296 69.1467 185.749 69.96C186.202 70.7733 186.429 71.7 186.429 72.74C186.429 73.78 186.202 74.7067 185.749 75.52C185.296 76.3333 184.669 76.9667 183.869 77.42C183.069 77.8733 182.176 78.1 181.189 78.1C180.309 78.1 179.516 77.9133 178.809 77.54C178.116 77.1667 177.556 76.6267 177.129 75.92V78H175.769V63.16H177.189V69.48C177.629 68.8 178.189 68.2867 178.869 67.94C179.562 67.58 180.336 67.4 181.189 67.4ZM181.089 76.84C181.822 76.84 182.489 76.6733 183.089 76.34C183.689 75.9933 184.156 75.5067 184.489 74.88C184.836 74.2533 185.009 73.54 185.009 72.74C185.009 71.94 184.836 71.2267 184.489 70.6C184.156 69.9733 183.689 69.4933 183.089 69.16C182.489 68.8133 181.822 68.64 181.089 68.64C180.342 68.64 179.669 68.8133 179.069 69.16C178.482 69.4933 178.016 69.9733 177.669 70.6C177.336 71.2267 177.169 71.94 177.169 72.74C177.169 73.54 177.336 74.2533 177.669 74.88C178.016 75.5067 178.482 75.9933 179.069 76.34C179.669 76.6733 180.342 76.84 181.089 76.84ZM198.804 67.48V78H197.444V76.08C197.07 76.72 196.557 77.22 195.904 77.58C195.25 77.9267 194.504 78.1 193.664 78.1C192.29 78.1 191.204 77.72 190.404 76.96C189.617 76.1867 189.224 75.06 189.224 73.58V67.48H190.644V73.44C190.644 74.5467 190.917 75.3867 191.464 75.96C192.01 76.5333 192.79 76.82 193.804 76.82C194.91 76.82 195.784 76.4867 196.424 75.82C197.064 75.14 197.384 74.2 197.384 73V67.48H198.804ZM202.781 63.16H204.201V78H202.781V63.16ZM217.632 67.48V78H216.272V76.08C215.899 76.72 215.385 77.22 214.732 77.58C214.079 77.9267 213.332 78.1 212.492 78.1C211.119 78.1 210.032 77.72 209.232 76.96C208.445 76.1867 208.052 75.06 208.052 73.58V67.48H209.472V73.44C209.472 74.5467 209.745 75.3867 210.292 75.96C210.839 76.5333 211.619 76.82 212.632 76.82C213.739 76.82 214.612 76.4867 215.252 75.82C215.892 75.14 216.212 74.2 216.212 73V67.48H217.632ZM234.729 67.4C236.049 67.4 237.082 67.78 237.829 68.54C238.589 69.3 238.969 70.42 238.969 71.9V78H237.549V72.04C237.549 70.9467 237.282 70.1133 236.749 69.54C236.229 68.9667 235.489 68.68 234.529 68.68C233.436 68.68 232.576 69.02 231.949 69.7C231.322 70.3667 231.009 71.2933 231.009 72.48V78H229.589V72.04C229.589 70.9467 229.322 70.1133 228.789 69.54C228.269 68.9667 227.522 68.68 226.549 68.68C225.469 68.68 224.609 69.02 223.969 69.7C223.342 70.3667 223.029 71.2933 223.029 72.48V78H221.609V67.48H222.969V69.4C223.342 68.76 223.862 68.2667 224.529 67.92C225.196 67.5733 225.962 67.4 226.829 67.4C227.709 67.4 228.469 67.5867 229.109 67.96C229.762 68.3333 230.249 68.8867 230.569 69.62C230.956 68.9267 231.509 68.3867 232.229 68C232.962 67.6 233.796 67.4 234.729 67.4Z" fill="#141720"/>
<path fill-rule="evenodd" clip-rule="evenodd" d="M30.5917 14.5509C27.8678 14.5509 25.0228 17.0098 21.6856 17.359V15.9379C21.7046 12.4479 24.3225 8.85056 28.6973 8.85056H29.5268C33.5522 8.85056 37.6904 5.66755 38.1324 0.300049H36.7045C36.2774 4.77772 32.8545 7.42548 29.5268 7.42548H28.6973C23.5215 7.42548 20.308 11.8013 20.2618 15.8877H20.2591V15.942C20.2591 15.9529 20.2577 15.9651 20.2577 15.9773H20.2591V17.3603C16.9218 17.0112 14.0769 14.5523 11.3544 14.5523C8.42239 14.5523 1 20.3626 1 31.7511C1 37.518 4.89614 37.7001 5.39251 37.7001C5.42651 37.7001 5.44419 37.7001 5.44419 37.7001C7.86347 37.7001 10.0978 36.5385 12.8897 33.7481C15.6816 30.9577 16.7981 30.2268 18.8216 30.2268C19.6281 30.2268 20.5977 30.2268 20.9159 30.2268C20.9825 30.2268 21.0315 30.2268 21.0315 30.2268C21.3483 30.2268 22.3193 30.2268 23.1257 30.2268C25.1507 30.2268 26.2658 30.9591 29.0577 33.7481C31.8496 36.5372 34.0825 37.7001 36.5032 37.7001C36.5032 37.7001 36.5209 37.7001 36.5549 37.7001C37.0499 37.7001 40.946 37.518 40.946 31.7511C40.946 20.3626 33.525 14.5523 30.593 14.5523L30.5917 14.5509ZM35.8678 35.5L35.8342 35.4987H35.8005C33.7899 35.4987 31.8857 34.4678 29.431 32.0521C26.7193 29.382 25.2497 28.2105 22.5622 28.2105H18.3042C15.6167 28.2105 14.1471 29.382 11.4354 32.0521C8.98072 34.4678 7.07646 35.4987 5.06588 35.4987L5.06857 35.4947L5.01474 35.4987C4.32571 35.4987 2.07962 35.1807 2.07962 31.0861C2.07962 20.4718 9.10049 15.7 10.9146 15.7C11.9804 15.7 13.2441 16.2593 14.5831 16.8516C16.2909 17.6069 18.2261 18.4629 20.4453 18.4802C22.6403 18.4629 24.5755 17.6056 26.2846 16.8516C27.6236 16.2593 28.8873 15.7 29.9532 15.7C31.7646 15.7 38.7868 20.4718 38.7868 31.0861C38.7868 35.182 36.5407 35.4987 35.8678 35.5Z" fill="#C71222"/>
<path fill-rule="evenodd" clip-rule="evenodd" d="M13.0918 20.1H11.5803V23.18H8.55737V24.72H11.5803V27.8H13.0918V24.72H16.1147V23.18H13.0918V20.1Z" fill="#C71222"/>
<path fill-rule="evenodd" clip-rule="evenodd" d="M27.9912 21.2C26.7987 21.2 25.8313 22.1839 25.8313 23.4C25.8313 24.6146 26.7987 25.6 27.9912 25.6C29.1837 25.6 30.1498 24.6146 30.1498 23.4C30.1498 22.1839 29.1837 21.2 27.9912 21.2ZM27.4507 23.4C27.153 23.4 26.9109 23.1525 26.9109 22.8505C26.9109 22.5464 27.154 22.3 27.4507 22.3C27.7474 22.3 27.9905 22.5464 27.9905 22.8505C27.9905 23.1535 27.7485 23.4 27.4507 23.4Z" fill="#C71222"/>
<path fill-rule="evenodd" clip-rule="evenodd" d="M33.3893 23.4C32.1968 23.4 31.2294 24.384 31.2294 25.6C31.2294 26.816 32.1968 27.8 33.3893 27.8C34.5832 27.8 35.5479 26.8146 35.5479 25.6C35.5479 24.384 34.5818 23.4 33.3893 23.4ZM32.8493 25.6C32.5519 25.6 32.309 25.3526 32.309 25.0495C32.309 24.7464 32.5519 24.5 32.8493 24.5C33.1478 24.5 33.3886 24.7464 33.3886 25.0495C33.3886 25.3526 33.1478 25.6 32.8493 25.6Z" fill="#C71222"/>
</svg>
