<svg width="163" height="19" viewBox="0 0 163 19" fill="none" xmlns="http://www.w3.org/2000/svg">
<path d="M7.96 0.379999C3.7 0.379999 0.48 3.42 0.48 7.46C0.48 11.56 3.62 14.66 7.84 14.66C9.9 14.66 12.12 13.64 13.62 12.1L11.54 9.9C10.56 10.9 9.2 11.54 8.02 11.54C5.8 11.54 4.12 9.76 4.12 7.42C4.12 5.12 5.8 3.36 8.02 3.36C9.26 3.36 10.62 4.06 11.54 5.18L13.6 2.74C12.2 1.3 10.04 0.379999 7.96 0.379999ZM19.9933 3.6C16.4533 3.6 14.0933 5.78 14.0933 9.1C14.0933 12.42 16.4533 14.62 19.9933 14.62C23.5133 14.62 25.8733 12.42 25.8733 9.1C25.8733 5.78 23.5133 3.6 19.9933 3.6ZM19.9933 6.34C21.4133 6.34 22.3933 7.48 22.3933 9.14C22.3933 10.82 21.4133 11.94 19.9933 11.94C18.5533 11.94 17.5733 10.82 17.5733 9.14C17.5733 7.48 18.5533 6.34 19.9933 6.34ZM42.1277 3.56C40.3477 3.58 39.0277 4.4 38.3277 6C37.7877 4.48 36.4877 3.56 34.7277 3.56C33.1477 3.58 31.9077 4.22 31.1677 5.5V3.72H27.7277V14.5H31.1677V9.16C31.1677 7.7 31.9877 6.64 33.3077 6.6C34.4477 6.6 35.1477 7.38 35.1477 8.66V14.5H38.6077V9.16C38.6077 7.7 39.4077 6.64 40.7077 6.6C41.8477 6.6 42.5677 7.38 42.5677 8.66V14.5H46.0077V7.7C46.0077 5.18 44.4877 3.56 42.1277 3.56ZM55.2498 3.6C53.8898 3.6 52.7898 4.16 52.0298 5.14V3.72H48.5698V18.38H52.0298V13.06C52.7898 14.06 53.9298 14.62 55.3298 14.62C58.3498 14.62 60.3098 12.44 60.3098 9.16C60.3098 5.82 58.2898 3.6 55.2498 3.6ZM54.4098 11.88C53.0098 11.88 52.0298 10.74 52.0298 9.06C52.0298 7.42 53.0098 6.26 54.4098 6.26C55.8498 6.26 56.8298 7.42 56.8298 9.06C56.8298 10.72 55.8498 11.88 54.4098 11.88ZM67.0013 3.56C65.2013 3.56 63.6813 4 62.0013 4.78L62.9813 7.06C64.1213 6.48 65.3013 6.16 66.2013 6.16C67.6013 6.16 68.3013 6.8 68.3013 7.86V8.02H65.4613C62.7813 8.04 61.3213 9.24 61.3213 11.28C61.3213 13.26 62.7213 14.66 65.0213 14.66C66.4813 14.66 67.6213 14.18 68.3213 13.26V14.5H71.7013V7.46C71.6813 5.02 69.9613 3.56 67.0013 3.56ZM66.0813 12.32C65.1213 12.32 64.5613 11.82 64.5613 11.04C64.5613 10.24 65.0813 9.88 66.1213 9.88H68.3013V10.84C68.0813 11.72 67.1613 12.32 66.0813 12.32ZM81.2134 3.56C79.6134 3.58 78.3734 4.22 77.6134 5.48V3.72H74.1534V14.5H77.6134V8.8C77.7534 7.52 78.5534 6.62 79.8134 6.62C80.9734 6.62 81.7134 7.4 81.7134 8.66V14.5H85.1534V7.7C85.1534 5.18 83.5934 3.56 81.2134 3.56ZM97.8142 3.72H94.3742L92.0342 10.88L89.3942 3.72H85.8342L90.3142 14.26L90.0542 14.8C89.7742 15.38 89.3342 15.66 88.7142 15.66C88.2142 15.66 87.7942 15.48 87.2942 15.08L85.8542 17.44C86.8142 18.18 87.7942 18.54 88.9942 18.54C90.9942 18.54 92.3542 17.58 93.1542 15.62L97.8142 3.72ZM116.644 14.5V0.499999H113.324V9.14L106.864 0.499999H103.724V14.5H107.064V5.88L113.504 14.5H116.644ZM124.267 3.56C122.467 3.56 120.947 4 119.267 4.78L120.247 7.06C121.387 6.48 122.567 6.16 123.467 6.16C124.867 6.16 125.567 6.8 125.567 7.86V8.02H122.727C120.047 8.04 118.587 9.24 118.587 11.28C118.587 13.26 119.987 14.66 122.287 14.66C123.747 14.66 124.887 14.18 125.587 13.26V14.5H128.967V7.46C128.947 5.02 127.227 3.56 124.267 3.56ZM123.347 12.32C122.387 12.32 121.827 11.82 121.827 11.04C121.827 10.24 122.347 9.88 123.387 9.88H125.567V10.84C125.347 11.72 124.427 12.32 123.347 12.32ZM145.819 3.56C144.039 3.58 142.719 4.4 142.019 6C141.479 4.48 140.179 3.56 138.419 3.56C136.839 3.58 135.599 4.22 134.859 5.5V3.72H131.419V14.5H134.859V9.16C134.859 7.7 135.679 6.64 136.999 6.6C138.139 6.6 138.839 7.38 138.839 8.66V14.5H142.299V9.16C142.299 7.7 143.099 6.64 144.399 6.6C145.539 6.6 146.259 7.38 146.259 8.66V14.5H149.699V7.7C149.699 5.18 148.179 3.56 145.819 3.56ZM156.881 3.6C153.541 3.6 151.261 5.8 151.261 9.14C151.261 12.42 153.461 14.62 156.981 14.62C158.961 14.62 160.581 13.92 161.681 12.72L159.861 10.94C159.141 11.66 158.221 12.04 157.281 12.04C156.001 12.04 155.081 11.32 154.741 10.04H162.321C162.561 6.1 160.681 3.6 156.881 3.6ZM154.681 8.18C154.901 6.88 155.721 6 156.921 6C158.161 6 159.001 6.86 159.001 8.18H154.681Z" fill="#141720"/>
</svg>
