<svg width="261" height="511" viewBox="0 0 261 511" fill="none" xmlns="http://www.w3.org/2000/svg">
<rect x="63.5" width="4" height="490" fill="#D4D4D4"/>
<g clip-path="url(#clip0)">
<path d="M8.992 167.888V170H0.528V168.32L4.848 164.24C5.30667 163.803 5.616 163.429 5.776 163.12C5.936 162.8 6.016 162.485 6.016 162.176C6.016 161.728 5.86133 161.387 5.552 161.152C5.25333 160.907 4.81067 160.784 4.224 160.784C3.73333 160.784 3.29067 160.88 2.896 161.072C2.50133 161.253 2.17067 161.531 1.904 161.904L0.016 160.688C0.453333 160.037 1.056 159.531 1.824 159.168C2.592 158.795 3.472 158.608 4.464 158.608C5.296 158.608 6.02133 158.747 6.64 159.024C7.26933 159.291 7.75467 159.675 8.096 160.176C8.448 160.667 8.624 161.248 8.624 161.92C8.624 162.528 8.496 163.099 8.24 163.632C7.984 164.165 7.488 164.773 6.752 165.456L4.176 167.888H8.992ZM14.8303 170.192C13.9023 170.192 13.0756 169.963 12.3503 169.504C11.6249 169.045 11.0543 168.384 10.6383 167.52C10.2329 166.645 10.0303 165.605 10.0303 164.4C10.0303 163.195 10.2329 162.16 10.6383 161.296C11.0543 160.421 11.6249 159.755 12.3503 159.296C13.0756 158.837 13.9023 158.608 14.8303 158.608C15.7583 158.608 16.5849 158.837 17.3103 159.296C18.0356 159.755 18.6009 160.421 19.0063 161.296C19.4223 162.16 19.6303 163.195 19.6303 164.4C19.6303 165.605 19.4223 166.645 19.0063 167.52C18.6009 168.384 18.0356 169.045 17.3103 169.504C16.5849 169.963 15.7583 170.192 14.8303 170.192ZM14.8303 168C15.5129 168 16.0463 167.707 16.4303 167.12C16.8249 166.533 17.0223 165.627 17.0223 164.4C17.0223 163.173 16.8249 162.267 16.4303 161.68C16.0463 161.093 15.5129 160.8 14.8303 160.8C14.1583 160.8 13.6249 161.093 13.2303 161.68C12.8463 162.267 12.6543 163.173 12.6543 164.4C12.6543 165.627 12.8463 166.533 13.2303 167.12C13.6249 167.707 14.1583 168 14.8303 168ZM25.6896 170.192C24.7616 170.192 23.935 169.963 23.2096 169.504C22.4843 169.045 21.9136 168.384 21.4976 167.52C21.0923 166.645 20.8896 165.605 20.8896 164.4C20.8896 163.195 21.0923 162.16 21.4976 161.296C21.9136 160.421 22.4843 159.755 23.2096 159.296C23.935 158.837 24.7616 158.608 25.6896 158.608C26.6176 158.608 27.4443 158.837 28.1696 159.296C28.895 159.755 29.4603 160.421 29.8656 161.296C30.2816 162.16 30.4896 163.195 30.4896 164.4C30.4896 165.605 30.2816 166.645 29.8656 167.52C29.4603 168.384 28.895 169.045 28.1696 169.504C27.4443 169.963 26.6176 170.192 25.6896 170.192ZM25.6896 168C26.3723 168 26.9056 167.707 27.2896 167.12C27.6843 166.533 27.8816 165.627 27.8816 164.4C27.8816 163.173 27.6843 162.267 27.2896 161.68C26.9056 161.093 26.3723 160.8 25.6896 160.8C25.0176 160.8 24.4843 161.093 24.0896 161.68C23.7056 162.267 23.5136 163.173 23.5136 164.4C23.5136 165.627 23.7056 166.533 24.0896 167.12C24.4843 167.707 25.0176 168 25.6896 168ZM36.8248 163.36C37.8061 163.52 38.5581 163.888 39.0808 164.464C39.6034 165.029 39.8648 165.733 39.8648 166.576C39.8648 167.227 39.6941 167.829 39.3528 168.384C39.0114 168.928 38.4888 169.365 37.7848 169.696C37.0914 170.027 36.2381 170.192 35.2248 170.192C34.4354 170.192 33.6568 170.091 32.8888 169.888C32.1314 169.675 31.4861 169.376 30.9527 168.992L31.9608 167.008C32.3874 167.328 32.8781 167.579 33.4328 167.76C33.9981 167.931 34.5741 168.016 35.1608 168.016C35.8114 168.016 36.3234 167.893 36.6968 167.648C37.0701 167.392 37.2568 167.035 37.2568 166.576C37.2568 165.659 36.5581 165.2 35.1608 165.2H33.9768V163.488L36.2808 160.88H31.5128V158.8H39.3528V160.48L36.8248 163.36Z" fill="#C71222"/>
<path d="M95.008 170.192C94.1227 170.192 93.264 170.075 92.432 169.84C91.6107 169.595 90.9493 169.28 90.448 168.896L91.328 166.944C91.808 167.296 92.3787 167.579 93.04 167.792C93.7013 168.005 94.3627 168.112 95.024 168.112C95.76 168.112 96.304 168.005 96.656 167.792C97.008 167.568 97.184 167.275 97.184 166.912C97.184 166.645 97.0773 166.427 96.864 166.256C96.6613 166.075 96.3947 165.931 96.064 165.824C95.744 165.717 95.3067 165.6 94.752 165.472C93.8987 165.269 93.2 165.067 92.656 164.864C92.112 164.661 91.6427 164.336 91.248 163.888C90.864 163.44 90.672 162.843 90.672 162.096C90.672 161.445 90.848 160.859 91.2 160.336C91.552 159.803 92.08 159.381 92.784 159.072C93.4987 158.763 94.368 158.608 95.392 158.608C96.1067 158.608 96.8053 158.693 97.488 158.864C98.1707 159.035 98.768 159.28 99.28 159.6L98.48 161.568C97.4453 160.981 96.4107 160.688 95.376 160.688C94.6507 160.688 94.112 160.805 93.76 161.04C93.4187 161.275 93.248 161.584 93.248 161.968C93.248 162.352 93.4453 162.64 93.84 162.832C94.2453 163.013 94.8587 163.195 95.68 163.376C96.5333 163.579 97.232 163.781 97.776 163.984C98.32 164.187 98.784 164.507 99.168 164.944C99.5627 165.381 99.76 165.973 99.76 166.72C99.76 167.36 99.5787 167.947 99.216 168.48C98.864 169.003 98.3307 169.419 97.616 169.728C96.9013 170.037 96.032 170.192 95.008 170.192ZM106.907 169.584C106.662 169.765 106.358 169.904 105.995 170C105.643 170.085 105.27 170.128 104.875 170.128C103.851 170.128 103.056 169.867 102.491 169.344C101.936 168.821 101.659 168.053 101.659 167.04V163.504H100.331V161.584H101.659V159.488H104.155V161.584H106.299V163.504H104.155V167.008C104.155 167.371 104.246 167.653 104.427 167.856C104.619 168.048 104.886 168.144 105.227 168.144C105.622 168.144 105.958 168.037 106.235 167.824L106.907 169.584ZM111.78 161.264C113.114 161.264 114.138 161.584 114.852 162.224C115.567 162.853 115.924 163.808 115.924 165.088V170H113.588V168.928C113.119 169.728 112.244 170.128 110.964 170.128C110.303 170.128 109.727 170.016 109.236 169.792C108.756 169.568 108.388 169.259 108.132 168.864C107.876 168.469 107.748 168.021 107.748 167.52C107.748 166.72 108.047 166.091 108.644 165.632C109.252 165.173 110.186 164.944 111.444 164.944H113.428C113.428 164.4 113.263 163.984 112.932 163.696C112.602 163.397 112.106 163.248 111.444 163.248C110.986 163.248 110.532 163.323 110.084 163.472C109.647 163.611 109.274 163.803 108.964 164.048L108.068 162.304C108.538 161.973 109.098 161.717 109.748 161.536C110.41 161.355 111.087 161.264 111.78 161.264ZM111.588 168.448C112.015 168.448 112.394 168.352 112.724 168.16C113.055 167.957 113.29 167.664 113.428 167.28V166.4H111.716C110.692 166.4 110.18 166.736 110.18 167.408C110.18 167.728 110.303 167.984 110.548 168.176C110.804 168.357 111.151 168.448 111.588 168.448ZM120.567 162.528C120.866 162.112 121.266 161.797 121.767 161.584C122.279 161.371 122.866 161.264 123.527 161.264V163.568C123.25 163.547 123.063 163.536 122.967 163.536C122.253 163.536 121.693 163.739 121.287 164.144C120.882 164.539 120.679 165.136 120.679 165.936V170H118.183V161.392H120.567V162.528ZM130.86 169.584C130.615 169.765 130.311 169.904 129.948 170C129.596 170.085 129.223 170.128 128.828 170.128C127.804 170.128 127.01 169.867 126.444 169.344C125.89 168.821 125.612 168.053 125.612 167.04V163.504H124.284V161.584H125.612V159.488H128.108V161.584H130.252V163.504H128.108V167.008C128.108 167.371 128.199 167.653 128.38 167.856C128.572 168.048 128.839 168.144 129.18 168.144C129.575 168.144 129.911 168.037 130.188 167.824L130.86 169.584ZM140.428 165.728C140.428 165.76 140.412 165.984 140.38 166.4H133.868C133.985 166.933 134.262 167.355 134.7 167.664C135.137 167.973 135.681 168.128 136.332 168.128C136.78 168.128 137.174 168.064 137.516 167.936C137.868 167.797 138.193 167.584 138.492 167.296L139.82 168.736C139.009 169.664 137.825 170.128 136.268 170.128C135.297 170.128 134.438 169.941 133.692 169.568C132.945 169.184 132.369 168.656 131.964 167.984C131.558 167.312 131.356 166.549 131.356 165.696C131.356 164.853 131.553 164.096 131.948 163.424C132.353 162.741 132.902 162.213 133.596 161.84C134.3 161.456 135.084 161.264 135.948 161.264C136.79 161.264 137.553 161.445 138.236 161.808C138.918 162.171 139.452 162.693 139.836 163.376C140.23 164.048 140.428 164.832 140.428 165.728ZM135.964 163.152C135.398 163.152 134.924 163.312 134.54 163.632C134.156 163.952 133.921 164.389 133.836 164.944H138.076C137.99 164.4 137.756 163.968 137.372 163.648C136.988 163.317 136.518 163.152 135.964 163.152ZM150.858 158.128V170H148.474V169.008C147.855 169.755 146.959 170.128 145.786 170.128C144.975 170.128 144.239 169.947 143.578 169.584C142.927 169.221 142.415 168.704 142.042 168.032C141.668 167.36 141.482 166.581 141.482 165.696C141.482 164.811 141.668 164.032 142.042 163.36C142.415 162.688 142.927 162.171 143.578 161.808C144.239 161.445 144.975 161.264 145.786 161.264C146.884 161.264 147.743 161.611 148.362 162.304V158.128H150.858ZM146.218 168.08C146.847 168.08 147.37 167.867 147.786 167.44C148.202 167.003 148.41 166.421 148.41 165.696C148.41 164.971 148.202 164.395 147.786 163.968C147.37 163.531 146.847 163.312 146.218 163.312C145.578 163.312 145.05 163.531 144.634 163.968C144.218 164.395 144.01 164.971 144.01 165.696C144.01 166.421 144.218 167.003 144.634 167.44C145.05 167.867 145.578 168.08 146.218 168.08Z" fill="#141720"/>
<circle cx="65.5" cy="160.5" r="11.5" fill="white" stroke="white" stroke-width="6"/>
<circle cx="65.5" cy="160.5" r="8.5" fill="white" stroke="#C71222" stroke-width="4"/>
</g>
<g clip-path="url(#clip1)">
<path d="M8.992 247.888V250H0.528V248.32L4.848 244.24C5.30667 243.803 5.616 243.429 5.776 243.12C5.936 242.8 6.016 242.485 6.016 242.176C6.016 241.728 5.86133 241.387 5.552 241.152C5.25333 240.907 4.81067 240.784 4.224 240.784C3.73333 240.784 3.29067 240.88 2.896 241.072C2.50133 241.253 2.17067 241.531 1.904 241.904L0.016 240.688C0.453333 240.037 1.056 239.531 1.824 239.168C2.592 238.795 3.472 238.608 4.464 238.608C5.296 238.608 6.02133 238.747 6.64 239.024C7.26933 239.291 7.75467 239.675 8.096 240.176C8.448 240.667 8.624 241.248 8.624 241.92C8.624 242.528 8.496 243.099 8.24 243.632C7.984 244.165 7.488 244.773 6.752 245.456L4.176 247.888H8.992ZM14.8303 250.192C13.9023 250.192 13.0756 249.963 12.3503 249.504C11.6249 249.045 11.0543 248.384 10.6383 247.52C10.2329 246.645 10.0303 245.605 10.0303 244.4C10.0303 243.195 10.2329 242.16 10.6383 241.296C11.0543 240.421 11.6249 239.755 12.3503 239.296C13.0756 238.837 13.9023 238.608 14.8303 238.608C15.7583 238.608 16.5849 238.837 17.3103 239.296C18.0356 239.755 18.6009 240.421 19.0063 241.296C19.4223 242.16 19.6303 243.195 19.6303 244.4C19.6303 245.605 19.4223 246.645 19.0063 247.52C18.6009 248.384 18.0356 249.045 17.3103 249.504C16.5849 249.963 15.7583 250.192 14.8303 250.192ZM14.8303 248C15.5129 248 16.0463 247.707 16.4303 247.12C16.8249 246.533 17.0223 245.627 17.0223 244.4C17.0223 243.173 16.8249 242.267 16.4303 241.68C16.0463 241.093 15.5129 240.8 14.8303 240.8C14.1583 240.8 13.6249 241.093 13.2303 241.68C12.8463 242.267 12.6543 243.173 12.6543 244.4C12.6543 245.627 12.8463 246.533 13.2303 247.12C13.6249 247.707 14.1583 248 14.8303 248ZM25.6896 250.192C24.7616 250.192 23.935 249.963 23.2096 249.504C22.4843 249.045 21.9136 248.384 21.4976 247.52C21.0923 246.645 20.8896 245.605 20.8896 244.4C20.8896 243.195 21.0923 242.16 21.4976 241.296C21.9136 240.421 22.4843 239.755 23.2096 239.296C23.935 238.837 24.7616 238.608 25.6896 238.608C26.6176 238.608 27.4443 238.837 28.1696 239.296C28.895 239.755 29.4603 240.421 29.8656 241.296C30.2816 242.16 30.4896 243.195 30.4896 244.4C30.4896 245.605 30.2816 246.645 29.8656 247.52C29.4603 248.384 28.895 249.045 28.1696 249.504C27.4443 249.963 26.6176 250.192 25.6896 250.192ZM25.6896 248C26.3723 248 26.9056 247.707 27.2896 247.12C27.6843 246.533 27.8816 245.627 27.8816 244.4C27.8816 243.173 27.6843 242.267 27.2896 241.68C26.9056 241.093 26.3723 240.8 25.6896 240.8C25.0176 240.8 24.4843 241.093 24.0896 241.68C23.7056 242.267 23.5136 243.173 23.5136 244.4C23.5136 245.627 23.7056 246.533 24.0896 247.12C24.4843 247.707 25.0176 248 25.6896 248ZM37.141 242.976C37.8557 242.976 38.5063 243.12 39.093 243.408C39.6797 243.696 40.1437 244.107 40.485 244.64C40.8263 245.163 40.997 245.771 40.997 246.464C40.997 247.211 40.8103 247.867 40.437 248.432C40.0637 248.997 39.5517 249.435 38.901 249.744C38.261 250.043 37.5463 250.192 36.757 250.192C35.189 250.192 33.9623 249.712 33.077 248.752C32.1917 247.792 31.749 246.421 31.749 244.64C31.749 243.371 31.989 242.283 32.469 241.376C32.949 240.469 33.6157 239.781 34.469 239.312C35.333 238.843 36.3303 238.608 37.461 238.608C38.0583 238.608 38.629 238.677 39.173 238.816C39.7277 238.944 40.197 239.131 40.581 239.376L39.621 241.28C39.0663 240.907 38.3677 240.72 37.525 240.72C36.5757 240.72 35.8237 240.997 35.269 241.552C34.7143 242.107 34.4157 242.912 34.373 243.968C35.0343 243.307 35.957 242.976 37.141 242.976ZM36.613 248.256C37.1677 248.256 37.6157 248.107 37.957 247.808C38.309 247.509 38.485 247.104 38.485 246.592C38.485 246.08 38.309 245.675 37.957 245.376C37.6157 245.067 37.157 244.912 36.581 244.912C36.0157 244.912 35.5517 245.072 35.189 245.392C34.8263 245.701 34.645 246.101 34.645 246.592C34.645 247.083 34.821 247.483 35.173 247.792C35.525 248.101 36.005 248.256 36.613 248.256Z" fill="#D4D4D4"/>
<path d="M91.328 238.8H93.92V250H91.328V238.8ZM107.426 241.264C108.503 241.264 109.357 241.584 109.986 242.224C110.626 242.853 110.946 243.803 110.946 245.072V250H108.45V245.456C108.45 244.773 108.306 244.267 108.018 243.936C107.741 243.595 107.341 243.424 106.818 243.424C106.231 243.424 105.767 243.616 105.426 244C105.085 244.373 104.914 244.933 104.914 245.68V250H102.418V245.456C102.418 244.101 101.874 243.424 100.786 243.424C100.21 243.424 99.7513 243.616 99.41 244C99.0687 244.373 98.898 244.933 98.898 245.68V250H96.402V241.392H98.786V242.384C99.106 242.021 99.4953 241.744 99.954 241.552C100.423 241.36 100.935 241.264 101.49 241.264C102.098 241.264 102.647 241.387 103.138 241.632C103.629 241.867 104.023 242.213 104.322 242.672C104.674 242.224 105.117 241.877 105.65 241.632C106.194 241.387 106.786 241.264 107.426 241.264ZM118.271 241.264C119.071 241.264 119.797 241.451 120.447 241.824C121.109 242.187 121.626 242.704 121.999 243.376C122.373 244.037 122.559 244.811 122.559 245.696C122.559 246.581 122.373 247.36 121.999 248.032C121.626 248.693 121.109 249.211 120.447 249.584C119.797 249.947 119.071 250.128 118.271 250.128C117.173 250.128 116.309 249.781 115.679 249.088V253.104H113.183V241.392H115.567V242.384C116.186 241.637 117.087 241.264 118.271 241.264ZM117.839 248.08C118.479 248.08 119.002 247.867 119.407 247.44C119.823 247.003 120.031 246.421 120.031 245.696C120.031 244.971 119.823 244.395 119.407 243.968C119.002 243.531 118.479 243.312 117.839 243.312C117.199 243.312 116.671 243.531 116.255 243.968C115.85 244.395 115.647 244.971 115.647 245.696C115.647 246.421 115.85 247.003 116.255 247.44C116.671 247.867 117.199 248.08 117.839 248.08ZM128.326 250.128C127.419 250.128 126.603 249.941 125.878 249.568C125.163 249.184 124.603 248.656 124.198 247.984C123.793 247.312 123.59 246.549 123.59 245.696C123.59 244.843 123.793 244.08 124.198 243.408C124.603 242.736 125.163 242.213 125.878 241.84C126.603 241.456 127.419 241.264 128.326 241.264C129.233 241.264 130.043 241.456 130.758 241.84C131.473 242.213 132.033 242.736 132.438 243.408C132.843 244.08 133.046 244.843 133.046 245.696C133.046 246.549 132.843 247.312 132.438 247.984C132.033 248.656 131.473 249.184 130.758 249.568C130.043 249.941 129.233 250.128 128.326 250.128ZM128.326 248.08C128.966 248.08 129.489 247.867 129.894 247.44C130.31 247.003 130.518 246.421 130.518 245.696C130.518 244.971 130.31 244.395 129.894 243.968C129.489 243.531 128.966 243.312 128.326 243.312C127.686 243.312 127.158 243.531 126.742 243.968C126.326 244.395 126.118 244.971 126.118 245.696C126.118 246.421 126.326 247.003 126.742 247.44C127.158 247.867 127.686 248.08 128.326 248.08ZM137.099 242.528C137.397 242.112 137.797 241.797 138.299 241.584C138.811 241.371 139.397 241.264 140.059 241.264V243.568C139.781 243.547 139.595 243.536 139.499 243.536C138.784 243.536 138.224 243.739 137.819 244.144C137.413 244.539 137.211 245.136 137.211 245.936V250H134.715V241.392H137.099V242.528ZM147.392 249.584C147.146 249.765 146.842 249.904 146.48 250C146.128 250.085 145.754 250.128 145.36 250.128C144.336 250.128 143.541 249.867 142.976 249.344C142.421 248.821 142.144 248.053 142.144 247.04V243.504H140.816V241.584H142.144V239.488H144.64V241.584H146.784V243.504H144.64V247.008C144.64 247.371 144.73 247.653 144.911 247.856C145.104 248.048 145.37 248.144 145.712 248.144C146.106 248.144 146.442 248.037 146.72 247.824L147.392 249.584ZM152.265 241.264C153.598 241.264 154.622 241.584 155.337 242.224C156.051 242.853 156.409 243.808 156.409 245.088V250H154.073V248.928C153.603 249.728 152.729 250.128 151.449 250.128C150.787 250.128 150.211 250.016 149.721 249.792C149.241 249.568 148.873 249.259 148.617 248.864C148.361 248.469 148.233 248.021 148.233 247.52C148.233 246.72 148.531 246.091 149.129 245.632C149.737 245.173 150.67 244.944 151.929 244.944H153.913C153.913 244.4 153.747 243.984 153.417 243.696C153.086 243.397 152.59 243.248 151.929 243.248C151.47 243.248 151.017 243.323 150.569 243.472C150.131 243.611 149.758 243.803 149.449 244.048L148.553 242.304C149.022 241.973 149.582 241.717 150.233 241.536C150.894 241.355 151.571 241.264 152.265 241.264ZM152.073 248.448C152.499 248.448 152.878 248.352 153.209 248.16C153.539 247.957 153.774 247.664 153.913 247.28V246.4H152.201C151.177 246.4 150.665 246.736 150.665 247.408C150.665 247.728 150.787 247.984 151.033 248.176C151.289 248.357 151.635 248.448 152.073 248.448ZM163.9 241.264C164.966 241.264 165.825 241.584 166.476 242.224C167.137 242.864 167.468 243.813 167.468 245.072V250H164.972V245.456C164.972 244.773 164.822 244.267 164.524 243.936C164.225 243.595 163.793 243.424 163.228 243.424C162.598 243.424 162.097 243.621 161.724 244.016C161.35 244.4 161.164 244.976 161.164 245.744V250H158.668V241.392H161.052V242.4C161.382 242.037 161.793 241.76 162.284 241.568C162.774 241.365 163.313 241.264 163.9 241.264ZM175.282 249.584C175.037 249.765 174.733 249.904 174.37 250C174.018 250.085 173.645 250.128 173.25 250.128C172.226 250.128 171.431 249.867 170.866 249.344C170.311 248.821 170.034 248.053 170.034 247.04V243.504H168.706V241.584H170.034V239.488H172.53V241.584H174.674V243.504H172.53V247.008C172.53 247.371 172.621 247.653 172.802 247.856C172.994 248.048 173.261 248.144 173.602 248.144C173.997 248.144 174.333 248.037 174.61 247.824L175.282 249.584ZM181.391 238.8H186.479C187.695 238.8 188.767 239.035 189.695 239.504C190.633 239.963 191.359 240.613 191.871 241.456C192.393 242.299 192.655 243.28 192.655 244.4C192.655 245.52 192.393 246.501 191.871 247.344C191.359 248.187 190.633 248.843 189.695 249.312C188.767 249.771 187.695 250 186.479 250H181.391V238.8ZM186.351 247.872C187.471 247.872 188.361 247.563 189.023 246.944C189.695 246.315 190.031 245.467 190.031 244.4C190.031 243.333 189.695 242.491 189.023 241.872C188.361 241.243 187.471 240.928 186.351 240.928H183.983V247.872H186.351ZM197.905 241.264C199.239 241.264 200.263 241.584 200.977 242.224C201.692 242.853 202.049 243.808 202.049 245.088V250H199.713V248.928C199.244 249.728 198.369 250.128 197.089 250.128C196.428 250.128 195.852 250.016 195.361 249.792C194.881 249.568 194.513 249.259 194.257 248.864C194.001 248.469 193.873 248.021 193.873 247.52C193.873 246.72 194.172 246.091 194.769 245.632C195.377 245.173 196.311 244.944 197.569 244.944H199.553C199.553 244.4 199.388 243.984 199.057 243.696C198.727 243.397 198.231 243.248 197.569 243.248C197.111 243.248 196.657 243.323 196.209 243.472C195.772 243.611 195.399 243.803 195.089 244.048L194.193 242.304C194.663 241.973 195.223 241.717 195.873 241.536C196.535 241.355 197.212 241.264 197.905 241.264ZM197.713 248.448C198.14 248.448 198.519 248.352 198.849 248.16C199.18 247.957 199.415 247.664 199.553 247.28V246.4H197.841C196.817 246.4 196.305 246.736 196.305 247.408C196.305 247.728 196.428 247.984 196.673 248.176C196.929 248.357 197.276 248.448 197.713 248.448ZM209.86 249.584C209.615 249.765 209.311 249.904 208.948 250C208.596 250.085 208.223 250.128 207.828 250.128C206.804 250.128 206.01 249.867 205.444 249.344C204.89 248.821 204.612 248.053 204.612 247.04V243.504H203.284V241.584H204.612V239.488H207.108V241.584H209.252V243.504H207.108V247.008C207.108 247.371 207.199 247.653 207.38 247.856C207.572 248.048 207.839 248.144 208.18 248.144C208.575 248.144 208.911 248.037 209.188 247.824L209.86 249.584ZM219.428 245.728C219.428 245.76 219.412 245.984 219.38 246.4H212.868C212.985 246.933 213.262 247.355 213.7 247.664C214.137 247.973 214.681 248.128 215.332 248.128C215.78 248.128 216.174 248.064 216.516 247.936C216.868 247.797 217.193 247.584 217.492 247.296L218.82 248.736C218.009 249.664 216.825 250.128 215.268 250.128C214.297 250.128 213.438 249.941 212.692 249.568C211.945 249.184 211.369 248.656 210.964 247.984C210.558 247.312 210.356 246.549 210.356 245.696C210.356 244.853 210.553 244.096 210.948 243.424C211.353 242.741 211.902 242.213 212.596 241.84C213.3 241.456 214.084 241.264 214.948 241.264C215.79 241.264 216.553 241.445 217.236 241.808C217.918 242.171 218.452 242.693 218.836 243.376C219.23 244.048 219.428 244.832 219.428 245.728ZM214.964 243.152C214.398 243.152 213.924 243.312 213.54 243.632C213.156 243.952 212.921 244.389 212.836 244.944H217.076C216.99 244.4 216.756 243.968 216.372 243.648C215.988 243.317 215.518 243.152 214.964 243.152ZM231.221 250.192C230.058 250.192 229.007 249.941 228.069 249.44C227.141 248.939 226.41 248.251 225.877 247.376C225.354 246.491 225.093 245.499 225.093 244.4C225.093 243.301 225.354 242.315 225.877 241.44C226.41 240.555 227.141 239.861 228.069 239.36C229.007 238.859 230.058 238.608 231.221 238.608C232.383 238.608 233.429 238.859 234.357 239.36C235.285 239.861 236.015 240.555 236.549 241.44C237.082 242.315 237.349 243.301 237.349 244.4C237.349 245.499 237.082 246.491 236.549 247.376C236.015 248.251 235.285 248.939 234.357 249.44C233.429 249.941 232.383 250.192 231.221 250.192ZM231.221 247.984C231.882 247.984 232.479 247.835 233.013 247.536C233.546 247.227 233.962 246.8 234.261 246.256C234.57 245.712 234.725 245.093 234.725 244.4C234.725 243.707 234.57 243.088 234.261 242.544C233.962 242 233.546 241.579 233.013 241.28C232.479 240.971 231.882 240.816 231.221 240.816C230.559 240.816 229.962 240.971 229.429 241.28C228.895 241.579 228.474 242 228.165 242.544C227.866 243.088 227.717 243.707 227.717 244.4C227.717 245.093 227.866 245.712 228.165 246.256C228.474 246.8 228.895 247.227 229.429 247.536C229.962 247.835 230.559 247.984 231.221 247.984ZM244.353 241.264C245.419 241.264 246.278 241.584 246.929 242.224C247.59 242.864 247.921 243.813 247.921 245.072V250H245.425V245.456C245.425 244.773 245.275 244.267 244.977 243.936C244.678 243.595 244.246 243.424 243.681 243.424C243.051 243.424 242.55 243.621 242.177 244.016C241.803 244.4 241.617 244.976 241.617 245.744V250H239.121V241.392H241.505V242.4C241.835 242.037 242.246 241.76 242.737 241.568C243.227 241.365 243.766 241.264 244.353 241.264ZM258.709 245.728C258.709 245.76 258.693 245.984 258.661 246.4H252.149C252.266 246.933 252.544 247.355 252.981 247.664C253.418 247.973 253.962 248.128 254.613 248.128C255.061 248.128 255.456 248.064 255.797 247.936C256.149 247.797 256.474 247.584 256.773 247.296L258.101 248.736C257.29 249.664 256.106 250.128 254.549 250.128C253.578 250.128 252.72 249.941 251.973 249.568C251.226 249.184 250.65 248.656 250.245 247.984C249.84 247.312 249.637 246.549 249.637 245.696C249.637 244.853 249.834 244.096 250.229 243.424C250.634 242.741 251.184 242.213 251.877 241.84C252.581 241.456 253.365 241.264 254.229 241.264C255.072 241.264 255.834 241.445 256.517 241.808C257.2 242.171 257.733 242.693 258.117 243.376C258.512 244.048 258.709 244.832 258.709 245.728ZM254.245 243.152C253.68 243.152 253.205 243.312 252.821 243.632C252.437 243.952 252.202 244.389 252.117 244.944H256.357C256.272 244.4 256.037 243.968 255.653 243.648C255.269 243.317 254.8 243.152 254.245 243.152Z" fill="#141720"/>
<circle cx="65.5" cy="240.5" r="11.5" fill="white" stroke="white" stroke-width="6"/>
<circle cx="65.5" cy="240.5" r="8.5" fill="white" stroke="#D4D4D4" stroke-width="4"/>
</g>
<g clip-path="url(#clip2)">
<path d="M8.992 348.888V351H0.528V349.32L4.848 345.24C5.30667 344.803 5.616 344.429 5.776 344.12C5.936 343.8 6.016 343.485 6.016 343.176C6.016 342.728 5.86133 342.387 5.552 342.152C5.25333 341.907 4.81067 341.784 4.224 341.784C3.73333 341.784 3.29067 341.88 2.896 342.072C2.50133 342.253 2.17067 342.531 1.904 342.904L0.016 341.688C0.453333 341.037 1.056 340.531 1.824 340.168C2.592 339.795 3.472 339.608 4.464 339.608C5.296 339.608 6.02133 339.747 6.64 340.024C7.26933 340.291 7.75467 340.675 8.096 341.176C8.448 341.667 8.624 342.248 8.624 342.92C8.624 343.528 8.496 344.099 8.24 344.632C7.984 345.165 7.488 345.773 6.752 346.456L4.176 348.888H8.992ZM14.8303 351.192C13.9023 351.192 13.0756 350.963 12.3503 350.504C11.6249 350.045 11.0543 349.384 10.6383 348.52C10.2329 347.645 10.0303 346.605 10.0303 345.4C10.0303 344.195 10.2329 343.16 10.6383 342.296C11.0543 341.421 11.6249 340.755 12.3503 340.296C13.0756 339.837 13.9023 339.608 14.8303 339.608C15.7583 339.608 16.5849 339.837 17.3103 340.296C18.0356 340.755 18.6009 341.421 19.0063 342.296C19.4223 343.16 19.6303 344.195 19.6303 345.4C19.6303 346.605 19.4223 347.645 19.0063 348.52C18.6009 349.384 18.0356 350.045 17.3103 350.504C16.5849 350.963 15.7583 351.192 14.8303 351.192ZM14.8303 349C15.5129 349 16.0463 348.707 16.4303 348.12C16.8249 347.533 17.0223 346.627 17.0223 345.4C17.0223 344.173 16.8249 343.267 16.4303 342.68C16.0463 342.093 15.5129 341.8 14.8303 341.8C14.1583 341.8 13.6249 342.093 13.2303 342.68C12.8463 343.267 12.6543 344.173 12.6543 345.4C12.6543 346.627 12.8463 347.533 13.2303 348.12C13.6249 348.707 14.1583 349 14.8303 349ZM25.1159 339.8V351H22.5239V341.88H20.2839V339.8H25.1159ZM31.8615 351.192C30.9335 351.192 30.1068 350.963 29.3815 350.504C28.6562 350.045 28.0855 349.384 27.6695 348.52C27.2642 347.645 27.0615 346.605 27.0615 345.4C27.0615 344.195 27.2642 343.16 27.6695 342.296C28.0855 341.421 28.6562 340.755 29.3815 340.296C30.1068 339.837 30.9335 339.608 31.8615 339.608C32.7895 339.608 33.6162 339.837 34.3415 340.296C35.0668 340.755 35.6322 341.421 36.0375 342.296C36.4535 343.16 36.6615 344.195 36.6615 345.4C36.6615 346.605 36.4535 347.645 36.0375 348.52C35.6322 349.384 35.0668 350.045 34.3415 350.504C33.6162 350.963 32.7895 351.192 31.8615 351.192ZM31.8615 349C32.5442 349 33.0775 348.707 33.4615 348.12C33.8562 347.533 34.0535 346.627 34.0535 345.4C34.0535 344.173 33.8562 343.267 33.4615 342.68C33.0775 342.093 32.5442 341.8 31.8615 341.8C31.1895 341.8 30.6562 342.093 30.2615 342.68C29.8775 343.267 29.6855 344.173 29.6855 345.4C29.6855 346.627 29.8775 347.533 30.2615 348.12C30.6562 348.707 31.1895 349 31.8615 349Z" fill="#D4D4D4"/>
<path d="M91.328 339.8H93.92V351H91.328V339.8ZM107.426 342.264C108.503 342.264 109.357 342.584 109.986 343.224C110.626 343.853 110.946 344.803 110.946 346.072V351H108.45V346.456C108.45 345.773 108.306 345.267 108.018 344.936C107.741 344.595 107.341 344.424 106.818 344.424C106.231 344.424 105.767 344.616 105.426 345C105.085 345.373 104.914 345.933 104.914 346.68V351H102.418V346.456C102.418 345.101 101.874 344.424 100.786 344.424C100.21 344.424 99.7513 344.616 99.41 345C99.0687 345.373 98.898 345.933 98.898 346.68V351H96.402V342.392H98.786V343.384C99.106 343.021 99.4953 342.744 99.954 342.552C100.423 342.36 100.935 342.264 101.49 342.264C102.098 342.264 102.647 342.387 103.138 342.632C103.629 342.867 104.023 343.213 104.322 343.672C104.674 343.224 105.117 342.877 105.65 342.632C106.194 342.387 106.786 342.264 107.426 342.264ZM118.271 342.264C119.071 342.264 119.797 342.451 120.447 342.824C121.109 343.187 121.626 343.704 121.999 344.376C122.373 345.037 122.559 345.811 122.559 346.696C122.559 347.581 122.373 348.36 121.999 349.032C121.626 349.693 121.109 350.211 120.447 350.584C119.797 350.947 119.071 351.128 118.271 351.128C117.173 351.128 116.309 350.781 115.679 350.088V354.104H113.183V342.392H115.567V343.384C116.186 342.637 117.087 342.264 118.271 342.264ZM117.839 349.08C118.479 349.08 119.002 348.867 119.407 348.44C119.823 348.003 120.031 347.421 120.031 346.696C120.031 345.971 119.823 345.395 119.407 344.968C119.002 344.531 118.479 344.312 117.839 344.312C117.199 344.312 116.671 344.531 116.255 344.968C115.85 345.395 115.647 345.971 115.647 346.696C115.647 347.421 115.85 348.003 116.255 348.44C116.671 348.867 117.199 349.08 117.839 349.08ZM128.326 351.128C127.419 351.128 126.603 350.941 125.878 350.568C125.163 350.184 124.603 349.656 124.198 348.984C123.793 348.312 123.59 347.549 123.59 346.696C123.59 345.843 123.793 345.08 124.198 344.408C124.603 343.736 125.163 343.213 125.878 342.84C126.603 342.456 127.419 342.264 128.326 342.264C129.233 342.264 130.043 342.456 130.758 342.84C131.473 343.213 132.033 343.736 132.438 344.408C132.843 345.08 133.046 345.843 133.046 346.696C133.046 347.549 132.843 348.312 132.438 348.984C132.033 349.656 131.473 350.184 130.758 350.568C130.043 350.941 129.233 351.128 128.326 351.128ZM128.326 349.08C128.966 349.08 129.489 348.867 129.894 348.44C130.31 348.003 130.518 347.421 130.518 346.696C130.518 345.971 130.31 345.395 129.894 344.968C129.489 344.531 128.966 344.312 128.326 344.312C127.686 344.312 127.158 344.531 126.742 344.968C126.326 345.395 126.118 345.971 126.118 346.696C126.118 347.421 126.326 348.003 126.742 348.44C127.158 348.867 127.686 349.08 128.326 349.08ZM137.099 343.528C137.397 343.112 137.797 342.797 138.299 342.584C138.811 342.371 139.397 342.264 140.059 342.264V344.568C139.781 344.547 139.595 344.536 139.499 344.536C138.784 344.536 138.224 344.739 137.819 345.144C137.413 345.539 137.211 346.136 137.211 346.936V351H134.715V342.392H137.099V343.528ZM147.392 350.584C147.146 350.765 146.842 350.904 146.48 351C146.128 351.085 145.754 351.128 145.36 351.128C144.336 351.128 143.541 350.867 142.976 350.344C142.421 349.821 142.144 349.053 142.144 348.04V344.504H140.816V342.584H142.144V340.488H144.64V342.584H146.784V344.504H144.64V348.008C144.64 348.371 144.73 348.653 144.911 348.856C145.104 349.048 145.37 349.144 145.712 349.144C146.106 349.144 146.442 349.037 146.72 348.824L147.392 350.584ZM152.265 342.264C153.598 342.264 154.622 342.584 155.337 343.224C156.051 343.853 156.409 344.808 156.409 346.088V351H154.073V349.928C153.603 350.728 152.729 351.128 151.449 351.128C150.787 351.128 150.211 351.016 149.721 350.792C149.241 350.568 148.873 350.259 148.617 349.864C148.361 349.469 148.233 349.021 148.233 348.52C148.233 347.72 148.531 347.091 149.129 346.632C149.737 346.173 150.67 345.944 151.929 345.944H153.913C153.913 345.4 153.747 344.984 153.417 344.696C153.086 344.397 152.59 344.248 151.929 344.248C151.47 344.248 151.017 344.323 150.569 344.472C150.131 344.611 149.758 344.803 149.449 345.048L148.553 343.304C149.022 342.973 149.582 342.717 150.233 342.536C150.894 342.355 151.571 342.264 152.265 342.264ZM152.073 349.448C152.499 349.448 152.878 349.352 153.209 349.16C153.539 348.957 153.774 348.664 153.913 348.28V347.4H152.201C151.177 347.4 150.665 347.736 150.665 348.408C150.665 348.728 150.787 348.984 151.033 349.176C151.289 349.357 151.635 349.448 152.073 349.448ZM163.9 342.264C164.966 342.264 165.825 342.584 166.476 343.224C167.137 343.864 167.468 344.813 167.468 346.072V351H164.972V346.456C164.972 345.773 164.822 345.267 164.524 344.936C164.225 344.595 163.793 344.424 163.228 344.424C162.598 344.424 162.097 344.621 161.724 345.016C161.35 345.4 161.164 345.976 161.164 346.744V351H158.668V342.392H161.052V343.4C161.382 343.037 161.793 342.76 162.284 342.568C162.774 342.365 163.313 342.264 163.9 342.264ZM175.282 350.584C175.037 350.765 174.733 350.904 174.37 351C174.018 351.085 173.645 351.128 173.25 351.128C172.226 351.128 171.431 350.867 170.866 350.344C170.311 349.821 170.034 349.053 170.034 348.04V344.504H168.706V342.584H170.034V340.488H172.53V342.584H174.674V344.504H172.53V348.008C172.53 348.371 172.621 348.653 172.802 348.856C172.994 349.048 173.261 349.144 173.602 349.144C173.997 349.144 174.333 349.037 174.61 348.824L175.282 350.584ZM181.391 339.8H186.479C187.695 339.8 188.767 340.035 189.695 340.504C190.633 340.963 191.359 341.613 191.871 342.456C192.393 343.299 192.655 344.28 192.655 345.4C192.655 346.52 192.393 347.501 191.871 348.344C191.359 349.187 190.633 349.843 189.695 350.312C188.767 350.771 187.695 351 186.479 351H181.391V339.8ZM186.351 348.872C187.471 348.872 188.361 348.563 189.023 347.944C189.695 347.315 190.031 346.467 190.031 345.4C190.031 344.333 189.695 343.491 189.023 342.872C188.361 342.243 187.471 341.928 186.351 341.928H183.983V348.872H186.351ZM197.905 342.264C199.239 342.264 200.263 342.584 200.977 343.224C201.692 343.853 202.049 344.808 202.049 346.088V351H199.713V349.928C199.244 350.728 198.369 351.128 197.089 351.128C196.428 351.128 195.852 351.016 195.361 350.792C194.881 350.568 194.513 350.259 194.257 349.864C194.001 349.469 193.873 349.021 193.873 348.52C193.873 347.72 194.172 347.091 194.769 346.632C195.377 346.173 196.311 345.944 197.569 345.944H199.553C199.553 345.4 199.388 344.984 199.057 344.696C198.727 344.397 198.231 344.248 197.569 344.248C197.111 344.248 196.657 344.323 196.209 344.472C195.772 344.611 195.399 344.803 195.089 345.048L194.193 343.304C194.663 342.973 195.223 342.717 195.873 342.536C196.535 342.355 197.212 342.264 197.905 342.264ZM197.713 349.448C198.14 349.448 198.519 349.352 198.849 349.16C199.18 348.957 199.415 348.664 199.553 348.28V347.4H197.841C196.817 347.4 196.305 347.736 196.305 348.408C196.305 348.728 196.428 348.984 196.673 349.176C196.929 349.357 197.276 349.448 197.713 349.448ZM209.86 350.584C209.615 350.765 209.311 350.904 208.948 351C208.596 351.085 208.223 351.128 207.828 351.128C206.804 351.128 206.01 350.867 205.444 350.344C204.89 349.821 204.612 349.053 204.612 348.04V344.504H203.284V342.584H204.612V340.488H207.108V342.584H209.252V344.504H207.108V348.008C207.108 348.371 207.199 348.653 207.38 348.856C207.572 349.048 207.839 349.144 208.18 349.144C208.575 349.144 208.911 349.037 209.188 348.824L209.86 350.584ZM219.428 346.728C219.428 346.76 219.412 346.984 219.38 347.4H212.868C212.985 347.933 213.262 348.355 213.7 348.664C214.137 348.973 214.681 349.128 215.332 349.128C215.78 349.128 216.174 349.064 216.516 348.936C216.868 348.797 217.193 348.584 217.492 348.296L218.82 349.736C218.009 350.664 216.825 351.128 215.268 351.128C214.297 351.128 213.438 350.941 212.692 350.568C211.945 350.184 211.369 349.656 210.964 348.984C210.558 348.312 210.356 347.549 210.356 346.696C210.356 345.853 210.553 345.096 210.948 344.424C211.353 343.741 211.902 343.213 212.596 342.84C213.3 342.456 214.084 342.264 214.948 342.264C215.79 342.264 216.553 342.445 217.236 342.808C217.918 343.171 218.452 343.693 218.836 344.376C219.23 345.048 219.428 345.832 219.428 346.728ZM214.964 344.152C214.398 344.152 213.924 344.312 213.54 344.632C213.156 344.952 212.921 345.389 212.836 345.944H217.076C216.99 345.4 216.756 344.968 216.372 344.648C215.988 344.317 215.518 344.152 214.964 344.152ZM93.648 367.912H90.064V365.8H99.824V367.912H96.24V377H93.648V367.912ZM114.351 368.392L111.231 377H108.831L106.895 371.656L104.895 377H102.495L99.391 368.392H101.743L103.775 374.216L105.887 368.392H107.999L110.047 374.216L112.143 368.392H114.351ZM119.373 377.128C118.466 377.128 117.65 376.941 116.925 376.568C116.21 376.184 115.65 375.656 115.245 374.984C114.84 374.312 114.637 373.549 114.637 372.696C114.637 371.843 114.84 371.08 115.245 370.408C115.65 369.736 116.21 369.213 116.925 368.84C117.65 368.456 118.466 368.264 119.373 368.264C120.28 368.264 121.09 368.456 121.805 368.84C122.52 369.213 123.08 369.736 123.485 370.408C123.89 371.08 124.093 371.843 124.093 372.696C124.093 373.549 123.89 374.312 123.485 374.984C123.08 375.656 122.52 376.184 121.805 376.568C121.09 376.941 120.28 377.128 119.373 377.128ZM119.373 375.08C120.013 375.08 120.536 374.867 120.941 374.44C121.357 374.003 121.565 373.421 121.565 372.696C121.565 371.971 121.357 371.395 120.941 370.968C120.536 370.531 120.013 370.312 119.373 370.312C118.733 370.312 118.205 370.531 117.789 370.968C117.373 371.395 117.165 371.971 117.165 372.696C117.165 373.421 117.373 374.003 117.789 374.44C118.205 374.867 118.733 375.08 119.373 375.08Z" fill="#141720"/>
<circle cx="65.5" cy="341.5" r="11.5" fill="white" stroke="white" stroke-width="6"/>
<circle cx="65.5" cy="341.5" r="8.5" fill="white" stroke="#D4D4D4" stroke-width="4"/>
</g>
<g clip-path="url(#clip3)">
<path d="M8.992 508.888V511H0.528V509.32L4.848 505.24C5.30667 504.803 5.616 504.429 5.776 504.12C5.936 503.8 6.016 503.485 6.016 503.176C6.016 502.728 5.86133 502.387 5.552 502.152C5.25333 501.907 4.81067 501.784 4.224 501.784C3.73333 501.784 3.29067 501.88 2.896 502.072C2.50133 502.253 2.17067 502.531 1.904 502.904L0.016 501.688C0.453333 501.037 1.056 500.531 1.824 500.168C2.592 499.795 3.472 499.608 4.464 499.608C5.296 499.608 6.02133 499.747 6.64 500.024C7.26933 500.291 7.75467 500.675 8.096 501.176C8.448 501.667 8.624 502.248 8.624 502.92C8.624 503.528 8.496 504.099 8.24 504.632C7.984 505.165 7.488 505.773 6.752 506.456L4.176 508.888H8.992ZM14.8303 511.192C13.9023 511.192 13.0756 510.963 12.3503 510.504C11.6249 510.045 11.0543 509.384 10.6383 508.52C10.2329 507.645 10.0303 506.605 10.0303 505.4C10.0303 504.195 10.2329 503.16 10.6383 502.296C11.0543 501.421 11.6249 500.755 12.3503 500.296C13.0756 499.837 13.9023 499.608 14.8303 499.608C15.7583 499.608 16.5849 499.837 17.3103 500.296C18.0356 500.755 18.6009 501.421 19.0063 502.296C19.4223 503.16 19.6303 504.195 19.6303 505.4C19.6303 506.605 19.4223 507.645 19.0063 508.52C18.6009 509.384 18.0356 510.045 17.3103 510.504C16.5849 510.963 15.7583 511.192 14.8303 511.192ZM14.8303 509C15.5129 509 16.0463 508.707 16.4303 508.12C16.8249 507.533 17.0223 506.627 17.0223 505.4C17.0223 504.173 16.8249 503.267 16.4303 502.68C16.0463 502.093 15.5129 501.8 14.8303 501.8C14.1583 501.8 13.6249 502.093 13.2303 502.68C12.8463 503.267 12.6543 504.173 12.6543 505.4C12.6543 506.627 12.8463 507.533 13.2303 508.12C13.6249 508.707 14.1583 509 14.8303 509ZM25.1159 499.8V511H22.5239V501.88H20.2839V499.8H25.1159ZM32.4535 503.976C33.1682 503.976 33.8188 504.12 34.4055 504.408C34.9922 504.696 35.4562 505.107 35.7975 505.64C36.1388 506.163 36.3095 506.771 36.3095 507.464C36.3095 508.211 36.1228 508.867 35.7495 509.432C35.3762 509.997 34.8642 510.435 34.2135 510.744C33.5735 511.043 32.8588 511.192 32.0695 511.192C30.5015 511.192 29.2748 510.712 28.3895 509.752C27.5042 508.792 27.0615 507.421 27.0615 505.64C27.0615 504.371 27.3015 503.283 27.7815 502.376C28.2615 501.469 28.9282 500.781 29.7815 500.312C30.6455 499.843 31.6428 499.608 32.7735 499.608C33.3708 499.608 33.9415 499.677 34.4855 499.816C35.0402 499.944 35.5095 500.131 35.8935 500.376L34.9335 502.28C34.3788 501.907 33.6802 501.72 32.8375 501.72C31.8882 501.72 31.1362 501.997 30.5815 502.552C30.0268 503.107 29.7282 503.912 29.6855 504.968C30.3468 504.307 31.2695 503.976 32.4535 503.976ZM31.9255 509.256C32.4802 509.256 32.9282 509.107 33.2695 508.808C33.6215 508.509 33.7975 508.104 33.7975 507.592C33.7975 507.08 33.6215 506.675 33.2695 506.376C32.9282 506.067 32.4695 505.912 31.8935 505.912C31.3282 505.912 30.8642 506.072 30.5015 506.392C30.1388 506.701 29.9575 507.101 29.9575 507.592C29.9575 508.083 30.1335 508.483 30.4855 508.792C30.8375 509.101 31.3175 509.256 31.9255 509.256Z" fill="#D4D4D4"/>
<path d="M96.688 511.192C95.5467 511.192 94.512 510.947 93.584 510.456C92.6667 509.955 91.9413 509.267 91.408 508.392C90.8853 507.507 90.624 506.509 90.624 505.4C90.624 504.291 90.8853 503.299 91.408 502.424C91.9413 501.539 92.6667 500.851 93.584 500.36C94.512 499.859 95.552 499.608 96.704 499.608C97.6747 499.608 98.5493 499.779 99.328 500.12C100.117 500.461 100.779 500.952 101.312 501.592L99.648 503.128C98.8907 502.253 97.952 501.816 96.832 501.816C96.1387 501.816 95.52 501.971 94.976 502.28C94.432 502.579 94.0053 503 93.696 503.544C93.3973 504.088 93.248 504.707 93.248 505.4C93.248 506.093 93.3973 506.712 93.696 507.256C94.0053 507.8 94.432 508.227 94.976 508.536C95.52 508.835 96.1387 508.984 96.832 508.984C97.952 508.984 98.8907 508.541 99.648 507.656L101.312 509.192C100.779 509.843 100.117 510.339 99.328 510.68C98.5387 511.021 97.6587 511.192 96.688 511.192ZM111.34 502.392V511H108.972V509.976C108.641 510.349 108.246 510.637 107.788 510.84C107.329 511.032 106.833 511.128 106.3 511.128C105.169 511.128 104.273 510.803 103.612 510.152C102.95 509.501 102.62 508.536 102.62 507.256V502.392H105.116V506.888C105.116 508.275 105.697 508.968 106.86 508.968C107.457 508.968 107.937 508.776 108.3 508.392C108.662 507.997 108.844 507.416 108.844 506.648V502.392H111.34ZM116.036 503.528C116.335 503.112 116.735 502.797 117.236 502.584C117.748 502.371 118.335 502.264 118.996 502.264V504.568C118.719 504.547 118.532 504.536 118.436 504.536C117.721 504.536 117.161 504.739 116.756 505.144C116.351 505.539 116.148 506.136 116.148 506.936V511H113.652V502.392H116.036V503.528ZM122.864 503.528C123.163 503.112 123.563 502.797 124.064 502.584C124.576 502.371 125.163 502.264 125.824 502.264V504.568C125.547 504.547 125.36 504.536 125.264 504.536C124.549 504.536 123.989 504.739 123.584 505.144C123.179 505.539 122.976 506.136 122.976 506.936V511H120.48V502.392H122.864V503.528ZM135.662 506.728C135.662 506.76 135.646 506.984 135.614 507.4H129.102C129.219 507.933 129.497 508.355 129.934 508.664C130.371 508.973 130.915 509.128 131.566 509.128C132.014 509.128 132.409 509.064 132.75 508.936C133.102 508.797 133.427 508.584 133.726 508.296L135.054 509.736C134.243 510.664 133.059 511.128 131.502 511.128C130.531 511.128 129.673 510.941 128.926 510.568C128.179 510.184 127.603 509.656 127.198 508.984C126.793 508.312 126.59 507.549 126.59 506.696C126.59 505.853 126.787 505.096 127.182 504.424C127.587 503.741 128.137 503.213 128.83 502.84C129.534 502.456 130.318 502.264 131.182 502.264C132.025 502.264 132.787 502.445 133.47 502.808C134.153 503.171 134.686 503.693 135.07 504.376C135.465 505.048 135.662 505.832 135.662 506.728ZM131.198 504.152C130.633 504.152 130.158 504.312 129.774 504.632C129.39 504.952 129.155 505.389 129.07 505.944H133.31C133.225 505.4 132.99 504.968 132.606 504.648C132.222 504.317 131.753 504.152 131.198 504.152ZM142.556 502.264C143.623 502.264 144.481 502.584 145.132 503.224C145.793 503.864 146.124 504.813 146.124 506.072V511H143.628V506.456C143.628 505.773 143.479 505.267 143.18 504.936C142.881 504.595 142.449 504.424 141.884 504.424C141.255 504.424 140.753 504.621 140.38 505.016C140.007 505.4 139.82 505.976 139.82 506.744V511H137.324V502.392H139.708V503.4C140.039 503.037 140.449 502.76 140.94 502.568C141.431 502.365 141.969 502.264 142.556 502.264ZM153.938 510.584C153.693 510.765 153.389 510.904 153.026 511C152.674 511.085 152.301 511.128 151.906 511.128C150.882 511.128 150.088 510.867 149.522 510.344C148.968 509.821 148.69 509.053 148.69 508.04V504.504H147.362V502.584H148.69V500.488H151.186V502.584H153.33V504.504H151.186V508.008C151.186 508.371 151.277 508.653 151.458 508.856C151.65 509.048 151.917 509.144 152.258 509.144C152.653 509.144 152.989 509.037 153.266 508.824L153.938 510.584ZM162.367 501.912H158.783V499.8H168.543V501.912H164.959V511H162.367V501.912ZM169.574 502.392H172.07V511H169.574V502.392ZM170.822 501.192C170.363 501.192 169.99 501.059 169.702 500.792C169.414 500.525 169.27 500.195 169.27 499.8C169.27 499.405 169.414 499.075 169.702 498.808C169.99 498.541 170.363 498.408 170.822 498.408C171.281 498.408 171.654 498.536 171.942 498.792C172.23 499.048 172.374 499.368 172.374 499.752C172.374 500.168 172.23 500.515 171.942 500.792C171.654 501.059 171.281 501.192 170.822 501.192ZM185.41 502.264C186.488 502.264 187.341 502.584 187.97 503.224C188.61 503.853 188.93 504.803 188.93 506.072V511H186.434V506.456C186.434 505.773 186.29 505.267 186.002 504.936C185.725 504.595 185.325 504.424 184.802 504.424C184.216 504.424 183.752 504.616 183.41 505C183.069 505.373 182.898 505.933 182.898 506.68V511H180.402V506.456C180.402 505.101 179.858 504.424 178.77 504.424C178.194 504.424 177.736 504.616 177.394 505C177.053 505.373 176.882 505.933 176.882 506.68V511H174.386V502.392H176.77V503.384C177.09 503.021 177.48 502.744 177.938 502.552C178.408 502.36 178.92 502.264 179.474 502.264C180.082 502.264 180.632 502.387 181.122 502.632C181.613 502.867 182.008 503.213 182.306 503.672C182.658 503.224 183.101 502.877 183.634 502.632C184.178 502.387 184.77 502.264 185.41 502.264ZM199.693 506.728C199.693 506.76 199.677 506.984 199.645 507.4H193.133C193.251 507.933 193.528 508.355 193.965 508.664C194.403 508.973 194.947 509.128 195.597 509.128C196.045 509.128 196.44 509.064 196.781 508.936C197.133 508.797 197.459 508.584 197.757 508.296L199.085 509.736C198.275 510.664 197.091 511.128 195.533 511.128C194.563 511.128 193.704 510.941 192.957 510.568C192.211 510.184 191.635 509.656 191.229 508.984C190.824 508.312 190.621 507.549 190.621 506.696C190.621 505.853 190.819 505.096 191.213 504.424C191.619 503.741 192.168 503.213 192.861 502.84C193.565 502.456 194.349 502.264 195.213 502.264C196.056 502.264 196.819 502.445 197.501 502.808C198.184 503.171 198.717 503.693 199.101 504.376C199.496 505.048 199.693 505.832 199.693 506.728ZM195.229 504.152C194.664 504.152 194.189 504.312 193.805 504.632C193.421 504.952 193.187 505.389 193.101 505.944H197.341C197.256 505.4 197.021 504.968 196.637 504.648C196.253 504.317 195.784 504.152 195.229 504.152Z" fill="#141720"/>
<circle cx="65.5" cy="501.5" r="11.5" fill="white" stroke="white" stroke-width="6"/>
<circle cx="65.5" cy="501.5" r="8.5" fill="white" stroke="#D4D4D4" stroke-width="4"/>
</g>
<defs>
<clipPath id="clip0">
<rect width="236" height="19" fill="white" transform="translate(0 151)"/>
</clipPath>
<clipPath id="clip1">
<rect width="261" height="19" fill="white" transform="translate(0 231)"/>
</clipPath>
<clipPath id="clip2">
<rect width="258" height="19" fill="white" transform="translate(0 332)"/>
</clipPath>
<clipPath id="clip3">
<rect width="236" height="19" fill="white" transform="translate(0 492)"/>
</clipPath>
</defs>
</svg>
